<svg width="340" height="461" viewBox="0 0 340 461" fill="none" xmlns="http://www.w3.org/2000/svg">
    <g id="wrapper">
        <g id="Property 1=Default">
            <g id="Wrapper" filter="url(#filter0_d_418_866)">
                <path d="M20 20L29 29H20V20Z" fill="#CDCBBC" />
                <path d="M136 148V136L148 148H136Z" fill="#CDCBBC" />
                <path
                    d="M148 61.1424L106 20L20 20C61.6573 63.5697 103.5 105.07 148 148L148 61.1424Z"
                    fill="#F5F0D6" />
            </g>
            <g id="info" clip-path="url(#clip0_418_866)">
                <path id="Exclude" fill-rule="evenodd" clip-rule="evenodd"
                    d="M102.5 77.4334C105.132 77.4334 107.699 76.7769 110 75.5506V81.1822C110 81.7509 110.433 82.2078 110.962 82.2078C111.238 82.2078 111.505 82.0819 111.689 81.8582L115.302 77.4526L117.844 82.8745C118.19 83.6111 119.03 83.9094 119.721 83.5411C120.412 83.1728 120.693 82.2777 120.347 81.5411L117.866 76.2405H123.033C123.567 76.2405 124 75.7789 124 75.2102C124 74.9165 123.882 74.6368 123.676 74.4409L117.106 68.2189C118.339 65.7691 119 63.0218 119 60.2034C119 55.6336 117.262 51.2511 114.167 48.0198C111.073 44.7886 106.876 42.9733 102.5 42.9733C98.1239 42.9733 93.9271 44.7886 90.8327 48.0198C87.7384 51.2511 86 55.6336 86 60.2034C86 64.7731 87.7384 69.1556 90.8327 72.3869C93.9271 75.6181 98.1239 77.4334 102.5 77.4334ZM117.106 68.2189C116.34 69.7411 115.353 71.1485 114.167 72.3869C112.934 73.6749 111.525 74.7379 110 75.5506V63.8955C110 63.2988 110.455 62.814 111.015 62.814C111.264 62.814 111.501 62.9119 111.689 63.089L117.106 68.2189ZM99.9219 65.5878H101.469V61.2802H99.9219C99.0646 61.2802 98.375 60.5601 98.375 59.6649C98.375 58.7698 99.0646 58.0496 99.9219 58.0496H103.016C103.873 58.0496 104.562 58.7698 104.562 59.6649V61.1076H104V61.8932H104.562V65.5878H104.857L104.034 66.4105L104.589 66.966L105.789 65.7667C106.286 66.0345 106.625 66.5758 106.625 67.2031C106.625 68.0982 105.935 68.8184 105.078 68.8184H99.9219C99.0646 68.8184 98.375 68.0982 98.375 67.2031C98.375 66.3079 99.0646 65.5878 99.9219 65.5878ZM105.789 65.7667L108.39 63.1662L107.834 62.6106L104.857 65.5878H105.078C105.335 65.5878 105.576 65.6523 105.789 65.7667ZM104.562 61.8932H107.535V61.1076H104.562V61.8932ZM102.5 51.5883C103.047 51.5883 103.572 51.8152 103.958 52.2191C104.345 52.623 104.562 53.1709 104.562 53.7421C104.562 54.3133 104.345 54.8611 103.958 55.265C103.572 55.6689 103.047 55.8958 102.5 55.8958C101.953 55.8958 101.428 55.6689 101.042 55.265C100.655 54.8611 100.438 54.3133 100.438 53.7421C100.438 53.1709 100.655 52.623 101.042 52.2191C101.428 51.8152 101.953 51.5883 102.5 51.5883ZM115 56.5555L111.167 60.3885L110.612 59.8329L114.444 56L115 56.5555ZM104.002 56.5557L107.834 60.3885L108.39 59.833L104.557 56.0001L104.002 56.5557ZM114.998 61.8932H111.463V61.1076H114.998V61.8932ZM109.106 56.0008V59.5362H109.892V56.0008H109.106Z"
                    fill="black" />
            </g>
        </g>
        <g id="Property 1=Done">
            <g id="Wrapper_2" filter="url(#filter1_d_418_866)">
                <path d="M20 168L29 177H20V168Z" fill="#4E7540" />
                <path d="M136 296V284L148 296H136Z" fill="#4E7540" />
                <path
                    d="M148 209.142L106 168L20 168C61.6573 211.57 103.5 253.07 148 296L148 209.142Z"
                    fill="#5C9F44" />
            </g>
            <g id="ststus holder">
                <text id="status" transform="translate(94.4053 172) rotate(45)" fill="#434343"
                    xml:space="preserve" style="white-space: pre" font-family="Handlee"
                    font-size="32" letter-spacing="0em"><tspan x="0" y="30.028">Done</tspan></text>
            </g>
        </g>
        <g id="Property 1=ondev">
            <g id="Wrapper_3" filter="url(#filter2_d_418_866)">
                <path d="M20 316L29 325H20V316Z" fill="#3E5774" />
                <path d="M136 444V432L148 444H136Z" fill="#3E5774" />
                <path
                    d="M148 357.142L106 316L20 316C61.6573 359.57 103.5 401.07 148 444L148 357.142Z"
                    fill="#2D69AF" />
            </g>
            <g id="ststus holder_2" clip-path="url(#clip1_418_866)">
                <text id="status_2" transform="translate(72.4053 310) rotate(45)" fill="#434343"
                    xml:space="preserve" style="white-space: pre" font-family="Handlee"
                    font-size="28" letter-spacing="0em"><tspan x="0" y="25.962">ON DEV</tspan></text>
            </g>
        </g>
        <g id="Property 1=suspended">
            <g id="Wrapper_4" filter="url(#filter3_d_418_866)">
                <path d="M190 20L199 29H190V20Z" fill="#968D5D" />
                <path d="M306 148V136L318 148H306Z" fill="#968D5D" />
                <path
                    d="M318 61.1424L276 20L190 20C231.657 63.5697 273.5 105.07 318 148L318 61.1424Z"
                    fill="#EED22F" />
            </g>
            <g id="ststus holder_3" clip-path="url(#clip2_418_866)">
                <text id="status_3" transform="translate(238.163 16) rotate(45)" fill="#434343"
                    xml:space="preserve" style="white-space: pre" font-family="Handlee"
                    font-size="28" letter-spacing="-0.04em"><tspan x="0" y="25.962">Suspended</tspan></text>
            </g>
        </g>
        <g id="Property 1=Dropped">
            <g id="Wrapper_5" filter="url(#filter4_d_418_866)">
                <path d="M190 168L199 177H190V168Z" fill="#893649" />
                <path d="M306 296V284L318 296H306Z" fill="#893649" />
                <path
                    d="M318 209.142L276 168L190 168C231.657 211.57 273.5 253.07 318 296L318 209.142Z"
                    fill="#C9274C" />
            </g>
            <g id="ststus holder_4" clip-path="url(#clip3_418_866)">
                <text id="status_4" transform="translate(247.163 167) rotate(45)" fill="#434343"
                    xml:space="preserve" style="white-space: pre" font-family="Handlee"
                    font-size="28" letter-spacing="0em"><tspan x="0" y="25.962">Dropped</tspan></text>
            </g>
        </g>
        <rect x="0.5" y="0.5" width="339" height="460" rx="4.5" stroke="#9747FF"
            stroke-dasharray="10 5" />
    </g>
    <defs>
        <filter id="filter0_d_418_866" x="16" y="20" width="136" height="136"
            filterUnits="userSpaceOnUse" color-interpolation-filters="sRGB">
            <feFlood flood-opacity="0" result="BackgroundImageFix" />
            <feColorMatrix in="SourceAlpha" type="matrix"
                values="0 0 0 0 0 0 0 0 0 0 0 0 0 0 0 0 0 0 127 0" result="hardAlpha" />
            <feOffset dy="4" />
            <feGaussianBlur stdDeviation="2" />
            <feComposite in2="hardAlpha" operator="out" />
            <feColorMatrix type="matrix" values="0 0 0 0 0 0 0 0 0 0 0 0 0 0 0 0 0 0 0.25 0" />
            <feBlend mode="normal" in2="BackgroundImageFix" result="effect1_dropShadow_418_866" />
            <feBlend mode="normal" in="SourceGraphic" in2="effect1_dropShadow_418_866"
                result="shape" />
        </filter>
        <filter id="filter1_d_418_866" x="16" y="168" width="136" height="136"
            filterUnits="userSpaceOnUse" color-interpolation-filters="sRGB">
            <feFlood flood-opacity="0" result="BackgroundImageFix" />
            <feColorMatrix in="SourceAlpha" type="matrix"
                values="0 0 0 0 0 0 0 0 0 0 0 0 0 0 0 0 0 0 127 0" result="hardAlpha" />
            <feOffset dy="4" />
            <feGaussianBlur stdDeviation="2" />
            <feComposite in2="hardAlpha" operator="out" />
            <feColorMatrix type="matrix" values="0 0 0 0 0 0 0 0 0 0 0 0 0 0 0 0 0 0 0.25 0" />
            <feBlend mode="normal" in2="BackgroundImageFix" result="effect1_dropShadow_418_866" />
            <feBlend mode="normal" in="SourceGraphic" in2="effect1_dropShadow_418_866"
                result="shape" />
        </filter>
        <filter id="filter2_d_418_866" x="16" y="316" width="136" height="136"
            filterUnits="userSpaceOnUse" color-interpolation-filters="sRGB">
            <feFlood flood-opacity="0" result="BackgroundImageFix" />
            <feColorMatrix in="SourceAlpha" type="matrix"
                values="0 0 0 0 0 0 0 0 0 0 0 0 0 0 0 0 0 0 127 0" result="hardAlpha" />
            <feOffset dy="4" />
            <feGaussianBlur stdDeviation="2" />
            <feComposite in2="hardAlpha" operator="out" />
            <feColorMatrix type="matrix" values="0 0 0 0 0 0 0 0 0 0 0 0 0 0 0 0 0 0 0.25 0" />
            <feBlend mode="normal" in2="BackgroundImageFix" result="effect1_dropShadow_418_866" />
            <feBlend mode="normal" in="SourceGraphic" in2="effect1_dropShadow_418_866"
                result="shape" />
        </filter>
        <filter id="filter3_d_418_866" x="186" y="20" width="136" height="136"
            filterUnits="userSpaceOnUse" color-interpolation-filters="sRGB">
            <feFlood flood-opacity="0" result="BackgroundImageFix" />
            <feColorMatrix in="SourceAlpha" type="matrix"
                values="0 0 0 0 0 0 0 0 0 0 0 0 0 0 0 0 0 0 127 0" result="hardAlpha" />
            <feOffset dy="4" />
            <feGaussianBlur stdDeviation="2" />
            <feComposite in2="hardAlpha" operator="out" />
            <feColorMatrix type="matrix" values="0 0 0 0 0 0 0 0 0 0 0 0 0 0 0 0 0 0 0.25 0" />
            <feBlend mode="normal" in2="BackgroundImageFix" result="effect1_dropShadow_418_866" />
            <feBlend mode="normal" in="SourceGraphic" in2="effect1_dropShadow_418_866"
                result="shape" />
        </filter>
        <filter id="filter4_d_418_866" x="186" y="168" width="136" height="136"
            filterUnits="userSpaceOnUse" color-interpolation-filters="sRGB">
            <feFlood flood-opacity="0" result="BackgroundImageFix" />
            <feColorMatrix in="SourceAlpha" type="matrix"
                values="0 0 0 0 0 0 0 0 0 0 0 0 0 0 0 0 0 0 127 0" result="hardAlpha" />
            <feOffset dy="4" />
            <feGaussianBlur stdDeviation="2" />
            <feComposite in2="hardAlpha" operator="out" />
            <feColorMatrix type="matrix" values="0 0 0 0 0 0 0 0 0 0 0 0 0 0 0 0 0 0 0.25 0" />
            <feBlend mode="normal" in2="BackgroundImageFix" result="effect1_dropShadow_418_866" />
            <feBlend mode="normal" in="SourceGraphic" in2="effect1_dropShadow_418_866"
                result="shape" />
        </filter>
        <clipPath id="clip0_418_866">
            <rect width="38" height="40.7257" fill="white" transform="translate(86 42.9733)" />
        </clipPath>
        <clipPath id="clip1_418_866">
            <rect width="128" height="128" fill="white" transform="translate(20 316)" />
        </clipPath>
        <clipPath id="clip2_418_866">
            <rect width="128" height="128" fill="white" transform="translate(190 20)" />
        </clipPath>
        <clipPath id="clip3_418_866">
            <rect width="128" height="128" fill="white" transform="translate(191 168)" />
        </clipPath>
    </defs>
</svg>