<svg width="108" height="156" viewBox="0 0 108 156" fill="none" xmlns="http://www.w3.org/2000/svg">
    <g id="back" clip-path="url(#clip0_632_964)">
        <g id="instruct 2">
            <g id="arrow">
                <path id="Vector 128"
                    d="M11.7983 64C11.7403 65.1024 11.3559 66.19 11.1317 67.2661C10.6764 69.4518 10.5985 71.5272 10.5985 73.7482C10.5985 75.9978 10.5985 78.2474 10.5985 80.497C10.5985 83.0813 10.8984 85.6353 10.8984 88.2289C10.8984 90.8095 10.5985 93.3881 10.5985 95.9275C10.5985 97.8672 8.79883 99.4069 8.79883 101.493"
                    stroke="#040404" stroke-width="2" stroke-linecap="round" />
                <path id="Vector 129"
                    d="M4 100.593C5.13647 100.593 6.146 101.193 7.2994 101.193C8.30368 101.193 9.52871 100.977 10.4322 101.493C10.8642 101.74 12.0388 101.734 11.6153 102.393C11.1115 103.177 9.92379 104.321 9.09907 104.793C8.73793 104.999 7.97464 106.043 7.53269 106.026C7.1063 106.009 5.99991 104.345 5.86633 103.959C5.43363 102.709 5.50991 101.514 4.89984 100.293"
                    stroke="#040404" stroke-width="2" stroke-linecap="round" />
            </g>
        </g>

        <g id="BackDoodle">
            <g id="anim2">
                <g id="Bee2">
                    <path id="Vector 153"
                        d="M46.3879 89.9305C46.0533 89.9305 45.7602 90.0116 45.4759 90.1982C44.8945 90.5797 44.7389 90.7654 44.6035 91.4424C44.4427 92.2462 44.4748 93.0108 44.9802 93.6779C45.3715 94.1945 45.8517 94.5702 46.5713 94.5702C46.9928 94.5702 47.5007 94.6648 47.8552 94.4115C48.1185 94.2234 48.3562 93.9804 48.6185 93.8118C49.104 93.4997 49.404 93.4102 49.9767 93.4102C50.2198 93.4102 50.5041 93.4916 50.7252 93.5937C50.8878 93.6687 51.0347 93.8313 51.2159 93.8514C51.4552 93.878 51.6654 93.8587 51.9 93.9258C52.3592 94.057 53.5492 94.1009 53.9769 93.8068C54.593 93.3832 55.3103 92.722 55.3103 91.9232C55.3103 90.7674 55.1551 89.4953 54.19 88.7508C53.2132 87.9972 51.5148 88.3245 50.3782 88.3245C49.1408 88.3245 47.8572 88.2047 46.6556 88.5228C46.1708 88.6511 45.599 88.9499 45.3371 89.3952C45.2359 89.5672 45.012 89.619 44.8711 89.7521C44.6175 89.9916 44.5227 90.2363 44.3854 90.5501C44.2868 90.7754 44.1697 91.2145 43.9987 91.3581C43.8898 91.4496 43.8355 91.6298 43.7112 91.6952C43.5692 91.7699 43.4155 91.7522 43.2651 91.8488C42.6453 92.2473 42.0793 92.5912 41.7483 93.2715C41.5482 93.6827 41.2749 94.2085 41.2179 94.6643C41.1724 95.0289 40.9453 95.3584 40.9453 95.7301"
                        stroke="#FFE812" stroke-width="2" stroke-linecap="round" />
                    <path id="Vector 154"
                        d="M45.4951 94.5702C45.2639 94.3647 45.0308 94.7242 44.8904 94.8875C44.5578 95.2742 44.5137 95.5153 44.5137 96.0176C44.5137 96.298 44.5359 98.3511 44.9598 98.1392"
                        stroke="#FFE812" stroke-width="2" stroke-linecap="round" />
                    <path id="Vector 155"
                        d="M46.2984 91.2689C46.7181 91.9152 47.129 92.5875 47.3542 93.331C47.5058 93.8311 47.4583 92.6683 47.4583 92.5874C47.4583 92.2892 47.2152 89.2556 48.1721 89.995C48.9536 90.5988 49.5333 93.0775 48.192 93.3904C47.83 93.4749 47.7113 92.2708 47.6963 92.1017C47.6052 91.0737 47.7531 89.6062 48.4894 88.8103C49.0214 88.2351 49.3584 88.689 49.5105 89.2366C49.7317 90.0328 49.8997 90.812 49.1536 91.378C48.607 91.7926 47.6182 92.2219 47.0172 91.6208C46.3146 90.9183 47.8201 90.2411 48.2911 90.7435C48.8087 91.2955 48.0649 92.6836 47.6764 93.098C47.1772 93.6305 46.501 93.8454 45.8226 93.5887C44.8242 93.2109 44.5662 91.4479 45.5549 90.8476C46.4978 90.2751 48.1471 90.5551 49.2032 90.5551C49.661 90.5551 50.6784 90.35 51.1165 90.5948C51.4638 90.7888 51.2901 91.5857 51.1958 91.8687C51.0394 92.3379 50.601 92.468 50.1499 92.5131C49.9876 92.5293 49.831 92.5477 49.798 92.3495C49.6509 91.4669 50.1746 90.8025 50.7894 90.2379C51.4832 89.6007 52.2488 89.4283 52.1822 90.5601C52.1666 90.8266 51.5889 92.6853 51.1165 92.0124C50.8133 91.5806 50.8787 90.6979 51.0422 90.228C51.2396 89.6603 51.9792 89.7917 52.3954 90.0396C53.0946 90.4562 53.7932 91.621 53.7932 92.3396"
                        stroke="#FFE812" stroke-width="2" stroke-linecap="round" />
                    <path id="Vector 156"
                        d="M49.0645 87.9677C49.8623 89.3178 50.3136 90.5321 50.3136 92.1215C50.3136 92.6428 50.2976 93.0641 49.9666 93.4896C49.8432 93.6483 49.8912 93.789 49.689 93.8564"
                        stroke="black" stroke-width="2" stroke-linecap="round" />
                    <path id="Vector 157"
                        d="M53.0801 88.5922C53.1904 88.9782 53.437 89.2476 53.437 89.6728C53.437 90.37 53.437 91.0673 53.437 91.7646C53.437 92.4678 53.6076 93.2396 53.0801 93.7671"
                        stroke="black" stroke-width="2" stroke-linecap="round" />
                    <path id="Vector 158"
                        d="M47.1904 87.3431C47.1904 86.031 47.9508 85.2116 48.3949 84.0765C48.8094 83.0173 50.1089 82.4358 51.1857 82.4358C51.5637 82.4358 51.9365 82.4469 52.2663 82.6588C52.4946 82.8056 52.5438 83.7728 52.5438 84.0369C52.5438 84.486 52.7161 84.869 52.4348 85.2909C52.1605 85.7024 51.9228 86.1094 51.5624 86.4508C51.309 86.6909 50.9779 86.7984 50.6503 86.892C49.98 87.0835 51.9912 86.4616 52.5835 86.094C53.3158 85.6394 54.0219 85.4694 54.8835 85.4694C55.1831 85.4694 55.8451 86.1902 55.8451 86.5401C55.8451 87.4175 55.0274 87.8238 54.3283 88.0569"
                        stroke="black" stroke-width="2" stroke-linecap="round" />
                    <path id="Vector 159"
                        d="M45.1386 88.2352C44.4455 88.2352 43.5081 88.3312 43.0964 87.6107C42.763 87.0272 42.9006 86.409 43.1063 85.8262C43.4307 84.9072 45.1484 84.7966 45.9416 85.0232"
                        stroke="black" stroke-width="2" stroke-linecap="round" />
                    <path id="Vector 160"
                        d="M45.9413 84.0418C45.571 83.9492 46.5279 83.2408 46.6055 83.2041C46.9189 83.0556 47.3064 83.1923 47.6365 83.0603"
                        stroke="black" stroke-width="2" stroke-linecap="round" />
                </g>
                <g id="Butterfly2">
                    <path id="Vector 161"
                        d="M82.796 75.0387C81.5818 75.0387 81.0348 73.5303 79.9814 73.2293C79.759 73.1658 79.2063 72.7232 79.1772 73.1014C79.1284 73.735 79.0127 74.319 79.0127 74.9656C79.0127 76.2818 79.1772 77.6048 79.1772 78.9043C79.1772 79.8446 79.0811 80.7124 79.4331 81.5819C79.7709 82.4164 80.3467 83.7423 81.3065 82.4226C81.682 81.9062 81.643 81.2304 81.7725 80.6315C81.9403 79.8557 82.2964 79.1033 82.4305 78.3286C82.6561 77.0253 82.6944 76.0984 83.3626 74.8834C83.9879 73.7466 84.5416 72.5072 85.2543 71.4382C86.0689 70.2163 87.2396 69.0052 88.8092 69.2906C89.9784 69.5032 89.8749 72.9249 89.9972 73.7959C90.1829 75.1194 90.1982 76.5051 90.1982 77.8443C90.1982 78.8888 90.5871 79.9419 90.5272 80.9605C90.4747 81.8522 87.6828 80.3618 87.4018 79.7999C86.9529 78.9021 86.0202 78.2955 85.5559 77.5061C85.0512 76.6481 83.8457 76.5113 83.454 75.5322"
                        stroke="#FF8412" stroke-width="2" stroke-linecap="round" />
                    <path id="Vector 162"
                        d="M82.4666 74.3807C82.4666 72.8772 82.4131 69.7474 80.6206 68.989C79.6329 68.5712 78.7596 67.8265 77.6963 67.472"
                        stroke="#FF8412" stroke-width="2" stroke-linecap="round" />
                    <path id="Vector 163"
                        d="M83.4536 74.7098C83.4536 72.5043 83.4536 70.2989 83.4536 68.0935C83.4536 67.7863 83.6029 66.9969 83.4262 66.7319C83.1994 66.3916 82.5403 65.6324 82.1377 65.4982"
                        stroke="#FF8412" stroke-width="2" stroke-linecap="round" />
                    <path id="Vector 164"
                        d="M84.1113 75.0387C84.6387 74.863 84.9174 73.5669 85.1897 73.1379C86.0187 71.8316 86.4998 75.4408 86.5787 75.9891C86.6496 76.4813 86.6591 77.9561 86.7615 77.4696C86.9368 76.6369 87.1428 75.8236 87.3646 75.0022C87.5091 74.4671 87.669 73.931 87.8033 73.3938C87.876 73.1031 87.7996 72.6003 87.9769 72.352C88.0345 72.2714 88.0592 73.3425 88.0592 73.4486C88.0592 74.0305 88.0592 74.6123 88.0592 75.1941C88.0592 76.6776 88.326 75.7729 88.4704 74.8103C88.6038 73.9208 88.6998 73.0143 88.7171 72.1144C88.7199 71.9682 88.7891 71.5541 88.708 71.6758C88.4136 72.1174 88.1354 72.5834 87.8947 73.0648"
                        stroke="#FF8412" stroke-width="2" stroke-linecap="round" />
                    <path id="Vector 165"
                        d="M81.3147 75.0388C80.7545 76.1591 80.9857 77.4746 80.9857 78.7034C80.9857 79.3157 80.4922 80.0594 80.4922 80.9606"
                        stroke="#FF8412" stroke-width="2" stroke-linecap="round" />
                </g>
                <g id="Flower2">
                    <path id="Vector 166"
                        d="M88.5527 141.494C88.9833 141.44 89.5601 139.348 89.7773 138.944C90.0568 138.425 90.0332 137.787 90.0332 137.217C90.0332 136.619 90.2939 136.062 90.4444 135.49C90.6039 134.884 90.5549 134.211 90.7277 133.635C91.0534 132.549 91.328 131.543 91.3491 130.382C91.3608 129.74 91.5297 129.182 91.7147 128.572C91.8789 128.03 91.9305 127.291 92.1716 126.781C93.8972 123.127 93.8165 118.842 93.8165 114.846"
                        stroke="#5C9F44" stroke-width="2" stroke-linecap="round" />
                    <path id="Vector 167"
                        d="M89.211 141.987C88.7192 141.926 89.6791 139.274 89.741 138.99C89.8969 138.273 90.4173 137.693 90.7645 137.062C91.1408 136.378 91.4059 135.638 91.852 134.996C93.3317 132.869 96.1234 131.624 98.6693 131.624C98.9656 131.624 99.6416 131.5 99.8664 131.734C100.375 132.263 100.322 133.713 100.479 134.402C100.671 135.251 100.493 136.241 100.195 137.053C99.9417 137.745 99.7113 138.482 99.4095 139.154C99.1632 139.703 98.5571 140.031 98.1667 140.47C97.7651 140.922 96.774 141.977 96.1928 142.143C95.2306 142.418 94.2932 142.751 93.4055 143.221C92.7142 143.587 91.8882 143.517 91.1483 143.797C90.8516 143.909 89.8033 144.224 90.1979 143.632"
                        stroke="#5C9F44" stroke-width="2" stroke-linecap="round" />
                    <path id="Vector 168"
                        d="M89.2106 139.52C89.143 138.911 87.9678 137.328 87.4378 136.961C86.6315 136.403 84.69 136.724 83.7549 136.724C81.4003 136.724 78.6855 136.509 76.6361 137.875C76.1796 138.179 74.1504 138.962 74.1504 139.52C74.1504 140.179 75.0667 141.325 75.4755 141.823C76.1911 142.694 76.9209 143.754 77.8972 144.327C79.5216 145.28 81.3882 145.442 83.2249 145.442C84.6234 145.442 86.2399 145.661 87.584 145.277C88.1001 145.13 88.5221 144.935 89.0096 144.747C89.7399 144.466 89.0173 144.161 88.7172 143.961"
                        stroke="#5C9F44" stroke-width="2" stroke-linecap="round" />
                    <path id="Vector 169"
                        d="M76.2158 139.849C77.2596 140.517 78.4772 141.987 79.7524 141.987C80.9005 141.987 81.9337 142.364 83.0331 142.609C83.9159 142.805 85.013 142.645 85.9209 142.645C86.9016 142.645 87.4013 142.53 87.4013 141.494"
                        stroke="#5C9F44" stroke-width="2" stroke-linecap="round" />
                    <path id="Vector 170"
                        d="M81.9726 137.875C81.9726 139.18 82.3338 143.099 80.4922 143.468"
                        stroke="#5C9F44" stroke-width="2" stroke-linecap="round" />
                    <path id="Vector 171"
                        d="M85.5923 138.369C85.7229 139.887 85.9492 141.47 85.5009 142.956C85.3085 143.594 84.6736 144.09 84.2764 144.619"
                        stroke="#5C9F44" stroke-width="2" stroke-linecap="round" />
                    <path id="Vector 172"
                        d="M92.0068 142.81C93.2318 141.585 94.0548 140.49 94.721 138.862C95.0838 137.975 95.6496 136.945 96.2014 136.148C96.9629 135.048 98.076 134.117 98.751 133.105"
                        stroke="#5C9F44" stroke-width="2" stroke-linecap="round" />
                    <path id="Vector 173"
                        d="M91.3496 137.217C91.7782 137.217 92.2356 137.594 92.5011 137.912C93.2572 138.815 93.8167 139.325 94.8131 139.94C96.0077 140.678 98.328 141.5 96.9424 139.191"
                        stroke="#5C9F44" stroke-width="2" stroke-linecap="round" />
                    <path id="Vector 174"
                        d="M94.6387 133.598C95.3888 135.651 96.4838 138.04 98.9155 138.04"
                        stroke="#5C9F44" stroke-width="2" stroke-linecap="round" />
                    <path id="Vector 175"
                        d="M93.8162 114.024C93.0496 114.024 92.0632 113.417 91.6778 112.781C91.4451 112.397 91.1843 112.419 91.1843 111.922C91.1843 111.498 91.1843 111.075 91.1843 110.651C91.1843 108.923 92.5371 106.577 94.5107 106.621C96.6049 106.669 97.0241 110.131 96.5303 111.712C95.976 113.485 94.0492 114.489 92.2626 113.621C90.547 112.788 89.5152 110.328 90.9376 108.687C91.7874 107.706 92.6658 107.937 93.8893 107.937C95.2644 107.937 95.873 108.264 95.7901 109.838C95.7617 110.378 94.6696 111.984 94.1086 112.178C93.0702 112.536 91.8423 112.61 91.8423 111.3C91.8423 110.523 91.9316 109.98 92.8201 109.92C93.1437 109.899 93.7653 109.747 93.807 110.185C93.8511 110.648 93.8162 111.128 93.8162 111.593C93.8162 111.989 93.8162 110.801 93.8162 110.405"
                        stroke="#FFE812" stroke-width="2" stroke-linecap="round" />
                    <path id="Vector 176"
                        d="M90.0337 108.431C89.0979 107.495 87.7607 107.181 87.0363 106C86.402 104.966 85.9655 103.933 85.5102 102.82C84.9769 101.516 85.475 100.919 86.0128 99.795C86.5085 98.7584 87.5393 98.6852 88.5533 98.7258C89.7002 98.7716 90.7006 100.306 91.4228 101.029C92.227 101.833 92.9456 102.843 93.2322 103.99C93.3456 104.443 93.4881 104.919 93.4881 105.388C93.4881 105.764 93.4881 106.385 93.4881 105.634C93.4881 104.033 93.9909 101.593 94.9776 100.298C95.5777 99.51 96.8416 99.3837 97.7649 99.3837C98.189 99.3837 98.7286 99.2934 99.1357 99.402C99.6543 99.5403 99.7219 100.35 100.068 100.663C101.358 101.832 101.68 105.074 99.9855 106.055C99.5602 106.301 99.4072 106.631 98.9163 106.795C98.7767 106.842 98.2888 107.279 98.3863 107.279C99.2156 107.279 100.15 107.149 100.963 107.307C101.559 107.422 102.115 107.797 102.7 107.974C103.526 108.224 103.287 109.593 103.367 110.231C103.473 111.078 103.687 111.788 103.687 112.671C103.687 115.128 99.2678 114.768 97.9294 113.95C97.5546 113.721 97.2935 113.722 97.1069 113.302C97.0303 113.129 97.4211 114.074 97.5181 114.261C97.8189 114.84 98.3077 115.343 98.6605 115.897C99.13 116.635 99.0946 117.235 99.0808 118.099C99.0415 120.575 96.093 123.794 93.5795 123.555C92.2345 123.427 91.8629 121.672 91.8431 120.603C91.8251 119.629 91.5061 117.928 92.0899 117.085C92.2464 116.859 92.3887 116.603 92.5834 116.409C92.9419 116.05 92.3363 116.444 92.1721 116.491C90.8263 116.876 89.2312 117.755 87.8222 117.807C86.8705 117.842 85.4885 118.007 84.6055 117.606C83.3642 117.042 82.488 115.601 82.0558 114.353C81.6494 113.179 81.3533 111.824 81.9736 110.661C82.5179 109.64 83.9659 109.399 84.971 109.052C86.6662 108.468 88.7298 108.595 90.5272 108.595"
                        stroke="#D279E0" stroke-width="2" stroke-linecap="round" />
                    <path id="Vector 177"
                        d="M90.0337 115.34C88.3138 115.196 86.9291 113.675 86.9083 112.013C86.9049 111.74 86.7056 109.963 87.1825 110.551C87.9809 111.535 88.2978 112.766 89.266 113.621C90.1511 114.404 88.7985 115.072 88.0598 115.011C87.0334 114.925 85.4389 113.633 85.766 112.488C85.7805 112.438 86.5957 114.029 86.6433 114.289C86.7238 114.727 87.1021 116.637 86.3235 116.637C84.1817 116.637 84.6703 113.965 84.4409 112.589C84.34 111.983 85.6901 113.683 85.9122 113.923C86.6254 114.693 87.3263 115.431 87.8861 116.326C88.2531 116.914 88.7411 117.708 89.5585 117.606C90.2815 117.515 91.1851 116.763 91.1851 115.997"
                        stroke="#D279E0" stroke-width="2" stroke-linecap="round" />
                    <path id="Vector 178"
                        d="M95.1329 118.794C94.0357 118.882 94.6946 120.49 94.0546 121.188C93.1887 122.133 93.4836 119.523 93.5246 119.196C93.7776 117.172 95.5152 118.18 96.5768 118.922C97.2705 119.406 98.3512 119.871 97.5272 120.896C96.6659 121.967 95.8297 121.885 95.2791 120.768C94.6529 119.497 94.1778 118.366 95.0598 117.149C95.0885 117.109 96.2688 115.44 96.2113 116.418C96.2013 116.587 95.4619 116.589 95.4619 116.162"
                        stroke="#D279E0" stroke-width="2" stroke-linecap="round" />
                    <path id="Vector 179"
                        d="M97.4355 112.543C97.4355 110.873 97.6697 109.315 99.7384 109.783C100.762 110.015 100.878 111.212 100.89 112.068C100.892 112.207 100.986 113.407 100.506 112.927C100.229 112.65 100.375 111.599 100.396 111.264C100.447 110.472 101.193 109.991 101.84 109.655C102.197 109.471 101.813 110.408 101.676 110.533C101.517 110.677 100.92 110.569 100.725 110.569"
                        stroke="#D279E0" stroke-width="2" stroke-linecap="round" />
                    <path id="Vector 180"
                        d="M96.6127 105.963C95.5792 105.791 93.9852 104.208 94.5017 103.003C94.7408 102.445 96.0143 102.679 96.4391 102.774C97.1513 102.934 98.0142 103.733 98.084 104.501C98.1117 104.805 98.2369 105.589 98.0749 105.872C97.8394 106.284 97.4081 105.701 97.3621 105.497C97.2436 104.973 96.944 102.099 98.1937 102.208C98.6638 102.248 99.0669 102.6 99.0801 103.076C99.0961 103.651 99.0788 103.812 98.8425 103.222C98.6339 102.7 98.4222 102.255 98.4222 101.687C98.4222 101.234 98.0303 101.451 97.7276 101.285C95.0139 99.7873 97.1049 104.315 97.4352 105.141"
                        stroke="#D279E0" stroke-width="2" stroke-linecap="round" />
                    <path id="Vector 181"
                        d="M98.4225 112.379C98.1045 111.924 99.1547 110.324 99.4826 109.939C99.7721 109.598 99.7928 109.188 99.9761 108.769C100.348 107.919 101.842 109.791 101.219 110.569"
                        stroke="#D279E0" stroke-width="2" stroke-linecap="round" />
                    <path id="Vector 182"
                        d="M102.37 113.859C102.41 113.503 102.689 113.264 102.699 112.872C102.711 112.434 102.699 111.994 102.699 111.556"
                        stroke="#D279E0" stroke-width="2" stroke-linecap="round" />
                    <path id="Vector 183"
                        d="M90.0334 106.95C88.5625 106.683 87.566 104.886 87.566 103.496C87.566 103.003 88.1392 102.535 88.6261 102.509C89.4904 102.462 89.7205 103.641 90.1065 104.209C90.4694 104.742 90.4336 104.999 89.7593 104.977C88.7884 104.944 87.6319 104.267 87.1639 103.405C86.8964 102.912 85.1568 100.598 86.3323 100.288C86.7772 100.171 87.3326 99.8955 87.7854 99.8955C88.0292 99.8955 87.6468 100.136 87.6391 100.142C87.266 100.428 87.0109 100.94 86.8167 101.358C86.4814 102.079 86.2276 103.513 86.3506 104.3C86.498 105.244 87.3671 105.762 88.0961 106.256C88.6922 106.66 90.4363 106.905 91.1118 106.585C91.2913 106.5 91.1749 105.772 91.2032 105.616C91.3143 105.005 91.8428 104.623 91.8428 103.99"
                        stroke="#D279E0" stroke-width="2" stroke-linecap="round" />
                </g>
            </g>
            <g id="anim1">
                <g id="Flower1">
                    <path id="Vector 109"
                        d="M87.7558 142.773C89.2349 142.588 89.0963 133.048 89.1621 131.57C89.2239 130.178 89.1779 128.776 89.1779 127.382C89.1779 126.251 88.609 125.417 88.609 124.301C88.609 123.316 88.0597 122.455 88.0402 121.441C88.0253 120.669 87.9115 119.902 87.4713 119.229C86.8557 118.287 85.7716 117.75 84.9116 116.891"
                        stroke="#5C9F44" stroke-width="2" stroke-linecap="round" />
                    <path id="Vector 110"
                        d="M87.1863 142.204C89.8243 141.911 84.614 132.878 83.3624 131.854C81.131 130.029 78.0575 130.258 75.2407 130.258C72.2988 130.258 77.4187 140.346 78.2271 141.603C79.0599 142.899 81.6011 143.473 83.0464 143.61C83.9429 143.696 86.2849 143.959 86.9019 143.342"
                        stroke="#5C9F44" stroke-width="2" stroke-linecap="round" />
                    <path id="Vector 111"
                        d="M88.6086 142.488C89.6727 142.276 89.9015 140.769 90.3783 139.992C90.9619 139.041 91.8941 138.294 92.5905 137.432C93.4915 136.316 96.3741 136.035 97.71 135.441C98.5895 135.05 100.145 135.378 101.123 135.378C102.115 135.378 103.398 134.971 103.398 136.231C103.398 138.587 101.33 140.97 100.27 142.931C99.3595 144.615 97.7389 145.655 95.9403 146.186C94.7264 146.544 92.7289 146.735 91.4528 146.407C89.7394 145.966 88.5124 144.885 86.9021 144.195"
                        stroke="#5C9F44" stroke-width="2" stroke-linecap="round" />
                    <path id="Vector 112"
                        d="M83.4889 114.046C83.7004 113.095 85.5993 112.664 85.7485 111.471C86.009 109.387 84.4592 108.47 82.9833 107.505C82.2948 107.055 79.5699 106.257 78.9382 107.126C77.8446 108.629 77.7113 110.555 77.8005 112.34C77.8805 113.938 83.739 114.096 83.7734 113.478C83.8649 111.83 83.9344 107.479 81.0714 109.069C80.0767 109.622 80.0759 110.358 80.0759 111.423C80.0759 112.767 81.8918 112.435 82.8885 112.324C84.7153 112.121 82.7036 109.751 82.0668 109.433C80.3315 108.565 78.8855 107.691 79.6651 110.475C80.1822 112.322 80.6798 112.929 82.2249 111.202C83.294 110.007 80.5657 109.887 79.9653 110.349C79.202 110.936 78.5474 111.861 80.0759 111.771C81.2834 111.7 80.539 107.361 78.9382 109.496"
                        stroke="#FFE812" stroke-width="2" stroke-linecap="round" />
                    <path id="Vector 113"
                        d="M102.83 137.084C102.65 137.893 99.8944 139.671 99.2906 140.197C97.8201 141.479 96.2655 142.752 94.2817 143.057C93.3322 143.203 92.7385 143.626 91.7377 143.626C91.0295 143.626 90.4266 143.342 89.7468 143.342"
                        stroke="#5C9F44" stroke-width="2" stroke-linecap="round" />
                    <path id="Vector 114"
                        d="M88.6094 142.773C85.7465 142.252 83.6947 139.428 81.8465 137.432C81.1012 136.627 80.7157 135.74 79.6502 135.236C78.9416 134.9 77.8014 133.926 77.8014 133.103"
                        stroke="#5C9F44" stroke-width="2" stroke-linecap="round" />
                    <path id="Vector 115"
                        d="M83.7734 133.387C83.7734 136.045 83.489 138.726 83.489 141.351"
                        stroke="#5C9F44" stroke-width="2" stroke-linecap="round" />
                    <path id="Vector 116"
                        d="M81.2141 132.534C81.2141 134.753 81.778 137.374 80.0764 139.075"
                        stroke="#5C9F44" stroke-width="2" stroke-linecap="round" />
                    <path id="Vector 117"
                        d="M98.2783 137.653C96.5167 139.575 96.2495 142.981 97.4251 145.333"
                        stroke="#5C9F44" stroke-width="2" stroke-linecap="round" />
                    <path id="Vector 118"
                        d="M92.5908 139.644C90.7523 139.644 91.4531 144.842 91.4531 146.186"
                        stroke="#5C9F44" stroke-width="2" stroke-linecap="round" />
                    <path id="Vector 119"
                        d="M84.9111 107.505C86.7232 107.505 89.4447 107.916 90.7417 106.32C91.6859 105.158 91.4527 103.715 91.4527 102.322C91.4527 101.086 91.8682 99.0216 91.0261 97.9925C90.4212 97.2531 88.0345 96.8622 87.1232 97.0444C83.0775 97.8536 82.3513 101.901 82.3513 105.577C82.3513 106.112 82.2912 106.689 82.3671 107.22C82.53 108.361 82.6477 105.739 82.6199 105.419C82.5179 104.246 82.1071 103.359 81.5297 102.369C80.9537 101.382 81.0317 100.436 80.1866 99.541C79.336 98.6404 76.4113 97.5912 75.1776 97.55C74.5118 97.5278 72.2083 97.2011 71.6698 97.7397C68.6134 100.796 69.3589 106.651 74.2296 106.651C75.2149 106.651 76.8833 106.974 77.8006 106.588C78.3099 106.374 78.4331 105.959 78.7645 105.561C79.5088 104.668 76.5187 106.191 75.3672 106.351C72.6428 106.731 69.7251 106.242 67.1191 107.094C65.5773 107.598 63.1438 108.769 63.0108 110.697C62.8404 113.168 64.7337 114.333 66.9927 114.584C68.2854 114.727 71.257 115.075 72.3334 114.11C73.3223 113.223 73.9175 112.505 74.4192 111.376C74.6033 110.962 75.4606 111.467 75.5252 110.918C75.6361 109.976 75.0342 111.035 74.8932 111.329C74.0205 113.144 73.4312 116.026 73.2657 118.012C73.1545 119.346 73.5394 121.169 75.0196 121.662C76.8101 122.259 78.7635 122.579 80.6448 122.579C81.3328 122.579 82.2852 122.796 82.4935 121.963C82.7514 120.931 82.6954 119.685 82.6199 118.629C82.5677 117.897 81.6247 116.184 80.9292 115.816C80.5863 115.635 80.1599 115.526 79.7915 115.342C78.779 114.836 79.5754 115.182 80.076 115.5C84.2975 118.187 88.2277 118.882 93.1592 118.882C94.432 118.882 97.71 117.45 97.71 116.101C97.71 114.641 96.8359 113.49 95.7032 112.64C94.2991 111.587 92.3452 110.141 90.6627 109.559C89.7613 109.247 88.4245 109.496 87.4709 109.496"
                        stroke="#D279E0" stroke-width="2" stroke-linecap="round" />
                    <path id="Vector 120"
                        d="M96.0029 114.331C96.0029 114.829 94.9121 116.39 94.644 115.753C94.3041 114.946 94.4567 113.953 94.0752 113.098C93.5873 112.005 93.0306 114.616 92.8901 115.026C92.8037 115.278 92.5899 116.738 92.5899 116.401C92.5899 115.422 92.5009 114.392 92.0053 113.525C90.4362 110.779 90.1186 114.73 89.8089 116.037C89.7058 116.473 89.8381 117.019 89.6825 116.259C89.4885 115.31 89.2995 114.364 89.1137 113.414C88.6743 111.169 88.1126 112.821 87.739 114.315C87.044 117.095 87.2273 113.434 86.3327 113.098C85.455 112.769 85.3966 116.826 84.6262 114.9"
                        stroke="#D279E0" stroke-width="2" stroke-linecap="round" />
                    <path id="Vector 121"
                        d="M78.6533 118.597C78.0469 118.026 77.0332 116.515 76.2358 116.338C75.1658 116.1 76.5685 119.534 76.6466 119.924C76.7898 120.64 76.5182 118.442 76.22 117.775C75.9277 117.122 74.9559 116.211 74.9559 115.468C74.9559 115.14 75.7438 115.518 75.9671 115.437C76.776 115.143 76.6624 114.158 76.6624 113.478"
                        stroke="#D279E0" stroke-width="2" stroke-linecap="round" />
                    <path id="Vector 122"
                        d="M66.4237 112.055C66.3976 111.612 65.8101 109.059 66.3447 109.622C66.5609 109.85 67.7828 112.273 68.2724 111.566C69.0273 110.475 68.7763 109.351 69.9632 111.329C71.0902 113.207 70.69 109.455 70.69 108.69C70.69 107.393 70.9654 110.007 70.9744 110.349C71.0155 111.909 71.4772 109.984 71.6065 109.496C71.8509 108.572 72.551 109.282 72.9654 108.737C73.7829 107.661 73.7814 108.197 74.6719 108.642"
                        stroke="#D279E0" stroke-width="2" stroke-linecap="round" />
                    <path id="Vector 123"
                        d="M74.9561 99.8254C74.4273 99.9576 74.4424 101.426 74.2609 101.88C74.2257 101.967 73.2219 103.791 73.7236 103.618C74.606 103.312 75.2978 102.322 75.8094 101.595C76.4786 100.644 75.8495 101.699 75.8094 102.101C75.6656 103.539 77.7716 99.9669 77.8003 100.742C77.8406 101.83 78.0171 102.883 78.0847 103.965C78.1119 104.4 78.3691 102.935 78.3691 102.67"
                        stroke="#D279E0" stroke-width="2" stroke-linecap="round" />
                    <path id="Vector 124"
                        d="M89.4614 98.4032C90.0428 99.1139 90.299 99.9966 90.3146 100.9C90.3461 102.726 89.9568 100.954 89.5246 100.173C89.4363 100.013 88.1657 97.9637 88.1657 98.498C88.1657 99.8201 89.0095 101.273 89.1611 102.638C89.3946 104.739 87.6914 100.324 87.2492 100.015C86.3179 99.363 87.4159 102.294 87.6916 103.396C87.8115 103.876 88.7708 106.947 87.8813 105.087C87.4017 104.084 86.7609 103.284 86.633 102.132C86.6002 101.838 86.6172 100.859 86.6172 100.9C86.6172 101.684 87.0868 107.442 85.7007 104.818C85.1067 103.694 84.6516 102.492 84.0574 101.374C83.7044 100.709 83.4886 102.774 83.4886 103.112C83.4886 104.041 83.8684 105.799 82.9197 104.376"
                        stroke="#D279E0" stroke-width="2" stroke-linecap="round" />
                    <path id="Vector 125"
                        d="M71.5438 102.101C72.3211 101.712 71.5535 98.685 71.8282 99.5094C72.2425 100.752 71.9456 102.211 72.1285 103.491C72.2897 104.62 72.6778 102.675 72.6815 102.448C72.6973 101.484 72.6278 99.7464 72.9817 98.8615C73.0657 98.6515 73.2192 99.2499 73.2977 99.462C73.59 100.251 74.0972 100.934 74.5144 101.658C74.895 102.319 76.5483 105.308 77.4534 104.439C78.1413 103.779 77.7861 102.567 78.4015 101.864C78.9655 101.219 79.2713 101.927 79.792 102.101"
                        stroke="#D279E0" stroke-width="2" stroke-linecap="round" />
                    <path id="Vector 126"
                        d="M70.1213 112.909C70.1213 111.836 68.8921 111.389 68.1145 110.886C67.4761 110.473 66.253 108.293 65.8708 108.516C65.0641 108.986 65.8491 110.495 66.1394 111.076C66.5662 111.929 66.7932 112.055 67.7827 112.055C69.2388 112.055 73.2782 110.893 73.5185 109.211C73.6605 108.217 70.6901 108.218 70.6901 109.496"
                        stroke="#D279E0" stroke-width="2" stroke-linecap="round" />
                    <path id="Vector 127"
                        d="M80.6445 119.166C78.8413 118.312 78.938 118.352 78.938 120.24C78.938 121.379 80.0757 120.253 80.0757 119.45"
                        stroke="#D279E0" stroke-width="2" stroke-linecap="round" />
                </g>
                <g id="Butterfly1">
                    <path id="Vector 142"
                        d="M93.7031 78.7174C92.8891 77.1707 90.8244 75.8178 89.0946 75.4519C88.5524 75.3372 87.82 74.8948 87.3038 74.9252C86.2429 74.9876 88.2749 83.6536 88.6074 85.1167C88.7306 85.6587 88.694 86.2042 88.9102 86.7231C89.194 87.4042 90.058 84.8921 90.148 84.6822C90.9674 82.77 91.9451 80.9539 92.6234 78.9807C93.1158 77.5484 93.8794 76.1916 94.5195 74.8199C94.7245 74.3805 95.5876 71.8751 96.1259 72.5288C97.4401 74.1246 98.1724 76.1609 99.049 78.0064C99.7955 79.5778 100.568 81.5666 100.866 83.2733C100.911 83.5277 101.367 85.3308 101.116 85.1957C100.208 84.7065 99.71 84.123 99.1017 83.3259C98.1703 82.1055 97.1854 80.5917 96.0601 79.5601C95.2705 78.8364 94.886 77.6637 94.164 76.8213C93.3858 75.9134 92.9092 74.6799 92.2811 73.648C91.8017 72.8605 91.1407 72.1257 90.5035 71.4885C89.9414 70.9265 89.1202 71.0135 88.7259 70.422"
                        stroke="#FF8412" stroke-width="2" stroke-linecap="round" />
                    <path id="Vector 143"
                        d="M93.4665 76.8214C93.4665 74.5535 94.1 71.1762 93.2295 69"
                        stroke="#FF8412" stroke-width="2" stroke-linecap="round" />
                    <path id="Vector 144"
                        d="M88.4893 76.8214C89.0504 78.0685 89.6439 79.4742 89.9113 80.8111C90.2094 82.3014 90.4338 81.0451 90.5697 80.2976C90.7038 79.56 90.9126 79.3175 91.2149 78.6122C91.6393 77.6219 91.9751 78.784 92.5184 79.1915"
                        stroke="#FF8412" stroke-width="2" stroke-linecap="round" />
                    <path id="Vector 145"
                        d="M95.3623 77.7693C95.3623 76.6364 94.9306 75.0128 96.3367 76.2683C97.2258 77.0622 98.4434 78.1261 98.4434 79.4284"
                        stroke="#FF8412" stroke-width="2" stroke-linecap="round" />
                </g>
                <g id="Bee1">
                    <path id="Vector 146"
                        d="M58.596 90.9524C58.4905 90.478 56.292 90.1021 55.8149 89.9983C54.9397 89.8081 54.2269 89.6905 53.5819 90.3942C52.7295 91.324 52.1152 93.0446 53.4804 93.835C54.1196 94.2051 54.3813 94.2039 55.1247 94.241C55.7139 94.2705 56.1287 94.8702 56.769 94.9617C57.898 95.123 59.6922 95.7158 59.6922 94.0583C59.6922 92.4892 60.2553 91.9257 58.5249 91.399C57.2772 91.0193 56.3241 90.587 54.9826 90.587C53.2262 90.587 54.9517 92.5343 55.7743 92.7693C56.7229 93.0403 57.7379 92.7555 58.596 93.3275"
                        stroke="#FFE812" stroke-width="2" stroke-linecap="round" />
                    <path id="Vector 147"
                        d="M54.2116 89.8562C53.9115 87.9055 52.2938 87.1157 50.5576 87.1157"
                        stroke="#FFE812" stroke-width="2" stroke-linecap="round" />
                    <path id="Vector 148"
                        d="M52.7502 90.9524C52.1223 90.9524 51.3929 90.5172 50.7405 90.3637C49.7175 90.123 48.9616 90.2665 48 90.587"
                        stroke="#FFE812" stroke-width="2" stroke-linecap="round" />
                    <path id="Vector 149"
                        d="M57.8656 89.4908C57.8656 88.6362 57.6005 87.3623 58.3528 86.7604C59.1684 86.108 60.567 85.82 61.6109 86.0398C62.5602 86.2396 62.494 87.6739 62.4229 88.3844C62.3452 89.1618 61.2647 89.6687 60.5959 89.8359C59.6685 90.0677 61.5884 89.1254 62.1489 89.1254C62.6189 89.1254 63.6355 88.9036 63.8541 89.4502C64.0384 89.911 64.7402 91.07 64.0774 91.4599C63.3647 91.8791 62.3107 91.6832 61.5196 91.6832"
                        stroke="#151515" stroke-width="2" stroke-linecap="round" />
                    <path id="Vector 150"
                        d="M55.4907 88.5773C54.6836 88.4876 54.8425 87.1606 54.5772 86.5676C54.3319 86.0193 54.1548 84.9767 54.8005 84.7C55.6956 84.3164 55.8806 83.9334 56.9117 84.0098C57.6722 84.0661 57.5725 84.8488 57.8658 85.2887"
                        stroke="#151515" stroke-width="2" stroke-linecap="round" />
                    <path id="Vector 151"
                        d="M56.3516 90.8257C56.3516 92.2554 56.232 93.5935 55.6729 94.8982"
                        stroke="#151515" stroke-width="2" stroke-linecap="round" />
                    <path id="Vector 152"
                        d="M58.7271 91.9287C58.7271 92.6609 58.7271 93.3931 58.7271 94.1253C58.7271 94.6019 58.5346 94.9665 58.3877 95.4074"
                        stroke="#151515" stroke-width="2" stroke-linecap="round" />
                </g>
            </g>
        </g>
    </g>
    <defs>
        <clipPath id="clip0_632_964">
            <rect width="156" height="108" fill="white" transform="translate(0 156) rotate(-90)" />
        </clipPath>
    </defs>
</svg>