<svg filter="url(#squiggly) drop-shadow(2px 2px 3px rgba(50, 50, 50, 0.7))" width="310" height="240"
    viewBox="0 0 310 240" fill="none" xmlns="http://www.w3.org/2000/svg">
    <path
        d="M102.388 132.361C101.809 124.833 100.422 117.071 98.9981 109.667C98.7693 108.477 96.9211 101.763 98.339 100.345C99.5823 99.1016 110.947 104.683 112.087 105.241C116.232 107.272 119.538 109.945 123.575 112.021C126.109 113.324 126.886 116.694 130.025 116.211C133.289 115.709 138.114 113.846 140.713 112.021C151.239 104.63 166.267 110.326 177.672 110.326C181.987 110.326 182.735 111.721 186.476 113.057C188.434 113.756 191.94 117.936 193.868 115.647C197.82 110.954 199.657 104.861 204.273 100.345C208.468 96.2416 213.771 96.6168 219.245 96.1076C219.859 96.0505 231.004 95.4907 230.733 96.4842C229.396 101.386 226.993 105.439 225.931 110.515C224.369 117.977 222.148 123.441 223.53 131.042C223.741 132.204 224.199 133.323 224.377 134.479C224.695 136.545 226.122 136.775 226.778 138.481C227.974 141.589 226.967 146.574 226.967 149.828C226.967 161.831 218.39 170.798 212.936 180.714C210.203 185.683 205.873 191.215 200.601 193.567C194.715 196.193 187.322 200.735 180.92 201.759C165.66 204.201 150.246 201.853 134.969 201.853C129.291 201.853 123.095 194.802 119.337 190.836C116.677 188.028 115.968 184.108 114.629 180.666C113.314 177.283 110.701 173.968 109.121 170.544C107.578 167.201 95.8013 134.055 103.236 134.055"
        stroke="palevioletred" stroke-width="7" stroke-linecap="round" />
    <path
        d="M160.016 167.954C159.971 168.223 158.69 164.675 159.262 163.387C159.764 162.258 163.034 161.175 164.253 161.175C168.39 161.175 167.88 167.954 164.253 167.954C161.352 167.954 160.108 163.624 162.935 162.21C166.879 160.238 166.583 168.483 163.405 163.717"
        stroke="palevioletred" stroke-width="7" stroke-linecap="round" />
    <path
        d="M145.609 167.954C136.243 165.546 127.434 163.582 117.736 163.717C107.289 163.862 76.6848 170.497 87.1332 170.497"
        stroke="palevioletred" stroke-width="7" stroke-linecap="round" />
    <path d="M135.439 178.124C122.014 178.124 105.448 179.387 94.7607 188.294"
        stroke="palevioletred" stroke-width="7" stroke-linecap="round" />
    <path
        d="M142.219 188.294C133.299 189.037 123.945 197.463 117.078 202.512C116.142 203.2 106.116 211.413 111.71 206.938"
        stroke="palevioletred" stroke-width="7" stroke-linecap="round" />
    <path
        d="M189.678 164.564C193.641 164.773 197.543 166.737 201.26 167.954C212.715 171.705 224.896 176.056 234.547 183.491C236.284 184.83 246.332 193.622 240.526 195.073"
        stroke="palevioletred" stroke-width="7" stroke-linecap="round" />
    <path d="M189.678 178.124C194.258 182.151 218.353 213.364 214.254 215.413"
        stroke="palevioletred" stroke-width="7" stroke-linecap="round" />
    <path d="M181.203 186.599C186.635 202.609 195.61 218.501 195.61 235.752" stroke="palevioletred"
        stroke-width="7" stroke-linecap="round" />
    <path
        d="M134.592 145.92C134.776 147.397 137.372 145.887 138.453 145.92C139.906 145.964 139.972 148.094 137.982 146.768"
        stroke="palevioletred" stroke-width="7" stroke-linecap="round" />
    <path d="M123.574 137.445C124.613 132.252 139.583 130.666 143.914 130.666"
        stroke="palevioletred" stroke-width="7" stroke-linecap="round" />
    <path
        d="M178.66 147.615C178.66 145.908 179.193 144.319 181.203 144.319C183.53 144.319 182.203 145.457 180.355 144.225"
        stroke="palevioletred" stroke-width="7" stroke-linecap="round" />
    <path
        d="M172.729 129.818C177.679 129.818 184.424 128.443 189.113 130.006C191.456 130.787 195.61 136.905 195.61 139.14"
        stroke="palevioletred" stroke-width="7" stroke-linecap="round" />
    <path
        d="M150.693 184.904C151.97 185.187 152.036 186.333 152.435 187.399C153.141 189.282 155.018 189.056 156.626 189.659C159.717 190.818 163.269 192.906 166.795 191.495C172.375 189.263 166.247 184.134 168.679 181.702C169.228 181.153 173.005 186.41 173.622 186.975C175.397 188.603 177.264 188.294 179.507 188.294C185.547 188.294 186.287 181.463 186.287 176.429"
        stroke="palevioletred" stroke-width="7" stroke-linecap="round" />
    <path
        d="M137.982 147.615C134.794 147.615 134.954 144.486 136.287 142.153C137.887 139.352 142.464 143.817 142.172 146.297C141.914 148.488 139.637 150.859 137.322 149.969C133.561 148.522 138.028 143.354 139.676 142.53"
        stroke="palevioletred" stroke-width="7" stroke-linecap="round" />
    <path
        d="M179.508 149.31C179.508 149.963 179.485 147.531 179.555 147.144C179.898 145.258 181.265 144.171 182.898 143.378C188.775 140.523 185.585 149.254 182.522 151.005C178.85 153.103 179.508 146.98 179.508 144.602C179.508 143.817 179.048 138.679 180.544 139.517C182.352 140.53 183.572 142.523 184.593 144.225"
        stroke="palevioletred" stroke-width="7" stroke-linecap="round" />
    <path
        d="M111.71 119.648C111.71 122.298 111.229 125.444 111.804 128.029C112.526 131.279 120.208 126.77 121.879 125.957C125.522 124.185 117.121 120.481 115.099 117.953"
        stroke="palevioletred" stroke-width="7" stroke-linecap="round" />
    <path
        d="M210.017 108.631C206.794 108.953 203.696 115.025 201.589 117.483C198.605 120.965 206.459 119.615 208.322 119.648C211.732 119.71 216.797 122.649 216.797 117.953C216.797 115.135 216.409 110.479 213.407 109.479"
        stroke="palevioletred" stroke-width="7" stroke-linecap="round" />
    <path
        d="M45.607 33.2063C41.9729 32.8237 36.6634 29.0354 34.5428 33.63C31.5817 40.0457 30.3525 44.3302 30.3525 51.474C30.3525 56.52 32.0889 61.1729 37.3206 61.1729C41.5739 61.1729 44.2702 57.783 48.1495 57.783"
        stroke="palevioletred" stroke-width="7" stroke-linecap="round" />
    <path
        d="M64.2513 38.291C59.229 39.2955 57.3875 46.7223 57.4715 51.0031C57.5795 56.5142 59.1112 56.9354 64.0629 56.9354C68.9017 56.9354 71.8785 56.6041 71.8785 51.0973C71.8785 47.0228 73.4467 40.9776 68.4886 39.986"
        stroke="palevioletred" stroke-width="7" stroke-linecap="round" />
    <path
        d="M85.4382 38.291C85.2694 44.3671 82.2327 49.5827 85.0616 55.2405C86.8458 58.8089 89.9844 60.1977 93.0655 56.9354C95.639 54.2105 96.2719 48.7405 96.4553 45.0708C96.6435 41.3075 93.9294 39.4265 90.523 38.291"
        stroke="palevioletred" stroke-width="7" stroke-linecap="round" />
    <path d="M110.015 31.5112C110.827 40.4524 112.076 49.9254 114.252 58.6304"
        stroke="palevioletred" stroke-width="7" stroke-linecap="round" />
    <path
        d="M150.694 31.5112C147.284 31.5112 132.606 32.2057 132.897 37.4435C133.137 41.7724 143.692 40.9943 145.562 43.7996C148.622 48.3901 146.527 50.5463 142.596 53.1218C140.432 54.5394 132.897 61.3381 132.897 55.2405"
        stroke="palevioletred" stroke-width="7" stroke-linecap="round" />
    <path d="M162.559 34.9012C166.945 34.9012 174.931 36.5404 178.661 34.0537"
        stroke="palevioletred" stroke-width="7" stroke-linecap="round" />
    <path
        d="M173.575 28.1213C167.785 29.4081 170.186 47.7822 170.186 52.2743C170.186 56.3367 179.168 54.2252 180.355 51.8506"
        stroke="palevioletred" stroke-width="7" stroke-linecap="round" />
    <path
        d="M193.915 31.5112C190.413 35.888 188.297 47.2204 191.796 52.2743C197.269 60.1796 203.251 53.9805 207.003 48.084C208.491 45.7459 210.017 34.2699 210.017 43.8467C210.017 49.5675 211.345 53.5455 217.644 53.5455"
        stroke="palevioletred" stroke-width="7" stroke-linecap="round" />
    <path
        d="M237.136 34.9011C229.753 34.9011 226.119 34.0252 226.119 42.7167C226.119 46.5853 227.708 49.9399 227.814 53.5455C227.839 54.3871 227.814 60.2542 227.814 56.9354"
        stroke="palevioletred" stroke-width="7" stroke-linecap="round" />
    <path d="M224.424 46.7658C224.823 45.8338 236.638 46.7658 238.831 46.7658"
        stroke="palevioletred" stroke-width="7" stroke-linecap="round" />
    <path
        d="M261.713 39.1386C261.486 37.099 258.435 35.8019 256.628 35.7487C252.553 35.6288 250.145 39.6802 249.895 43.423C249.442 50.2164 251.543 56.2535 251.543 62.8678"
        stroke="palevioletred" stroke-width="7" stroke-linecap="round" />
    <path d="M244.764 51.8506H261.713" stroke="palevioletred" stroke-width="7"
        stroke-linecap="round" />
    <path
        d="M281.205 29.8163C281.205 35.0409 281.06 40.1488 280.546 45.3533C280.276 48.0873 281.407 53.3431 279.51 55.2405"
        stroke="palevioletred" stroke-width="7" stroke-linecap="round" />
    <path d="M275.272 67.9526V72.19" stroke="palevioletred" stroke-width="7" stroke-linecap="round" />
    <path
        d="M49.8447 84.902C49.8447 93.0512 55.1834 99.6379 59.1669 106.277C60.1521 107.919 73.0375 123.348 71.7848 114.893C71.0656 110.038 67.6688 105.735 66.4175 100.957C64.9748 95.4485 64.962 89.6445 63.8751 84.0546C62.5908 77.4495 62.3537 75.5798 68.4891 75.5798"
        stroke="palevioletred" stroke-width="7" stroke-linecap="round" />
    <path
        d="M36.2846 77.2748C20.359 76.4366 4.65954 60.5204 4.08061 44.6C3.91437 40.0283 3.65497 34.7089 5.3989 30.4284C7.50625 25.2558 13.1591 22.6751 17.6402 19.835C22.3589 16.8442 27.0905 13.9808 32.1414 11.5956C38.6977 8.49958 44.2591 8.48473 51.0683 6.74621C66.6714 2.76244 85.0378 5.2396 101.022 5.2396C119.698 5.2396 138.342 5.99283 157.002 6.08707C165.356 6.12926 173.78 5.77913 182.097 6.74621C193.819 8.10925 205.193 12.0891 216.985 12.7727C227.558 13.3856 237.667 13.622 248.153 15.5976C264.898 18.7524 281.072 23.7825 298.154 24.7315C304.115 25.0626 305.781 33.784 305.781 38.1027C305.781 48.3516 306.007 59.3884 301.167 68.8C298.05 74.8608 292.884 83.4731 287.513 87.8211C283.193 91.3187 276.233 92.2896 270.94 93.1884C257.223 95.5177 245.044 88.6451 232.522 84.7137C224.063 82.0582 214.685 78.9697 205.779 78.9697C191.309 78.9697 176.839 78.9697 162.37 78.9697C142.658 78.9697 122.946 78.9697 103.235 78.9697C96.5543 78.9697 87.9246 80.4646 81.4831 78.1222C78.4899 77.0338 69.442 76.7453 68.4885 73.8849"
        stroke="palevioletred" stroke-width="7" stroke-linecap="round" />
    <path
        d="M35.4375 78.9698C39.4198 78.9698 43.8295 76.4769 47.6317 77.3219C48.4863 77.5118 48.2173 82.8849 48.9971 84.0546"
        stroke="palevioletred" stroke-width="7" stroke-linecap="round" />
</svg>