<svg width="471" height="274" viewBox="0 0 471 274" fill="none" xmlns="http://www.w3.org/2000/svg">
<path d="M148.681 25.1456C114.642 9.12718 65.7309 20.0612 59.3957 61.2398C57.3544 74.5083 59.1456 88.0125 57.0739 101.133C55.0704 113.822 49.8972 125.485 49.8972 138.388C49.8972 159.426 49.8972 180.463 49.8972 201.501C49.8972 209.681 44.8721 214.339 42.7206 221.87C38.987 234.937 30.2865 250.778 21.4018 260.708C18.0285 264.478 14.4188 274.835 7.04855 271.262C0.257696 267.969 1.62101 251.704 3.67132 246.671C8.41476 235.028 24.6012 230.329 35.1218 226.091C60.8648 215.722 88.7738 208.166 113.326 195.168C120.623 191.305 130.16 189.517 138.127 186.62C143.222 184.767 148.993 181.519 154.38 180.921C156.645 180.669 156.49 178.304 158.602 177.543C163.078 175.932 169.873 175.484 174.433 175.327C195.624 174.596 218.841 178.37 239.867 174.799C263.12 170.851 283.692 169.522 307.411 169.522C327.149 169.522 345.571 170.874 364.191 164.668C379.721 159.491 399.47 148.597 411.261 136.805C420.907 127.159 424.142 115.044 426.987 102.083C432.186 78.3982 429.057 59.395 420.338 37.388C409.706 10.5552 372.96 6.14862 347.411 6.14862C343.279 6.14862 339.9 3.16756 335.801 2.56031C328.222 1.43751 319.901 2.34923 312.266 2.34923C299.215 2.34923 286.163 2.34923 273.111 2.34923C258.259 2.34923 243.319 1.92493 228.469 2.34923C222.598 2.51696 218.144 8.04831 212.321 8.04831C206.939 8.04831 201.556 8.04831 196.174 8.04831" stroke="black" stroke-width="3" stroke-linecap="round"/>
<path d="M113.304 71.6043C113.304 73.8126 112.908 75.896 112.116 77.8543C111.325 79.771 110.262 81.4376 108.929 82.8543C107.595 84.3126 106.033 85.4585 104.241 86.2918C102.491 87.1251 100.616 87.5418 98.6162 87.5418C96.5329 87.5418 94.5537 87.1876 92.6787 86.4793C90.8037 85.771 89.1579 84.7293 87.7412 83.3543C86.3245 82.021 85.1995 80.396 84.3662 78.4793C83.5329 76.521 83.1162 74.3335 83.1162 71.9168C83.1162 69.7501 83.4704 67.7085 84.1787 65.7918C84.9287 63.8335 85.9495 62.1251 87.2412 60.6668C88.5745 59.2501 90.137 58.1251 91.9287 57.2918C93.7204 56.4168 95.6787 55.9793 97.8037 55.9793C99.9704 55.9793 101.991 56.3543 103.866 57.1043C105.783 57.8126 107.429 58.8543 108.804 60.2293C110.179 61.5626 111.262 63.2085 112.054 65.1668C112.887 67.0835 113.304 69.2293 113.304 71.6043ZM108.679 72.2918C108.679 70.7501 108.491 69.1251 108.116 67.4168C107.741 65.6668 107.137 64.0835 106.304 62.6668C105.429 61.2085 104.304 60.021 102.929 59.1043C101.595 58.146 99.9495 57.6668 97.9912 57.6668C96.1162 57.6668 94.512 58.0835 93.1787 58.9168C91.887 59.7501 90.8454 60.8126 90.0537 62.1043C89.262 63.4376 88.6787 64.9168 88.3037 66.5418C87.9704 68.1251 87.8037 69.6876 87.8037 71.2293C87.8037 72.6876 87.9912 74.271 88.3662 75.9793C88.7412 77.646 89.3454 79.2085 90.1787 80.6668C91.012 82.1251 92.0954 83.3543 93.4287 84.3543C94.8037 85.3126 96.4912 85.7918 98.4912 85.7918C100.366 85.7918 101.95 85.3751 103.241 84.5418C104.533 83.7085 105.575 82.6251 106.366 81.2918C107.2 80.0001 107.783 78.5626 108.116 76.9793C108.491 75.3543 108.679 73.7918 108.679 72.2918ZM119.931 45.2293C119.931 44.146 119.869 43.2918 119.744 42.6668C119.66 42.0001 119.473 41.4793 119.181 41.1043C118.89 40.771 118.452 40.5626 117.869 40.4793C117.327 40.396 116.619 40.3543 115.744 40.3543V39.1043C117.077 38.8543 118.369 38.4793 119.619 37.9793C120.91 37.4376 122.035 36.7293 122.994 35.8543H124.119C123.994 36.9793 123.91 38.1876 123.869 39.4793C123.827 40.7293 123.806 41.8543 123.806 42.8543V62.8543C124.431 62.146 125.14 61.396 125.931 60.6043C126.765 59.8126 127.64 59.0626 128.556 58.3543C129.515 57.6876 130.515 57.1251 131.556 56.6668C132.64 56.2085 133.744 55.9793 134.869 55.9793C137.452 55.9793 139.473 56.9376 140.931 58.8543C142.39 60.771 143.119 63.1668 143.119 66.0418V80.0418C143.119 81.0001 143.14 81.7918 143.181 82.4168C143.265 83.0418 143.452 83.5418 143.744 83.9168C144.035 84.2918 144.494 84.5626 145.119 84.7293C145.744 84.8543 146.598 84.9168 147.681 84.9168V86.4793C147.098 86.4793 146.535 86.4793 145.994 86.4793C145.494 86.4793 144.994 86.4585 144.494 86.4168C143.994 86.4168 143.473 86.4168 142.931 86.4168C142.39 86.3751 141.806 86.3543 141.181 86.3543C140.556 86.3543 139.973 86.3751 139.431 86.4168C138.931 86.4168 138.431 86.4168 137.931 86.4168C137.431 86.4168 136.91 86.4376 136.369 86.4793C135.869 86.4793 135.327 86.4793 134.744 86.4793V84.9168C135.66 84.9168 136.41 84.8751 136.994 84.7918C137.619 84.7085 138.098 84.5001 138.431 84.1668C138.765 83.8335 138.994 83.3543 139.119 82.7293C139.244 82.0626 139.306 81.1668 139.306 80.0418V69.9168C139.306 67.8751 139.181 66.2085 138.931 64.9168C138.723 63.5835 138.348 62.521 137.806 61.7293C137.306 60.9376 136.619 60.396 135.744 60.1043C134.91 59.771 133.869 59.6043 132.619 59.6043C131.077 59.6043 129.473 60.1876 127.806 61.3543C126.14 62.4793 124.806 63.7293 123.806 65.1043V80.0418C123.806 82.0001 124.056 83.3126 124.556 83.9793C125.098 84.6043 126.369 84.9168 128.369 84.9168V86.4793C127.744 86.4793 127.181 86.4793 126.681 86.4793C126.181 86.4793 125.681 86.4585 125.181 86.4168C124.681 86.4168 124.16 86.4168 123.619 86.4168C123.119 86.3751 122.577 86.3543 121.994 86.3543C121.369 86.3543 120.785 86.3751 120.244 86.4168C119.744 86.4168 119.244 86.4168 118.744 86.4168C118.202 86.4168 117.66 86.4376 117.119 86.4793C116.619 86.4793 116.077 86.4793 115.494 86.4793V84.9168C117.369 84.9168 118.577 84.6043 119.119 83.9793C119.66 83.3543 119.931 82.0418 119.931 80.0418V45.2293ZM152.184 64.2293V61.2293H182.684V64.2293H152.184ZM191.624 45.2293C191.624 44.146 191.561 43.2918 191.436 42.6668C191.353 42.0001 191.165 41.4793 190.874 41.1043C190.582 40.771 190.145 40.5626 189.561 40.4793C189.02 40.396 188.311 40.3543 187.436 40.3543V39.1043C188.77 38.8543 190.061 38.4793 191.311 37.9793C192.603 37.4376 193.728 36.7293 194.686 35.8543H195.811C195.686 36.9793 195.603 38.1876 195.561 39.4793C195.52 40.7293 195.499 41.8543 195.499 42.8543V62.8543C196.124 62.146 196.832 61.396 197.624 60.6043C198.457 59.8126 199.332 59.0626 200.249 58.3543C201.207 57.6876 202.207 57.1251 203.249 56.6668C204.332 56.2085 205.436 55.9793 206.561 55.9793C209.145 55.9793 211.165 56.9376 212.624 58.8543C214.082 60.771 214.811 63.1668 214.811 66.0418V80.0418C214.811 81.0001 214.832 81.7918 214.874 82.4168C214.957 83.0418 215.145 83.5418 215.436 83.9168C215.728 84.2918 216.186 84.5626 216.811 84.7293C217.436 84.8543 218.29 84.9168 219.374 84.9168V86.4793C218.79 86.4793 218.228 86.4793 217.686 86.4793C217.186 86.4793 216.686 86.4585 216.186 86.4168C215.686 86.4168 215.165 86.4168 214.624 86.4168C214.082 86.3751 213.499 86.3543 212.874 86.3543C212.249 86.3543 211.665 86.3751 211.124 86.4168C210.624 86.4168 210.124 86.4168 209.624 86.4168C209.124 86.4168 208.603 86.4376 208.061 86.4793C207.561 86.4793 207.02 86.4793 206.436 86.4793V84.9168C207.353 84.9168 208.103 84.8751 208.686 84.7918C209.311 84.7085 209.79 84.5001 210.124 84.1668C210.457 83.8335 210.686 83.3543 210.811 82.7293C210.936 82.0626 210.999 81.1668 210.999 80.0418V69.9168C210.999 67.8751 210.874 66.2085 210.624 64.9168C210.415 63.5835 210.04 62.521 209.499 61.7293C208.999 60.9376 208.311 60.396 207.436 60.1043C206.603 59.771 205.561 59.6043 204.311 59.6043C202.77 59.6043 201.165 60.1876 199.499 61.3543C197.832 62.4793 196.499 63.7293 195.499 65.1043V80.0418C195.499 82.0001 195.749 83.3126 196.249 83.9793C196.79 84.6043 198.061 84.9168 200.061 84.9168V86.4793C199.436 86.4793 198.874 86.4793 198.374 86.4793C197.874 86.4793 197.374 86.4585 196.874 86.4168C196.374 86.4168 195.853 86.4168 195.311 86.4168C194.811 86.3751 194.27 86.3543 193.686 86.3543C193.061 86.3543 192.478 86.3751 191.936 86.4168C191.436 86.4168 190.936 86.4168 190.436 86.4168C189.895 86.4168 189.353 86.4376 188.811 86.4793C188.311 86.4793 187.77 86.4793 187.186 86.4793V84.9168C189.061 84.9168 190.27 84.6043 190.811 83.9793C191.353 83.3543 191.624 82.0418 191.624 80.0418V45.2293ZM251.751 71.6043C251.751 73.8126 251.355 75.896 250.564 77.8543C249.772 79.771 248.71 81.4376 247.376 82.8543C246.043 84.3126 244.48 85.4585 242.689 86.2918C240.939 87.1251 239.064 87.5418 237.064 87.5418C234.98 87.5418 233.001 87.1876 231.126 86.4793C229.251 85.771 227.605 84.7293 226.189 83.3543C224.772 82.021 223.647 80.396 222.814 78.4793C221.98 76.521 221.564 74.3335 221.564 71.9168C221.564 69.7501 221.918 67.7085 222.626 65.7918C223.376 63.8335 224.397 62.1251 225.689 60.6668C227.022 59.2501 228.585 58.1251 230.376 57.2918C232.168 56.4168 234.126 55.9793 236.251 55.9793C238.418 55.9793 240.439 56.3543 242.314 57.1043C244.23 57.8126 245.876 58.8543 247.251 60.2293C248.626 61.5626 249.71 63.2085 250.501 65.1668C251.335 67.0835 251.751 69.2293 251.751 71.6043ZM247.126 72.2918C247.126 70.7501 246.939 69.1251 246.564 67.4168C246.189 65.6668 245.585 64.0835 244.751 62.6668C243.876 61.2085 242.751 60.021 241.376 59.1043C240.043 58.146 238.397 57.6668 236.439 57.6668C234.564 57.6668 232.96 58.0835 231.626 58.9168C230.335 59.7501 229.293 60.8126 228.501 62.1043C227.71 63.4376 227.126 64.9168 226.751 66.5418C226.418 68.1251 226.251 69.6876 226.251 71.2293C226.251 72.6876 226.439 74.271 226.814 75.9793C227.189 77.646 227.793 79.2085 228.626 80.6668C229.46 82.1251 230.543 83.3543 231.876 84.3543C233.251 85.3126 234.939 85.7918 236.939 85.7918C238.814 85.7918 240.397 85.3751 241.689 84.5418C242.98 83.7085 244.022 82.6251 244.814 81.2918C245.647 80.0001 246.23 78.5626 246.564 76.9793C246.939 75.3543 247.126 73.7918 247.126 72.2918ZM257.254 64.2293V61.2293H287.754V64.2293H257.254ZM296.694 45.2293C296.694 44.146 296.631 43.2918 296.506 42.6668C296.423 42.0001 296.235 41.4793 295.944 41.1043C295.652 40.771 295.215 40.5626 294.631 40.4793C294.09 40.396 293.381 40.3543 292.506 40.3543V39.1043C293.84 38.8543 295.131 38.4793 296.381 37.9793C297.673 37.4376 298.798 36.7293 299.756 35.8543H300.881C300.756 36.9793 300.673 38.1876 300.631 39.4793C300.59 40.7293 300.569 41.8543 300.569 42.8543V62.8543C301.194 62.146 301.902 61.396 302.694 60.6043C303.527 59.8126 304.402 59.0626 305.319 58.3543C306.277 57.6876 307.277 57.1251 308.319 56.6668C309.402 56.2085 310.506 55.9793 311.631 55.9793C314.215 55.9793 316.235 56.9376 317.694 58.8543C319.152 60.771 319.881 63.1668 319.881 66.0418V80.0418C319.881 81.0001 319.902 81.7918 319.944 82.4168C320.027 83.0418 320.215 83.5418 320.506 83.9168C320.798 84.2918 321.256 84.5626 321.881 84.7293C322.506 84.8543 323.36 84.9168 324.444 84.9168V86.4793C323.86 86.4793 323.298 86.4793 322.756 86.4793C322.256 86.4793 321.756 86.4585 321.256 86.4168C320.756 86.4168 320.235 86.4168 319.694 86.4168C319.152 86.3751 318.569 86.3543 317.944 86.3543C317.319 86.3543 316.735 86.3751 316.194 86.4168C315.694 86.4168 315.194 86.4168 314.694 86.4168C314.194 86.4168 313.673 86.4376 313.131 86.4793C312.631 86.4793 312.09 86.4793 311.506 86.4793V84.9168C312.423 84.9168 313.173 84.8751 313.756 84.7918C314.381 84.7085 314.86 84.5001 315.194 84.1668C315.527 83.8335 315.756 83.3543 315.881 82.7293C316.006 82.0626 316.069 81.1668 316.069 80.0418V69.9168C316.069 67.8751 315.944 66.2085 315.694 64.9168C315.485 63.5835 315.11 62.521 314.569 61.7293C314.069 60.9376 313.381 60.396 312.506 60.1043C311.673 59.771 310.631 59.6043 309.381 59.6043C307.84 59.6043 306.235 60.1876 304.569 61.3543C302.902 62.4793 301.569 63.7293 300.569 65.1043V80.0418C300.569 82.0001 300.819 83.3126 301.319 83.9793C301.86 84.6043 303.131 84.9168 305.131 84.9168V86.4793C304.506 86.4793 303.944 86.4793 303.444 86.4793C302.944 86.4793 302.444 86.4585 301.944 86.4168C301.444 86.4168 300.923 86.4168 300.381 86.4168C299.881 86.3751 299.34 86.3543 298.756 86.3543C298.131 86.3543 297.548 86.3751 297.006 86.4168C296.506 86.4168 296.006 86.4168 295.506 86.4168C294.965 86.4168 294.423 86.4376 293.881 86.4793C293.381 86.4793 292.84 86.4793 292.256 86.4793V84.9168C294.131 84.9168 295.34 84.6043 295.881 83.9793C296.423 83.3543 296.694 82.0418 296.694 80.0418V45.2293ZM356.821 71.6043C356.821 73.8126 356.425 75.896 355.634 77.8543C354.842 79.771 353.78 81.4376 352.446 82.8543C351.113 84.3126 349.55 85.4585 347.759 86.2918C346.009 87.1251 344.134 87.5418 342.134 87.5418C340.05 87.5418 338.071 87.1876 336.196 86.4793C334.321 85.771 332.675 84.7293 331.259 83.3543C329.842 82.021 328.717 80.396 327.884 78.4793C327.05 76.521 326.634 74.3335 326.634 71.9168C326.634 69.7501 326.988 67.7085 327.696 65.7918C328.446 63.8335 329.467 62.1251 330.759 60.6668C332.092 59.2501 333.655 58.1251 335.446 57.2918C337.238 56.4168 339.196 55.9793 341.321 55.9793C343.488 55.9793 345.509 56.3543 347.384 57.1043C349.3 57.8126 350.946 58.8543 352.321 60.2293C353.696 61.5626 354.78 63.2085 355.571 65.1668C356.405 67.0835 356.821 69.2293 356.821 71.6043ZM352.196 72.2918C352.196 70.7501 352.009 69.1251 351.634 67.4168C351.259 65.6668 350.655 64.0835 349.821 62.6668C348.946 61.2085 347.821 60.021 346.446 59.1043C345.113 58.146 343.467 57.6668 341.509 57.6668C339.634 57.6668 338.03 58.0835 336.696 58.9168C335.405 59.7501 334.363 60.8126 333.571 62.1043C332.78 63.4376 332.196 64.9168 331.821 66.5418C331.488 68.1251 331.321 69.6876 331.321 71.2293C331.321 72.6876 331.509 74.271 331.884 75.9793C332.259 77.646 332.863 79.2085 333.696 80.6668C334.53 82.1251 335.613 83.3543 336.946 84.3543C338.321 85.3126 340.009 85.7918 342.009 85.7918C343.884 85.7918 345.467 85.3751 346.759 84.5418C348.05 83.7085 349.092 82.6251 349.884 81.2918C350.717 80.0001 351.3 78.5626 351.634 76.9793C352.009 75.3543 352.196 73.7918 352.196 72.2918ZM367.574 56.0418C367.449 57.1668 367.365 58.271 367.324 59.3543C367.324 60.4376 367.324 61.2501 367.324 61.7918C369.199 60.4168 371.22 59.1043 373.386 57.8543C375.553 56.6043 377.636 55.9793 379.636 55.9793C382.136 55.9793 383.928 56.896 385.011 58.7293C386.095 60.521 386.636 62.7085 386.636 65.2918V80.1043C386.636 81.8543 386.928 83.1043 387.511 83.8543C388.095 84.5626 389.324 84.9168 391.199 84.9168V86.4793C390.615 86.4793 390.053 86.4793 389.511 86.4793C389.011 86.4793 388.511 86.4585 388.011 86.4168C387.511 86.4168 386.99 86.4168 386.449 86.4168C385.949 86.3751 385.407 86.3543 384.824 86.3543C384.199 86.3543 383.615 86.3751 383.074 86.4168C382.574 86.4168 382.074 86.4168 381.574 86.4168C381.074 86.4168 380.553 86.4376 380.011 86.4793C379.511 86.4793 378.97 86.4793 378.386 86.4793V84.9168C380.178 84.9168 381.365 84.5626 381.949 83.8543C382.532 83.1043 382.824 81.8543 382.824 80.1043V65.2293C382.824 63.146 382.345 61.646 381.386 60.7293C380.428 59.8126 378.845 59.3543 376.636 59.3543C376.011 59.396 375.282 59.5626 374.449 59.8543C373.615 60.1043 372.782 60.4168 371.949 60.7918C371.074 61.2085 370.22 61.6668 369.386 62.1668C368.595 62.6668 367.907 63.1668 367.324 63.6668V80.1043C367.324 81.8543 367.615 83.1043 368.199 83.8543C368.782 84.5626 370.011 84.9168 371.886 84.9168V86.4793C371.261 86.4793 370.699 86.4793 370.199 86.4793C369.699 86.4793 369.199 86.4585 368.699 86.4168C368.199 86.4168 367.678 86.4168 367.136 86.4168C366.636 86.3751 366.095 86.3543 365.511 86.3543C364.886 86.3543 364.303 86.3751 363.761 86.4168C363.261 86.4168 362.761 86.4168 362.261 86.4168C361.72 86.4168 361.178 86.4376 360.636 86.4793C360.136 86.4793 359.595 86.4793 359.011 86.4793V84.9168C360.845 84.9168 362.032 84.5626 362.574 83.8543C363.157 83.1043 363.449 81.8543 363.449 80.1043V65.4168C363.449 64.2918 363.407 63.396 363.324 62.7293C363.282 62.0626 363.136 61.5418 362.886 61.1668C362.636 60.7918 362.261 60.5418 361.761 60.4168C361.261 60.2918 360.574 60.2293 359.699 60.2293V58.9168C361.032 58.7085 362.24 58.396 363.324 57.9793C364.449 57.5626 365.47 56.9168 366.386 56.0418H367.574ZM420.951 60.6668L414.389 60.4168C414.805 60.9168 415.18 61.7293 415.514 62.8543C415.889 63.9793 416.076 64.9376 416.076 65.7293C416.076 69.021 414.993 71.5626 412.826 73.3543C410.701 75.1043 407.889 75.9793 404.389 75.9793C403.889 75.9793 403.326 75.9793 402.701 75.9793C402.118 75.9376 401.514 75.8335 400.889 75.6668C400.389 76.0418 399.951 76.3751 399.576 76.6668C399.243 76.9168 398.972 77.1668 398.764 77.4168C398.514 77.6668 398.347 77.9376 398.264 78.2293C398.18 78.521 398.139 78.8543 398.139 79.2293C398.139 79.4793 398.16 79.8126 398.201 80.2293C398.243 80.6043 398.43 80.9793 398.764 81.3543C399.097 81.7293 399.618 82.0626 400.326 82.3543C401.035 82.6043 402.055 82.7293 403.389 82.7293C404.18 82.7293 404.951 82.7501 405.701 82.7918C406.493 82.7918 407.243 82.7918 407.951 82.7918C408.701 82.7918 409.41 82.7918 410.076 82.7918C410.743 82.7918 411.43 82.7918 412.139 82.7918C414.764 82.7918 416.91 83.3751 418.576 84.5418C420.243 85.7085 421.076 87.5626 421.076 90.1043C421.076 91.646 420.639 93.1043 419.764 94.4793C418.889 95.896 417.68 97.146 416.139 98.2293C414.639 99.3126 412.847 100.167 410.764 100.792C408.68 101.458 406.451 101.792 404.076 101.792C402.076 101.792 400.326 101.542 398.826 101.042C397.326 100.542 396.076 99.9168 395.076 99.1668C394.076 98.4168 393.326 97.5835 392.826 96.6668C392.368 95.7501 392.139 94.8126 392.139 93.8543C392.139 91.6876 392.889 89.9376 394.389 88.6043C395.93 87.271 397.618 86.3335 399.451 85.7918C397.201 85.2918 395.701 84.3126 394.951 82.8543C394.243 81.396 394.118 79.8751 394.576 78.2918C395.451 77.7918 396.347 77.2293 397.264 76.6043C398.18 75.9376 398.826 75.4168 399.201 75.0418C397.66 74.2501 396.326 73.1668 395.201 71.7918C394.118 70.3751 393.576 68.521 393.576 66.2293C393.576 63.3126 394.576 60.8751 396.576 58.9168C398.618 56.9585 401.576 55.9793 405.451 55.9793C406.326 55.9793 407.285 56.0835 408.326 56.2918C409.368 56.4585 410.305 56.646 411.139 56.8543C412.014 57.1876 412.972 57.4793 414.014 57.7293C415.055 57.9376 416.326 58.0418 417.826 58.0418C418.118 58.0418 418.368 58.0626 418.576 58.1043C418.785 58.1043 418.993 58.0835 419.201 58.0418C419.41 58.0418 419.639 58.0418 419.889 58.0418C420.139 58.0001 420.493 57.9376 420.951 57.8543V60.6668ZM395.514 92.9168C395.514 95.1668 396.472 96.8543 398.389 97.9793C400.305 99.146 402.535 99.7293 405.076 99.7293C406.785 99.7293 408.389 99.5418 409.889 99.1668C411.43 98.7918 412.785 98.271 413.951 97.6043C415.076 96.9376 415.972 96.146 416.639 95.2293C417.305 94.3126 417.639 93.271 417.639 92.1043C417.639 91.0626 417.347 90.1668 416.764 89.4168C416.222 88.7085 415.493 88.146 414.576 87.7293C413.618 87.271 412.514 86.9585 411.264 86.7918C410.055 86.5835 408.764 86.4793 407.389 86.4793C403.514 86.4793 400.555 87.0626 398.514 88.2293C396.514 89.4376 395.514 91.0001 395.514 92.9168ZM397.889 65.5418C397.889 67.9168 398.472 69.9793 399.639 71.7293C400.805 73.4793 402.555 74.3543 404.889 74.3543C407.555 74.3543 409.43 73.5626 410.514 71.9793C411.639 70.396 412.201 68.5418 412.201 66.4168C412.201 65.4168 412.055 64.396 411.764 63.3543C411.472 62.271 411.035 61.3126 410.451 60.4793C409.868 59.646 409.097 58.9585 408.139 58.4168C407.18 57.8751 406.035 57.6043 404.701 57.6043C403.493 57.6043 402.451 57.8543 401.576 58.3543C400.701 58.8543 399.993 59.4793 399.451 60.2293C398.91 61.021 398.514 61.896 398.264 62.8543C398.014 63.771 397.889 64.6668 397.889 65.5418ZM461.766 59.1668C461.391 60.5835 460.912 61.896 460.329 63.1043C459.787 64.271 459.1 65.2918 458.266 66.1668C457.433 67.0418 456.454 67.7293 455.329 68.2293C454.204 68.7293 452.912 68.9793 451.454 68.9793C449.745 68.9793 448.141 68.5626 446.641 67.7293C445.183 66.896 443.808 65.9793 442.516 64.9793C441.266 63.9376 440.058 63.0001 438.891 62.1668C437.766 61.3335 436.683 60.9168 435.641 60.9168C433.766 60.9168 432.037 61.5835 430.454 62.9168C428.87 64.2501 427.35 66.1668 425.891 68.6668L424.641 68.1043C425.141 66.8126 425.745 65.5626 426.454 64.3543C427.162 63.146 427.975 62.0835 428.891 61.1668C429.808 60.2501 430.85 59.521 432.016 58.9793C433.183 58.396 434.475 58.0835 435.891 58.0418C437.475 58.0418 438.975 58.4585 440.391 59.2918C441.85 60.1251 443.245 61.0418 444.579 62.0418C445.954 63.0001 447.245 63.896 448.454 64.7293C449.704 65.5626 450.891 65.9793 452.016 65.9793C453.891 65.896 455.579 65.2293 457.079 63.9793C458.579 62.7293 459.704 60.896 460.454 58.4793L461.766 59.1668ZM90.6787 136.042C90.5537 137.167 90.4704 138.271 90.4287 139.354C90.4287 140.438 90.4287 141.25 90.4287 141.792C92.3037 140.417 94.3245 139.104 96.4912 137.854C98.6579 136.604 100.741 135.979 102.741 135.979C105.241 135.979 107.033 136.896 108.116 138.729C109.2 140.521 109.741 142.708 109.741 145.292V160.104C109.741 161.854 110.033 163.104 110.616 163.854C111.2 164.563 112.429 164.917 114.304 164.917V166.479C113.72 166.479 113.158 166.479 112.616 166.479C112.116 166.479 111.616 166.458 111.116 166.417C110.616 166.417 110.095 166.417 109.554 166.417C109.054 166.375 108.512 166.354 107.929 166.354C107.304 166.354 106.72 166.375 106.179 166.417C105.679 166.417 105.179 166.417 104.679 166.417C104.179 166.417 103.658 166.438 103.116 166.479C102.616 166.479 102.075 166.479 101.491 166.479V164.917C103.283 164.917 104.47 164.563 105.054 163.854C105.637 163.104 105.929 161.854 105.929 160.104V145.229C105.929 143.146 105.45 141.646 104.491 140.729C103.533 139.813 101.95 139.354 99.7412 139.354C99.1162 139.396 98.387 139.563 97.5537 139.854C96.7204 140.104 95.887 140.417 95.0537 140.792C94.1787 141.208 93.3245 141.667 92.4912 142.167C91.6995 142.667 91.012 143.167 90.4287 143.667V160.104C90.4287 161.854 90.7204 163.104 91.3037 163.854C91.887 164.563 93.1162 164.917 94.9912 164.917V166.479C94.3662 166.479 93.8037 166.479 93.3037 166.479C92.8037 166.479 92.3037 166.458 91.8037 166.417C91.3037 166.417 90.7829 166.417 90.2412 166.417C89.7412 166.375 89.1995 166.354 88.6162 166.354C87.9912 166.354 87.4079 166.375 86.8662 166.417C86.3662 166.417 85.8662 166.417 85.3662 166.417C84.8245 166.417 84.2829 166.438 83.7412 166.479C83.2412 166.479 82.6995 166.479 82.1162 166.479V164.917C83.9495 164.917 85.137 164.563 85.6787 163.854C86.262 163.104 86.5537 161.854 86.5537 160.104V145.417C86.5537 144.292 86.512 143.396 86.4287 142.729C86.387 142.063 86.2412 141.542 85.9912 141.167C85.7412 140.792 85.3662 140.542 84.8662 140.417C84.3662 140.292 83.6787 140.229 82.8037 140.229V138.917C84.137 138.708 85.3454 138.396 86.4287 137.979C87.5537 137.563 88.5745 136.917 89.4912 136.042H90.6787ZM146.681 151.604C146.681 153.813 146.285 155.896 145.494 157.854C144.702 159.771 143.64 161.438 142.306 162.854C140.973 164.313 139.41 165.458 137.619 166.292C135.869 167.125 133.994 167.542 131.994 167.542C129.91 167.542 127.931 167.188 126.056 166.479C124.181 165.771 122.535 164.729 121.119 163.354C119.702 162.021 118.577 160.396 117.744 158.479C116.91 156.521 116.494 154.333 116.494 151.917C116.494 149.75 116.848 147.708 117.556 145.792C118.306 143.833 119.327 142.125 120.619 140.667C121.952 139.25 123.515 138.125 125.306 137.292C127.098 136.417 129.056 135.979 131.181 135.979C133.348 135.979 135.369 136.354 137.244 137.104C139.16 137.813 140.806 138.854 142.181 140.229C143.556 141.563 144.64 143.208 145.431 145.167C146.265 147.083 146.681 149.229 146.681 151.604ZM142.056 152.292C142.056 150.75 141.869 149.125 141.494 147.417C141.119 145.667 140.515 144.083 139.681 142.667C138.806 141.208 137.681 140.021 136.306 139.104C134.973 138.146 133.327 137.667 131.369 137.667C129.494 137.667 127.89 138.083 126.556 138.917C125.265 139.75 124.223 140.813 123.431 142.104C122.64 143.438 122.056 144.917 121.681 146.542C121.348 148.125 121.181 149.688 121.181 151.229C121.181 152.688 121.369 154.271 121.744 155.979C122.119 157.646 122.723 159.208 123.556 160.667C124.39 162.125 125.473 163.354 126.806 164.354C128.181 165.313 129.869 165.792 131.869 165.792C133.744 165.792 135.327 165.375 136.619 164.542C137.91 163.708 138.952 162.625 139.744 161.292C140.577 160 141.16 158.563 141.494 156.979C141.869 155.354 142.056 153.792 142.056 152.292ZM157.559 160.729C157.559 162.521 157.85 163.667 158.434 164.167C159.017 164.667 160.225 164.917 162.059 164.917V166.479C161.475 166.479 160.934 166.479 160.434 166.479C159.934 166.479 159.434 166.458 158.934 166.417C158.434 166.417 157.913 166.417 157.371 166.417C156.871 166.375 156.33 166.354 155.746 166.354C155.121 166.354 154.538 166.375 153.996 166.417C153.496 166.417 152.996 166.417 152.496 166.417C151.955 166.417 151.413 166.438 150.871 166.479C150.371 166.479 149.83 166.479 149.246 166.479V164.917C151.08 164.917 152.288 164.667 152.871 164.167C153.455 163.667 153.746 162.521 153.746 160.729V145.417C153.746 144.292 153.705 143.396 153.621 142.729C153.538 142.063 153.371 141.542 153.121 141.167C152.871 140.792 152.496 140.542 151.996 140.417C151.496 140.292 150.809 140.229 149.934 140.229V138.917C151.267 138.708 152.475 138.396 153.559 137.979C154.684 137.563 155.725 136.917 156.684 136.042H157.809C157.684 137.167 157.6 138.375 157.559 139.667C157.559 140.917 157.559 142.042 157.559 143.042V160.729ZM152.434 122.354C152.434 121.521 152.725 120.792 153.309 120.167C153.934 119.542 154.663 119.229 155.496 119.229C156.33 119.229 157.059 119.542 157.684 120.167C158.309 120.792 158.621 121.521 158.621 122.354C158.621 123.188 158.309 123.917 157.684 124.542C157.059 125.125 156.33 125.417 155.496 125.417C154.663 125.417 153.934 125.125 153.309 124.542C152.725 123.917 152.434 123.188 152.434 122.354ZM189.436 160.604C187.77 162.604 185.853 164.271 183.686 165.604C181.561 166.896 179.311 167.542 176.936 167.542C175.27 167.542 173.665 167.146 172.124 166.354C170.624 165.563 169.29 164.5 168.124 163.167C166.957 161.875 166.02 160.375 165.311 158.667C164.645 156.958 164.311 155.208 164.311 153.417C164.311 151 164.707 148.729 165.499 146.604C166.29 144.479 167.415 142.625 168.874 141.042C170.29 139.5 171.957 138.271 173.874 137.354C175.832 136.438 177.957 135.979 180.249 135.979C181.04 135.979 181.915 136.063 182.874 136.229C183.832 136.396 184.728 136.667 185.561 137.042C186.395 137.375 187.082 137.833 187.624 138.417C188.207 139 188.499 139.708 188.499 140.542C188.499 141.292 188.332 141.917 187.999 142.417C187.707 142.917 187.353 143.167 186.936 143.167C186.561 143.167 186.145 143.021 185.686 142.729C185.27 142.396 184.77 141.729 184.186 140.729C183.77 139.979 183.061 139.333 182.061 138.792C181.061 138.25 179.624 137.979 177.749 137.979C176.124 137.979 174.686 138.396 173.436 139.229C172.228 140.021 171.228 141.042 170.436 142.292C169.645 143.5 169.04 144.833 168.624 146.292C168.249 147.75 168.061 149.104 168.061 150.354C168.061 152.104 168.27 153.792 168.686 155.417C169.145 157.042 169.853 158.458 170.811 159.667C171.77 160.917 172.978 161.917 174.436 162.667C175.895 163.375 177.624 163.729 179.624 163.729C181.54 163.729 183.27 163.333 184.811 162.542C186.353 161.75 187.624 160.875 188.624 159.917L189.436 160.604ZM195.189 147.979C195.064 148.604 195.001 149.271 195.001 149.979C195.001 150.688 195.043 151.604 195.126 152.729C195.335 155.896 196.314 158.563 198.064 160.729C199.814 162.854 202.21 163.917 205.251 163.917C207.335 163.917 209.126 163.521 210.626 162.729C212.168 161.896 213.439 160.875 214.439 159.667L215.314 160.229C214.147 162.313 212.564 164.063 210.564 165.479C208.605 166.854 206.397 167.542 203.939 167.542C202.147 167.542 200.48 167.167 198.939 166.417C197.439 165.667 196.126 164.625 195.001 163.292C193.876 161.958 192.98 160.396 192.314 158.604C191.689 156.813 191.376 154.854 191.376 152.729C191.376 150.104 191.71 147.75 192.376 145.667C193.043 143.583 193.939 141.833 195.064 140.417C196.23 138.958 197.585 137.854 199.126 137.104C200.71 136.354 202.397 135.979 204.189 135.979C205.439 135.979 206.689 136.188 207.939 136.604C209.189 137.021 210.314 137.646 211.314 138.479C212.314 139.354 213.126 140.458 213.751 141.792C214.376 143.083 214.71 144.625 214.751 146.417C214.751 146.917 214.689 147.292 214.564 147.542C214.439 147.75 214.126 147.896 213.626 147.979H195.189ZM208.564 145.979C209.314 145.979 209.855 145.875 210.189 145.667C210.522 145.417 210.689 144.979 210.689 144.354C210.689 143.688 210.522 142.979 210.189 142.229C209.897 141.479 209.48 140.792 208.939 140.167C208.355 139.542 207.647 139.021 206.814 138.604C205.98 138.188 205.022 137.979 203.939 137.979C201.564 137.979 199.647 138.729 198.189 140.229C196.772 141.688 195.835 143.604 195.376 145.979H208.564ZM256.316 139.167C255.941 140.583 255.462 141.896 254.879 143.104C254.337 144.271 253.65 145.292 252.816 146.167C251.983 147.042 251.004 147.729 249.879 148.229C248.754 148.729 247.462 148.979 246.004 148.979C244.295 148.979 242.691 148.563 241.191 147.729C239.733 146.896 238.358 145.979 237.066 144.979C235.816 143.938 234.608 143 233.441 142.167C232.316 141.333 231.233 140.917 230.191 140.917C228.316 140.917 226.587 141.583 225.004 142.917C223.42 144.25 221.9 146.167 220.441 148.667L219.191 148.104C219.691 146.813 220.295 145.563 221.004 144.354C221.712 143.146 222.525 142.083 223.441 141.167C224.358 140.25 225.4 139.521 226.566 138.979C227.733 138.396 229.025 138.083 230.441 138.042C232.025 138.042 233.525 138.458 234.941 139.292C236.4 140.125 237.795 141.042 239.129 142.042C240.504 143 241.795 143.896 243.004 144.729C244.254 145.563 245.441 145.979 246.566 145.979C248.441 145.896 250.129 145.229 251.629 143.979C253.129 142.729 254.254 140.896 255.004 138.479L256.316 139.167ZM299.819 139.167C299.444 140.583 298.965 141.896 298.381 143.104C297.84 144.271 297.152 145.292 296.319 146.167C295.485 147.042 294.506 147.729 293.381 148.229C292.256 148.729 290.965 148.979 289.506 148.979C287.798 148.979 286.194 148.563 284.694 147.729C283.235 146.896 281.86 145.979 280.569 144.979C279.319 143.938 278.11 143 276.944 142.167C275.819 141.333 274.735 140.917 273.694 140.917C271.819 140.917 270.09 141.583 268.506 142.917C266.923 144.25 265.402 146.167 263.944 148.667L262.694 148.104C263.194 146.813 263.798 145.563 264.506 144.354C265.215 143.146 266.027 142.083 266.944 141.167C267.86 140.25 268.902 139.521 270.069 138.979C271.235 138.396 272.527 138.083 273.944 138.042C275.527 138.042 277.027 138.458 278.444 139.292C279.902 140.125 281.298 141.042 282.631 142.042C284.006 143 285.298 143.896 286.506 144.729C287.756 145.563 288.944 145.979 290.069 145.979C291.944 145.896 293.631 145.229 295.131 143.979C296.631 142.729 297.756 140.896 298.506 138.479L299.819 139.167Z" fill="black"/>
</svg>
