<svg width="224" height="166" viewBox="0 0 224 166" fill="none" xmlns="http://www.w3.org/2000/svg">
    <g id="border1">
        <path id="Vector"
            d="M87.0693 7.7301H99.8491M74.6655 9.23368C69.2239 9.23368 63.3791 8.78567 58.127 10.3613M43.4676 12.9924C41.6109 12.9924 39.7646 13.0089 37.913 13.1804C35.8949 13.3672 33.8181 14.1201 31.8154 14.1201M22.7944 22.0134C19.0648 22.4278 16.2426 25.9952 13.3975 28.0275M8.51052 41.9349C4.93824 45.5072 4 49.7744 4 54.7147M5.87988 69.7498C6.02889 73.3259 6.76715 76.8427 6.54811 80.4414C6.53773 80.6118 6.25576 82.9768 6.25576 82.5296M10.3906 95.3093C11.5735 97.2576 11.8532 99.5669 11.1424 101.699M12.6455 114.479C12.6455 118.047 13.7731 121.492 13.7731 125.004M16.0283 142.67V148.308M27.3047 156.577C28.8674 159.898 32.4303 161.84 36.3257 161.84M51.7363 160.712C55.6155 160.712 58.4962 159.584 62.2609 159.584M78.4238 159.208C80.2241 159.208 88.3321 160.065 88.9484 158.833M108.118 157.705C110.07 157.9 111.841 158.457 113.84 158.457C116.159 158.457 118.222 157.705 120.522 157.705M131.423 156.201H135.745C137.477 156.201 139.081 155.45 140.82 155.45M156.606 154.322H164.124M179.534 153.946C183.152 153.946 186.794 154.322 190.435 154.322M206.598 153.194C208.043 153.194 209.616 152.579 210.878 151.9C211.874 151.364 212.87 151.808 213.739 150.939M219.002 146.429C219.002 144.646 220.13 143.698 220.13 141.918M219.002 120.117V131.769M218.626 106.586C218.626 102.941 219.002 99.345 219.002 95.6853M219.002 83.6572C220.038 82.4914 219.378 79.3377 219.378 77.8938C219.378 76.5985 219.188 75.1597 219.42 73.8844C219.568 73.0683 220.13 72.4767 220.13 71.6292M219.002 58.4735C220.576 54.9325 219.236 49.3539 218.626 45.6937M217.122 32.9139C217.122 27.5111 214.036 22.3683 212.987 17.1271M205.094 6.22659C202.73 4.29207 199.552 3.59546 196.449 3.59546M185.549 4.72313C182.201 3.38415 177.14 4.34725 173.521 4.34725M143.45 4.34729H152.095M127.664 5.47485C125.131 5.47485 122.689 5.85073 120.146 5.85073"
            stroke="#B539A1" stroke-width="7" stroke-linecap="round" />
    </g>
</svg>