<svg width="188" height="188" viewBox="0 0 188 188" fill="none" xmlns="http://www.w3.org/2000/svg">
<g id="Property 1=Default">
<g id="back">
<path d="M4 0L31 20.25H4V0Z" fill="#B3B0A5"/>
<path d="M163.75 180V153L184 180H163.75Z" fill="#B3B0A5"/>
</g>
<g id="Wrapper" filter="url(#filter0_d_418_865)">
<path d="M184 82.2852L100.75 4.22908e-06L4 0C50.8645 49.0159 133.938 131.704 184 180V82.2852Z" fill="#F5F0D6"/>
</g>
<g id="info" clip-path="url(#clip0_418_865)">
<path id="Exclude" fill-rule="evenodd" clip-rule="evenodd" d="M131.007 89.9947C126.919 92.0272 122.359 93.1154 117.684 93.1154C109.911 93.1154 102.456 90.1066 96.9595 84.751C91.4629 79.3954 88.375 72.1317 88.375 64.5577C88.375 56.9837 91.4629 49.72 96.9595 44.3644C102.456 39.0087 109.911 36 117.684 36C125.458 36 132.912 39.0087 138.409 44.3644C140.751 46.6466 142.656 49.2755 144.071 52.1271L133.732 61.799L137.024 64.8783L145.841 56.6298C146.599 59.1842 146.993 61.8511 146.993 64.5577C146.993 64.8373 146.989 65.1165 146.981 65.3952H137.255V69.75H146.505C145.968 72.579 144.996 75.3071 143.629 77.8429L134.006 69.3405C133.672 69.0469 133.253 68.8846 132.81 68.8846C131.815 68.8846 131.007 69.6882 131.007 70.6773V89.9947ZM131.007 89.9947C133.716 88.6477 136.218 86.8858 138.409 84.751C140.515 82.6986 142.268 80.3659 143.629 77.8429L155.3 88.1555C155.665 88.4801 155.875 88.9437 155.875 89.4305C155.875 90.3732 155.106 91.1381 154.158 91.1381H144.98L149.386 99.9236C150 101.144 149.502 102.628 148.275 103.238C147.047 103.849 145.555 103.354 144.941 102.134L140.425 93.1471L134.006 100.449C133.68 100.82 133.206 101.029 132.716 101.029C131.776 101.029 131.007 100.271 131.007 99.3287V89.9947ZM146.505 69.75H152.385V65.3952H146.981C146.937 66.8647 146.776 68.3203 146.505 69.75ZM145.841 56.6298L147.722 54.8702L144.431 51.7909L144.071 52.1271C144.79 53.5759 145.382 55.0822 145.841 56.6298ZM115.852 73.482H113.105C111.582 73.482 110.357 74.6756 110.357 76.1593C110.357 77.6429 111.582 78.8365 113.105 78.8365H122.264C123.786 78.8365 125.012 77.6429 125.012 76.1593C125.012 74.6756 123.786 73.482 122.264 73.482H121.348V63.6653C121.348 62.1816 120.123 60.988 118.6 60.988H113.105C111.582 60.988 110.357 62.1816 110.357 63.6653C110.357 65.1489 111.582 66.3426 113.105 66.3426H115.852V73.482ZM120.275 51.3244C119.588 50.6549 118.656 50.2788 117.684 50.2788C116.713 50.2788 115.781 50.6549 115.094 51.3244C114.407 51.9938 114.021 52.9018 114.021 53.8486C114.021 54.7953 114.407 55.7033 115.094 56.3727C115.781 57.0422 116.713 57.4183 117.684 57.4183C118.656 57.4183 119.588 57.0422 120.275 56.3727C120.962 55.7033 121.348 54.7953 121.348 53.8486C121.348 52.9018 120.962 51.9938 120.275 51.3244ZM133.18 47.4313V61.5849H128.525V47.4313H133.18ZM106.995 54.5081V50.1532H102.34V54.5081H97.6849V58.8629H102.34V63.2178H106.995V58.8629H111.65L111.65 54.5081H106.995Z" fill="black"/>
</g>
<path id="K" d="M116.797 34.0003C116.667 34.0232 116.571 34.0279 116.507 34.0147C116.454 33.9875 116.383 33.9329 116.296 33.8508L111.473 28.868L110.558 30.5272L111.303 34.7644C111.328 34.9062 111.269 34.9896 111.127 35.0145L109.549 35.2916C109.408 35.3165 109.324 35.2581 109.299 35.1162L107.026 22.1744C107.001 22.0325 107.06 21.9492 107.202 21.9242L108.779 21.6471C108.921 21.6222 109.005 21.6807 109.03 21.8225L110.02 27.4602L113.592 21.0577C113.654 20.925 113.732 20.8503 113.827 20.8337L115.759 20.4943C115.889 20.4714 115.963 20.4767 115.981 20.5101C115.999 20.5435 115.981 20.6137 115.927 20.7207L112.487 27.0451L118.689 33.4304C118.823 33.5654 118.789 33.6505 118.588 33.6858L116.797 34.0003Z" fill="black"/>
<path id="C" d="M105.548 35.5033C105.282 35.7468 104.948 36.0177 104.548 36.3159C104.148 36.6141 103.659 36.9103 103.082 37.2045C102.173 37.6676 101.268 37.9401 100.367 38.0221C99.4765 38.0986 98.6305 37.9977 97.8288 37.7193C97.0216 37.4303 96.2775 36.9744 95.5966 36.3517C94.9156 35.7289 94.3355 34.9471 93.856 34.0062C93.3821 33.076 93.088 32.1551 92.9737 31.2437C92.8702 30.3268 92.9414 29.4622 93.1875 28.6499C93.4281 27.827 93.841 27.0779 94.4262 26.4026C95.0167 25.7112 95.7717 25.1312 96.6912 24.6627C97.1723 24.4175 97.6564 24.2046 98.1434 24.0238C98.625 23.8323 99.0828 23.7 99.517 23.6269C99.6509 23.5991 99.7422 23.6064 99.7908 23.649C99.834 23.6809 99.8775 23.753 99.9213 23.8654L100.494 25.0685C100.581 25.2396 100.598 25.3388 100.544 25.366C100.491 25.3932 100.389 25.4182 100.239 25.4408C99.3119 25.6034 98.4153 25.9054 97.5492 26.3467C96.8863 26.6845 96.3501 27.0991 95.9406 27.5906C95.5418 28.0766 95.2641 28.6154 95.1076 29.2069C94.9618 29.793 94.937 30.4184 95.0333 31.0831C95.1348 31.7317 95.3572 32.3928 95.7004 33.0664C96.0382 33.7293 96.453 34.2924 96.9449 34.7556C97.4314 35.208 97.9626 35.5502 98.5386 35.7819C99.1198 35.9975 99.7216 36.0949 100.344 36.0741C100.977 36.0478 101.604 35.8767 102.224 35.5607C102.78 35.2775 103.239 35.0164 103.602 34.7775C103.971 34.5224 104.291 34.2517 104.562 33.9652C104.674 33.8409 104.757 33.7785 104.81 33.7781C104.864 33.7777 104.91 33.815 104.948 33.8898L105.593 34.9958C105.663 35.108 105.696 35.199 105.691 35.2688C105.697 35.3331 105.649 35.4113 105.548 35.5033Z" fill="black"/>
<path id="I" d="M95.0777 42.2074C95.1918 42.3138 95.1957 42.424 95.0893 42.5381L93.9721 43.7361C93.8658 43.8502 93.7555 43.854 93.6414 43.7476L84.0578 34.8107C83.9437 34.7043 83.9398 34.5941 84.0462 34.48L85.1633 33.282C85.2697 33.1679 85.38 33.1641 85.4941 33.2705L95.0777 42.2074Z" fill="black"/>
<path id="L" d="M87.9046 52.0836C87.8728 52.1345 87.829 52.1707 87.773 52.1924C87.7132 52.1975 87.6579 52.1841 87.607 52.1523L76.4636 45.1892C76.4128 45.1574 76.3816 45.1167 76.3701 45.0671C76.3549 45.0009 76.3631 44.9424 76.3949 44.8915L77.2534 43.5177C77.2852 43.4668 77.331 43.4388 77.3908 43.4337C77.4467 43.4121 77.5002 43.4172 77.551 43.449L87.2748 49.525L89.7452 45.5714C89.8216 45.4493 89.9259 45.4296 90.0582 45.5123L91.2793 46.2754C91.3302 46.3071 91.3633 46.3561 91.3786 46.4223C91.39 46.4719 91.3799 46.5221 91.3481 46.573L87.9046 52.0836Z" fill="black"/>
<path id="C_2" d="M86.4017 56.5583C86.4232 56.9186 86.4239 57.3482 86.4038 57.8469C86.3837 58.3456 86.3062 58.9119 86.1715 59.5457C85.9594 60.5434 85.6018 61.4182 85.0985 62.17C84.5976 62.91 83.9868 63.504 83.2659 63.9519C82.5333 64.3973 81.7108 64.6886 80.7983 64.8259C79.8858 64.9632 78.9131 64.9221 77.8802 64.7025C76.859 64.4855 75.9583 64.1345 75.178 63.6497C74.4003 63.1532 73.7732 62.5537 73.2968 61.8513C72.8087 61.1464 72.4864 60.3541 72.3299 59.4743C72.1641 58.5803 72.1885 57.6286 72.4031 56.6191C72.5154 56.0909 72.6545 55.5807 72.8205 55.0885C72.9747 54.5937 73.16 54.1547 73.3765 53.7713C73.4391 53.6497 73.5023 53.5833 73.566 53.5723C73.6179 53.5588 73.7013 53.5704 73.8162 53.6071L75.1116 53.9193C75.2994 53.9592 75.3871 54.0085 75.3746 54.0672C75.3622 54.1259 75.3175 54.2207 75.2406 54.3515C74.7835 55.1745 74.4539 56.0613 74.2518 57.0121C74.0971 57.7398 74.0819 58.4175 74.2061 59.045C74.3329 59.6608 74.5768 60.2157 74.9381 60.7096C75.3018 61.1917 75.7722 61.6046 76.3494 61.9481C76.9173 62.2774 77.5711 62.5206 78.3105 62.6778C79.0383 62.8324 79.7369 62.8644 80.4064 62.7736C81.0642 62.6803 81.6644 62.4828 82.207 62.181C82.7403 61.865 83.1948 61.4586 83.5702 60.9618C83.9482 60.4533 84.2096 59.8586 84.3543 59.1778C84.484 58.5675 84.5703 58.046 84.6132 57.6135C84.6468 57.1667 84.6377 56.7477 84.586 56.3564C84.5597 56.1913 84.5633 56.0878 84.5968 56.0458C84.6302 56.0039 84.688 55.9916 84.7702 56.0091L86.0352 56.2044C86.1669 56.2201 86.2583 56.2518 86.3095 56.2995C86.3632 56.3354 86.3939 56.4217 86.4017 56.5583Z" fill="black"/>
</g>
<defs>
<filter id="filter0_d_418_865" x="0" y="0" width="188" height="188" filterUnits="userSpaceOnUse" color-interpolation-filters="sRGB">
<feFlood flood-opacity="0" result="BackgroundImageFix"/>
<feColorMatrix in="SourceAlpha" type="matrix" values="0 0 0 0 0 0 0 0 0 0 0 0 0 0 0 0 0 0 127 0" result="hardAlpha"/>
<feOffset dy="4"/>
<feGaussianBlur stdDeviation="2"/>
<feComposite in2="hardAlpha" operator="out"/>
<feColorMatrix type="matrix" values="0 0 0 0 0 0 0 0 0 0 0 0 0 0 0 0 0 0 0.25 0"/>
<feBlend mode="normal" in2="BackgroundImageFix" result="effect1_dropShadow_418_865"/>
<feBlend mode="normal" in="SourceGraphic" in2="effect1_dropShadow_418_865" result="shape"/>
</filter>
<clipPath id="clip0_418_865">
<rect width="72" height="72" fill="white" transform="translate(88.375 36)"/>
</clipPath>
</defs>
</svg>
