<svg width="188" height="188" viewBox="0 0 188 188" fill="none" xmlns="http://www.w3.org/2000/svg">
<g id="Property 1=DONE">
<g id="back">
<path d="M4 0L24.25 27V0L4 0Z" fill="#4E7540"/>
<path d="M184 159.75H157L184 180V159.75Z" fill="#4E7540"/>
</g>
<g id="Wrapper" filter="url(#filter0_d_540_2212)">
<path d="M86.2852 180L4 96.75L4 0C53.0159 46.8645 135.704 129.938 184 180H86.2852Z" fill="#5C9F44"/>
</g>
<path id="status" d="M24.8535 84.2874C25.4998 83.7902 26.2456 83.1936 27.0908 82.4975C27.9857 81.8015 28.918 81.0433 29.8875 80.2229C30.857 79.4026 31.8265 78.5325 32.796 77.6127C33.7904 76.7178 34.7475 75.8104 35.6672 74.8906C36.9351 73.6228 38.0537 72.3798 39.0232 71.1617C40.0425 69.9436 40.7882 68.8498 41.2606 67.8803C41.5092 67.3831 41.7453 67.0227 41.9691 66.7989C42.3419 66.426 42.7024 66.2147 43.0504 66.165C43.4482 66.1153 43.7714 66.2147 44.0199 66.4633C44.4674 66.9108 44.5171 67.6566 44.1691 68.7007C45.5612 70.0928 46.742 71.7211 47.7115 73.5855C48.7059 75.4748 49.3647 77.4014 49.6878 79.3653C50.0359 81.354 49.9862 83.293 49.5387 85.1823C49.1161 87.0468 48.1963 88.6875 46.7793 90.1044C45.7104 91.1734 44.4426 91.9689 42.9759 92.4909C41.5092 93.013 40.0052 93.2989 38.4639 93.3486C36.9226 93.3983 35.3938 93.2119 33.8774 92.7892C32.4107 92.3666 31.118 91.7452 29.9993 90.9248C29.6762 90.5519 29.5767 90.1542 29.701 89.7316C29.8502 89.2841 30.0615 88.9236 30.3349 88.6502C30.5338 88.4513 30.77 88.3146 31.0434 88.24C31.3666 88.1654 31.6649 88.2151 31.9384 88.3892C32.883 88.9858 33.9395 89.4208 35.1079 89.6943C36.326 89.9677 37.5317 90.0547 38.7249 89.9553C39.943 89.8807 41.0866 89.6321 42.1555 89.2095C43.2742 88.7869 44.2188 88.1903 44.9895 87.4197C45.8844 86.5247 46.4437 85.3936 46.6675 84.0264C46.916 82.6343 46.8912 81.1924 46.5929 79.7009C46.3443 78.2093 45.8471 76.7426 45.1013 75.3008C44.4053 73.8589 43.5476 72.6036 42.5284 71.5346C41.534 72.7776 40.4899 73.9957 39.3961 75.1889C38.3272 76.407 37.1961 77.6127 36.0028 78.8059C34.4367 80.3721 32.883 81.8263 31.3417 83.1687C29.8253 84.4863 28.2841 85.6795 26.7179 86.7485C26.2953 87.0219 25.8851 87.1338 25.4874 87.0841C25.1394 87.0343 24.8286 86.8976 24.5552 86.6739C24.3066 86.4253 24.145 86.0897 24.0704 85.6671C24.0207 85.2693 24.1947 84.8716 24.5925 84.4738C24.6422 84.4241 24.6795 84.3868 24.7043 84.362C24.754 84.362 24.8038 84.3371 24.8535 84.2874ZM58.6014 86.4143C59.1234 86.5386 59.5212 86.7375 59.7946 87.011C59.8443 86.9115 59.9313 86.7997 60.0556 86.6754C60.4534 86.2776 61.0251 86.203 61.7709 86.4516C62.5167 86.7002 63.2998 87.2347 64.1201 88.0551C65.4128 89.3477 66.1834 90.7399 66.432 92.2314C66.6806 93.723 66.5936 95.2021 66.171 96.6688C65.7484 98.1355 65.0772 99.5524 64.1574 100.92C63.2625 102.262 62.3054 103.443 61.2862 104.462C60.0929 105.655 58.7878 106.687 57.3708 107.557C56.0036 108.427 54.6115 109.049 53.1945 109.422C51.8024 109.77 50.4475 109.832 49.13 109.608C47.8125 109.384 46.6441 108.763 45.6249 107.744C44.1582 106.277 43.2011 104.798 42.7536 103.306C42.3559 101.815 42.3186 100.336 42.6417 98.8688C42.9649 97.4021 43.574 95.9976 44.4689 94.6552C45.3887 93.2879 46.4452 92.0077 47.6385 90.8144C49.5029 88.95 51.3052 87.7195 53.0453 87.1228C54.8103 86.5014 56.6624 86.2652 58.6014 86.4143ZM60.1675 89.0246C60.0681 89.0246 59.9686 88.9748 59.8692 88.8754C59.7698 88.776 59.72 88.6765 59.72 88.5771L59.5709 88.7263C59.1731 89.124 58.6262 89.3229 57.9302 89.3229C56.7618 89.298 55.4442 89.5963 53.9776 90.2178C52.5109 90.8393 51.1436 91.7839 49.8758 93.0518C48.9311 93.9964 48.1232 95.0032 47.452 96.0722C46.7808 97.1411 46.3085 98.21 46.035 99.279C45.7616 100.348 45.7367 101.392 45.9605 102.411C46.1842 103.43 46.7187 104.363 47.5639 105.208C48.2351 105.879 49.0057 106.302 49.8758 106.476C50.7707 106.625 51.7029 106.563 52.6724 106.289C53.6917 106.016 54.7233 105.531 55.7674 104.835C56.8364 104.114 57.9053 103.219 58.9743 102.15C59.6455 101.479 60.3415 100.659 61.0624 99.6892C61.8082 98.7445 62.3924 97.7377 62.815 96.6688C63.2625 95.575 63.4489 94.4687 63.3743 93.3501C63.3246 92.2563 62.8274 91.237 61.8828 90.2924C61.3607 89.7703 60.963 89.4472 60.6895 89.3229C60.441 89.2234 60.2669 89.124 60.1675 89.0246ZM83.1762 110.243C83.2259 110.144 83.3254 110.02 83.4745 109.871C83.8225 109.522 84.2079 109.336 84.6305 109.311C85.0531 109.286 85.4011 109.411 85.6746 109.684C85.948 109.958 86.122 110.306 86.1966 110.728C86.2712 111.151 86.1345 111.611 85.7864 112.108C84.9163 113.326 83.9593 114.532 82.9152 115.725C81.8711 116.918 80.7524 118.111 79.5592 119.305C77.6202 121.244 75.5693 123.096 73.4065 124.861C71.2686 126.601 69.2053 128.092 67.2166 129.335C66.794 129.609 66.4087 129.721 66.0606 129.671C65.7375 129.646 65.464 129.522 65.2403 129.298C64.9668 129.025 64.8177 128.602 64.7928 128.03C64.7431 127.483 64.8798 126.501 65.203 125.084C65.5262 123.667 66.0606 121.666 66.8064 119.081C67.577 116.52 68.6584 113.102 70.0505 108.826C70.5726 107.26 70.9579 106.079 71.2065 105.284C71.4551 104.488 71.6912 104.004 71.915 103.83C72.1884 103.556 72.5489 103.42 72.9964 103.42C73.4687 103.395 73.8416 103.519 74.115 103.792C74.3139 103.991 74.4382 104.165 74.4879 104.314C74.5873 104.464 74.5873 104.687 74.4879 104.986C74.4382 105.284 74.3015 105.719 74.0777 106.291C73.8789 106.838 73.6303 107.633 73.332 108.677L69.6776 120.461C69.4042 121.43 69.1805 122.25 69.0064 122.922C68.8324 123.593 68.7081 124.115 68.6336 124.488C71.7658 122.25 74.5873 119.876 77.0981 117.366C78.3162 116.147 79.4225 114.942 80.4168 113.749C81.4361 112.53 82.3558 111.362 83.1762 110.243ZM74.0777 100.697C72.9839 101.543 71.6912 102.661 70.1997 104.053C68.733 105.421 67.2414 106.863 65.725 108.379C64.134 109.97 62.6301 111.573 61.2131 113.189C59.8458 114.805 58.6029 116.172 57.4842 117.291C57.0119 117.763 56.5271 118.024 56.0299 118.074C55.5576 118.099 55.1599 117.95 54.8367 117.627C54.6378 117.428 54.5259 117.142 54.5011 116.769C54.5259 116.396 54.7124 115.986 55.0604 115.538C56.3034 113.947 57.7701 112.232 59.4605 110.393C61.1758 108.578 62.9284 106.776 64.7182 104.986C66.0358 103.668 67.3036 102.425 68.5217 101.257C69.7895 100.088 70.9952 99.0568 72.1387 98.1618C72.611 97.7392 73.0585 97.5652 73.4811 97.6398C73.9286 97.7392 74.289 97.9257 74.5625 98.1991C74.7862 98.5223 74.8857 98.8952 74.8608 99.3178C74.8608 99.7155 74.6744 100.101 74.3015 100.474L74.0777 100.697ZM87.8388 116.248C87.5156 115.776 87.354 115.341 87.354 114.943C87.3789 114.521 87.5032 114.198 87.7269 113.974C88.0004 113.7 88.3608 113.564 88.8083 113.564C89.2558 113.564 89.7032 113.787 90.1507 114.235C90.623 114.807 91.1202 115.378 91.6423 115.95C92.1643 116.522 92.6988 117.081 93.2457 117.628C94.1903 118.573 95.1225 119.455 96.0423 120.276C96.987 121.121 97.8819 121.867 98.7271 122.513C99.1497 122.936 99.361 123.371 99.361 123.818C99.4108 124.265 99.2989 124.626 99.0254 124.899C98.3294 125.595 97.3226 125.434 96.0051 124.415C94.7124 123.42 92.8106 121.668 90.2999 119.157C88.9823 120.077 87.6524 121.108 86.31 122.252C84.9924 123.371 83.6376 124.626 82.2455 126.018C81.3505 126.913 80.5053 127.783 79.7098 128.628C78.9143 129.474 78.1437 130.319 77.3979 131.164C76.9505 131.711 76.6397 132.196 76.4657 132.618C76.3414 133.041 76.329 133.451 76.4284 133.849C76.5776 134.246 76.8386 134.657 77.2115 135.079C77.6092 135.527 78.1188 136.061 78.7403 136.683C79.5358 137.478 80.3686 138.212 81.2387 138.883C82.1585 139.554 83.1155 140.113 84.1099 140.561C84.4082 140.71 84.6568 140.884 84.8557 141.083C85.1789 141.406 85.3156 141.717 85.2659 142.015C85.241 142.338 85.1167 142.612 84.893 142.835C84.4207 143.308 83.8116 143.469 83.0658 143.32C82.32 143.171 81.5494 142.873 80.7539 142.425C79.9833 142.003 79.2375 141.481 78.5166 140.859C77.7708 140.262 77.1742 139.74 76.7267 139.293C76.2544 138.821 75.7324 138.274 75.1606 137.652C74.5888 137.08 74.0916 136.434 73.669 135.713C73.2962 134.992 73.0724 134.222 72.9978 133.401C72.9233 132.581 73.147 131.736 73.669 130.866C74.1414 130.045 74.8126 129.125 75.6826 128.106C76.5776 127.062 77.5719 125.993 78.6657 124.899C79.5607 124.004 80.4556 123.134 81.3505 122.289C82.2952 121.444 83.1901 120.648 84.0353 119.903C84.8805 119.157 85.6512 118.511 86.3472 117.964C87.0682 117.392 87.6399 116.944 88.0625 116.621C87.9382 116.497 87.8761 116.41 87.8761 116.36C87.9009 116.335 87.8885 116.298 87.8388 116.248ZM83.5879 129.598C83.215 129.175 83.0658 128.777 83.1404 128.405C83.2398 128.057 83.4263 127.746 83.6997 127.472C83.9483 127.224 84.2715 127.099 84.6692 127.099C85.0919 127.124 85.4772 127.311 85.8252 127.659C86.2478 128.081 86.658 128.516 87.0557 128.964C87.4783 129.436 87.9009 129.884 88.3236 130.306C89.6908 131.674 91.1202 132.954 92.6118 134.147C92.9847 134.57 93.1711 134.98 93.1711 135.378C93.196 135.8 93.109 136.136 92.9101 136.384C92.5372 136.757 92.0649 136.857 91.4931 136.683C90.9462 136.484 90.362 136.173 89.7405 135.75C89.119 135.328 88.51 134.843 87.9134 134.296C87.3416 133.724 86.8444 133.227 86.4218 132.805C85.8998 132.283 85.4026 131.761 84.9303 131.239C84.4828 130.692 84.0353 130.145 83.5879 129.598Z" fill="#434343"/>
</g>
<defs>
<filter id="filter0_d_540_2212" x="0" y="0" width="188" height="188" filterUnits="userSpaceOnUse" color-interpolation-filters="sRGB">
<feFlood flood-opacity="0" result="BackgroundImageFix"/>
<feColorMatrix in="SourceAlpha" type="matrix" values="0 0 0 0 0 0 0 0 0 0 0 0 0 0 0 0 0 0 127 0" result="hardAlpha"/>
<feOffset dy="4"/>
<feGaussianBlur stdDeviation="2"/>
<feComposite in2="hardAlpha" operator="out"/>
<feColorMatrix type="matrix" values="0 0 0 0 0 0 0 0 0 0 0 0 0 0 0 0 0 0 0.25 0"/>
<feBlend mode="normal" in2="BackgroundImageFix" result="effect1_dropShadow_540_2212"/>
<feBlend mode="normal" in="SourceGraphic" in2="effect1_dropShadow_540_2212" result="shape"/>
</filter>
</defs>
</svg>
