<svg width="168" height="168" viewBox="0 0 168 168" fill="none" xmlns="http://www.w3.org/2000/svg">
<g id="Property 1=DROPPED">
<g id="back">
<path d="M4 0L28 18H4V0Z" fill="#893649"/>
<path d="M146 160V136L164 160H146Z" fill="#893649"/>
</g>
<g id="Wrapper" filter="url(#filter0_d_540_2216)">
<path d="M164 73.1424L90 3.75918e-06L4 0C45.6573 43.5697 119.5 117.07 164 160V73.1424Z" fill="#C9274C"/>
</g>
<path id="status" d="M67.2165 7.99594C66.7561 8.5944 66.2037 9.28493 65.5592 10.0675C64.9147 10.8962 64.2127 11.7593 63.4531 12.657C62.6935 13.5547 61.8879 14.4524 61.0362 15.3501C60.2076 16.2708 59.3674 17.157 58.5158 18.0087C57.3419 19.1826 56.191 20.2184 55.0631 21.1161C53.9352 22.0598 52.9224 22.7503 52.0247 23.1877C51.5644 23.4179 51.2306 23.6365 51.0235 23.8437C50.6782 24.189 50.4826 24.5227 50.4365 24.845C50.3905 25.2133 50.4826 25.5125 50.7127 25.7427C51.1271 26.157 51.8176 26.203 52.7843 25.8808C54.0733 27.1698 55.581 28.2631 57.3073 29.1608C59.0567 30.0815 60.8406 30.6915 62.659 30.9907C64.5004 31.313 66.2958 31.2669 68.0451 30.8526C69.7715 30.4613 71.2906 29.6097 72.6027 28.2976C73.5924 27.3079 74.329 26.134 74.8124 24.7759C75.2957 23.4179 75.5604 22.0253 75.6065 20.5982C75.6525 19.1711 75.4799 17.7555 75.0886 16.3514C74.6973 14.9933 74.1218 13.7964 73.3622 12.7606C73.017 12.4614 72.6487 12.3693 72.2574 12.4844C71.8431 12.6225 71.5093 12.8182 71.2561 13.0714C71.072 13.2555 70.9454 13.4742 70.8763 13.7274C70.8073 14.0266 70.8533 14.3028 71.0144 14.556C71.5669 15.4307 71.9697 16.4089 72.2229 17.4908C72.4761 18.6187 72.5566 19.735 72.4646 20.8399C72.3955 21.9677 72.1653 23.0266 71.774 24.0163C71.3827 25.0521 70.8303 25.9268 70.1167 26.6404C69.2881 27.469 68.2408 27.9869 66.9748 28.1941C65.6858 28.4242 64.3508 28.4012 62.9697 28.125C61.5886 27.8948 60.2306 27.4345 58.8956 26.7439C57.5605 26.0994 56.3981 25.3053 55.4084 24.3616C56.5593 23.4409 57.6871 22.4741 58.792 21.4614C59.9198 20.4716 61.0362 19.4243 62.1411 18.3194C63.5912 16.8693 64.9377 15.4307 66.1807 14.0036C67.4006 12.5995 68.5055 11.1724 69.4953 9.72227C69.7484 9.33097 69.852 8.95118 69.806 8.58289C69.76 8.26064 69.6334 7.97292 69.4262 7.71972C69.196 7.48955 68.8853 7.33993 68.494 7.27088C68.1257 7.22484 67.7574 7.38597 67.3891 7.75425C67.3431 7.80029 67.3086 7.83481 67.2855 7.85783C67.2855 7.90387 67.2625 7.9499 67.2165 7.99594ZM92.595 33.5125C92.9863 33.4435 93.297 33.2939 93.5272 33.0637C93.8265 32.7645 93.9646 32.3962 93.9415 31.9588C93.9185 31.5215 93.7574 31.1532 93.4582 30.854C93.1359 30.5317 92.4224 30.4397 91.3175 30.5778C90.2127 30.7159 88.9467 30.9691 87.5196 31.3374C86.0925 31.7057 84.6539 32.1315 83.2037 32.6149C81.7306 33.1212 80.4876 33.6046 79.4749 34.065C79.3367 34.111 79.1641 34.1686 78.957 34.2376C78.7498 34.3527 78.5541 34.5023 78.37 34.6865C78.1398 34.9166 77.9212 35.2734 77.714 35.7568C77.5298 36.2632 77.5874 36.9192 77.8866 37.7248C78.2549 38.7836 78.5196 39.6698 78.6807 40.3834C78.8649 41.1199 78.957 41.7184 78.957 42.1788C78.9339 42.6621 78.8534 43.0419 78.7153 43.3181C78.6002 43.6174 78.4506 43.859 78.2664 44.0432C77.5529 44.7567 76.6552 44.8949 75.5733 44.4575C74.4915 44.0662 73.3866 43.3066 72.2588 42.1788C71.7984 41.7184 71.3266 41.2005 70.8432 40.625C70.3828 40.0726 69.8994 39.4511 69.3931 38.7606C70.3368 38.1852 71.3611 37.4141 72.4659 36.4473C73.5938 35.5036 74.7447 34.4448 75.9186 33.2709C76.7933 32.3962 77.6449 31.4985 78.4736 30.5778C79.3252 29.6801 80.1194 28.8169 80.8559 27.9883C81.5925 27.1596 82.237 26.377 82.7894 25.6405C83.3649 24.9269 83.8252 24.3284 84.1705 23.8451C84.4467 23.4768 84.5503 23.097 84.4812 22.7057C84.4352 22.3374 84.2971 22.0382 84.0669 21.808C83.8137 21.5548 83.4915 21.3937 83.1002 21.3246C82.7319 21.2786 82.3866 21.4167 82.0644 21.7389C81.9493 21.854 81.8687 21.9576 81.8227 22.0497C80.8559 23.3387 79.6705 24.8003 78.2664 26.4346C76.8623 28.0688 75.4007 29.6456 73.8815 31.1647C72.6155 32.4307 71.3956 33.5586 70.2217 34.5484C69.0478 35.5381 68.035 36.2517 67.1833 36.689C66.723 36.9192 66.4007 37.1263 66.2166 37.3105C65.8713 37.6558 65.6872 38.001 65.6642 38.3463C65.6181 38.7146 65.7217 39.0253 65.9749 39.2785C66.113 39.4166 66.2857 39.5202 66.4928 39.5892L66.5619 39.6583C67.2064 40.4409 67.8278 41.1775 68.4263 41.868C69.0478 42.5816 69.6578 43.2376 70.2562 43.836C71.0849 44.6647 71.9365 45.4012 72.8112 46.0457C73.7089 46.7133 74.5951 47.1851 75.4698 47.4613C76.3444 47.7375 77.1961 47.8066 78.0247 47.6685C78.8534 47.5304 79.6245 47.1046 80.338 46.391C81.1206 45.6084 81.5695 44.446 81.6846 42.9038C81.7766 41.3846 81.4083 39.3591 80.5797 36.8271C81.3163 36.5049 82.2255 36.1481 83.3073 35.7568C84.4122 35.3885 85.54 35.0432 86.6909 34.721C87.8648 34.4218 88.9812 34.157 90.04 33.9269C91.0988 33.6967 91.9505 33.5586 92.595 33.5125ZM82.342 52.4C82.457 52.8834 82.6412 53.2517 82.8944 53.5049C82.8023 53.5509 82.6987 53.6315 82.5836 53.7466C82.2154 54.1149 82.1463 54.6443 82.3765 55.3348C82.6067 56.0253 83.1015 56.7504 83.8611 57.51C85.0581 58.7069 86.347 59.4205 87.7281 59.6506C89.1092 59.8808 90.4787 59.8003 91.8368 59.409C93.1948 59.0177 94.5069 58.3962 95.7728 57.5445C97.0158 56.7159 98.1091 55.8297 99.0529 54.886C100.158 53.7811 101.113 52.5727 101.919 51.2607C102.724 49.9947 103.3 48.7057 103.645 47.3937C103.967 46.1047 104.025 44.8502 103.818 43.6303C103.61 42.4103 103.035 41.3285 102.091 40.3847C100.733 39.0267 99.3636 38.1405 97.9825 37.7262C96.6015 37.3579 95.2319 37.3234 93.8739 37.6226C92.5158 37.9218 91.2153 38.4858 89.9723 39.3144C88.7064 40.1661 87.521 41.1443 86.4161 42.2492C84.6898 43.9755 83.5504 45.6443 82.998 47.2556C82.4225 48.8898 82.2038 50.6046 82.342 52.4ZM84.7588 53.8502C84.7588 53.7581 84.7128 53.666 84.6207 53.5739C84.5286 53.4819 84.4366 53.4358 84.3445 53.4358L84.4826 53.2977C84.8509 52.9294 85.035 52.4231 85.035 51.7786C85.012 50.6967 85.2882 49.4768 85.8637 48.1187C86.4391 46.7607 87.3138 45.4947 88.4877 44.3208C89.3624 43.4461 90.2946 42.698 91.2844 42.0766C92.2741 41.4551 93.2639 41.0177 94.2537 40.7645C95.2434 40.5113 96.2102 40.4883 97.1539 40.6955C98.0976 40.9026 98.9608 41.3975 99.7434 42.1801C100.365 42.8016 100.756 43.5152 100.917 44.3208C101.055 45.1494 100.998 46.0126 100.745 46.9103C100.491 47.854 100.043 48.8093 99.3981 49.776C98.7306 50.7658 97.902 51.7555 96.9122 52.7453C96.2907 53.3668 95.5311 54.0113 94.6335 54.6788C93.7588 55.3693 92.8266 55.9102 91.8368 56.3016C90.824 56.7159 89.7997 56.8885 88.7639 56.8195C87.7511 56.7734 86.8074 56.3131 85.9327 55.4384C85.4494 54.955 85.1501 54.5867 85.035 54.3335C84.943 54.1034 84.8509 53.9422 84.7588 53.8502ZM105.994 61.4129C106.708 62.4487 107.295 63.3809 107.755 64.2095C108.238 65.0612 108.572 65.8323 108.756 66.5228C108.917 67.2364 108.917 67.8809 108.756 68.4563C108.595 69.0778 108.227 69.6763 107.651 70.2517C107.168 70.7351 106.547 70.9883 105.787 71.0113C105.027 71.0343 104.21 70.8847 103.336 70.5625C102.461 70.2402 101.563 69.7568 100.642 69.1123C99.7218 68.4678 98.8356 67.7198 97.9839 66.8681C97.7768 66.6609 97.5696 66.4538 97.3624 66.2466C97.1553 66.0395 96.9481 65.8093 96.741 65.5561C97.6387 64.9346 98.5939 64.1635 99.6067 63.2428C100.642 62.3451 101.678 61.3784 102.714 60.3426C103.589 59.4679 104.452 58.5587 105.304 57.6149C106.178 56.6942 106.995 55.808 107.755 54.9564C108.492 54.1277 109.148 53.3336 109.723 52.574C110.298 51.8605 110.759 51.262 111.104 50.7787C111.357 50.3874 111.461 50.0076 111.415 49.6393C111.392 49.294 111.254 48.9948 111 48.7416C110.747 48.4884 110.425 48.3273 110.034 48.2582C109.665 48.2122 109.32 48.3503 108.998 48.6725C108.883 48.7876 108.802 48.8912 108.756 48.9833C108.25 49.6278 107.686 50.3298 107.064 51.0894C106.443 51.895 105.764 52.7122 105.027 53.5408C104.291 54.3694 103.531 55.1981 102.749 56.0267C101.966 56.9014 101.172 57.7415 100.366 58.5472C99.0543 59.8592 97.7998 61.0216 96.6029 62.0344C95.3829 63.0702 94.3471 63.7607 93.4955 64.106C93.0581 64.2671 92.7129 64.4743 92.4597 64.7274C92.1374 65.0497 91.9648 65.3835 91.9418 65.7287C91.8957 66.097 91.9993 66.4077 92.2525 66.6609C92.6898 67.0983 93.3343 67.2134 94.186 67.0062C94.4162 67.2824 94.6463 67.5356 94.8765 67.7658C95.1067 67.996 95.3369 68.2262 95.5671 68.4563C96.7179 69.6072 97.9379 70.62 99.2269 71.4947C100.539 72.3924 101.816 73.0484 103.059 73.4627C104.325 73.9 105.534 74.0497 106.685 73.9115C107.859 73.7965 108.894 73.2901 109.792 72.3924C111.38 70.8041 112.002 68.9397 111.656 66.799C111.334 64.6814 110.206 62.3566 108.273 59.8247C108.227 59.7786 108.204 59.7326 108.204 59.6865C108.204 59.6865 108.181 59.6635 108.135 59.6175C107.836 59.3183 107.513 59.2032 107.168 59.2722C106.8 59.3643 106.477 59.5484 106.201 59.8247C106.017 60.0088 105.891 60.2505 105.821 60.5497C105.752 60.8489 105.81 61.1367 105.994 61.4129ZM119.772 75.1904C120.485 76.2262 121.072 77.1584 121.533 77.9871C122.016 78.8387 122.35 79.6098 122.534 80.3004C122.695 81.0139 122.695 81.6584 122.534 82.2339C122.373 82.8553 122.004 83.4538 121.429 84.0293C120.946 84.5126 120.324 84.7658 119.564 84.7888C118.805 84.8119 117.988 84.6622 117.113 84.34C116.238 84.0177 115.341 83.5344 114.42 82.8899C113.499 82.2454 112.613 81.4973 111.761 80.6456C111.554 80.4385 111.347 80.2313 111.14 80.0242C110.933 79.817 110.726 79.5868 110.518 79.3336C111.416 78.7121 112.371 77.941 113.384 77.0203C114.42 76.1226 115.456 75.1559 116.492 74.1201C117.366 73.2454 118.229 72.3362 119.081 71.3925C119.956 70.4718 120.773 69.5856 121.533 68.7339C122.269 67.9053 122.925 67.1112 123.501 66.3516C124.076 65.638 124.536 65.0396 124.882 64.5562C125.135 64.1649 125.238 63.7851 125.192 63.4168C125.169 63.0715 125.031 62.7723 124.778 62.5191C124.525 62.2659 124.203 62.1048 123.811 62.0357C123.443 61.9897 123.098 62.1278 122.775 62.4501C122.66 62.5652 122.58 62.6687 122.534 62.7608C122.027 63.4053 121.463 64.1073 120.842 64.8669C120.221 65.6726 119.541 66.4897 118.805 67.3183C118.068 68.147 117.309 68.9756 116.526 69.8043C115.744 70.6789 114.949 71.5191 114.144 72.3247C112.832 73.6367 111.577 74.7991 110.38 75.8119C109.16 76.8477 108.125 77.5382 107.273 77.8835C106.836 78.0446 106.49 78.2518 106.237 78.505C105.915 78.8272 105.742 79.161 105.719 79.5063C105.673 79.8745 105.777 80.1853 106.03 80.4385C106.467 80.8758 107.112 80.9909 107.964 80.7837C108.194 81.06 108.424 81.3132 108.654 81.5433C108.884 81.7735 109.114 82.0037 109.345 82.2339C110.495 83.3848 111.715 84.3975 113.004 85.2722C114.316 86.1699 115.594 86.8259 116.837 87.2402C118.103 87.6776 119.311 87.8272 120.462 87.6891C121.636 87.574 122.672 87.0676 123.57 86.1699C125.158 84.5817 125.779 82.7172 125.434 80.5766C125.112 78.4589 123.984 76.1341 122.05 73.6022C122.004 73.5562 121.981 73.5101 121.981 73.4641C121.981 73.4641 121.958 73.4411 121.912 73.395C121.613 73.0958 121.291 72.9807 120.946 73.0498C120.577 73.1418 120.255 73.326 119.979 73.6022C119.795 73.7863 119.668 74.028 119.599 74.3272C119.53 74.6265 119.588 74.9142 119.772 75.1904ZM122.086 91.592C121.649 91.2927 121.246 91.1431 120.878 91.1431C120.487 91.1661 120.187 91.2812 119.98 91.4884C119.727 91.7416 119.6 92.0754 119.6 92.4897C119.6 92.904 119.808 93.3183 120.222 93.7326C120.751 94.17 121.281 94.6303 121.81 95.1137C122.34 95.5971 122.857 96.092 123.364 96.5984C124.238 97.473 125.056 98.3362 125.815 99.1879C126.598 100.063 127.288 100.891 127.887 101.674C128.278 102.065 128.681 102.261 129.095 102.261C129.51 102.307 129.843 102.203 130.097 101.95C130.741 101.305 130.591 100.373 129.648 99.1533C128.727 97.9564 127.104 96.1955 124.779 93.8707C125.631 92.6508 126.586 91.4193 127.645 90.1764C128.681 88.9564 129.843 87.702 131.132 86.413C131.961 85.5843 132.767 84.8017 133.549 84.0652C134.332 83.3286 135.114 82.615 135.897 81.9245C136.403 81.5102 136.852 81.2225 137.244 81.0613C137.635 80.9462 138.015 80.9347 138.383 81.0268C138.751 81.1649 139.131 81.4066 139.522 81.7519C139.937 82.1202 140.432 82.592 141.007 83.1675C141.744 83.904 142.423 84.6751 143.044 85.4808C143.666 86.3324 144.183 87.2186 144.598 88.1393C144.736 88.4155 144.897 88.6457 145.081 88.8298C145.38 89.1291 145.668 89.2557 145.944 89.2096C146.244 89.1866 146.497 89.0715 146.704 88.8644C147.141 88.427 147.291 87.8631 147.153 87.1726C147.015 86.482 146.738 85.7685 146.324 85.0319C145.933 84.3184 145.449 83.6278 144.874 82.9603C144.322 82.2698 143.838 81.7173 143.424 81.303C142.986 80.8657 142.48 80.3823 141.905 79.8529C141.375 79.3235 140.777 78.8631 140.109 78.4718C139.442 78.1266 138.728 77.9194 137.969 77.8504C137.209 77.7813 136.426 77.9885 135.621 78.4718C134.861 78.9092 134.01 79.5307 133.066 80.3363C132.099 81.1649 131.109 82.0856 130.097 83.0984C129.268 83.9271 128.462 84.7557 127.68 85.5843C126.897 86.459 126.16 87.2877 125.47 88.0703C124.779 88.8529 124.181 89.5664 123.675 90.2109C123.145 90.8784 122.731 91.4078 122.432 91.7991C122.317 91.6841 122.236 91.6265 122.19 91.6265C122.167 91.6495 122.132 91.638 122.086 91.592ZM134.447 87.6559C134.056 87.3107 133.687 87.1726 133.342 87.2416C133.02 87.3337 132.732 87.5063 132.479 87.7595C132.249 87.9897 132.134 88.2889 132.134 88.6572C132.157 89.0485 132.329 89.4053 132.651 89.7275C133.043 90.1188 133.446 90.4986 133.86 90.8669C134.297 91.2582 134.712 91.6495 135.103 92.0408C136.369 93.3068 137.554 94.6303 138.659 96.0114C139.05 96.3567 139.43 96.5293 139.799 96.5293C140.19 96.5523 140.501 96.4718 140.731 96.2876C141.076 95.9423 141.168 95.505 141.007 94.9756C140.823 94.4692 140.535 93.9283 140.144 93.3528C139.752 92.7774 139.304 92.2135 138.797 91.661C138.268 91.1316 137.807 90.6713 137.416 90.28C136.933 89.7966 136.449 89.3362 135.966 88.8989C135.46 88.4846 134.953 88.0703 134.447 87.6559ZM149.951 90.7302C149.49 91.3287 148.938 92.0192 148.293 92.8018C147.649 93.6304 146.947 94.4936 146.187 95.3913C145.428 96.289 144.622 97.1867 143.77 98.0844C142.942 99.0051 142.102 99.8913 141.25 100.743C140.076 101.917 138.925 102.953 137.797 103.85C136.669 104.794 135.657 105.485 134.759 105.922C134.299 106.152 133.965 106.371 133.758 106.578C133.412 106.923 133.217 107.257 133.171 107.579C133.125 107.948 133.217 108.247 133.447 108.477C133.861 108.891 134.552 108.937 135.519 108.615C136.808 109.904 138.315 110.997 140.042 111.895C141.791 112.816 143.575 113.426 145.393 113.725C147.235 114.047 149.03 114.001 150.779 113.587C152.506 113.196 154.025 112.344 155.337 111.032C156.327 110.042 157.063 108.868 157.547 107.51C158.03 106.152 158.295 104.76 158.341 103.332C158.387 101.905 158.214 100.49 157.823 99.0857C157.432 97.7276 156.856 96.5307 156.097 95.4949C155.751 95.1956 155.383 95.1036 154.992 95.2187C154.577 95.3568 154.244 95.5524 153.99 95.8056C153.806 95.9898 153.68 96.2084 153.611 96.4616C153.542 96.7609 153.588 97.0371 153.749 97.2903C154.301 98.1649 154.704 99.1432 154.957 100.225C155.21 101.353 155.291 102.469 155.199 103.574C155.13 104.702 154.9 105.761 154.508 106.751C154.117 107.786 153.565 108.661 152.851 109.375C152.022 110.203 150.975 110.721 149.709 110.928C148.42 111.158 147.085 111.135 145.704 110.859C144.323 110.629 142.965 110.169 141.63 109.478C140.295 108.834 139.132 108.04 138.143 107.096C139.294 106.175 140.421 105.208 141.526 104.196C142.654 103.206 143.77 102.159 144.875 101.054C146.325 99.6036 147.672 98.1649 148.915 96.7378C150.135 95.3338 151.24 93.9066 152.23 92.4565C152.483 92.0652 152.586 91.6854 152.54 91.3171C152.494 90.9949 152.368 90.7072 152.16 90.454C151.93 90.2238 151.62 90.0742 151.228 90.0051C150.86 89.9591 150.492 90.1202 150.123 90.4885C150.077 90.5345 150.043 90.5691 150.02 90.5921C150.02 90.6381 149.997 90.6842 149.951 90.7302Z" fill="#434343"/>
</g>
<defs>
<filter id="filter0_d_540_2216" x="0" y="0" width="168" height="168" filterUnits="userSpaceOnUse" color-interpolation-filters="sRGB">
<feFlood flood-opacity="0" result="BackgroundImageFix"/>
<feColorMatrix in="SourceAlpha" type="matrix" values="0 0 0 0 0 0 0 0 0 0 0 0 0 0 0 0 0 0 127 0" result="hardAlpha"/>
<feOffset dy="4"/>
<feGaussianBlur stdDeviation="2"/>
<feComposite in2="hardAlpha" operator="out"/>
<feColorMatrix type="matrix" values="0 0 0 0 0 0 0 0 0 0 0 0 0 0 0 0 0 0 0.25 0"/>
<feBlend mode="normal" in2="BackgroundImageFix" result="effect1_dropShadow_540_2216"/>
<feBlend mode="normal" in="SourceGraphic" in2="effect1_dropShadow_540_2216" result="shape"/>
</filter>
</defs>
</svg>
