<svg width="187" height="188" viewBox="0 0 187 188" fill="none" xmlns="http://www.w3.org/2000/svg">
<g id="Property 1=IN PROGRESS">
<g id="back">
<path d="M4 0L24.1234 27V0L4 0Z" fill="#3E5774"/>
<path d="M182.875 159.75H156.044L182.875 180V159.75Z" fill="#3E5774"/>
</g>
<g id="Wrapper" filter="url(#filter0_d_540_2220)">
<path d="M85.7709 180L4 96.75L4 0C52.7096 46.8645 134.881 129.938 182.875 180H85.7709Z" fill="#2D69AF"/>
</g>
<path id="status" d="M12.7961 57.8919C13.8075 57.1549 14.8713 56.295 15.9873 55.3123C17.1208 54.3471 18.2107 53.3381 19.2571 52.2852C20.0941 51.4429 20.844 50.6181 21.5066 49.8109C22.1693 49.0037 22.6401 48.2842 22.9192 47.6525C23.0587 47.4068 23.0151 47.1523 22.7884 46.8891C22.5617 46.6259 22.3088 46.3539 22.0298 46.0731C21.7682 45.8099 21.5677 45.5203 21.4282 45.2045C21.3061 44.8711 21.4194 44.5289 21.7682 44.1779C21.9426 44.0024 22.1693 43.9147 22.4483 43.9147C22.7448 43.9322 23.0238 44.0726 23.2854 44.3358C23.5993 44.7219 23.8957 45.0729 24.1747 45.3887C24.4712 45.7221 24.7589 46.0292 25.038 46.31C25.439 46.7136 25.9273 47.1172 26.5028 47.5208C27.0957 47.942 27.6973 48.4597 28.3077 49.0739C28.517 49.2844 28.6216 49.5301 28.6216 49.8109C28.639 50.0741 28.5606 50.2935 28.3862 50.469C28.1595 50.6971 27.8804 50.7848 27.5491 50.7322C27.2352 50.6971 26.9126 50.583 26.5813 50.39C26.2499 50.197 25.9273 49.9601 25.6134 49.6793C25.2995 49.3985 25.0292 49.1441 24.8025 48.9159C24.3491 49.7232 23.6777 50.6269 22.7884 51.6271C21.9164 52.6449 20.9835 53.654 19.9895 54.6542C18.9955 55.6545 17.984 56.5845 16.9552 57.4444C15.9612 58.3043 15.1328 58.9974 14.4702 59.5239C14.7317 59.7871 15.0108 60.0328 15.3072 60.2609C15.6385 60.489 15.9786 60.7786 16.3274 61.1295C16.5366 61.3401 16.6413 61.5858 16.6413 61.8666C16.6587 62.1298 16.5977 62.3316 16.4582 62.472C16.1966 62.7352 15.8653 62.8054 15.4642 62.6826C15.0631 62.5597 14.6445 62.3491 14.2086 62.0508C13.7726 61.7525 13.3541 61.4015 12.953 60.9979C12.5345 60.6119 12.1857 60.2784 11.9067 59.9977C11.6102 59.6994 11.2876 59.3747 10.9388 59.0237C10.6075 58.6903 10.3198 58.3481 10.0756 57.9972C9.83149 57.6462 9.67455 57.3128 9.60479 56.9969C9.53504 56.681 9.62223 56.4003 9.86637 56.1546C10.0408 55.9791 10.2587 55.9001 10.5203 55.9177C10.8168 55.9352 11.0958 56.0756 11.3574 56.3389C11.462 56.4792 11.5666 56.6196 11.6713 56.76C11.8108 56.9004 11.9503 57.0408 12.0898 57.1812L12.7961 57.8919ZM37.4378 60.6831C37.4727 60.6129 37.5425 60.5252 37.6471 60.4199C37.8913 60.1742 38.1616 60.0426 38.458 60.025C38.7545 60.0075 38.9986 60.0952 39.1904 60.2883C39.3823 60.4813 39.5043 60.727 39.5566 61.0253C39.609 61.3236 39.513 61.6483 39.2689 61.9992C38.6586 62.8591 37.9872 63.7102 37.2547 64.5525C36.5223 65.3948 35.7376 66.2371 34.9005 67.0795C33.5403 68.4482 32.1016 69.7556 30.5845 71.0015C29.0848 72.2299 27.6374 73.2828 26.2423 74.1602C25.9458 74.3532 25.6755 74.4322 25.4314 74.3971C25.2047 74.3795 25.0128 74.2918 24.8559 74.1339C24.6641 73.9408 24.5594 73.6425 24.542 73.2389C24.5071 72.8528 24.603 72.1597 24.8297 71.1594C25.0564 70.1592 25.4314 68.7465 25.9545 66.9215C26.4951 65.114 27.2537 62.7012 28.2303 59.6829C28.5965 58.5773 28.8668 57.7438 29.0412 57.1822C29.2155 56.6207 29.3812 56.2785 29.5382 56.1557C29.73 55.9626 29.9828 55.8661 30.2967 55.8661C30.6281 55.8486 30.8897 55.9363 31.0815 56.1293C31.221 56.2697 31.3082 56.3926 31.3431 56.4978C31.4128 56.6031 31.4128 56.7611 31.3431 56.9716C31.3082 57.1822 31.2123 57.4893 31.0553 57.8929C30.9158 58.279 30.7414 58.8405 30.5322 59.5776L27.9687 67.8955C27.7769 68.5798 27.6199 69.1589 27.4978 69.6327C27.3758 70.1065 27.2886 70.475 27.2363 70.7383C29.4335 69.1589 31.4128 67.4831 33.1741 65.7107C34.0286 64.8508 34.8046 63.9997 35.5022 63.1574C36.2171 62.2976 36.8624 61.4728 37.4378 60.6831ZM31.0553 53.9446C30.288 54.5412 29.3812 55.3309 28.3349 56.3136C27.306 57.2787 26.2597 58.2965 25.1959 59.367C24.0799 60.4901 23.0248 61.6219 22.0308 62.7626C21.0717 63.9032 20.1998 64.8684 19.4151 65.658C19.0837 65.9915 18.7437 66.1757 18.3949 66.2108C18.0636 66.2284 17.7845 66.1231 17.5578 65.8949C17.4183 65.7546 17.3399 65.5528 17.3224 65.2895C17.3399 65.0263 17.4706 64.7368 17.7148 64.4209C18.5867 63.2978 19.6156 62.087 20.8014 60.7884C22.0047 59.5074 23.2341 58.2351 24.4897 56.9716C25.4139 56.0416 26.3033 55.1642 27.1578 54.3394C28.0472 53.5146 28.8929 52.7864 29.6951 52.1546C30.0264 51.8563 30.3403 51.7335 30.6368 51.7861C30.9507 51.8563 31.2035 51.9879 31.3954 52.181C31.5523 52.4091 31.6221 52.6723 31.6046 52.9706C31.6046 53.2514 31.4738 53.5234 31.2123 53.7866L31.0553 53.9446ZM44.4503 79.4268C45.235 79.9708 45.9413 80.4183 46.569 80.7692C47.2143 81.1377 47.7985 81.3922 48.3216 81.5326C48.8622 81.6554 49.3505 81.6554 49.7865 81.5326C50.2573 81.4097 50.7107 81.129 51.1467 80.6903C51.5129 80.3217 51.7047 79.8479 51.7222 79.2688C51.7396 78.6898 51.6262 78.0668 51.3821 77.4C51.138 76.7331 50.7718 76.0487 50.2835 75.3468C49.7952 74.6449 49.2284 73.9693 48.5832 73.32C48.4263 73.162 48.2693 73.0041 48.1124 72.8462C47.9554 72.6882 47.781 72.5303 47.5892 72.3724C47.1184 73.0568 46.5342 73.785 45.8366 74.5571C45.1565 75.3468 44.4241 76.1365 43.6394 76.9261C42.9767 77.593 42.2879 78.251 41.5729 78.9003C40.8753 79.5672 40.204 80.1901 39.5587 80.7692C38.9309 81.3308 38.3293 81.8309 37.7538 82.2696C37.2132 82.7083 36.7598 83.0593 36.3936 83.3225C36.0972 83.5155 35.8094 83.5945 35.5304 83.5594C35.2688 83.5418 35.0421 83.4366 34.8503 83.2435C34.6585 83.0505 34.5364 82.8048 34.4841 82.5065C34.4492 82.2257 34.5539 81.9625 34.798 81.7168C34.8852 81.6291 34.9637 81.5677 35.0334 81.5326C35.5217 81.1465 36.0536 80.7166 36.629 80.2428C37.2394 79.769 37.8585 79.2513 38.4863 78.6897C39.114 78.1282 39.7418 77.5491 40.3696 76.9525C41.0323 76.3558 41.6688 75.7504 42.2792 75.1362C43.2732 74.136 44.1538 73.1796 44.9211 72.2671C45.7058 71.337 46.229 70.5473 46.4906 69.8981C46.6126 69.5646 46.7696 69.3014 46.9614 69.1084C47.2056 68.8627 47.4584 68.7311 47.72 68.7136C47.999 68.6785 48.2344 68.7574 48.4263 68.9505C48.7576 69.2839 48.8448 69.7752 48.6878 70.4245C48.8971 70.6 49.0889 70.7755 49.2633 70.951C49.4377 71.1264 49.6121 71.3019 49.7865 71.4774C50.6584 72.3548 51.4257 73.2849 52.0884 74.2676C52.7685 75.2678 53.2655 76.2418 53.5794 77.1894C53.9107 78.1545 54.0241 79.0758 53.9194 79.9532C53.8322 80.8482 53.4486 81.6379 52.7685 82.3222C51.5652 83.5331 50.1527 84.0069 48.5309 83.7437C46.9265 83.498 45.1652 82.6381 43.247 81.1641C43.2121 81.129 43.1772 81.1114 43.1424 81.1114C43.1424 81.1114 43.1249 81.0939 43.09 81.0588C42.8633 80.8306 42.7762 80.585 42.8285 80.3217C42.8982 80.041 43.0377 79.7953 43.247 79.5847C43.3865 79.4443 43.5696 79.3478 43.7963 79.2952C44.023 79.2425 44.241 79.2864 44.4503 79.4268ZM54.1559 100.249C54.1036 100.547 53.9902 100.784 53.8158 100.96C53.5891 101.188 53.3101 101.293 52.9788 101.275C52.6474 101.258 52.3684 101.135 52.1417 100.907C51.8976 100.661 51.8278 100.117 51.9325 99.2749C52.0371 98.4326 52.2289 97.4675 52.5079 96.3795C52.787 95.2915 53.1096 94.1947 53.4758 93.0892C53.8594 91.9661 54.2256 91.0185 54.5744 90.2463C54.6093 90.1411 54.6529 90.0094 54.7052 89.8515C54.7924 89.6936 54.9057 89.5444 55.0453 89.404C55.2196 89.2285 55.4899 89.0618 55.8562 88.9039C56.2398 88.7635 56.7368 88.8074 57.3472 89.0355C58.1493 89.3163 58.8207 89.5181 59.3613 89.6409C59.9193 89.7813 60.3727 89.8515 60.7215 89.8515C61.0877 89.834 61.3755 89.7725 61.5847 89.6673C61.8114 89.5795 61.9945 89.4654 62.134 89.3251C62.6746 88.7811 62.7793 88.0967 62.4479 87.2719C62.1515 86.4471 61.576 85.6048 60.7215 84.745C60.3727 84.394 59.9804 84.0343 59.5444 83.6657C59.1259 83.3148 58.655 82.9463 58.1319 82.5602C57.6959 83.2797 57.1117 84.0606 56.3793 84.9029C55.6643 85.7628 54.8622 86.6402 53.9728 87.5351C53.3101 88.202 52.63 88.8513 51.9325 89.483C51.2524 90.1323 50.5984 90.7377 49.9706 91.2992C49.3428 91.8608 48.7499 92.3521 48.1919 92.7733C47.6513 93.212 47.1979 93.563 46.8317 93.8262C46.5527 94.0368 46.2649 94.1157 45.9685 94.0631C45.6894 94.028 45.4627 93.9227 45.2884 93.7472C45.0965 93.5542 44.9745 93.3085 44.9221 93.0102C44.8873 92.7294 44.9919 92.4662 45.236 92.2205C45.3232 92.1328 45.4017 92.0714 45.4715 92.0363C46.448 91.2992 47.5554 90.3955 48.7935 89.3251C50.0317 88.2546 51.2262 87.1403 52.3771 85.9821C53.3363 85.017 54.1908 84.0869 54.9406 83.1919C55.6905 82.297 56.2311 81.5249 56.5624 80.8756C56.7368 80.5246 56.8937 80.2789 57.0333 80.1385C57.2948 79.8753 57.5564 79.7349 57.818 79.7174C58.097 79.6823 58.3324 79.7612 58.5243 79.9543C58.6289 80.0596 58.7074 80.1912 58.7597 80.3491L58.812 80.4018C59.4049 80.8931 59.9629 81.3669 60.4861 81.8232C61.0267 82.297 61.5237 82.762 61.9771 83.2183C62.6049 83.85 63.1629 84.4993 63.6512 85.1661C64.1569 85.8505 64.5144 86.5261 64.7237 87.1929C64.9329 87.8598 64.9853 88.5091 64.8806 89.1408C64.776 89.7725 64.4534 90.3604 63.9128 90.9044C63.3199 91.501 62.4392 91.8432 61.2708 91.931C60.1199 92.0012 58.5853 91.7204 56.667 91.0887C56.4229 91.6502 56.1526 92.3434 55.8562 93.1681C55.5771 94.0105 55.3156 94.8703 55.0714 95.7477C54.8447 96.6427 54.6442 97.4938 54.4698 98.301C54.2954 99.1082 54.1908 99.7575 54.1559 100.249ZM68.4653 92.4322C68.8315 92.5199 69.1105 92.6603 69.3024 92.8533C69.3372 92.7831 69.3983 92.7042 69.4855 92.6164C69.7645 92.3356 70.1656 92.283 70.6887 92.4585C71.2119 92.634 71.7612 93.0113 72.3367 93.5903C73.2435 94.5029 73.7841 95.4856 73.9585 96.5385C74.1329 97.5914 74.0718 98.6355 73.7754 99.6708C73.4789 100.706 73.0081 101.706 72.3628 102.672C71.735 103.619 71.0637 104.453 70.3487 105.172C69.5116 106.015 68.5961 106.743 67.6021 107.357C66.643 107.971 65.6664 108.41 64.6724 108.673C63.6959 108.919 62.7454 108.963 61.8212 108.805C60.897 108.647 60.0773 108.208 59.3624 107.489C58.3335 106.453 57.6621 105.409 57.3482 104.356C57.0692 103.303 57.043 102.259 57.2697 101.224C57.4964 100.189 57.9237 99.197 58.5515 98.2494C59.1967 97.2843 59.9378 96.3805 60.7749 95.5382C62.0828 94.2221 63.3471 93.3534 64.5678 92.9323C65.8059 92.4936 67.1051 92.3269 68.4653 92.4322ZM69.5639 94.2747C69.4942 94.2747 69.4244 94.2396 69.3547 94.1694C69.2849 94.0992 69.25 94.0291 69.25 93.9589L69.1454 94.0642C68.8664 94.3449 68.4827 94.4853 67.9945 94.4853C67.1749 94.4678 66.2506 94.6783 65.2217 95.117C64.1929 95.5558 63.2337 96.2226 62.3444 97.1176C61.6817 97.7844 61.1149 98.4951 60.6441 99.2497C60.1733 100.004 59.8419 100.759 59.6501 101.513C59.4583 102.268 59.4408 103.005 59.5978 103.724C59.7547 104.444 60.1297 105.102 60.7226 105.699C61.1934 106.172 61.734 106.471 62.3444 106.594C62.9721 106.699 63.6261 106.655 64.3062 106.462C65.0212 106.269 65.7449 105.927 66.4773 105.435C67.2272 104.927 67.977 104.295 68.7269 103.54C69.1977 103.066 69.686 102.487 70.1917 101.803C70.7149 101.136 71.1247 100.425 71.4212 99.6708C71.735 98.8987 71.8658 98.1178 71.8135 97.3281C71.7786 96.556 71.4299 95.8365 70.7672 95.1697C70.401 94.8012 70.122 94.5731 69.9302 94.4853C69.7558 94.4151 69.6337 94.3449 69.5639 94.2747ZM72.3116 117.466C72.5208 117.676 72.608 117.869 72.5731 118.045C72.5557 118.203 72.4685 118.361 72.3116 118.519C72.0674 118.729 71.8233 118.835 71.5791 118.835C71.3524 118.817 71.1257 118.747 70.899 118.624C70.6898 118.519 70.4979 118.378 70.3236 118.203C70.1492 118.027 69.9922 117.869 69.8527 117.729C69.0854 116.957 68.5448 116.097 68.2309 115.149C67.917 114.202 67.8037 113.21 67.8909 112.175C67.9955 111.157 68.292 110.139 68.7802 109.122C69.3034 108.104 70.0009 107.156 70.8729 106.279C71.8669 105.279 73.0265 104.585 74.3519 104.199C75.6772 103.813 77.0113 103.664 78.354 103.752C79.6968 103.84 80.9611 104.129 82.1469 104.62C83.3328 105.112 84.2919 105.726 85.0243 106.463C85.2684 106.709 85.3731 106.954 85.3382 107.2C85.3208 107.428 85.2336 107.621 85.0766 107.779C84.8848 107.972 84.6581 108.113 84.3965 108.2C84.1524 108.271 83.978 108.253 83.8734 108.148C83.0537 107.534 82.1295 107.042 81.1006 106.674C80.0717 106.305 79.0254 106.095 77.9617 106.042C76.9154 106.007 75.9039 106.147 74.9274 106.463C73.9682 106.761 73.1312 107.27 72.4162 107.99C70.8816 109.639 70.0881 111.263 70.0358 112.859C70.0009 114.439 70.5415 115.79 71.6576 116.913C71.7448 117.001 71.8407 117.097 71.9454 117.203C72.0674 117.29 72.1895 117.378 72.3116 117.466ZM72.7301 120.309C73.0789 119.887 73.4625 119.449 73.881 118.993C74.317 118.519 74.7966 118.019 75.3197 117.492C75.8429 116.966 76.3573 116.483 76.863 116.044C77.3688 115.606 77.857 115.22 78.3279 114.886L78.3802 114.834C77.7524 114.307 77.1769 113.781 76.6538 113.254C75.1366 111.728 74.6919 110.648 75.3197 110.017C75.4767 109.859 75.7034 109.806 75.9998 109.859C76.2963 109.911 76.6015 110.096 76.9154 110.411C77.3339 110.938 77.8047 111.464 78.3279 111.991C79.008 112.675 79.723 113.342 80.4728 113.991C81.2401 114.623 81.8941 115.211 82.4347 115.755C82.7311 116.053 82.8968 116.343 82.9317 116.624C82.984 116.922 82.9142 117.168 82.7224 117.361C82.4434 117.641 82.0597 117.676 81.5715 117.466C81.1006 117.238 80.5949 116.852 80.0543 116.308C79.4091 116.781 78.7726 117.282 78.1448 117.808C77.5519 118.334 76.959 118.896 76.366 119.493C75.9824 119.879 75.6162 120.282 75.2674 120.703C74.9361 121.107 74.5786 121.502 74.1949 121.888C73.9334 122.151 73.6631 122.265 73.384 122.23C73.105 122.23 72.887 122.151 72.7301 121.993C72.5383 121.8 72.4249 121.546 72.39 121.23C72.3552 120.914 72.4685 120.607 72.7301 120.309ZM86.5687 132.866C86.5164 133.164 86.403 133.401 86.2286 133.576C86.0019 133.804 85.7229 133.91 85.3916 133.892C85.0602 133.875 84.7812 133.752 84.5545 133.524C84.3104 133.278 84.2406 132.734 84.3452 131.892C84.4499 131.049 84.6417 130.084 84.9207 128.996C85.1997 127.908 85.5224 126.811 85.8886 125.706C86.2722 124.583 86.6384 123.635 86.9872 122.863C87.0221 122.758 87.0657 122.626 87.118 122.468C87.2052 122.31 87.3185 122.161 87.458 122.021C87.6324 121.845 87.9027 121.678 88.2689 121.521C88.6526 121.38 89.1496 121.424 89.7599 121.652C90.5621 121.933 91.2335 122.135 91.7741 122.258C92.3321 122.398 92.7855 122.468 93.1343 122.468C93.5005 122.451 93.7883 122.389 93.9975 122.284C94.2242 122.196 94.4073 122.082 94.5468 121.942C95.0874 121.398 95.1921 120.713 94.8607 119.889C94.5643 119.064 93.9888 118.221 93.1343 117.362C92.7855 117.011 92.3932 116.651 91.9572 116.282C91.5387 115.931 91.0678 115.563 90.5447 115.177C90.1087 115.896 89.5245 116.677 88.7921 117.52C88.0771 118.379 87.2749 119.257 86.3856 120.152C85.7229 120.819 85.0428 121.468 84.3452 122.1C83.6651 122.749 83.0112 123.354 82.3834 123.916C81.7556 124.477 81.1627 124.969 80.6047 125.39C80.0641 125.829 79.6107 126.18 79.2445 126.443C78.9654 126.653 78.6777 126.732 78.3812 126.68C78.1022 126.645 77.8755 126.539 77.7011 126.364C77.5093 126.171 77.3872 125.925 77.3349 125.627C77.3001 125.346 77.4047 125.083 77.6488 124.837C77.736 124.749 77.8145 124.688 77.8842 124.653C78.8608 123.916 79.9682 123.012 81.2063 121.942C82.4444 120.871 83.639 119.757 84.7899 118.599C85.7491 117.634 86.6035 116.704 87.3534 115.809C88.1033 114.914 88.6439 114.141 88.9752 113.492C89.1496 113.141 89.3065 112.896 89.446 112.755C89.7076 112.492 89.9692 112.352 90.2308 112.334C90.5098 112.299 90.7452 112.378 90.937 112.571C91.0417 112.676 91.1201 112.808 91.1725 112.966L91.2248 113.018C91.8177 113.51 92.3757 113.984 92.8989 114.44C93.4395 114.914 93.9365 115.379 94.3899 115.835C95.0177 116.467 95.5757 117.116 96.064 117.783C96.5697 118.467 96.9272 119.143 97.1365 119.81C97.3457 120.476 97.398 121.126 97.2934 121.757C97.1888 122.389 96.8662 122.977 96.3256 123.521C95.7327 124.118 94.852 124.46 93.6836 124.548C92.5327 124.618 90.9981 124.337 89.0798 123.705C88.8357 124.267 88.5654 124.96 88.2689 125.785C87.9899 126.627 87.7283 127.487 87.4842 128.364C87.2575 129.259 87.057 130.11 86.8826 130.918C86.7082 131.725 86.6035 132.374 86.5687 132.866ZM99.2563 123.838C99.0296 123.505 98.9162 123.197 98.9162 122.917C98.9337 122.618 99.0209 122.39 99.1778 122.232C99.3696 122.039 99.6225 121.943 99.9364 121.943C100.25 121.943 100.564 122.101 100.878 122.417C101.209 122.82 101.558 123.224 101.924 123.627C102.291 124.031 102.666 124.426 103.049 124.812C103.712 125.479 104.366 126.102 105.011 126.681C105.674 127.277 106.301 127.804 106.894 128.26C107.191 128.558 107.339 128.866 107.339 129.181C107.374 129.497 107.295 129.752 107.104 129.945C106.615 130.436 105.909 130.322 104.985 129.603C104.078 128.901 102.744 127.663 100.983 125.891C100.058 126.54 99.1255 127.269 98.1838 128.076C97.2596 128.866 96.3092 129.752 95.3326 130.734C94.7048 131.366 94.1119 131.98 93.5539 132.577C92.9958 133.174 92.4552 133.77 91.9321 134.367C91.6182 134.753 91.4002 135.095 91.2781 135.394C91.1909 135.692 91.1822 135.981 91.252 136.262C91.3566 136.543 91.5397 136.832 91.8013 137.131C92.0803 137.447 92.4378 137.824 92.8738 138.263C93.4318 138.824 94.016 139.342 94.6263 139.816C95.2716 140.289 95.943 140.684 96.6405 141C96.8498 141.105 97.0242 141.228 97.1637 141.369C97.3904 141.597 97.4863 141.816 97.4514 142.027C97.434 142.255 97.3468 142.448 97.1898 142.606C96.8585 142.939 96.4312 143.053 95.9081 142.948C95.3849 142.843 94.8443 142.632 94.2863 142.316C93.7457 142.018 93.2225 141.649 92.7168 141.211C92.1937 140.79 91.7751 140.421 91.4612 140.105C91.1299 139.772 90.7637 139.386 90.3626 138.947C89.9615 138.543 89.6127 138.087 89.3163 137.578C89.0547 137.069 88.8978 136.525 88.8455 135.946C88.7931 135.367 88.9501 134.771 89.3163 134.156C89.6476 133.577 90.1185 132.928 90.7288 132.208C91.3566 131.471 92.0542 130.717 92.8215 129.945C93.4492 129.313 94.077 128.699 94.7048 128.102C95.3675 127.506 95.9953 126.944 96.5882 126.418C97.1811 125.891 97.7217 125.435 98.21 125.049C98.7157 124.645 99.1168 124.329 99.4132 124.101C99.3261 124.013 99.2825 123.952 99.2825 123.917C99.2999 123.899 99.2912 123.873 99.2563 123.838ZM96.2743 133.261C96.0127 132.963 95.9081 132.682 95.9604 132.419C96.0302 132.173 96.1609 131.954 96.3528 131.761C96.5272 131.586 96.7539 131.498 97.0329 131.498C97.3293 131.515 97.5996 131.647 97.8438 131.893C98.1402 132.191 98.428 132.498 98.707 132.814C99.0034 133.147 99.2999 133.463 99.5964 133.762C100.555 134.727 101.558 135.63 102.605 136.473C102.866 136.771 102.997 137.061 102.997 137.341C103.014 137.64 102.953 137.877 102.814 138.052C102.552 138.315 102.221 138.385 101.82 138.263C101.436 138.122 101.026 137.903 100.59 137.605C100.154 137.306 99.7271 136.964 99.3086 136.578C98.9075 136.174 98.5588 135.823 98.2623 135.525C97.8961 135.157 97.5473 134.788 97.216 134.42C96.9021 134.034 96.5882 133.647 96.2743 133.261ZM109.956 138.501C109.625 139.15 109.372 139.878 109.197 140.685C109.023 141.493 108.883 142.335 108.779 143.212C108.692 144.072 108.596 144.941 108.491 145.818C108.386 146.696 108.23 147.538 108.02 148.345C107.933 148.714 107.794 149.047 107.602 149.345C107.427 149.626 107.236 149.872 107.026 150.082C106.59 150.521 106.102 150.82 105.561 150.977C105.056 151.135 104.533 151.17 103.992 151.083C103.451 150.995 102.911 150.802 102.37 150.504C101.864 150.205 101.376 149.819 100.905 149.345C100.434 148.872 99.9723 148.354 99.5189 147.792C99.1004 147.231 98.7429 146.696 98.4465 146.187C98.1849 145.678 98.0018 145.213 97.8971 144.792C97.8274 144.371 97.8971 144.055 98.1064 143.844C98.2982 143.651 98.5336 143.519 98.8127 143.449C99.1091 143.397 99.3533 143.467 99.5451 143.66C99.58 143.695 99.6933 143.879 99.8851 144.213C100.077 144.546 100.312 144.941 100.591 145.397C100.905 145.853 101.237 146.327 101.585 146.818C101.952 147.327 102.318 147.766 102.684 148.135C103.137 148.591 103.608 148.837 104.097 148.872C104.62 148.907 105.099 148.705 105.535 148.266C105.779 148.021 105.954 147.705 106.058 147.319C106.198 146.933 106.303 146.459 106.372 145.897C106.442 145.336 106.503 144.695 106.555 143.976C106.625 143.239 106.73 142.414 106.869 141.501C107.096 139.94 107.375 138.711 107.706 137.816C108.038 136.921 108.482 136.193 109.04 135.631C109.825 134.842 110.68 134.456 111.604 134.473C112.546 134.508 113.566 135.079 114.664 136.184C115.031 136.553 115.379 136.974 115.711 137.448C116.077 137.922 116.373 138.395 116.6 138.869C116.844 139.325 116.992 139.755 117.045 140.159C117.114 140.545 117.045 140.843 116.835 141.054C116.661 141.229 116.452 141.335 116.208 141.37C115.964 141.405 115.754 141.335 115.58 141.159C115.493 141.071 115.371 140.896 115.214 140.633C115.057 140.37 114.856 140.062 114.612 139.711C114.403 139.36 114.159 138.992 113.88 138.606C113.618 138.237 113.348 137.913 113.069 137.632C112.214 136.772 111.412 136.719 110.662 137.474C110.401 137.737 110.165 138.079 109.956 138.501ZM118.772 147.372C118.441 148.022 118.188 148.75 118.014 149.557C117.839 150.364 117.7 151.207 117.595 152.084C117.508 152.944 117.412 153.813 117.307 154.69C117.203 155.567 117.046 156.41 116.837 157.217C116.749 157.585 116.61 157.919 116.418 158.217C116.244 158.498 116.052 158.744 115.843 158.954C115.407 159.393 114.918 159.691 114.378 159.849C113.872 160.007 113.349 160.042 112.808 159.954C112.268 159.867 111.727 159.674 111.186 159.375C110.681 159.077 110.192 158.691 109.722 158.217C109.251 157.743 108.789 157.226 108.335 156.664C107.917 156.103 107.559 155.567 107.263 155.058C107.001 154.55 106.818 154.085 106.713 153.663C106.644 153.242 106.713 152.926 106.923 152.716C107.114 152.523 107.35 152.391 107.629 152.321C107.925 152.268 108.17 152.338 108.361 152.532C108.396 152.567 108.51 152.751 108.701 153.084C108.893 153.418 109.129 153.813 109.408 154.269C109.722 154.725 110.053 155.199 110.402 155.69C110.768 156.199 111.134 156.638 111.5 157.006C111.954 157.463 112.425 157.708 112.913 157.743C113.436 157.778 113.916 157.577 114.352 157.138C114.596 156.892 114.77 156.576 114.875 156.19C115.014 155.804 115.119 155.33 115.189 154.769C115.258 154.207 115.319 153.567 115.372 152.847C115.441 152.11 115.546 151.286 115.686 150.373C115.912 148.811 116.191 147.583 116.523 146.688C116.854 145.793 117.299 145.065 117.857 144.503C118.641 143.714 119.496 143.327 120.42 143.345C121.362 143.38 122.382 143.95 123.481 145.056C123.847 145.424 124.196 145.846 124.527 146.319C124.893 146.793 125.19 147.267 125.416 147.741C125.66 148.197 125.809 148.627 125.861 149.031C125.931 149.417 125.861 149.715 125.652 149.926C125.477 150.101 125.268 150.206 125.024 150.241C124.78 150.277 124.571 150.206 124.396 150.031C124.309 149.943 124.187 149.768 124.03 149.504C123.873 149.241 123.672 148.934 123.428 148.583C123.219 148.232 122.975 147.864 122.696 147.478C122.434 147.109 122.164 146.784 121.885 146.504C121.03 145.644 120.228 145.591 119.478 146.346C119.217 146.609 118.981 146.951 118.772 147.372Z" fill="#434343"/>
</g>
<defs>
<filter id="filter0_d_540_2220" x="0" y="0" width="186.875" height="188" filterUnits="userSpaceOnUse" color-interpolation-filters="sRGB">
<feFlood flood-opacity="0" result="BackgroundImageFix"/>
<feColorMatrix in="SourceAlpha" type="matrix" values="0 0 0 0 0 0 0 0 0 0 0 0 0 0 0 0 0 0 127 0" result="hardAlpha"/>
<feOffset dy="4"/>
<feGaussianBlur stdDeviation="2"/>
<feComposite in2="hardAlpha" operator="out"/>
<feColorMatrix type="matrix" values="0 0 0 0 0 0 0 0 0 0 0 0 0 0 0 0 0 0 0.25 0"/>
<feBlend mode="normal" in2="BackgroundImageFix" result="effect1_dropShadow_540_2220"/>
<feBlend mode="normal" in="SourceGraphic" in2="effect1_dropShadow_540_2220" result="shape"/>
</filter>
</defs>
</svg>
