<svg width="168" height="168" viewBox="0 0 168 168" fill="none" xmlns="http://www.w3.org/2000/svg">
<g id="Property 1=POSTPONED">
<g id="back">
<path d="M4 0L28 18H4V0Z" fill="#968D5D"/>
<path d="M146 160V136L164 160H146Z" fill="#968D5D"/>
</g>
<g id="Wrapper" filter="url(#filter0_d_540_2189)">
<path d="M164 73.1424L90 3.75918e-06L4 0C45.6573 43.5697 119.5 117.07 164 160V73.1424Z" fill="#EED22F"/>
</g>
<path id="status" d="M58.1082 12.8529C58.6791 13.6816 59.1486 14.4274 59.5169 15.0903C59.9036 15.7716 60.1706 16.3885 60.318 16.9409C60.4469 17.5117 60.4469 18.0273 60.318 18.4877C60.1891 18.9849 59.8944 19.4636 59.4341 19.924C59.0474 20.3107 58.5502 20.5133 57.9425 20.5317C57.3348 20.5501 56.6811 20.4304 55.9814 20.1726C55.2817 19.9148 54.5635 19.5281 53.8269 19.0125C53.0904 18.4969 52.3814 17.8984 51.7001 17.2171C51.5344 17.0514 51.3686 16.8857 51.2029 16.7199C51.0372 16.5542 50.8714 16.3701 50.7057 16.1675C51.4239 15.6703 52.1881 15.0534 52.9983 14.3169C53.8269 13.5987 54.6556 12.8253 55.4842 11.9967C56.184 11.2969 56.8745 10.5696 57.5558 9.81459C58.2556 9.07802 58.9093 8.36907 59.5169 7.68774C60.1062 7.02483 60.631 6.38954 61.0913 5.78187C61.5517 5.21103 61.92 4.73226 62.1962 4.34556C62.3988 4.03251 62.4816 3.72868 62.4448 3.43405C62.4264 3.15784 62.3159 2.91845 62.1133 2.7159C61.9108 2.51334 61.653 2.38444 61.3399 2.3292C61.0453 2.29237 60.7691 2.40285 60.5113 2.66065C60.4192 2.75272 60.3548 2.83559 60.318 2.90925C59.9128 3.42484 59.4617 3.98648 58.9645 4.59415C58.4673 5.23865 57.9241 5.89235 57.3348 6.55527C56.7456 7.21818 56.1379 7.88109 55.5118 8.544C54.8858 9.24374 54.2505 9.91586 53.606 10.5604C52.5563 11.61 51.5528 12.5399 50.5952 13.3501C49.6193 14.1788 48.7906 14.7312 48.1093 15.0074C47.7594 15.1363 47.4832 15.302 47.2807 15.5046C47.0229 15.7624 46.8848 16.0294 46.8663 16.3056C46.8295 16.6002 46.9124 16.8488 47.1149 17.0514C47.4648 17.4013 47.9804 17.4933 48.6617 17.3276C48.8459 17.5486 49.03 17.7511 49.2142 17.9353C49.3983 18.1194 49.5824 18.3036 49.7666 18.4877C50.6873 19.4084 51.6633 20.2186 52.6945 20.9184C53.7441 21.6365 54.7661 22.1613 55.7604 22.4928C56.7732 22.8427 57.74 22.9624 58.6607 22.8519C59.5998 22.7598 60.4284 22.3547 61.1466 21.6365C62.4172 20.3659 62.9144 18.8744 62.6381 17.1619C62.3803 15.4678 61.478 13.6079 59.9313 11.5824C59.8944 11.5455 59.876 11.5087 59.876 11.4719C59.876 11.4719 59.8576 11.4535 59.8208 11.4166C59.5814 11.1772 59.3236 11.0852 59.0474 11.1404C58.7527 11.2141 58.4949 11.3614 58.274 11.5824C58.1267 11.7297 58.0254 11.923 57.9701 12.1624C57.9149 12.4018 57.9609 12.632 58.1082 12.8529ZM61.2306 27.6867C61.3226 28.0734 61.4699 28.368 61.6725 28.5706C61.5988 28.6074 61.516 28.6719 61.4239 28.7639C61.1293 29.0586 61.074 29.4821 61.2582 30.0345C61.4423 30.587 61.8382 31.167 62.4459 31.7747C63.4034 32.7322 64.4346 33.3031 65.5395 33.4872C66.6443 33.6713 67.74 33.6069 68.8264 33.2938C69.9129 32.9808 70.9625 32.4836 71.9753 31.8023C72.9696 31.1394 73.8443 30.4304 74.5993 29.6754C75.4832 28.7916 76.2474 27.8248 76.8919 26.7752C77.5364 25.7624 77.9967 24.7312 78.2729 23.6816C78.5307 22.6504 78.5768 21.6468 78.411 20.6709C78.2453 19.6949 77.785 18.8295 77.03 18.0745C75.9435 16.988 74.8479 16.2791 73.743 15.9476C72.6382 15.653 71.5425 15.6254 70.4561 15.8648C69.3697 16.1042 68.3293 16.5553 67.3349 17.2182C66.3221 17.8995 65.3738 18.6821 64.4899 19.566C63.1088 20.9471 62.1973 22.2821 61.7554 23.5711C61.295 24.8785 61.1201 26.2504 61.2306 27.6867ZM63.1641 28.8468C63.1641 28.7731 63.1272 28.6995 63.0536 28.6258C62.9799 28.5522 62.9063 28.5154 62.8326 28.5154L62.9431 28.4049C63.2377 28.1102 63.385 27.7051 63.385 27.1895C63.3666 26.3241 63.5876 25.3481 64.0479 24.2617C64.5083 23.1752 65.208 22.1624 66.1472 21.2233C66.8469 20.5236 67.5927 19.9251 68.3845 19.4279C69.1763 18.9307 69.9681 18.5809 70.7599 18.3783C71.5517 18.1758 72.3251 18.1573 73.0801 18.3231C73.8351 18.4888 74.5256 18.8847 75.1517 19.5108C75.6489 20.008 75.962 20.5788 76.0909 21.2233C76.2013 21.8862 76.1553 22.5768 75.9527 23.2949C75.7502 24.0499 75.3911 24.8141 74.8755 25.5875C74.3415 26.3793 73.6786 27.1711 72.8868 27.9629C72.3896 28.4601 71.7819 28.9757 71.0638 29.5097C70.364 30.0621 69.6182 30.4949 68.8264 30.8079C68.0162 31.1394 67.1968 31.2775 66.3681 31.2222C65.5579 31.1854 64.8029 30.8171 64.1032 30.1174C63.7165 29.7307 63.4771 29.4361 63.385 29.2335C63.3114 29.0494 63.2377 28.9205 63.1641 28.8468ZM75.5119 37.4382C76.1932 37.0883 76.9574 36.8213 77.8045 36.6371C78.6515 36.453 79.5354 36.3057 80.4561 36.1952C81.3584 36.1031 82.2699 36.0018 83.1906 35.8914C84.1114 35.7809 84.9952 35.6151 85.8423 35.3942C86.229 35.3021 86.5789 35.1548 86.8919 34.9522C87.1865 34.7681 87.4443 34.5655 87.6653 34.3446C88.1257 33.8842 88.4387 33.3686 88.6044 32.7978C88.7702 32.2638 88.807 31.7113 88.7149 31.1405C88.6228 30.5696 88.4203 29.9988 88.1072 29.428C87.7942 28.8939 87.3891 28.3783 86.8919 27.8812C86.3947 27.384 85.8515 26.896 85.2622 26.4172C84.673 25.9753 84.1114 25.5978 83.5773 25.2848C83.0433 25.0085 82.5554 24.8152 82.1134 24.7047C81.6715 24.631 81.34 24.7047 81.119 24.9257C80.9165 25.1282 80.7784 25.3768 80.7047 25.6715C80.6495 25.9845 80.7231 26.2423 80.9257 26.4449C80.9625 26.4817 81.1559 26.6014 81.5057 26.8039C81.8556 27.0065 82.2699 27.2551 82.7487 27.5497C83.2275 27.8812 83.7247 28.231 84.2403 28.5993C84.7743 28.986 85.2346 29.3727 85.6213 29.7594C86.1001 30.2382 86.3579 30.7354 86.3947 31.251C86.4316 31.8034 86.2198 32.3098 85.7594 32.7701C85.5016 33.0279 85.1702 33.2121 84.7651 33.3226C84.36 33.4699 83.8628 33.5804 83.2735 33.654C82.6843 33.7277 82.0121 33.7921 81.2572 33.8474C80.4838 33.921 79.6183 34.0315 78.6607 34.1788C77.0219 34.4182 75.7329 34.7128 74.7938 35.0627C73.8546 35.4126 73.0904 35.8822 72.5012 36.4714C71.6725 37.3 71.2674 38.2023 71.2858 39.1783C71.3227 40.1727 71.9211 41.2499 73.0812 42.41C73.4679 42.7967 73.9099 43.165 74.4071 43.5149C74.9042 43.9016 75.4014 44.2146 75.8986 44.454C76.3774 44.7118 76.8285 44.8683 77.2521 44.9235C77.6572 44.9972 77.9702 44.9235 78.1912 44.7026C78.3753 44.5184 78.4858 44.2975 78.5226 44.0397C78.5595 43.7819 78.4858 43.5609 78.3017 43.3767C78.2096 43.2847 78.0255 43.1558 77.7492 42.99C77.473 42.8243 77.1508 42.6126 76.7825 42.3548C76.4142 42.1338 76.0275 41.876 75.6224 41.5814C75.2357 41.3051 74.895 41.0197 74.6004 40.7251C73.6981 39.8228 73.6429 38.9757 74.4347 38.1839C74.7109 37.9077 75.07 37.6591 75.5119 37.4382ZM94.9308 37.8536C94.1574 38.8848 93.2459 40.0173 92.1963 41.251C91.1283 42.5032 90.0234 43.7001 88.8818 44.8418C87.9426 45.7809 87.0311 46.6188 86.1472 47.3553C85.2449 48.1103 84.4531 48.6627 83.7718 49.0126C83.6613 49.0126 83.5416 49.0771 83.4127 49.206C82.8419 48.6351 82.3263 48.1011 81.8659 47.6039C81.4056 47.1436 80.9728 46.7661 80.5677 46.4714C80.181 46.1952 79.8312 46.0295 79.5181 45.9743C79.2051 45.919 78.9104 46.0295 78.6342 46.3057C78.4501 46.4899 78.358 46.7292 78.358 47.0239C78.3764 47.3369 78.5237 47.6315 78.8 47.9078C79.1682 48.2024 79.5734 48.5523 80.0153 48.9574C80.4757 49.3809 80.9452 49.832 81.424 50.3108C82.3815 51.2684 83.3299 52.2535 84.269 53.2663C85.1897 54.2975 85.9263 55.1814 86.4787 55.9179L86.6444 56.0837C86.8654 56.3046 87.1232 56.4151 87.4178 56.4151C87.694 56.4335 87.9242 56.3507 88.1084 56.1665C88.3662 55.9087 88.449 55.5865 88.3569 55.1998C88.2833 54.8315 88.0899 54.4172 87.7769 53.9568C87.4823 53.5149 87.0956 53.0361 86.6168 52.5205C86.138 52.0049 85.6316 51.4801 85.0976 50.9461C85.9079 50.5042 86.8102 49.8412 87.8045 48.9574C88.7989 48.1103 89.8025 47.1804 90.8152 46.1676C91.4597 45.5231 92.0766 44.8694 92.6659 44.2065C93.2735 43.562 93.8352 42.9267 94.3508 42.3006C94.8848 41.6929 95.3636 41.1221 95.7871 40.5881C96.1922 40.0725 96.5329 39.6398 96.8091 39.2899C97.0301 38.9953 97.1129 38.6914 97.0577 38.3784C97.0208 38.0838 96.9104 37.8444 96.7262 37.6602C96.5237 37.4577 96.2659 37.3288 95.9528 37.2735C95.6582 37.2367 95.382 37.3472 95.1242 37.605C95.0321 37.6971 94.9677 37.7799 94.9308 37.8536ZM100.097 54.8418C100.668 55.6705 101.138 56.4162 101.506 57.0791C101.893 57.7605 102.16 58.3774 102.307 58.9298C102.436 59.5006 102.436 60.0162 102.307 60.4766C102.178 60.9738 101.883 61.4525 101.423 61.9129C101.036 62.2996 100.539 62.5021 99.9314 62.5206C99.3237 62.539 98.67 62.4193 97.9703 62.1615C97.2705 61.9037 96.5524 61.517 95.8158 61.0014C95.0792 60.4858 94.3703 59.8873 93.689 59.206C93.5232 59.0403 93.3575 58.8745 93.1918 58.7088C93.0261 58.5431 92.8603 58.3589 92.6946 58.1564C93.4128 57.6592 94.177 57.0423 94.9872 56.3058C95.8158 55.5876 96.6445 54.8142 97.4731 53.9856C98.1728 53.2858 98.8634 52.5585 99.5447 51.8035C100.244 51.0669 100.898 50.358 101.506 49.6766C102.095 49.0137 102.62 48.3784 103.08 47.7707C103.541 47.1999 103.909 46.7211 104.185 46.3344C104.388 46.0214 104.471 45.7176 104.434 45.4229C104.415 45.1467 104.305 44.9073 104.102 44.7048C103.9 44.5022 103.642 44.3733 103.329 44.3181C103.034 44.2813 102.758 44.3917 102.5 44.6495C102.408 44.7416 102.344 44.8245 102.307 44.8981C101.902 45.4137 101.451 45.9754 100.953 46.583C100.456 47.2275 99.913 47.8812 99.3237 48.5441C98.7345 49.2071 98.1268 49.87 97.5007 50.5329C96.8746 51.2326 96.2393 51.9047 95.5948 52.5492C94.5452 53.5989 93.5417 54.5288 92.5841 55.339C91.6082 56.1676 90.7795 56.7201 90.0982 56.9963C89.7483 57.1252 89.4721 57.2909 89.2696 57.4935C89.0118 57.7513 88.8736 58.0183 88.8552 58.2945C88.8184 58.5891 88.9013 58.8377 89.1038 59.0403C89.4537 59.3901 89.9693 59.4822 90.6506 59.3165C90.8348 59.5374 91.0189 59.74 91.2031 59.9241C91.3872 60.1083 91.5713 60.2924 91.7555 60.4766C92.6762 61.3973 93.6521 62.2075 94.6833 62.9073C95.733 63.6254 96.7549 64.1502 97.7493 64.4817C98.7621 64.8315 99.7288 64.9512 100.65 64.8407C101.589 64.7487 102.417 64.3436 103.135 63.6254C104.406 62.3548 104.903 60.8633 104.627 59.1507C104.369 57.4566 103.467 55.5968 101.92 53.5712C101.883 53.5344 101.865 53.4976 101.865 53.4607C101.865 53.4607 101.846 53.4423 101.81 53.4055C101.57 53.1661 101.312 53.0741 101.036 53.1293C100.742 53.203 100.484 53.3503 100.263 53.5712C100.116 53.7185 100.014 53.9119 99.959 54.1513C99.9038 54.3907 99.9498 54.6208 100.097 54.8418ZM103.219 69.6756C103.312 70.0623 103.459 70.3569 103.661 70.5595C103.588 70.5963 103.505 70.6608 103.413 70.7528C103.118 71.0475 103.063 71.471 103.247 72.0234C103.431 72.5758 103.827 73.1559 104.435 73.7636C105.392 74.7211 106.424 75.2919 107.528 75.4761C108.633 75.6602 109.729 75.5958 110.815 75.2827C111.902 74.9697 112.951 74.4725 113.964 73.7912C114.959 73.1283 115.833 72.4193 116.588 71.6643C117.472 70.7804 118.236 69.8137 118.881 68.7641C119.525 67.7513 119.986 66.7201 120.262 65.6705C120.52 64.6393 120.566 63.6357 120.4 62.6598C120.234 61.6838 119.774 60.8183 119.019 60.0634C117.932 58.9769 116.837 58.268 115.732 57.9365C114.627 57.6419 113.531 57.6143 112.445 57.8537C111.359 58.093 110.318 58.5442 109.324 59.2071C108.311 59.8884 107.363 60.671 106.479 61.5549C105.098 62.936 104.186 64.271 103.744 65.56C103.284 66.8674 103.109 68.2393 103.219 69.6756ZM105.153 70.8357C105.153 70.762 105.116 70.6884 105.042 70.6147C104.969 70.5411 104.895 70.5042 104.821 70.5042L104.932 70.3937C105.227 70.0991 105.374 69.694 105.374 69.1784C105.356 68.3129 105.576 67.337 106.037 66.2505C106.497 65.1641 107.197 64.1513 108.136 63.2122C108.836 62.5125 109.582 61.914 110.373 61.4168C111.165 60.9196 111.957 60.5698 112.749 60.3672C113.541 60.1646 114.314 60.1462 115.069 60.312C115.824 60.4777 116.515 60.8736 117.141 61.4997C117.638 61.9969 117.951 62.5677 118.08 63.2122C118.19 63.8751 118.144 64.5656 117.942 65.2838C117.739 66.0388 117.38 66.803 116.864 67.5764C116.33 68.3682 115.667 69.16 114.876 69.9518C114.378 70.449 113.771 70.9646 113.053 71.4986C112.353 72.051 111.607 72.4838 110.815 72.7968C110.005 73.1283 109.186 73.2664 108.357 73.2111C107.547 73.1743 106.792 72.806 106.092 72.1063C105.705 71.7196 105.466 71.4249 105.374 71.2224C105.3 71.0382 105.227 70.9093 105.153 70.8357ZM120.871 87.8792C120.797 87.916 120.705 87.9897 120.594 88.1001C120.337 88.3579 120.198 88.6434 120.18 88.9564C120.162 89.2694 120.254 89.5272 120.456 89.7298C120.659 89.9324 120.917 90.0613 121.23 90.1165C121.543 90.1717 121.883 90.0705 122.252 89.8127C123.154 89.1682 124.047 88.4592 124.931 87.6858C125.815 86.9124 126.699 86.0838 127.583 85.1999C129.019 83.7636 130.391 82.2444 131.698 80.6424C132.987 79.0588 134.092 77.5304 135.013 76.0572C135.215 75.7442 135.298 75.4588 135.261 75.201C135.243 74.9616 135.151 74.759 134.985 74.5933C134.783 74.3907 134.47 74.2803 134.046 74.2618C133.641 74.225 132.914 74.3263 131.864 74.5657C130.814 74.8051 129.332 75.201 127.417 75.7534C125.52 76.3242 122.988 77.1253 119.821 78.1565C118.661 78.5432 117.786 78.8286 117.197 79.0127C116.608 79.1969 116.249 79.3718 116.12 79.5375C115.917 79.7401 115.816 80.0071 115.816 80.3385C115.797 80.6884 115.89 80.9646 116.092 81.1672C116.239 81.3145 116.368 81.4066 116.479 81.4434C116.589 81.5171 116.755 81.5171 116.976 81.4434C117.197 81.4066 117.519 81.3053 117.943 81.1396C118.348 80.9922 118.937 80.8081 119.711 80.5871L128.439 77.8802C129.157 77.6777 129.765 77.512 130.262 77.3831C130.759 77.2542 131.146 77.1621 131.422 77.1068C129.765 79.427 128.006 81.5171 126.146 83.3769C125.244 84.2792 124.351 85.0986 123.467 85.8352C122.565 86.5902 121.699 87.2715 120.871 87.8792ZM113.8 81.1396C114.426 80.3293 115.254 79.3718 116.285 78.2669C117.298 77.1805 118.366 76.0756 119.49 74.9524C120.668 73.7739 121.856 72.6598 123.053 71.6102C124.25 70.5974 125.262 69.6767 126.091 68.8481C126.441 68.4982 126.634 68.1391 126.671 67.7708C126.69 67.421 126.579 67.1263 126.34 66.8869C126.192 66.7396 125.981 66.6568 125.704 66.6383C125.428 66.6568 125.124 66.7949 124.793 67.0527C123.614 67.9734 122.344 69.0598 120.981 70.312C119.637 71.5826 118.302 72.8808 116.976 74.2066C116 75.1826 115.079 76.1217 114.214 77.024C113.348 77.9631 112.584 78.8562 111.921 79.7033C111.608 80.0531 111.479 80.3846 111.535 80.6976C111.608 81.0291 111.746 81.2961 111.949 81.4986C112.188 81.6644 112.465 81.738 112.778 81.7196C113.072 81.7196 113.358 81.5815 113.634 81.3053L113.8 81.1396ZM125.319 91.333C124.969 91.0936 124.647 90.9739 124.352 90.9739C124.039 90.9923 123.8 91.0844 123.634 91.2501C123.431 91.4526 123.33 91.7196 123.33 92.0511C123.33 92.3826 123.496 92.714 123.827 93.0455C124.251 93.3953 124.674 93.7636 125.098 94.1503C125.521 94.537 125.936 94.9329 126.341 95.338C127.04 96.0378 127.694 96.7283 128.302 97.4096C128.928 98.1094 129.48 98.7723 129.959 99.3984C130.272 99.7114 130.594 99.868 130.926 99.868C131.257 99.9048 131.524 99.8219 131.727 99.6194C132.243 99.1038 132.123 98.358 131.368 97.382C130.631 96.4245 129.333 95.0158 127.473 93.156C128.155 92.18 128.919 91.1948 129.766 90.2005C130.594 89.2245 131.524 88.2209 132.556 87.1897C133.218 86.5268 133.863 85.9007 134.489 85.3115C135.115 84.7222 135.741 84.1514 136.367 83.599C136.772 83.2675 137.131 83.0373 137.445 82.9084C137.758 82.8164 138.061 82.8072 138.356 82.8808C138.651 82.9913 138.954 83.1846 139.268 83.4609C139.599 83.7555 139.995 84.133 140.455 84.5933C141.045 85.1826 141.588 85.7995 142.085 86.444C142.582 87.1253 142.996 87.8342 143.328 88.5708C143.438 88.7918 143.567 88.9759 143.715 89.1232C143.954 89.3626 144.184 89.4639 144.405 89.4271C144.644 89.4087 144.847 89.3166 145.013 89.1509C145.363 88.801 145.482 88.3498 145.372 87.7974C145.261 87.245 145.04 86.6741 144.709 86.0849C144.396 85.514 144.009 84.9616 143.549 84.4276C143.107 83.8752 142.72 83.4332 142.389 83.1018C142.039 82.7519 141.634 82.3652 141.173 81.9417C140.75 81.5182 140.271 81.1499 139.737 80.8368C139.203 80.5606 138.632 80.3949 138.025 80.3396C137.417 80.2844 136.791 80.4501 136.146 80.8368C135.539 81.1867 134.857 81.6839 134.102 82.3284C133.329 82.9913 132.537 83.7279 131.727 84.5381C131.064 85.201 130.419 85.8639 129.793 86.5268C129.167 87.2266 128.578 87.8895 128.026 88.5156C127.473 89.1417 126.994 89.7125 126.589 90.2281C126.166 90.7621 125.834 91.1856 125.595 91.4987C125.503 91.4066 125.438 91.3606 125.402 91.3606C125.383 91.379 125.356 91.3698 125.319 91.333ZM135.207 88.1841C134.894 87.9079 134.6 87.7974 134.323 87.8527C134.066 87.9263 133.835 88.0644 133.633 88.267C133.449 88.4511 133.357 88.6905 133.357 88.9851C133.375 89.2982 133.513 89.5836 133.771 89.8414C134.084 90.1544 134.406 90.4583 134.738 90.7529C135.088 91.0659 135.419 91.379 135.732 91.692C136.745 92.7048 137.693 93.7636 138.577 94.8685C138.89 95.1447 139.194 95.2828 139.489 95.2828C139.802 95.3012 140.05 95.2368 140.234 95.0895C140.51 94.8132 140.584 94.4634 140.455 94.0398C140.308 93.6347 140.078 93.202 139.765 92.7416C139.452 92.2813 139.093 91.8301 138.687 91.3882C138.264 90.9647 137.896 90.5964 137.583 90.2833C137.196 89.8966 136.809 89.5284 136.423 89.1785C136.017 88.847 135.612 88.5156 135.207 88.1841ZM147.61 90.6435C147.242 91.1223 146.8 91.6747 146.284 92.3008C145.769 92.9637 145.207 93.6542 144.6 94.3724C143.992 95.0906 143.347 95.8087 142.666 96.5269C142.003 97.2634 141.331 97.9724 140.65 98.6537C139.711 99.5928 138.79 100.421 137.888 101.14C136.985 101.895 136.175 102.447 135.457 102.797C135.089 102.981 134.822 103.156 134.656 103.322C134.38 103.598 134.223 103.865 134.186 104.123C134.149 104.417 134.223 104.657 134.407 104.841C134.739 105.172 135.291 105.209 136.065 104.951C137.096 105.983 138.302 106.857 139.683 107.575C141.082 108.312 142.51 108.8 143.964 109.039C145.437 109.297 146.874 109.26 148.273 108.929C149.654 108.616 150.87 107.934 151.919 106.885C152.711 106.093 153.3 105.154 153.687 104.067C154.074 102.981 154.285 101.867 154.322 100.725C154.359 99.5836 154.221 98.4512 153.908 97.3279C153.595 96.2414 153.135 95.2839 152.527 94.4553C152.251 94.2159 151.956 94.1422 151.643 94.2343C151.312 94.3448 151.045 94.5013 150.842 94.7039C150.695 94.8512 150.593 95.0261 150.538 95.2287C150.483 95.468 150.52 95.689 150.649 95.8916C151.091 96.5913 151.413 97.3739 151.615 98.2394C151.818 99.1417 151.882 100.035 151.809 100.919C151.753 101.821 151.569 102.668 151.256 103.46C150.943 104.288 150.501 104.988 149.93 105.559C149.268 106.222 148.43 106.636 147.417 106.802C146.386 106.986 145.318 106.968 144.213 106.747C143.108 106.563 142.022 106.194 140.954 105.642C139.886 105.126 138.956 104.491 138.164 103.736C139.084 102.999 139.987 102.226 140.871 101.416C141.773 100.624 142.666 99.7862 143.55 98.9023C144.71 97.7422 145.787 96.5913 146.782 95.4496C147.758 94.3264 148.641 93.1847 149.433 92.0246C149.636 91.7115 149.719 91.4077 149.682 91.1131C149.645 90.8553 149.544 90.6251 149.378 90.4225C149.194 90.2384 148.945 90.1187 148.632 90.0635C148.338 90.0266 148.043 90.1555 147.748 90.4502C147.712 90.487 147.684 90.5146 147.666 90.533C147.666 90.5699 147.647 90.6067 147.61 90.6435Z" fill="#434343"/>
</g>
<defs>
<filter id="filter0_d_540_2189" x="0" y="0" width="168" height="168" filterUnits="userSpaceOnUse" color-interpolation-filters="sRGB">
<feFlood flood-opacity="0" result="BackgroundImageFix"/>
<feColorMatrix in="SourceAlpha" type="matrix" values="0 0 0 0 0 0 0 0 0 0 0 0 0 0 0 0 0 0 127 0" result="hardAlpha"/>
<feOffset dy="4"/>
<feGaussianBlur stdDeviation="2"/>
<feComposite in2="hardAlpha" operator="out"/>
<feColorMatrix type="matrix" values="0 0 0 0 0 0 0 0 0 0 0 0 0 0 0 0 0 0 0.25 0"/>
<feBlend mode="normal" in2="BackgroundImageFix" result="effect1_dropShadow_540_2189"/>
<feBlend mode="normal" in="SourceGraphic" in2="effect1_dropShadow_540_2189" result="shape"/>
</filter>
</defs>
</svg>
