<svg width="168" height="168" viewBox="0 0 168 168" fill="none" xmlns="http://www.w3.org/2000/svg">

    
    <g id="Property 1=Default">
        <g id="back">
            <path d="M4 0L28 18H4V0Z" fill="#B3B0A5" />
            <path d="M146 160V136L164 160H146Z" fill="#B3B0A5" />
        </g>
        <g id="Wrapper" filter="url(#filter0_d_418_865)">
            <path d="M164 73.1424L90 3.75918e-06L4 0C45.6573 43.5697 119.5 117.07 164 160V73.1424Z"
                fill="#F5F0D6" />
        </g>
        <g id="info">
            <path id="Exclude" fill-rule="evenodd" clip-rule="evenodd"
                d="M116.895 79.9953C113.261 81.8019 109.208 82.7692 105.053 82.7692C98.143 82.7692 91.5165 80.0948 86.6306 75.3343C81.7448 70.5737 79 64.117 79 57.3846C79 50.6522 81.7448 44.1955 86.6306 39.435C91.5165 34.6744 98.143 32 105.053 32C111.962 32 118.589 34.6744 123.475 39.435C125.557 41.4637 127.25 43.8004 128.508 46.3352L119.318 54.9324L122.244 57.6696L130.081 50.3376C130.755 52.6082 131.105 54.9788 131.105 57.3846C131.105 57.6332 131.102 57.8813 131.094 58.1291H122.449V62H130.671C130.194 64.5147 129.33 66.9397 128.115 69.1937L119.561 61.636C119.264 61.375 118.891 61.2308 118.497 61.2308C117.613 61.2308 116.895 61.9451 116.895 62.8242V79.9953ZM116.895 79.9953C119.303 78.7979 121.527 77.2318 123.475 75.3343C125.347 73.5099 126.905 71.4364 128.115 69.1937L138.489 78.3605C138.813 78.649 139 79.0611 139 79.4938C139 80.3317 138.316 81.0117 137.473 81.0117H129.315L133.232 88.821C133.778 89.9062 133.336 91.2249 132.244 91.7675C131.153 92.3101 129.826 91.8706 129.281 90.7854L125.267 82.7975L119.561 89.2881C119.271 89.6177 118.85 89.8032 118.414 89.8032C117.579 89.8032 116.895 89.1301 116.895 88.2921V79.9953ZM130.671 62H135.897V58.1291H131.094C131.055 59.4353 130.912 60.7291 130.671 62ZM130.081 50.3376L131.753 48.7735L128.827 46.0363L128.508 46.3352C129.147 47.623 129.673 48.9619 130.081 50.3376ZM103.424 65.3173H100.982C99.6284 65.3173 98.5395 66.3783 98.5395 67.6971C98.5395 69.0159 99.6284 70.0769 100.982 70.0769H109.123C110.477 70.0769 111.566 69.0159 111.566 67.6971C111.566 66.3783 110.477 65.3173 109.123 65.3173H108.309V56.5914C108.309 55.2725 107.22 54.2115 105.867 54.2115H100.982C99.6284 54.2115 98.5395 55.2725 98.5395 56.5914C98.5395 57.9102 99.6284 58.9712 100.982 58.9712H103.424V65.3173ZM107.355 45.6217C106.745 45.0266 105.916 44.6923 105.053 44.6923C104.189 44.6923 103.361 45.0266 102.75 45.6217C102.139 46.2168 101.796 47.0238 101.796 47.8654C101.796 48.7069 102.139 49.514 102.75 50.1091C103.361 50.7042 104.189 51.0385 105.053 51.0385C105.916 51.0385 106.745 50.7042 107.355 50.1091C107.966 49.514 108.309 48.7069 108.309 47.8654C108.309 47.0238 107.966 46.2168 107.355 45.6217ZM118.827 42.1612V54.7422H114.689V42.1612H118.827ZM95.5513 48.4516V44.5807H91.4134V48.4516H87.2755V52.3226H91.4134V56.1936H95.5513V52.3226H99.6892V48.4516H95.5513Z"
                fill="black" />
        </g>
        <path id="K"
            d="M104.739 30.812C104.609 30.8348 104.512 30.8396 104.449 30.8264C104.396 30.7992 104.325 30.7446 104.237 30.6625L99.4148 25.6796L98.5 27.3389L99.2442 31.576C99.2691 31.7179 99.2107 31.8012 99.0688 31.8262L97.491 32.1033C97.3492 32.1282 97.2658 32.0697 97.2409 31.9279L94.9678 18.986C94.9428 18.8442 95.0013 18.7608 95.1431 18.7359L96.721 18.4588C96.8628 18.4339 96.9462 18.4923 96.9711 18.6342L97.9613 24.2719L101.534 17.8693C101.596 17.7366 101.674 17.662 101.768 17.6454L103.701 17.3059C103.831 17.2831 103.905 17.2884 103.923 17.3218C103.941 17.3551 103.923 17.4253 103.868 17.5323L100.429 23.8568L106.631 30.2421C106.764 30.3771 106.73 30.4622 106.529 30.4975L104.739 30.812Z"
            fill="black" />
        <path id="C"
            d="M95.0402 31.8912C94.7737 32.1348 94.4403 32.4056 94.0401 32.7038C93.6398 33.002 93.151 33.2982 92.5736 33.5924C91.6648 34.0555 90.7599 34.328 89.8589 34.41C88.9686 34.4865 88.1226 34.3856 87.3209 34.1073C86.5137 33.8182 85.7696 33.3623 85.0886 32.7396C84.4077 32.1168 83.8275 31.335 83.3481 30.3941C82.8742 29.4639 82.5801 28.5431 82.4658 27.6316C82.3622 26.7147 82.4335 25.8501 82.6796 25.0378C82.9202 24.2149 83.3331 23.4658 83.9183 22.7905C84.5088 22.0991 85.2638 21.5191 86.1833 21.0506C86.6644 20.8055 87.1485 20.5925 87.6355 20.4117C88.117 20.2202 88.5749 20.0879 89.009 20.0148C89.143 19.987 89.2343 19.9944 89.2829 20.0369C89.3261 20.0688 89.3696 20.1409 89.4134 20.2533L89.986 21.4564C90.0732 21.6275 90.09 21.7267 90.0365 21.7539C89.9831 21.7812 89.8813 21.8061 89.7312 21.8287C88.804 21.9914 87.9074 22.2933 87.0413 22.7346C86.3784 23.0724 85.8422 23.487 85.4327 23.9785C85.0339 24.4645 84.7562 25.0033 84.5997 25.5948C84.4539 26.1809 84.4291 26.8063 84.5254 27.4711C84.6269 28.1197 84.8493 28.7808 85.1925 29.4544C85.5303 30.1173 85.9451 30.6803 86.437 31.1435C86.9234 31.596 87.4547 31.9381 88.0307 32.1698C88.6119 32.3855 89.2137 32.4829 89.8361 32.462C90.4692 32.4358 91.0958 32.2646 91.7159 31.9487C92.2719 31.6654 92.7315 31.4043 93.0946 31.1654C93.4629 30.9104 93.7829 30.6396 94.0544 30.3531C94.1662 30.2288 94.2489 30.1665 94.3026 30.1661C94.3562 30.1657 94.4021 30.2029 94.4402 30.2777L95.0846 31.3837C95.1552 31.4959 95.1881 31.5869 95.1833 31.6567C95.1891 31.721 95.1414 31.7992 95.0402 31.8912Z"
            fill="black" />
        <path id="I"
            d="M85.5161 37.8554C85.6302 37.9618 85.634 38.072 85.5277 38.1861L84.4105 39.384C84.3041 39.4981 84.1939 39.502 84.0798 39.3956L74.4962 30.4587C74.3821 30.3523 74.3782 30.2421 74.4846 30.128L75.6017 28.93C75.7081 28.8159 75.8184 28.8121 75.9324 28.9185L85.5161 37.8554Z"
            fill="black" />
        <path id="L"
            d="M78.9943 46.8899C78.9625 46.9408 78.9187 46.9771 78.8627 46.9987C78.8029 47.0038 78.7476 46.9904 78.6967 46.9587L67.5533 39.9955C67.5025 39.9637 67.4713 39.923 67.4598 39.8734C67.4446 39.8073 67.4528 39.7488 67.4846 39.6979L68.3431 38.324C68.3749 38.2732 68.4207 38.2452 68.4805 38.2401C68.5364 38.2184 68.5899 38.2235 68.6407 38.2553L78.3645 44.3314L80.8349 40.3778C80.9112 40.2557 81.0156 40.2359 81.1478 40.3186L82.369 41.0817C82.4199 41.1135 82.453 41.1624 82.4683 41.2286C82.4797 41.2782 82.4695 41.3284 82.4378 41.3793L78.9943 46.8899Z"
            fill="black" />
        <path id="C_2"
            d="M77.9924 49.8806C78.0139 50.2409 78.0146 50.6704 77.9945 51.1692C77.9744 51.6679 77.897 52.2341 77.7622 52.868C77.5502 53.8657 77.1925 54.7404 76.6892 55.4922C76.1884 56.2323 75.5775 56.8263 74.8566 57.2742C74.124 57.7196 73.3015 58.0109 72.389 58.1482C71.4765 58.2855 70.5038 58.2444 69.4709 58.0248C68.4497 57.8077 67.549 57.4568 66.7687 56.972C65.991 56.4754 65.3639 55.876 64.8875 55.1736C64.3994 54.4687 64.0771 53.6764 63.9206 52.7966C63.7549 51.9026 63.7793 50.9509 63.9938 49.9414C64.1061 49.4132 64.2452 48.903 64.4112 48.4107C64.5654 47.916 64.7508 47.4769 64.9672 47.0936C65.0299 46.9719 65.093 46.9056 65.1567 46.8946C65.2087 46.8811 65.2921 46.8927 65.4069 46.9294L66.7024 47.2416C66.8902 47.2815 66.9778 47.3308 66.9653 47.3895C66.9529 47.4482 66.9082 47.5429 66.8313 47.6738C66.3742 48.4968 66.0446 49.3836 65.8425 50.3344C65.6878 51.0621 65.6726 51.7398 65.7969 52.3673C65.9236 52.9831 66.1676 53.538 66.5288 54.0318C66.8925 54.514 67.3629 54.9268 67.9401 55.2703C68.5081 55.5996 69.1618 55.8429 69.9013 56C70.629 56.1547 71.3276 56.1867 71.9971 56.0959C72.6549 56.0026 73.2551 55.8051 73.7977 55.5033C74.331 55.1873 74.7855 54.7809 75.161 54.2841C75.539 53.7756 75.8003 53.1809 75.945 52.5001C76.0747 51.8898 76.161 51.3683 76.2039 50.9358C76.2375 50.489 76.2285 50.07 76.1767 49.6786C76.1504 49.5136 76.154 49.4101 76.1875 49.3681C76.2209 49.3261 76.2788 49.3139 76.3609 49.3313L77.626 49.5266C77.7576 49.5423 77.849 49.574 77.9002 49.6217C77.9539 49.6577 77.9846 49.744 77.9924 49.8806Z"
            fill="black" />
    </g>
    <defs>
        <filter id="filter0_d_418_865" x="0" y="0" width="168" height="168"
            filterUnits="userSpaceOnUse" color-interpolation-filters="sRGB">
            <feFlood flood-opacity="0" result="BackgroundImageFix" />
            <feColorMatrix in="SourceAlpha" type="matrix"
                values="0 0 0 0 0 0 0 0 0 0 0 0 0 0 0 0 0 0 127 0" result="hardAlpha" />
            <feOffset dy="4" />
            <feGaussianBlur stdDeviation="2" />
            <feComposite in2="hardAlpha" operator="out" />
            <feColorMatrix type="matrix" values="0 0 0 0 0 0 0 0 0 0 0 0 0 0 0 0 0 0 0.25 0" />
            <feBlend mode="normal" in2="BackgroundImageFix" result="effect1_dropShadow_418_865" />
            <feBlend mode="normal" in="SourceGraphic" in2="effect1_dropShadow_418_865"
                result="shape" />
        </filter>
    </defs>
</svg>