<svg width="574" height="727" viewBox="0 0 574 727" fill="none" xmlns="http://www.w3.org/2000/svg">
<path d="M355.853 26.6232C350.532 26.6232 331.869 17.0789 327.245 22.859C323.865 27.0844 307.105 25.9459 302.653 26.5395C290.594 28.1473 276.034 26.5772 265.178 33.315C258.957 37.1764 246.809 41.2795 243.263 48.3716C241.755 51.387 239.718 53.9189 237.439 56.2429M237.439 56.2429C231.77 62.023 224.601 66.5174 220.343 73.9678C219.117 76.1142 214.345 79.5702 212.146 80.8269C208.239 83.0591 206.439 88.8365 202.192 91.4502C183.027 103.244 171.925 127.939 156.436 143.897C145.583 155.08 142.854 168.204 138.452 182.877C135.364 193.17 141.586 207.591 137.365 217.089C133.872 224.947 133.665 234.457 133.015 243.773C132.676 248.632 130.004 251.692 130.004 256.989C130.004 261.332 129.85 264.531 131.509 268.532C135.186 277.399 139.067 285.941 143.555 293.794C145.411 297.043 159.593 300.484 163.128 302.159C168.901 304.893 173.201 309.687 179.69 309.687C186.333 309.687 191.964 312.911 198.428 314.204C212.489 317.016 226.759 318.735 240.753 322.067C254.415 325.32 270.3 323.238 284.417 323.238C298.74 323.238 312.579 323.726 326.576 320.227C336.672 317.702 346.385 315.257 355.685 310.607C361.084 307.908 367.133 304.798 373.084 303.664C379.298 302.481 386.416 298.169 392.156 295.3C398.404 292.176 404.651 290.573 410.725 287.102C419.293 282.206 428.34 278.893 436.823 273.551C444.469 268.737 450.369 262.329 456.732 256.32C464.165 249.3 463.351 237.688 465.013 228.381C466.702 218.923 467.271 208.526 467.271 198.937C467.271 189.603 458.699 181.625 453.72 174.512C450.897 170.479 442.194 164.051 441.675 159.121C441.087 153.535 433.995 149.105 429.295 147.076C424.353 144.942 419.013 142.123 413.82 140.97C409.148 139.931 406.951 134.789 402.528 133.525C399.141 132.557 395.846 128.01 392.574 125.997C387.911 123.127 382.763 119.313 377.852 117.046C369.4 113.145 359.128 106.506 352.005 100.4C336.347 86.9797 315.743 83.414 297.634 75.808C286.434 71.1041 275.421 63.5766 263.255 62.6753C257.947 62.2822 245.624 62.6105 242.092 59.0785C241.268 58.255 239.561 57.2578 237.439 56.2429ZM237.439 56.2429C231.902 53.5955 223.541 50.8283 220.678 50.7137L220.622 50.7115C216.546 50.5485 205.906 50.123 202.275 47.7024M209.804 235.91C194.556 235.91 197.759 212.817 197.759 201.28C197.759 196.246 196.055 187.74 198.093 183.212C200.59 177.664 206.287 175.557 210.975 172.672C214.5 170.503 217.757 171.988 221.515 170.832C224.387 169.948 226.264 168.155 229.377 168.155C237.29 168.155 241.729 167.5 245.605 175.683C249.877 184.701 241.745 198.751 247.445 207.302M309.177 187.729C309.177 177.089 307.672 166.814 307.672 156.863C307.672 153.478 306.513 145.57 311.52 145.57C318.361 145.57 320.394 141.053 326.576 141.053C344.586 141.053 334.282 154.02 342.636 163.304C345.178 166.128 351.085 187.101 346.819 189.234M260.996 205.797C265.9 205.797 276.063 203.106 279.817 205.127C283.294 206.999 287.136 208.193 289.269 211.819C290.904 214.599 294.513 213.876 295.961 216.336C298.815 221.188 306.828 220.13 309.344 224.534C310.849 227.166 318.03 237.862 312.941 241.932C310.557 243.84 310.773 246.982 308.843 249.126C306.537 251.688 306.763 252.87 303.824 255.483C297.99 260.669 295.209 261.506 287.429 261.506C281.863 261.506 273.319 259.362 273.041 252.137C272.782 245.403 271.413 235.49 277.558 231.393M206 314.279C187.835 302.596 160.271 317.786 145.272 324.82C134.365 329.935 130.874 339.875 120.774 344.515C111.411 348.816 103.867 366.845 96.103 373.78C92.623 376.888 94.0975 383.147 92.48 387.234C88.9339 396.193 82.1193 407.191 81.7836 416.637C81.4534 425.929 78.6782 435.367 78.6782 444.099C78.6782 448.716 77.0401 450.72 72.4674 453.531C67.8677 456.359 66.2566 468.033 66.2566 472.81C66.2566 498.369 62.7352 521.645 81.7836 543.407C92.8109 556.005 94.2053 518.964 94.2053 512.338C94.2053 500.505 92.1306 487.049 94.3778 475.306C98.8694 451.835 108.972 477.73 112.665 485.154C119.132 498.152 126.214 497.632 139.406 487.65C154.633 476.129 150.18 492.281 157.694 495.972C162.161 498.167 168.735 504.418 168.735 500.41C168.735 485.914 167.229 472.034 165.802 457.692C163.78 437.375 167.193 421.614 178.051 404.155M180.457 522.078V611.75C180.457 615.255 180.712 618.834 180.457 622.332C180.134 626.764 170.084 627.508 168.365 632.358C164.764 642.516 166.825 655.214 161.109 664.94C159.026 668.485 140.911 698.656 158.863 687.08C173.769 677.468 179.515 665.319 186.676 651.712C189.172 646.97 192.895 631.94 192.895 637.092C192.895 651.873 183.567 665.528 183.567 679.979V693.764C183.567 709.085 188.6 692.255 192.895 684.991C203.79 666.568 216.548 644.701 217.771 624.003C218.721 607.926 228.88 586.264 239.538 572.902C245.244 565.746 255.009 562.048 261.304 554.8C265.894 549.515 265.935 544.968 269.251 539.623C272.444 534.475 278.539 533.803 281.516 528.205C283.895 523.73 286.06 511.455 290.672 520.129C297.531 533.03 305.402 550.377 318.657 559.534C328.061 566.032 329.713 572.085 329.713 582.231V612.168C329.713 617.409 329.4 641.308 338.351 624.282C344.148 613.253 342.151 600.05 342.151 588.357C342.151 582.459 348.37 563.386 348.37 578.75C348.37 589.755 339.698 634.642 359.081 641.269C375.745 646.968 379.465 602.506 379.465 594.763C379.465 577.473 382.574 560.968 382.574 543.661V423.773C382.574 408.896 382.11 392.598 390.003 419.457C395.775 439.1 395.013 465.581 395.013 486.154C395.013 489.289 392.461 501.363 395.703 503.977C399.572 507.095 409.848 503.56 411.769 500.635C420.543 487.277 411.59 470.247 406.068 458.166C400.633 446.275 404.341 429.805 404.341 417.368C404.341 408.176 412.57 434.524 416.088 443.267C418.328 448.834 426.406 447.339 432.326 445.634C448.224 441.058 441.655 416.346 441.655 404.837C441.655 379.409 442.932 357.81 426.108 335.773C422.944 331.63 420.784 327.309 418.161 322.684C415.047 317.194 410.285 314.045 407.623 309.038C400.711 296.037 394.284 300.292 382.574 294" stroke="black" stroke-width="7" stroke-linecap="round"/>
</svg>
