<svg width="574" height="805" viewBox="0 0 574 805" fill="none" xmlns="http://www.w3.org/2000/svg">
<path d="M358.251 26.482C352.93 26.482 334.268 16.9378 329.643 22.7179C326.263 26.9433 309.503 25.8048 305.051 26.3984C292.993 28.0062 278.432 26.436 267.577 33.1738C261.356 37.0353 249.207 41.1383 245.661 48.2304C244.153 51.2459 242.117 53.7777 239.837 56.1018M239.837 56.1018C234.168 61.8819 226.999 66.3762 222.742 73.8266C221.515 75.973 216.744 79.429 214.544 80.6857C210.638 82.9179 208.837 88.6953 204.59 91.309C185.425 103.103 174.324 127.798 158.835 143.756C147.981 154.938 145.252 168.063 140.851 182.736C137.763 193.029 143.984 207.45 139.763 216.948C136.271 224.806 136.063 234.316 135.413 243.631C135.074 248.491 132.402 251.551 132.402 256.848C132.402 261.191 132.249 264.39 133.908 268.391C137.584 277.258 141.466 285.8 145.953 293.653C147.81 296.901 161.992 300.343 165.527 302.018C171.299 304.752 175.599 309.546 182.089 309.546C188.732 309.546 194.363 312.77 200.826 314.063C214.887 316.875 229.158 318.594 243.152 321.926C256.813 325.178 272.698 323.097 286.816 323.097C301.139 323.097 314.978 323.585 328.974 320.085C339.071 317.561 348.783 315.116 358.084 310.466C363.482 307.767 369.532 304.657 375.482 303.523C381.697 302.339 388.815 298.028 394.554 295.158C400.802 292.034 407.049 290.432 413.124 286.961C421.692 282.065 430.738 278.752 439.222 273.41C446.868 268.596 452.768 262.187 459.13 256.179C466.563 249.158 465.749 237.547 467.411 228.24C469.1 218.782 469.67 208.385 469.67 198.796C469.67 189.462 461.098 181.484 456.119 174.371C453.295 170.337 444.592 163.91 444.073 158.98C443.485 153.394 436.393 148.964 431.694 146.935C426.752 144.801 421.411 141.982 416.219 140.828C411.547 139.79 409.349 134.647 404.926 133.384C401.54 132.416 398.245 127.869 394.972 125.855C390.309 122.986 385.162 119.172 380.25 116.905C371.798 113.004 361.527 106.365 354.403 100.259C338.746 86.8385 318.142 83.2728 300.032 75.6669C288.832 70.9629 277.82 63.4354 265.653 62.5342C260.346 62.141 248.022 62.4693 244.49 58.9373C243.667 58.1138 241.959 57.1166 239.837 56.1018ZM239.837 56.1018C234.301 53.4543 225.94 50.6871 223.076 50.5726L223.02 50.5703C218.944 50.4073 208.305 49.9819 204.674 47.5612M212.202 235.769C196.955 235.769 200.157 212.676 200.157 201.138C200.157 196.105 198.454 187.599 200.492 183.071C202.988 177.523 208.686 175.416 213.373 172.531C216.898 170.362 220.155 171.847 223.913 170.691C226.785 169.807 228.662 168.014 231.776 168.014C239.688 168.014 244.127 167.359 248.004 175.542C252.275 184.56 244.143 198.61 249.844 207.161M311.576 187.587C311.576 176.948 310.07 166.673 310.07 156.721C310.07 153.337 308.911 145.429 313.918 145.429C320.76 145.429 322.792 140.912 328.975 140.912C346.985 140.912 336.68 153.879 345.035 163.162C347.577 165.987 353.483 186.96 349.217 189.093M263.395 205.655C268.298 205.655 278.461 202.965 282.215 204.986C285.692 206.858 289.534 208.052 291.667 211.678C293.303 214.458 296.912 213.734 298.359 216.195C301.213 221.047 309.227 219.989 311.743 224.393C313.247 227.025 320.428 237.721 315.34 241.791C312.955 243.699 313.171 246.84 311.241 248.985C308.935 251.547 309.162 252.729 306.222 255.342C300.388 260.528 297.607 261.365 289.827 261.365C284.261 261.365 275.718 259.221 275.44 251.996C275.181 245.262 273.811 235.349 279.957 231.252M105.3 128.867C109.429 133.512 110.907 140.299 117.262 142.418C119.803 143.265 120.451 146.101 123.368 146.935C128.171 148.307 124.718 147.076 123.703 144.258C120.503 135.369 108.055 129.665 106.806 121.339C106.186 117.205 101.955 104.717 98.6086 101.849C96.4276 99.9792 96.0196 97.1664 93.1715 95.7423C89.239 93.7761 84.9025 90.8763 83.0501 86.7084C80.9497 81.9825 80.9514 78.1397 77.4457 84.4499C74.7156 89.3641 73.6815 97.7535 73.6815 103.271C73.6815 115.809 76.6929 127.407 76.6929 140.159C76.6929 148.954 82.4467 161.707 69.3319 163.581C61.7895 164.658 67.6048 157.818 64.313 153.292C64.0255 152.897 58.6493 139.698 57.203 144.76C53.8121 156.628 61.2746 166.459 64.313 176.713C66.112 182.785 65.7223 191.075 68.4954 196.621C69.6892 199.009 72.9932 207.18 70.3356 209.838C70.1473 210.026 63.6282 192.897 63.0583 189.762C61.9717 183.786 57.3899 175.903 54.108 170.691C52.8452 168.685 50.2802 165.699 48.9339 163.024M48.9339 163.024C48.4819 162.127 48.1673 161.264 48.0854 160.486C47.8635 158.378 48.0854 152.009 48.0854 154.128C48.0854 157.284 48.3781 160.142 48.9339 163.024ZM48.9339 163.024C49.2954 164.899 49.7681 166.784 50.3438 168.767C51.9086 174.156 56.5154 181.384 57.1193 186.416C57.8592 192.582 60.3888 193.978 63.1419 198.796C66.9754 205.505 70.0585 212.102 72.1759 220.043C76.4348 236.014 87.7374 250.843 95.4299 265.129C104.933 282.777 110.364 302.232 121.193 319.249C123.852 323.426 125.078 329.461 128.22 333.302C131.854 337.743 134.377 341.624 137.839 346.685C141.701 352.329 148.964 362.776 148.964 369.772C148.964 376.009 154.709 383.151 157.162 389.011C158.118 391.294 162.975 404.402 162.264 404.402C154.066 404.402 147.578 397.214 142.942 391.186C140.043 387.418 127.025 382.43 122.532 381.901C116.266 381.164 114.755 378.588 109.483 376.966C106.993 376.2 104.658 375.599 102.289 374.624C99.3192 373.401 105.539 385.271 106.053 386.083C110.416 392.972 117.612 397.877 119.186 405.573C120.485 411.925 124.103 417.064 124.958 423.474C125.628 428.504 129.639 439.448 133.071 442.88C136.083 445.892 135.414 453.126 135.414 457.1C135.414 460.11 135.271 463.152 135.748 466.134C136.825 472.863 138.439 473.705 130.311 472.157C114.64 469.172 99.748 458.177 84.974 453.253C78.9448 451.243 71.3665 447.926 66.9897 443.549C65.074 441.634 60.1695 436.405 58.9188 433.429M58.9188 433.429C58.7305 432.981 58.625 432.584 58.625 432.257C58.625 431.014 58.7356 431.73 58.9188 433.429ZM58.9188 433.429C59.3425 437.359 60.1546 446.548 60.8835 448.903C62.2097 453.188 65.0691 458.98 67.6589 462.788C72.5706 470.012 75.3663 478.681 76.3583 488.05C76.9167 493.324 77.8745 506.554 83.552 509.798C89.6828 513.302 87.7359 515.867 89.9092 521.844C96.5975 540.236 79.9986 526.004 74.6853 522.178C67.8146 517.231 63.348 510.252 53.6061 509.798C46.4057 509.464 41.6391 502.643 36.1237 498.506C30.7341 494.464 20.2395 490.219 16.8011 484.202C15.1074 481.238 14.313 478.18 10.4439 478.18C4.73022 478.18 15.8705 491.128 17.1357 493.152C23.0319 502.586 28.7352 511.5 34.5344 520.924C41.0385 531.493 48.1362 542.222 52.2677 554.299C54.196 559.935 57.8455 566.081 60.4652 571.53C61.7906 574.287 64.9764 582.729 68.4117 583.492C72.992 584.51 77.0314 587.475 81.2098 589.933C83.485 591.271 91.8312 602.671 93.2551 600.891C99.9551 592.516 111.815 591.346 121.193 586.922L121.44 586.805C128.165 583.633 136.694 579.61 143.778 577.72C160.256 573.326 178.205 574.542 195.305 574.542H249.844C266.176 574.542 281.688 571.227 297.857 575.211C340.54 585.727 384.455 585.207 428.18 583.492C452.529 582.537 476.617 578.76 500.368 573.789C510.826 571.6 529.896 562.217 529.896 549.615C529.896 541.945 528.792 534.66 528.39 527.03C528.182 523.061 524.264 521.885 523.873 518.498C523.471 515.008 522.439 511.084 521.615 507.624C518.626 495.07 517.851 482.071 517.851 469.146C517.851 464.03 519.428 455.905 517.098 451.245C516.266 449.581 514.426 457.674 513.919 459.024C511.556 465.325 510.25 472.951 505.806 478.18C501.776 482.921 499.103 489.943 496.019 495.495C494.507 498.215 487.035 506.685 486.232 498.924C485.426 491.135 481.698 483.73 480.293 476.005C478 463.392 480.031 449.238 478.369 436.356C477.886 432.615 476.143 429.088 475.692 425.482C475.338 422.65 467.929 431.647 467.328 433.177C464.491 440.397 459.03 446.493 456.453 453.754C454.869 458.218 454.244 463.714 453.024 468.393C447.306 490.309 414.412 486.507 404.926 503.107C401.682 508.784 379.33 520.031 379.33 509.798V469.898C379.33 450.786 382.159 428.923 378.159 410.425C376.636 403.381 375.335 386.901 378.577 381.065C381.696 375.45 388.859 364.246 395.558 363.75C403.002 363.198 410.148 362.244 417.725 362.244C424.526 362.244 433.604 354.502 439.557 351.37C442.022 350.072 449.394 340.987 450.013 338.823C451.881 332.284 458.77 327.664 461.807 321.591C463.829 317.547 467.172 313.549 470.506 310.215C478.116 302.605 483.507 291.179 489.996 282.528C493.8 277.456 496.661 271.215 500.117 265.547C503.969 259.231 510.057 255.888 514.839 250.574C521.449 243.23 526.55 234.444 533.242 227.236C537.745 222.387 540.305 214.48 543.447 208.667C546.549 202.929 546.005 198.067 547.964 191.603C550.381 183.627 552.481 176.647 552.481 168.349C552.481 160.368 556.998 153.297 556.998 145.429V128.867C556.998 125.158 557.914 121.937 556.245 127.277C554.854 131.728 553.196 133.158 550.139 136.395C547.902 138.763 549.47 137.049 549.47 133.049V91.2253C549.47 78.5805 546.458 97.7739 546.458 101.598C546.458 108.055 541.595 112.373 540.603 118.327C540.042 121.693 539.027 126.169 536.755 128.867C532.4 134.038 534.988 141.676 530.649 146.015C527.44 149.223 528.37 137.381 528.307 136.311C527.986 130.852 525.579 125.375 525.379 120.167C524.785 104.716 519.005 88.03 507.98 77.0052C504.54 73.5652 504.3 73.0477 504.3 77.9254C504.3 88.5751 505.742 99.0079 505.806 109.628C505.945 133.071 506.694 157.527 503.547 180.812C501.26 197.736 495.344 213.876 488.909 229.579C487.276 233.563 486.357 237.471 484.726 241.457C482.613 246.621 478.339 249.807 475.776 254.506C473.46 258.752 470.186 264.529 466.993 267.722C466.559 268.156 466.658 260.159 466.658 258.353C466.658 252.9 467.365 247.994 468.08 242.628C469.817 229.604 469.5 215.368 472.681 202.644M288.679 618.259C288.679 630.263 293.319 641.495 293.319 653.709C293.319 661.888 290.084 685.631 300.281 689.03M306.081 650.744C306.314 652.841 309.02 654.641 310.077 656.545C312.341 660.619 315.69 664.02 317.941 668.147C320.174 672.241 323.249 675.916 325.804 679.749M253.873 599.696C253.873 609.111 254.378 618.661 253.809 628.056C253.355 635.541 253.19 645.893 250.908 653.065C247.753 662.98 248.072 674.638 248.072 685.034V722.418C248.072 723.864 247.677 731.984 249.233 727.316M168.019 697.151C168.019 702.252 161.795 706.35 157.835 708.753C153.117 711.618 148.687 714.546 144.558 717.519C142.017 719.348 139.023 720.476 136.694 722.676C133.386 725.8 130.58 732.099 126.768 734.277C120.587 737.809 111.042 744.284 107.432 750.52C107.307 750.735 107.174 750.954 107.032 751.176M107.032 751.176C103.75 756.311 95.9449 763.217 90.8671 765.473C88.2087 766.655 73.3598 768.798 72.9487 764.893C71.5986 752.067 91.0706 744.933 96.3458 735.438C98.1733 732.148 101.24 729.572 103.049 726.156C104.081 724.207 105.035 722.313 106.014 720.355C106.95 718.482 109.371 713.443 109.946 715.457C112.426 724.137 107.184 734.236 106.594 742.785C106.483 744.396 107.054 748.174 107.032 751.176ZM107.032 751.176C107.02 752.802 106.834 754.2 106.272 754.903C101.79 760.506 108.342 772.543 110.268 778.107C112.503 784.562 116.998 792.943 123.352 795.767C132.203 799.701 145.658 796.927 155.257 796.927C160.803 796.927 167.687 791.684 172.402 789.064C178.939 785.432 183.688 782.578 189.547 777.784C198.787 770.225 201.546 756.807 206.305 746.395C210.321 737.61 213.266 728.424 213.266 718.615V707.078C213.266 697.409 217.736 712.582 217.907 715.714C218.146 720.085 220.675 723.556 221.323 727.767C221.655 729.924 221.153 732.121 221.646 734.277C222.842 739.513 225.286 747.135 229.638 750.52C233.81 753.765 238.998 755.938 244.011 757.481C249.81 759.265 255.891 758.266 261.35 761.542C266.149 764.421 275.033 765.201 280.622 765.667C285.493 766.073 289.488 767.923 294.479 767.923C318.352 767.923 314.528 734.999 310.98 720.097C310.044 716.167 309.123 712.412 308.144 708.496C307.642 706.49 317.563 713.223 318.843 713.974C325.406 717.826 331.759 722.022 338.308 725.898C348.351 731.842 358.513 738.966 368.86 744.139C378.875 749.146 390.101 753.601 399.798 759.286C410.748 765.705 426.723 764.442 438.987 764.442C446.565 764.442 455.745 763.696 455.745 754.581C455.745 743.509 451.44 743.777 443.241 738.918C436.938 735.183 423.359 737.758 415.847 737.758C412.225 737.758 409.941 734.277 414.623 734.277C420.626 734.277 426.418 735.438 432.283 735.438C436.13 735.438 438.342 736.296 438.342 731.699C438.342 723.881 435.68 717.62 431.961 711.009C427.31 702.741 426.729 691.175 417.459 685.807C414.012 683.812 413.074 680.229 409.08 678.846C405.12 677.476 402.356 675.742 397.8 675.172C387.473 673.882 389.614 680.788 389.614 689.03" stroke="black" stroke-width="7" stroke-linecap="round"/>
</svg>
