<svg width="168" height="160" viewBox="0 0 168 160" fill="none" xmlns="http://www.w3.org/2000/svg">
<g id="Property 1=CLICKME">
<g id="back">
<path d="M4 0L28 18H4V0Z" fill="#693B6A"/>
<path d="M146 160V136L164 160H146Z" fill="#693B6A"/>
</g>
<g id="Wrapper" filter="url(#filter0_d_632_798)">
<path d="M164 73.1424L90 3.75918e-06L4 0C45.6573 43.5697 119.5 117.07 164 160V73.1424Z" fill="#B452B6"/>
</g>
<path id="status" d="M71.2529 41.4606C71.4333 41.6411 71.6138 41.7313 71.7943 41.7313C71.9747 41.7571 72.1358 41.6991 72.2776 41.5573C72.4323 41.4026 72.5161 41.2415 72.529 41.074C72.5419 40.9064 72.5032 40.7388 72.413 40.5712C72.3356 40.4166 72.2261 40.2554 72.0843 40.0879C71.9425 39.9461 71.8007 39.8043 71.6589 39.6625C71.0144 39.018 70.299 38.4831 69.5127 38.0577C68.7264 37.6581 67.9208 37.4068 67.0959 37.3036C66.2838 37.2134 65.4717 37.3036 64.6597 37.5743C63.8476 37.845 63.0806 38.3413 62.3588 39.0631C61.4307 39.9912 60.8313 40.9773 60.5606 42.0214C60.29 43.0912 60.2255 44.1353 60.3673 45.1536C60.522 46.1848 60.8249 47.1451 61.276 48.0345C61.7272 48.9497 62.217 49.7231 62.7455 50.3547C62.9775 50.5867 63.1966 50.6899 63.4029 50.6641C63.6091 50.6383 63.7767 50.561 63.9056 50.4321C64.2278 50.1098 64.2665 49.7876 64.0216 49.4653C63.5705 48.8595 63.158 48.1634 62.7842 47.3771C62.4104 46.6166 62.1655 45.8175 62.0494 44.9796C61.9334 44.1418 61.9785 43.3104 62.1848 42.4854C62.3781 41.6733 62.8228 40.9193 63.5189 40.2232C64.0861 39.6561 64.6983 39.2887 65.3557 39.1211C66.0131 38.9536 66.6705 38.9278 67.3279 39.0438C67.9724 39.1727 68.5975 39.4111 69.2034 39.7592C69.8221 40.1201 70.3699 40.539 70.8468 41.0159C70.9113 41.0804 70.9822 41.1513 71.0595 41.2286C71.1369 41.306 71.2013 41.3833 71.2529 41.4606ZM65.1631 52.1537C65.0214 52.4243 65.0922 52.7015 65.3758 52.9851C65.5305 53.1397 65.7239 53.2429 65.9559 53.2944C66.1879 53.3718 66.3748 53.3395 66.5166 53.1977L66.5939 53.1204C66.8131 52.7466 67.0773 52.3406 67.3867 51.9023C67.6831 51.4769 68.0118 51.0322 68.3727 50.5682C68.7466 50.117 69.1397 49.6594 69.5522 49.1954C69.9518 48.7443 70.3578 48.3124 70.7703 47.9C71.2343 47.4359 71.6855 46.9977 72.1237 46.5852C72.562 46.1727 72.9874 45.8505 73.3998 45.6184C73.8123 45.3864 74.199 45.2575 74.5599 45.2317C74.9208 45.2317 75.2689 45.3993 75.604 45.7344C76.313 46.4434 76.9252 47.2103 77.4408 48.0353C77.9435 48.8732 78.4269 49.7432 78.891 50.6455C78.9167 50.6971 78.9683 50.7615 79.0456 50.8389C79.2003 50.9936 79.3872 51.0516 79.6064 51.0129C79.8126 50.9871 79.9866 50.9033 80.1284 50.7615C80.4249 50.4651 80.4764 50.1428 80.2831 49.7948C79.7933 48.8667 79.2519 47.9257 78.6589 46.9719C78.0531 46.0309 77.4215 45.2317 76.7641 44.5744C76.3516 44.1619 75.9585 43.8718 75.5847 43.7043C75.2109 43.5367 74.8564 43.4529 74.5213 43.4529C74.1861 43.4529 73.8768 43.5045 73.5932 43.6076C73.3225 43.7236 73.0776 43.8525 72.8585 43.9943C72.3815 44.265 71.8788 44.613 71.3503 45.0384C70.8347 45.4766 70.3127 45.96 69.7842 46.4885C69.3073 46.9654 68.8368 47.4617 68.3727 47.9773C67.9087 48.4929 67.4769 49.0021 67.0773 49.5048C66.6648 50.0204 66.291 50.4973 65.9559 50.9356C65.6336 51.3867 65.3694 51.7927 65.1631 52.1537ZM82.7974 52.6185C82.256 53.3661 81.6244 54.1524 80.9026 54.9773C80.1936 55.8152 79.4524 56.6208 78.679 57.3942C78.0603 58.0129 77.4545 58.5672 76.8616 59.057C76.2686 59.5468 75.7401 59.8948 75.2761 60.1011C75.0956 60.2042 74.9087 60.172 74.7154 60.0044C74.522 59.8368 74.3222 59.6499 74.116 59.4437C73.9226 59.2504 73.71 59.1021 73.4779 58.999C73.233 58.9088 72.9817 58.9926 72.7239 59.2504C72.595 59.3793 72.5305 59.5468 72.5305 59.7531C72.5434 59.9722 72.6465 60.1784 72.8399 60.3718C73.1235 60.6038 73.3813 60.8229 73.6133 61.0292C73.8582 61.2483 74.0838 61.461 74.29 61.6672C74.5865 61.9637 74.8829 62.3246 75.1794 62.75C75.4888 63.1882 75.869 63.6329 76.3202 64.0841C76.4749 64.2388 76.6553 64.3161 76.8616 64.3161C77.0549 64.329 77.216 64.271 77.3449 64.1421C77.5125 63.9745 77.577 63.7683 77.5383 63.5234C77.5125 63.2914 77.4287 63.0529 77.2869 62.808C77.1451 62.5631 76.9711 62.3246 76.7649 62.0926C76.5586 61.8606 76.3717 61.6608 76.2042 61.4932C76.7971 61.1581 77.4609 60.6618 78.1957 60.0044C78.9433 59.3599 79.6845 58.6703 80.4192 57.9356C81.1539 57.2008 81.8371 56.4532 82.4687 55.6927C83.1003 54.958 83.6095 54.3457 83.9962 53.8559C84.1895 54.0492 84.37 54.2555 84.5375 54.4746C84.7051 54.7195 84.9178 54.9709 85.1756 55.2287C85.3303 55.3834 85.5107 55.4607 85.717 55.4607C85.9103 55.4736 86.0586 55.4285 86.1617 55.3254C86.355 55.132 86.4066 54.8871 86.3164 54.5906C86.2261 54.2942 86.0714 53.9848 85.8523 53.6625C85.6332 53.3403 85.3754 53.0309 85.0789 52.7345C84.7953 52.4251 84.5504 52.1673 84.3442 51.9611C84.1251 51.7419 83.8866 51.5035 83.6288 51.2457C83.3839 51.0008 83.1325 50.7881 82.8747 50.6076C82.6169 50.4272 82.372 50.3112 82.14 50.2596C81.908 50.208 81.7017 50.2725 81.5213 50.4529C81.3924 50.5818 81.3344 50.743 81.3473 50.9363C81.3602 51.1555 81.4633 51.3617 81.6566 51.555C81.7597 51.6324 81.8629 51.7097 81.966 51.7871C82.0691 51.8902 82.1722 51.9933 82.2753 52.0964L82.7974 52.6185ZM91.8083 62.016C91.9887 62.1965 92.1692 62.2867 92.3496 62.2867C92.5301 62.3125 92.6912 62.2545 92.833 62.1127C92.9877 61.958 93.0715 61.7969 93.0844 61.6293C93.0972 61.4618 93.0586 61.2942 92.9683 61.1266C92.891 60.9719 92.7814 60.8108 92.6397 60.6432C92.4979 60.5015 92.3561 60.3597 92.2143 60.2179C91.5698 59.5734 90.8544 59.0384 90.0681 58.6131C89.2818 58.2135 88.4762 57.9621 87.6512 57.859C86.8392 57.7688 86.0271 57.859 85.215 58.1297C84.403 58.4004 83.636 58.8967 82.9142 59.6185C81.9861 60.5466 81.3867 61.5326 81.116 62.5767C80.8453 63.6466 80.7809 64.6907 80.9227 65.709C81.0774 66.7402 81.3803 67.7005 81.8314 68.5899C82.2826 69.5051 82.7724 70.2785 83.3009 70.9101C83.5329 71.1421 83.752 71.2452 83.9583 71.2195C84.1645 71.1937 84.3321 71.1163 84.461 70.9874C84.7832 70.6652 84.8219 70.3429 84.577 70.0207C84.1258 69.4149 83.7134 68.7188 83.3395 67.9325C82.9657 67.172 82.7208 66.3728 82.6048 65.535C82.4888 64.6971 82.5339 63.8657 82.7402 63.0408C82.9335 62.2287 83.3782 61.4746 84.0743 60.7786C84.6414 60.2114 85.2537 59.8441 85.9111 59.6765C86.5685 59.5089 87.2259 59.4831 87.8833 59.5992C88.5278 59.7281 89.1529 59.9665 89.7587 60.3145C90.3775 60.6755 90.9253 61.0944 91.4022 61.5713C91.4667 61.6358 91.5376 61.7067 91.6149 61.784C91.6922 61.8613 91.7567 61.9387 91.8083 62.016ZM93.5685 66.6378C93.5427 66.4832 93.5105 66.3865 93.4718 66.3478C93.8714 65.974 94.2517 65.6324 94.6126 65.3231C94.9864 65.0266 95.3151 64.7366 95.5987 64.453C95.8565 64.1952 95.9854 63.9503 95.9854 63.7183C95.9983 63.4991 95.9338 63.3187 95.792 63.1769C95.676 63.0609 95.5149 63.0029 95.3087 63.0029C95.1153 63.0158 94.8962 63.1189 94.6513 63.3122C93.8263 63.9567 92.9369 64.7172 91.983 65.5938C91.0421 66.4832 90.1075 67.3919 89.1795 68.32C88.4963 69.0032 87.8583 69.667 87.2653 70.3115C86.6595 70.9689 86.1181 71.5876 85.6412 72.1676C85.306 72.5801 85.2867 72.9346 85.5832 73.2311C85.7379 73.3857 85.9441 73.4631 86.2019 73.4631C86.4597 73.4631 86.6982 73.3535 86.9173 73.1344L87.0333 73.0184C87.4587 72.4641 88.0129 71.8196 88.6961 71.0849C89.3793 70.3759 90.1075 69.6348 90.8809 68.8614L92.041 67.7013C92.0153 68.3458 91.9315 69.0998 91.7897 69.9635C91.6479 70.8271 91.4803 71.6907 91.287 72.5543C91.0936 73.418 90.8874 74.23 90.6683 74.9905C90.4491 75.7511 90.2429 76.3569 90.0495 76.808C89.9722 77.0143 89.9464 77.1947 89.9722 77.3494C90.0109 77.517 90.0818 77.6523 90.1849 77.7554C90.3009 77.8715 90.4491 77.9295 90.6296 77.9295C90.8229 77.9424 91.0098 77.8586 91.1903 77.6781C91.2805 77.5879 91.4094 77.3172 91.577 76.866C91.7446 76.4407 91.925 75.8993 92.1184 75.2419C92.3117 74.5845 92.5115 73.8562 92.7178 73.0571C92.9111 72.2708 93.0787 71.4845 93.2205 70.6982C93.3623 69.9119 93.4718 69.1578 93.5492 68.436C93.6136 67.7271 93.6201 67.1277 93.5685 66.6378ZM100.49 68.9967C99.7041 68.8549 98.8856 68.7582 98.0349 68.7067C97.197 68.668 96.3141 68.6874 95.386 68.7647C95.0637 68.7776 94.8188 68.8678 94.6513 69.0354C94.5095 69.1772 94.445 69.3447 94.4579 69.5381C94.4708 69.7572 94.5481 69.9377 94.6899 70.0795C94.7931 70.1826 94.98 70.2406 95.2506 70.2535C95.5084 70.2793 95.792 70.2793 96.1014 70.2535C96.4107 70.2535 96.7265 70.2342 97.0488 70.1955C97.3582 70.1697 97.6095 70.1633 97.8029 70.1761C97.9704 70.189 98.2089 70.2213 98.5183 70.2728C98.8276 70.3244 99.1499 70.3631 99.485 70.3888C99.8201 70.4404 100.129 70.4662 100.413 70.4662C100.697 70.4662 100.89 70.4146 100.993 70.3115C101.135 70.1697 101.212 69.9892 101.225 69.7701C101.225 69.5639 101.154 69.3899 101.012 69.2481C100.884 69.1192 100.71 69.0354 100.49 68.9967ZM106.563 83.4995C106.602 83.0999 106.505 82.7841 106.273 82.5521C106.041 82.32 105.648 82.2491 105.094 82.3394C104.539 82.4296 103.953 82.5649 103.334 82.7454L101.188 83.3835C101.072 83.4221 100.975 83.4801 100.898 83.5575C100.73 83.725 100.64 83.9313 100.627 84.1762C100.627 84.434 100.698 84.6338 100.84 84.7756C100.969 84.9045 101.233 84.9238 101.633 84.8336C102.019 84.7562 102.432 84.6402 102.87 84.4856C103.308 84.3567 103.721 84.2406 104.108 84.1375C104.481 84.0473 104.726 84.0602 104.842 84.1762C104.92 84.2535 104.939 84.376 104.9 84.5436C104.668 85.8583 104.488 86.9024 104.359 87.6758C104.23 88.475 104.133 89.0873 104.069 89.5126C104.004 89.9638 103.959 90.2667 103.934 90.4214C103.908 90.6018 103.895 90.7307 103.895 90.8081C103.779 91.0014 103.734 91.1883 103.76 91.3688C103.785 91.575 103.856 91.7362 103.972 91.8522C104.088 91.9682 104.249 92.0391 104.456 92.0649C104.662 92.0906 104.875 92.0197 105.094 91.8522C105.906 91.2721 106.744 90.589 107.607 89.8027C108.471 89.0422 109.328 88.2365 110.179 87.3858C110.643 86.9218 111.158 86.3675 111.726 85.723C112.293 85.1043 112.808 84.4856 113.272 83.8668C113.724 83.261 114.065 82.7003 114.297 82.1847C114.529 81.6691 114.542 81.3082 114.336 81.1019C114.194 80.9601 114.014 80.8828 113.794 80.8699C113.588 80.8699 113.375 80.9795 113.156 81.1986C113.053 81.3017 112.982 81.3855 112.944 81.45C112.377 82.3523 111.732 83.2288 111.01 84.0795C110.288 84.956 109.56 85.7617 108.825 86.4964C108.258 87.0635 107.704 87.592 107.163 88.0819C106.621 88.5717 106.112 89.0293 105.635 89.4546L106.215 86.129C106.292 85.5619 106.363 85.0398 106.428 84.5629C106.505 84.0989 106.55 83.7444 106.563 83.4995ZM99.2545 84.6982C99.6928 84.1311 100.247 83.4866 100.917 82.7647C101.588 82.0429 102.309 81.2953 103.083 80.5219C103.856 79.7485 104.643 79.0009 105.442 78.279C106.241 77.583 106.931 76.9449 107.511 76.3649C107.768 76.1071 107.897 75.8622 107.897 75.6301C107.91 75.411 107.846 75.2306 107.704 75.0888C107.588 74.9728 107.427 74.9148 107.221 74.9148C107.027 74.9276 106.808 75.0308 106.563 75.2241C105.738 75.8686 104.868 76.6098 103.953 77.4476C103.051 78.2984 102.174 79.1491 101.323 79.9998C100.679 80.6443 100.067 81.2695 99.4865 81.8753C98.9194 82.4941 98.4038 83.0999 97.9397 83.6928C97.7206 83.9377 97.6304 84.1697 97.6691 84.3889C97.7206 84.6209 97.8173 84.8078 97.9591 84.9496C98.1009 85.0914 98.2878 85.1494 98.5198 85.1236C98.7389 85.1107 98.9452 85.0076 99.1385 84.8142L99.2545 84.6982ZM107.666 92.955C107.421 92.7875 107.196 92.7037 106.989 92.7037C106.77 92.7166 106.603 92.781 106.487 92.897C106.345 93.0388 106.274 93.2257 106.274 93.4577C106.274 93.6898 106.39 93.9218 106.622 94.1538C106.918 94.3987 107.215 94.6565 107.511 94.9272C107.808 95.1979 108.098 95.475 108.381 95.7586C108.871 96.2484 109.329 96.7318 109.754 97.2087C110.192 97.6985 110.579 98.1626 110.914 98.6008C111.133 98.82 111.359 98.9295 111.591 98.9295C111.823 98.9553 112.01 98.8973 112.152 98.7555C112.513 98.3946 112.429 97.8726 111.9 97.1894C111.385 96.5191 110.476 95.533 109.174 94.2311C109.651 93.548 110.186 92.8584 110.779 92.1623C111.359 91.4791 112.01 90.7766 112.732 90.0548C113.196 89.5908 113.647 89.1525 114.085 88.74C114.523 88.3275 114.962 87.928 115.4 87.5413C115.684 87.3092 115.935 87.1481 116.154 87.0579C116.373 86.9934 116.586 86.987 116.792 87.0385C116.998 87.1159 117.211 87.2512 117.43 87.4446C117.662 87.6508 117.939 87.9151 118.262 88.2373C118.674 88.6498 119.054 89.0816 119.402 89.5328C119.75 90.0097 120.04 90.5059 120.272 91.0215C120.35 91.1762 120.44 91.3051 120.543 91.4082C120.711 91.5758 120.872 91.6467 121.026 91.6209C121.194 91.608 121.336 91.5436 121.452 91.4276C121.697 91.1827 121.781 90.8669 121.703 90.4802C121.626 90.0935 121.471 89.6939 121.239 89.2814C121.02 88.8818 120.749 88.4951 120.427 88.1213C120.118 87.7346 119.847 87.4252 119.615 87.1932C119.37 86.9483 119.087 86.6776 118.764 86.3812C118.468 86.0847 118.133 85.8269 117.759 85.6078C117.385 85.4144 116.985 85.2984 116.56 85.2597C116.135 85.2211 115.696 85.3371 115.245 85.6078C114.82 85.8527 114.343 86.2007 113.815 86.6518C113.273 87.1159 112.719 87.6315 112.152 88.1986C111.688 88.6627 111.237 89.1267 110.798 89.5908C110.36 90.0806 109.948 90.5446 109.561 90.9829C109.174 91.4211 108.839 91.8207 108.555 92.1816C108.259 92.5554 108.027 92.8519 107.859 93.071C107.795 93.0066 107.75 92.9744 107.724 92.9744C107.711 92.9873 107.692 92.9808 107.666 92.955ZM114.588 90.7509C114.369 90.5575 114.163 90.4802 113.969 90.5188C113.789 90.5704 113.628 90.6671 113.486 90.8089C113.357 90.9378 113.292 91.1053 113.292 91.3116C113.305 91.5307 113.402 91.7305 113.583 91.911C113.802 92.1301 114.027 92.3428 114.259 92.549C114.504 92.7681 114.736 92.9873 114.955 93.2064C115.664 93.9153 116.328 94.6565 116.947 95.4299C117.166 95.6233 117.379 95.7199 117.585 95.7199C117.804 95.7328 117.978 95.6877 118.107 95.5846C118.3 95.3912 118.352 95.1463 118.262 94.8499C118.158 94.5663 117.997 94.2634 117.778 93.9411C117.559 93.6189 117.308 93.3031 117.024 92.9937C116.728 92.6972 116.47 92.4394 116.251 92.2203C115.98 91.9496 115.709 91.6918 115.439 91.4469C115.155 91.2149 114.871 90.9829 114.588 90.7509ZM105.873 25.1914C105.68 25.3332 105.248 25.6104 104.578 26.0228C103.908 26.4611 103.128 26.9316 102.238 27.4343C102.084 27.2281 101.916 27.0347 101.736 26.8543C101.555 26.6738 101.368 26.4869 101.175 26.2935C100.917 26.0357 100.646 25.7651 100.363 25.4815C100.066 25.2108 99.7828 24.9788 99.5121 24.7854C99.2285 24.605 98.9642 24.4825 98.7193 24.418C98.4615 24.3665 98.2424 24.4309 98.0619 24.6114C97.9202 24.7532 97.8622 24.9272 97.8879 25.1334C97.9266 25.3526 98.0619 25.5781 98.294 25.8102C98.8869 26.2484 99.4412 26.7254 99.9568 27.241C100.111 27.3956 100.266 27.5503 100.421 27.705C100.575 27.8597 100.717 28.0272 100.846 28.2077C100.163 28.5815 99.4863 28.936 98.816 29.2711C98.1328 29.6192 97.5077 29.9092 96.9405 30.1412C96.3863 30.3861 95.9158 30.5601 95.5291 30.6632C95.1424 30.7664 94.891 30.7599 94.775 30.6439C94.5559 30.4248 94.5237 29.993 94.6783 29.3485C94.833 28.704 95.0908 27.9563 95.4517 27.1056C95.8126 26.2549 96.2445 25.359 96.7472 24.418C97.237 23.49 97.7075 22.6199 98.1586 21.8078C98.6227 21.0087 99.0287 20.3319 99.3767 19.7777C99.7119 19.2363 99.9181 18.9269 99.9954 18.8496C100.099 18.6949 100.131 18.5338 100.092 18.3662C100.066 18.2115 100.002 18.0826 99.8988 17.9795C99.7441 17.8248 99.5507 17.7346 99.3187 17.7088C99.0867 17.683 98.8805 17.7604 98.7 17.9408C97.2821 20.0806 96.1091 22.0785 95.181 23.9347C94.7814 24.721 94.4141 25.5137 94.0789 26.3129C93.7309 27.1249 93.4731 27.8855 93.3055 28.5944C93.1251 29.3162 93.0477 29.9607 93.0735 30.5279C93.1122 31.1079 93.2927 31.5591 93.6149 31.8813C93.95 32.2165 94.4721 32.326 95.181 32.21C95.9029 32.1069 96.7214 31.8685 97.6366 31.4946C98.5389 31.1337 99.4798 30.6826 100.459 30.1412C101.426 29.6127 102.335 29.0907 103.186 28.5751C104.024 28.0724 104.752 27.6148 105.371 27.2023C105.976 26.8027 106.363 26.5578 106.531 26.4676L106.647 26.3515C106.853 26.1453 106.956 25.9133 106.956 25.6555C106.956 25.4235 106.885 25.2366 106.743 25.0948C106.64 24.9917 106.518 24.9336 106.376 24.9208C106.234 24.9336 106.067 25.0239 105.873 25.1914ZM111.346 31.9014C111.501 32.0561 111.642 32.1206 111.771 32.0948C111.887 32.0819 112.003 32.0175 112.119 31.9014C112.274 31.721 112.351 31.5405 112.351 31.3601C112.338 31.1925 112.287 31.0249 112.197 30.8574C112.119 30.7027 112.016 30.5609 111.887 30.432C111.758 30.3031 111.642 30.1871 111.539 30.084C110.972 29.5168 110.34 29.1172 109.644 28.8852C108.948 28.6532 108.22 28.5694 107.46 28.6338C106.712 28.7112 105.964 28.9303 105.217 29.2912C104.469 29.6779 103.773 30.1935 103.128 30.838C102.394 31.5728 101.885 32.4299 101.601 33.4096C101.317 34.3892 101.208 35.3753 101.272 36.3678C101.337 37.3604 101.549 38.2949 101.91 39.1714C102.271 40.0479 102.722 40.7569 103.264 41.2982C103.444 41.4787 103.625 41.556 103.805 41.5303C103.973 41.5174 104.115 41.4529 104.231 41.3369C104.372 41.1951 104.475 41.0275 104.54 40.8342C104.591 40.6537 104.579 40.5248 104.501 40.4475C104.05 39.8417 103.689 39.1585 103.419 38.398C103.148 37.6375 102.993 36.8641 102.954 36.0778C102.929 35.3044 103.032 34.5568 103.264 33.8349C103.483 33.126 103.857 32.5073 104.385 31.9788C105.597 30.8445 106.789 30.258 107.962 30.2193C109.122 30.1935 110.115 30.5931 110.94 31.4181C111.004 31.4825 111.075 31.5534 111.152 31.6308C111.217 31.721 111.281 31.8112 111.346 31.9014ZM113.434 32.2108C113.125 32.4686 112.802 32.7522 112.467 33.0615C112.119 33.3838 111.752 33.7383 111.365 34.125C110.978 34.5117 110.624 34.8919 110.302 35.2657C109.979 35.6395 109.696 36.0005 109.451 36.3485L109.412 36.3872C109.026 35.9231 108.639 35.4977 108.252 35.1111C107.131 33.9896 106.338 33.6609 105.874 34.125C105.758 34.241 105.719 34.4085 105.758 34.6277C105.797 34.8468 105.932 35.0724 106.164 35.3044C106.551 35.6138 106.937 35.9618 107.324 36.3485C107.827 36.8512 108.317 37.3797 108.794 37.934C109.258 38.5011 109.689 38.9845 110.089 39.3841C110.308 39.6032 110.521 39.7257 110.727 39.7514C110.946 39.7901 111.127 39.7385 111.268 39.5968C111.475 39.3905 111.501 39.1069 111.346 38.746C111.178 38.398 110.895 38.0242 110.495 37.6246C110.843 37.1477 111.21 36.6772 111.597 36.2131C111.984 35.7749 112.396 35.3366 112.835 34.8984C113.118 34.6148 113.415 34.3441 113.724 34.0863C114.021 33.8414 114.311 33.5771 114.594 33.2936C114.787 33.1002 114.871 32.9004 114.845 32.6942C114.845 32.4879 114.787 32.3268 114.671 32.2108C114.53 32.069 114.343 31.9852 114.111 31.9595C113.879 31.9337 113.653 32.0175 113.434 32.2108ZM123.315 42.6331C123.122 42.7749 122.69 43.052 122.019 43.4645C121.349 43.9028 120.569 44.3733 119.68 44.876C119.525 44.6697 119.358 44.4764 119.177 44.2959C118.997 44.1155 118.81 43.9286 118.617 43.7352C118.359 43.4774 118.088 43.2067 117.804 42.9231C117.508 42.6525 117.224 42.4204 116.954 42.2271C116.67 42.0466 116.406 41.9242 116.161 41.8597C115.903 41.8082 115.684 41.8726 115.504 42.0531C115.362 42.1949 115.304 42.3689 115.33 42.5751C115.368 42.7942 115.504 43.0198 115.736 43.2518C116.329 43.6901 116.883 44.167 117.398 44.6826C117.553 44.8373 117.708 44.992 117.862 45.1467C118.017 45.3013 118.159 45.4689 118.288 45.6494C117.605 46.0232 116.928 46.3777 116.258 46.7128C115.575 47.0608 114.949 47.3508 114.382 47.5829C113.828 47.8278 113.357 48.0018 112.971 48.1049C112.584 48.208 112.333 48.2016 112.217 48.0856C111.998 47.8664 111.965 47.4346 112.12 46.7901C112.275 46.1456 112.532 45.398 112.893 44.5473C113.254 43.6965 113.686 42.8007 114.189 41.8597C114.679 40.9316 115.149 40.0616 115.6 39.2495C116.064 38.4503 116.47 37.7736 116.818 37.2193C117.154 36.678 117.36 36.3686 117.437 36.2913C117.54 36.1366 117.572 35.9754 117.534 35.8079C117.508 35.6532 117.444 35.5243 117.34 35.4212C117.186 35.2665 116.992 35.1763 116.76 35.1505C116.528 35.1247 116.322 35.2021 116.142 35.3825C114.724 37.5222 113.551 39.5202 112.623 41.3763C112.223 42.1626 111.856 42.9554 111.521 43.7545C111.173 44.5666 110.915 45.3271 110.747 46.0361C110.567 46.7579 110.489 47.4024 110.515 47.9696C110.554 48.5496 110.734 49.0008 111.057 49.323C111.392 49.6582 111.914 49.7677 112.623 49.6517C113.345 49.5486 114.163 49.3101 115.078 48.9363C115.981 48.5754 116.922 48.1242 117.901 47.5829C118.868 47.0544 119.777 46.5323 120.627 46.0167C121.465 45.514 122.194 45.0564 122.812 44.644C123.418 44.2444 123.805 43.9995 123.972 43.9092L124.088 43.7932C124.295 43.587 124.398 43.355 124.398 43.0972C124.398 42.8651 124.327 42.6782 124.185 42.5364C124.082 42.4333 123.959 42.3753 123.818 42.3624C123.676 42.3753 123.508 42.4655 123.315 42.6331ZM125.984 46.3075C125.443 47.0552 124.811 47.8414 124.089 48.6664C123.38 49.5042 122.639 50.3099 121.866 51.0833C121.247 51.702 120.641 52.2563 120.048 52.7461C119.455 53.2359 118.927 53.5839 118.463 53.7902C118.282 53.8933 118.095 53.8611 117.902 53.6935C117.709 53.5259 117.509 53.339 117.303 53.1328C117.109 52.9394 116.897 52.7912 116.664 52.6881C116.42 52.5978 116.168 52.6816 115.91 52.9394C115.782 53.0683 115.717 53.2359 115.717 53.4421C115.73 53.6613 115.833 53.8675 116.026 54.0609C116.31 54.2929 116.568 54.512 116.8 54.7182C117.045 54.9374 117.27 55.1501 117.477 55.3563C117.773 55.6528 118.07 56.0137 118.366 56.4391C118.675 56.8773 119.056 57.322 119.507 57.7732C119.661 57.9278 119.842 58.0052 120.048 58.0052C120.241 58.0181 120.403 57.9601 120.531 57.8312C120.699 57.6636 120.764 57.4574 120.725 57.2124C120.699 56.9804 120.615 56.742 120.473 56.4971C120.332 56.2521 120.158 56.0137 119.951 55.7817C119.745 55.5496 119.558 55.3498 119.391 55.1823C119.984 54.8471 120.647 54.3509 121.382 53.6935C122.13 53.049 122.871 52.3594 123.606 51.6246C124.34 50.8899 125.024 50.1423 125.655 49.3818C126.287 48.6471 126.796 48.0348 127.183 47.545C127.376 47.7383 127.557 47.9446 127.724 48.1637C127.892 48.4086 128.104 48.66 128.362 48.9178C128.517 49.0724 128.697 49.1498 128.904 49.1498C129.097 49.1627 129.245 49.1175 129.348 49.0144C129.542 48.8211 129.593 48.5762 129.503 48.2797C129.413 47.9832 129.258 47.6739 129.039 47.3516C128.82 47.0294 128.562 46.72 128.265 46.4235C127.982 46.1142 127.737 45.8564 127.531 45.6501C127.312 45.431 127.073 45.1926 126.815 44.9348C126.57 44.6898 126.319 44.4772 126.061 44.2967C125.803 44.1162 125.559 44.0002 125.327 43.9487C125.095 43.8971 124.888 43.9616 124.708 44.142C124.579 44.2709 124.521 44.432 124.534 44.6254C124.547 44.8445 124.65 45.0508 124.843 45.2441C124.946 45.3215 125.049 45.3988 125.153 45.4761C125.256 45.5793 125.359 45.6824 125.462 45.7855L125.984 46.3075ZM128.034 64.5218C127.983 64.5476 127.918 64.5992 127.841 64.6765C127.66 64.857 127.564 65.0568 127.551 65.2759C127.538 65.495 127.602 65.6755 127.744 65.8173C127.886 65.9591 128.066 66.0493 128.286 66.088C128.505 66.1266 128.743 66.0557 129.001 65.8753C129.633 65.4241 130.258 64.9279 130.876 64.3865C131.495 63.8451 132.114 63.2651 132.733 62.6463C133.738 61.6409 134.698 60.5775 135.614 59.4561C136.516 58.3475 137.289 57.2777 137.934 56.2465C138.076 56.0273 138.134 55.8275 138.108 55.6471C138.095 55.4795 138.03 55.3377 137.914 55.2217C137.773 55.0799 137.553 55.0026 137.257 54.9897C136.973 54.9639 136.464 55.0348 135.73 55.2024C134.995 55.37 133.957 55.6471 132.617 56.0338C131.289 56.4334 129.517 56.9941 127.299 57.7159C126.487 57.9866 125.875 58.1864 125.463 58.3153C125.05 58.4442 124.799 58.5667 124.709 58.6827C124.567 58.8245 124.496 59.0114 124.496 59.2434C124.483 59.4883 124.547 59.6816 124.689 59.8234C124.792 59.9266 124.883 59.991 124.96 60.0168C125.037 60.0683 125.153 60.0683 125.308 60.0168C125.463 59.991 125.688 59.9201 125.985 59.8041C126.268 59.701 126.681 59.5721 127.222 59.4174L133.332 57.5226C133.835 57.3808 134.26 57.2648 134.608 57.1745C134.956 57.0843 135.227 57.0199 135.42 56.9812C134.26 58.6053 133.029 60.0683 131.727 61.3702C131.096 62.0018 130.47 62.5754 129.852 63.091C129.22 63.6195 128.614 64.0965 128.034 64.5218ZM123.084 59.8041C123.523 59.2369 124.103 58.5667 124.825 57.7933C125.534 57.0328 126.281 56.2594 127.067 55.4731C127.892 54.6481 128.724 53.8683 129.562 53.1335C130.4 52.4246 131.108 51.7801 131.689 51.2C131.933 50.9551 132.069 50.7038 132.095 50.446C132.107 50.2011 132.03 49.9948 131.863 49.8273C131.759 49.7241 131.611 49.6661 131.418 49.6533C131.224 49.6661 131.012 49.7628 130.78 49.9433C129.955 50.5878 129.065 51.3483 128.112 52.2248C127.171 53.1142 126.236 54.023 125.308 54.951C124.625 55.6342 123.98 56.2916 123.374 56.9232C122.769 57.5806 122.234 58.2057 121.77 58.7987C121.551 59.0436 121.46 59.2756 121.499 59.4947C121.551 59.7268 121.647 59.9137 121.789 60.0555C121.957 60.1715 122.15 60.223 122.369 60.2101C122.575 60.2101 122.775 60.1135 122.968 59.9201L123.084 59.8041ZM137.644 61.9897C137.09 62.6729 136.465 63.4398 135.769 64.2906C135.073 65.1671 134.338 65.9921 133.565 66.7655C133.062 67.2682 132.553 67.7258 132.037 68.1382C131.509 68.5636 130.98 68.9116 130.452 69.1823C130.181 69.2983 129.975 69.4272 129.833 69.569C129.653 69.7495 129.543 69.9364 129.504 70.1297C129.479 70.336 129.537 70.51 129.678 70.6518C129.949 70.9225 130.317 70.9805 130.781 70.8258C131.245 70.6711 131.747 70.4133 132.289 70.0524C132.83 69.6915 133.378 69.2597 133.932 68.757C134.486 68.2542 134.976 67.7902 135.402 67.3648C136.136 66.6301 136.807 65.8825 137.412 65.122C138.018 64.3615 138.547 63.6654 138.998 63.0338C139.165 62.7889 139.236 62.5504 139.211 62.3184C139.185 62.1122 139.107 61.9446 138.979 61.8157C138.824 61.661 138.637 61.5644 138.418 61.5257C138.212 61.4999 137.999 61.5966 137.78 61.8157C137.715 61.8802 137.67 61.9382 137.644 61.9897ZM139.462 60.0176C139.514 60.1207 139.559 60.1916 139.597 60.2302C139.662 60.2947 139.72 60.3398 139.771 60.3656C139.823 60.3914 139.862 60.4171 139.887 60.4429C139.939 60.4945 139.984 60.5396 140.023 60.5783C140.061 60.6427 140.1 60.6943 140.139 60.733C140.422 61.0165 140.712 61.2034 141.009 61.2937C141.292 61.3968 141.569 61.429 141.84 61.3903C142.098 61.3646 142.349 61.2808 142.594 61.139C142.826 61.0101 143.032 60.8554 143.213 60.6749C143.406 60.4816 143.555 60.256 143.658 59.9982C143.787 59.7404 143.857 59.4762 143.87 59.2055C143.909 58.9348 143.883 58.6641 143.793 58.3934C143.716 58.1098 143.574 57.8649 143.368 57.6587C143.148 57.4396 142.891 57.2591 142.594 57.1173C142.311 56.9884 142.008 56.9175 141.685 56.9046C141.389 56.8917 141.08 56.9433 140.757 57.0593C140.435 57.1753 140.139 57.3687 139.868 57.6394C139.546 57.9616 139.346 58.3419 139.269 58.7801C139.191 59.2442 139.256 59.6566 139.462 60.0176ZM140.931 59.4762L140.738 59.2828C140.738 59.1539 140.77 59.0186 140.835 58.8768C140.912 58.7479 140.996 58.6383 141.086 58.5481C141.267 58.3676 141.46 58.3032 141.666 58.3548C141.885 58.4192 142.066 58.5223 142.208 58.6641C142.375 58.8317 142.452 59.0121 142.44 59.2055C142.452 59.3988 142.388 59.5664 142.246 59.7082C142.079 59.8758 141.898 59.966 141.705 59.9789C141.499 60.0047 141.279 59.9015 141.047 59.6695C140.97 59.5922 140.931 59.5277 140.931 59.4762Z" fill="#434343"/>
</g>
<defs>
<filter id="filter0_d_632_798" x="0" y="0" width="168" height="168" filterUnits="userSpaceOnUse" color-interpolation-filters="sRGB">
<feFlood flood-opacity="0" result="BackgroundImageFix"/>
<feColorMatrix in="SourceAlpha" type="matrix" values="0 0 0 0 0 0 0 0 0 0 0 0 0 0 0 0 0 0 127 0" result="hardAlpha"/>
<feOffset dy="4"/>
<feGaussianBlur stdDeviation="2"/>
<feComposite in2="hardAlpha" operator="out"/>
<feColorMatrix type="matrix" values="0 0 0 0 0 0 0 0 0 0 0 0 0 0 0 0 0 0 0.25 0"/>
<feBlend mode="normal" in2="BackgroundImageFix" result="effect1_dropShadow_632_798"/>
<feBlend mode="normal" in="SourceGraphic" in2="effect1_dropShadow_632_798" result="shape"/>
</filter>
</defs>
</svg>
