<svg width="168" height="167" viewBox="0 0 168 167" fill="none" xmlns="http://www.w3.org/2000/svg">
<g id="Property 1=IN PROGRESS">
<g id="back">
<path d="M4 0L28 18H4V0Z" fill="#3E5774"/>
<path d="M146 160V136L164 160H146Z" fill="#3E5774"/>
</g>
<g id="Wrapper" filter="url(#filter0_d_540_2220)">
<path d="M164 73.1424L90 3.75918e-06L4 0C45.6573 43.5697 119.5 117.07 164 160V73.1424Z" fill="#2D69AF"/>
</g>
<path id="status" d="M57.9451 6.06988C57.2103 7.08451 56.3532 8.15161 55.3735 9.2712C54.4114 10.4083 53.4055 11.5016 52.3559 12.5512C51.5162 13.3909 50.694 14.1431 49.8893 14.8079C49.0846 15.4727 48.3674 15.945 47.7376 16.2249C47.4927 16.3648 47.239 16.3211 46.9766 16.0937C46.7142 15.8663 46.4431 15.6126 46.1632 15.3327C45.9008 15.0703 45.6121 14.8691 45.2972 14.7292C44.9649 14.6067 44.6237 14.7204 44.2739 15.0703C44.0989 15.2452 44.0115 15.4727 44.0115 15.7525C44.029 16.0499 44.1689 16.3298 44.4313 16.5922C44.8162 16.9071 45.166 17.2045 45.4809 17.4844C45.8133 17.7818 46.1194 18.0704 46.3993 18.3503C46.8017 18.7527 47.204 19.2425 47.6064 19.8198C48.0262 20.4146 48.5423 21.0181 49.1546 21.6304C49.3645 21.8403 49.6094 21.9453 49.8893 21.9453C50.1517 21.9628 50.3704 21.884 50.5453 21.7091C50.7727 21.4817 50.8602 21.2018 50.8077 20.8694C50.7727 20.5545 50.659 20.2309 50.4666 19.8985C50.2742 19.5661 50.038 19.2425 49.7581 18.9276C49.4782 18.6127 49.2245 18.3416 48.9971 18.1142C49.8018 17.6593 50.7027 16.9858 51.6999 16.0937C52.7145 15.219 53.7204 14.2831 54.7175 13.286C55.7146 12.2888 56.6418 11.2742 57.499 10.2421C58.3562 9.24496 59.0472 8.41401 59.572 7.74926C59.8344 8.01166 60.0793 8.29156 60.3067 8.58895C60.5341 8.92133 60.8227 9.26245 61.1726 9.61232C61.3825 9.82224 61.6275 9.9272 61.9073 9.9272C62.1697 9.9447 62.3709 9.88347 62.5109 9.74352C62.7733 9.48112 62.8433 9.14874 62.7208 8.74639C62.5983 8.34404 62.3884 7.9242 62.091 7.48686C61.7936 7.04952 61.4438 6.62967 61.0414 6.22732C60.6566 5.80748 60.3242 5.45761 60.0443 5.17771C59.7469 4.88032 59.4233 4.55669 59.0734 4.20682C58.741 3.87444 58.3999 3.5858 58.05 3.34089C57.7002 3.09598 57.3678 2.93854 57.0529 2.86857C56.738 2.79859 56.4581 2.88606 56.2132 3.13097C56.0383 3.3059 55.9595 3.52457 55.977 3.78698C55.9945 4.08437 56.1345 4.36426 56.3969 4.62667C56.5368 4.73163 56.6768 4.83659 56.8167 4.94155C56.9567 5.0815 57.0966 5.22145 57.2366 5.36139L57.9451 6.06988ZM60.7276 30.7893C60.6576 30.8243 60.5701 30.8942 60.4652 30.9992C60.2203 31.2441 60.0891 31.5153 60.0716 31.8127C60.0541 32.11 60.1416 32.355 60.334 32.5474C60.5264 32.7398 60.7713 32.8623 61.0687 32.9147C61.3661 32.9672 61.6897 32.871 62.0396 32.6261C62.8968 32.0138 63.7452 31.3403 64.5849 30.6056C65.4246 29.8709 66.2643 29.0837 67.104 28.244C68.4685 26.8795 69.7717 25.4363 71.0138 23.9143C72.2383 22.4099 73.2879 20.9579 74.1626 19.5584C74.355 19.261 74.4338 18.9899 74.3988 18.745C74.3813 18.5176 74.2938 18.3251 74.1364 18.1677C73.9439 17.9753 73.6466 17.8703 73.2442 17.8528C72.8593 17.8178 72.1684 17.914 71.1712 18.1415C70.1741 18.3689 68.7659 18.745 66.9465 19.2698C65.1447 19.8121 62.7393 20.5731 59.7305 21.5527C58.6284 21.9201 57.7974 22.1912 57.2376 22.3662C56.6778 22.5411 56.3367 22.7073 56.2143 22.8647C56.0218 23.0571 55.9256 23.3108 55.9256 23.6257C55.9081 23.9581 55.9956 24.2205 56.188 24.4129C56.328 24.5528 56.4504 24.6403 56.5554 24.6753C56.6603 24.7453 56.8178 24.7453 57.0277 24.6753C57.2376 24.6403 57.5438 24.5441 57.9461 24.3867C58.331 24.2467 58.8908 24.0718 59.6255 23.8618L67.9174 21.2903C68.5997 21.0979 69.177 20.9404 69.6493 20.818C70.1216 20.6955 70.489 20.6081 70.7514 20.5556C69.177 22.7598 67.5063 24.7453 65.7395 26.5121C64.8823 27.3693 64.0339 28.1478 63.1942 28.8475C62.337 29.5647 61.5148 30.212 60.7276 30.7893ZM54.0101 24.3867C54.6048 23.6169 55.3921 22.7073 56.3717 21.6577C57.3338 20.6255 58.3485 19.5759 59.4156 18.5088C60.5352 17.3892 61.6635 16.3309 62.8006 15.3338C63.9376 14.3716 64.8998 13.4969 65.687 12.7097C66.0194 12.3773 66.2031 12.0362 66.238 11.6864C66.2555 11.354 66.1506 11.0741 65.9232 10.8467C65.7832 10.7067 65.582 10.628 65.3196 10.6105C65.0572 10.628 64.7686 10.7592 64.4537 11.0041C63.3341 11.8788 62.1271 12.9109 60.8325 14.1005C59.5555 15.3075 58.2872 16.5408 57.0277 17.8003C56.1005 18.7275 55.2259 19.6197 54.4037 20.4769C53.5815 21.369 52.8555 22.2175 52.2257 23.0222C51.9283 23.3545 51.8059 23.6694 51.8584 23.9668C51.9283 24.2817 52.0595 24.5353 52.252 24.7278C52.4794 24.8852 52.7418 24.9552 53.0392 24.9377C53.3191 24.9377 53.5902 24.8065 53.8526 24.5441L54.0101 24.3867ZM79.4128 37.8238C79.9551 38.611 80.4012 39.3195 80.751 39.9492C81.1184 40.5965 81.372 41.1825 81.512 41.7073C81.6344 42.2496 81.6344 42.7395 81.512 43.1768C81.3895 43.6491 81.1096 44.104 80.6723 44.5413C80.3049 44.9087 79.8326 45.1011 79.2553 45.1186C78.678 45.1361 78.057 45.0224 77.3923 44.7775C76.7275 44.5325 76.0453 44.1652 75.3455 43.6754C74.6458 43.1855 73.9723 42.617 73.325 41.9697C73.1676 41.8123 73.0101 41.6549 72.8527 41.4974C72.6953 41.34 72.5378 41.165 72.3804 40.9726C73.0626 40.5003 73.7886 39.9143 74.5583 39.2145C75.3455 38.5323 76.1327 37.7975 76.9199 37.0103C77.5847 36.3456 78.2407 35.6546 78.888 34.9373C79.5527 34.2376 80.1737 33.5641 80.751 32.9168C81.3108 32.2871 81.8094 31.6836 82.2467 31.1063C82.6841 30.564 83.0339 30.1091 83.2963 29.7418C83.4888 29.4444 83.5675 29.1557 83.5325 28.8758C83.515 28.6134 83.41 28.386 83.2176 28.1936C83.0252 28.0012 82.7803 27.8787 82.4829 27.8262C82.203 27.7912 81.9406 27.8962 81.6957 28.1411C81.6082 28.2286 81.547 28.3073 81.512 28.3773C81.1271 28.8671 80.6985 29.4006 80.2262 29.9779C79.7539 30.5902 79.2378 31.2112 78.678 31.841C78.1182 32.4708 77.541 33.1005 76.9462 33.7303C76.3514 34.395 75.7479 35.0336 75.1356 35.6458C74.1385 36.643 73.1851 37.5264 72.2754 38.2961C71.3483 39.0833 70.561 39.6081 69.9138 39.8705C69.5814 39.993 69.319 40.1504 69.1266 40.3428C68.8817 40.5878 68.7505 40.8414 68.733 41.1038C68.698 41.3837 68.7767 41.6199 68.9691 41.8123C69.3015 42.1447 69.7913 42.2322 70.4386 42.0747C70.6135 42.2846 70.7885 42.4771 70.9634 42.652C71.1383 42.8269 71.3133 43.0019 71.4882 43.1768C72.3629 44.0515 73.29 44.8212 74.2697 45.4859C75.2668 46.1682 76.2377 46.6668 77.1823 46.9816C78.1445 47.314 79.0629 47.4277 79.9376 47.3228C80.8297 47.2353 81.617 46.8504 82.2992 46.1682C83.5063 44.9611 83.9786 43.5442 83.7162 41.9173C83.4713 40.3079 82.6141 38.541 81.1446 36.6167C81.1096 36.5817 81.0921 36.5468 81.0921 36.5118C81.0921 36.5118 81.0747 36.4943 81.0397 36.4593C80.8123 36.2319 80.5673 36.1444 80.3049 36.1969C80.025 36.2669 79.7801 36.4068 79.5702 36.6167C79.4303 36.7567 79.334 36.9404 79.2816 37.1678C79.2291 37.3952 79.2728 37.6139 79.4128 37.8238ZM100.17 47.56C100.467 47.5075 100.703 47.3938 100.878 47.2189C101.106 46.9914 101.211 46.7115 101.193 46.3792C101.176 46.0468 101.053 45.7669 100.826 45.5395C100.581 45.2946 100.039 45.2246 99.199 45.3296C98.3593 45.4345 97.3972 45.6269 96.3126 45.9068C95.228 46.1867 94.1346 46.5104 93.0325 46.8777C91.9129 47.2626 90.9683 47.63 90.1986 47.9798C90.0936 48.0148 89.9624 48.0585 89.805 48.111C89.6475 48.1985 89.4988 48.3122 89.3589 48.4521C89.184 48.6271 89.0178 48.8982 88.8603 49.2656C88.7204 49.6505 88.7641 50.149 88.9915 50.7613C89.2714 51.566 89.4726 52.2395 89.5951 52.7818C89.735 53.3416 89.805 53.7964 89.805 54.1463C89.7875 54.5137 89.7263 54.8023 89.6213 55.0122C89.5338 55.2396 89.4201 55.4233 89.2802 55.5633C88.7379 56.1056 88.0556 56.2105 87.2334 55.8782C86.4112 55.5808 85.5715 55.0035 84.7144 54.1463C84.3645 53.7964 84.0059 53.4028 83.6385 52.9655C83.2886 52.5456 82.9213 52.0733 82.5364 51.5485C83.2536 51.1112 84.0321 50.5251 84.8718 49.7904C85.729 49.0732 86.6037 48.2685 87.4958 47.3763C88.1606 46.7115 88.8078 46.0293 89.4376 45.3296C90.0849 44.6473 90.6884 43.9913 91.2482 43.3615C91.808 42.7318 92.2978 42.137 92.7176 41.5772C93.155 41.0349 93.5049 40.5801 93.7673 40.2127C93.9772 39.9328 94.0559 39.6442 94.0034 39.3468C93.9684 39.0669 93.8635 38.8395 93.6885 38.6645C93.4961 38.4721 93.2512 38.3496 92.9538 38.2972C92.6739 38.2622 92.4115 38.3671 92.1666 38.612C92.0791 38.6995 92.0179 38.7782 91.9829 38.8482C91.2482 39.8278 90.3473 40.9387 89.2802 42.1807C88.2131 43.4228 87.1022 44.6211 85.9477 45.7756C84.9855 46.7378 84.0584 47.595 83.1662 48.3472C82.274 49.0994 81.5043 49.6417 80.857 49.9741C80.5072 50.149 80.2623 50.3065 80.1223 50.4464C79.8599 50.7088 79.72 50.9712 79.7025 51.2336C79.6675 51.5135 79.7462 51.7497 79.9386 51.9421C80.0436 52.0471 80.1748 52.1258 80.3322 52.1783L80.3847 52.2307C80.8745 52.8255 81.3469 53.3853 81.8017 53.9101C82.274 54.4524 82.7376 54.951 83.1924 55.4058C83.8222 56.0356 84.4694 56.5954 85.1342 57.0852C85.8165 57.5925 86.49 57.9511 87.1547 58.1611C87.8195 58.371 88.4667 58.4235 89.0965 58.3185C89.7263 58.2135 90.3123 57.8899 90.8546 57.3476C91.4494 56.7528 91.7905 55.8694 91.878 54.6973C91.9479 53.5428 91.668 52.0033 91.0383 50.079C91.5981 49.8341 92.2891 49.563 93.1113 49.2656C93.9509 48.9857 94.8081 48.7233 95.6828 48.4784C96.575 48.251 97.4234 48.0498 98.2281 47.8749C99.0328 47.6999 99.6801 47.595 100.17 47.56ZM92.3776 61.9145C92.465 62.2818 92.605 62.5617 92.7974 62.7542C92.7274 62.7891 92.6487 62.8504 92.5613 62.9378C92.2814 63.2177 92.2289 63.6201 92.4038 64.1449C92.5788 64.6697 92.9549 65.2207 93.5321 65.798C94.4418 66.7077 95.4215 67.25 96.4711 67.4249C97.5207 67.5999 98.5615 67.5386 99.5937 67.2412C100.626 66.9439 101.623 66.4715 102.585 65.8243C103.53 65.1945 104.361 64.521 105.078 63.8038C105.918 62.9641 106.644 62.0457 107.256 61.0485C107.868 60.0864 108.305 59.1068 108.568 58.1096C108.813 57.13 108.856 56.1766 108.699 55.2494C108.542 54.3223 108.104 53.5001 107.387 52.7828C106.355 51.7507 105.314 51.0772 104.264 50.7623C103.215 50.4824 102.174 50.4562 101.142 50.6836C100.11 50.911 99.1213 51.3396 98.1767 51.9694C97.2145 52.6167 96.3136 53.3601 95.4739 54.1998C94.1619 55.5118 93.296 56.7801 92.8761 58.0047C92.4388 59.2467 92.2726 60.55 92.3776 61.9145ZM94.2144 63.0166C94.2144 62.9466 94.1794 62.8766 94.1094 62.8066C94.0395 62.7367 93.9695 62.7017 93.8995 62.7017L94.0045 62.5967C94.2844 62.3168 94.4243 61.932 94.4243 61.4421C94.4068 60.6199 94.6167 59.6928 95.0541 58.6607C95.4914 57.6286 96.1562 56.6664 97.0483 55.7742C97.7131 55.1095 98.4216 54.5409 99.1738 54.0686C99.926 53.5963 100.678 53.2639 101.43 53.0715C102.183 52.8791 102.917 52.8616 103.635 53.019C104.352 53.1765 105.008 53.5526 105.603 54.1473C106.075 54.6197 106.372 55.162 106.495 55.7742C106.6 56.404 106.556 57.06 106.364 57.7423C106.171 58.4595 105.83 59.1855 105.34 59.9202C104.833 60.6724 104.203 61.4246 103.451 62.1769C102.979 62.6492 102.401 63.139 101.719 63.6463C101.054 64.1711 100.346 64.5822 99.5937 64.8796C98.8239 65.1945 98.0455 65.3257 97.2583 65.2732C96.4886 65.2382 95.7713 64.8884 95.1066 64.2236C94.7392 63.8563 94.5118 63.5764 94.4243 63.3839C94.3543 63.209 94.2844 63.0865 94.2144 63.0166ZM117.333 65.7728C117.543 65.9828 117.735 66.0702 117.91 66.0352C118.068 66.0177 118.225 65.9303 118.383 65.7728C118.593 65.5279 118.698 65.283 118.698 65.0381C118.68 64.8107 118.61 64.5833 118.488 64.3559C118.383 64.1459 118.243 63.9535 118.068 63.7786C117.893 63.6036 117.735 63.4462 117.596 63.3062C116.826 62.5365 115.969 61.9942 115.024 61.6794C114.079 61.3645 113.091 61.2508 112.059 61.3382C111.044 61.4432 110.03 61.7406 109.015 62.2304C108 62.7552 107.056 63.4549 106.181 64.3296C105.184 65.3268 104.493 66.4901 104.108 67.8196C103.723 69.1491 103.574 70.4873 103.662 71.8343C103.749 73.1813 104.038 74.4496 104.528 75.6392C105.018 76.8287 105.63 77.7909 106.365 78.5256C106.61 78.7705 106.855 78.8755 107.099 78.8405C107.327 78.823 107.519 78.7355 107.677 78.5781C107.869 78.3857 108.009 78.1583 108.097 77.8959C108.167 77.6509 108.149 77.476 108.044 77.371C107.432 76.5489 106.942 75.6217 106.575 74.5896C106.207 73.5575 105.997 72.5078 105.945 71.4407C105.91 70.3911 106.05 69.3765 106.365 68.3969C106.662 67.4347 107.169 66.595 107.887 65.8778C109.531 64.3384 111.149 63.5424 112.741 63.4899C114.316 63.4549 115.663 63.9972 116.782 65.1168C116.87 65.2043 116.966 65.3005 117.071 65.4055C117.158 65.5279 117.246 65.6504 117.333 65.7728ZM120.167 66.1927C119.747 66.5426 119.31 66.9274 118.855 67.3473C118.383 67.7846 117.884 68.2657 117.359 68.7905C116.835 69.3153 116.354 69.8313 115.916 70.3386C115.479 70.846 115.094 71.3358 114.762 71.8081L114.709 71.8606C114.184 71.2308 113.659 70.6535 113.135 70.1287C111.613 68.6068 110.537 68.1607 109.907 68.7905C109.75 68.9479 109.697 69.1753 109.75 69.4727C109.802 69.7701 109.986 70.0762 110.301 70.3911C110.826 70.811 111.35 71.2833 111.875 71.8081C112.557 72.4904 113.222 73.2076 113.869 73.9598C114.499 74.7295 115.085 75.3855 115.628 75.9278C115.925 76.2252 116.214 76.3914 116.493 76.4264C116.791 76.4789 117.036 76.4089 117.228 76.2165C117.508 75.9366 117.543 75.5517 117.333 75.0619C117.106 74.5896 116.721 74.0823 116.179 73.54C116.651 72.8927 117.149 72.2542 117.674 71.6244C118.199 71.0296 118.759 70.4349 119.354 69.8401C119.739 69.4552 120.141 69.0879 120.561 68.738C120.963 68.4056 121.357 68.047 121.742 67.6621C122.004 67.3997 122.118 67.1286 122.083 66.8487C122.083 66.5688 122.004 66.3501 121.846 66.1927C121.654 66.0003 121.4 65.8865 121.086 65.8516C120.771 65.8166 120.464 65.9303 120.167 66.1927ZM132.685 80.0748C132.982 80.0224 133.218 79.9087 133.393 79.7337C133.621 79.5063 133.726 79.2264 133.708 78.894C133.691 78.5617 133.568 78.2818 133.341 78.0543C133.096 77.8094 132.554 77.7395 131.714 77.8444C130.874 77.9494 129.912 78.1418 128.827 78.4217C127.743 78.7016 126.649 79.0252 125.547 79.3926C124.428 79.7775 123.483 80.1448 122.713 80.4947C122.608 80.5297 122.477 80.5734 122.32 80.6259C122.162 80.7134 122.014 80.8271 121.874 80.967C121.699 81.142 121.533 81.4131 121.375 81.7805C121.235 82.1653 121.279 82.6639 121.506 83.2762C121.786 84.0809 121.987 84.7544 122.11 85.2967C122.25 85.8565 122.32 86.3113 122.32 86.6612C122.302 87.0285 122.241 87.3172 122.136 87.5271C122.049 87.7545 121.935 87.9382 121.795 88.0781C121.253 88.6204 120.57 88.7254 119.748 88.393C118.926 88.0956 118.086 87.5183 117.229 86.6612C116.879 86.3113 116.521 85.9177 116.153 85.4803C115.804 85.0605 115.436 84.5882 115.051 84.0634C115.769 83.626 116.547 83.04 117.387 82.3053C118.244 81.588 119.119 80.7833 120.011 79.8912C120.675 79.2264 121.323 78.5442 121.952 77.8444C122.6 77.1622 123.203 76.5062 123.763 75.8764C124.323 75.2466 124.813 74.6519 125.233 74.0921C125.67 73.5498 126.02 73.0949 126.282 72.7276C126.492 72.4477 126.571 72.159 126.518 71.8616C126.483 71.5817 126.378 71.3543 126.203 71.1794C126.011 70.987 125.766 70.8645 125.469 70.812C125.189 70.777 124.926 70.882 124.681 71.1269C124.594 71.2144 124.533 71.2931 124.498 71.3631C123.763 72.3427 122.862 73.4535 121.795 74.6956C120.728 75.9376 119.617 77.1359 118.463 78.2905C117.5 79.2527 116.573 80.1098 115.681 80.8621C114.789 81.6143 114.019 82.1566 113.372 82.489C113.022 82.6639 112.777 82.8213 112.637 82.9613C112.375 83.2237 112.235 83.4861 112.217 83.7485C112.182 84.0284 112.261 84.2645 112.453 84.457C112.558 84.5619 112.69 84.6407 112.847 84.6931L112.9 84.7456C113.389 85.3404 113.862 85.9002 114.317 86.425C114.789 86.9673 115.252 87.4659 115.707 87.9207C116.337 88.5505 116.984 89.1103 117.649 89.6001C118.331 90.1074 119.005 90.466 119.67 90.6759C120.334 90.8858 120.982 90.9383 121.611 90.8334C122.241 90.7284 122.827 90.4048 123.369 89.8625C123.964 89.2677 124.305 88.3843 124.393 87.2122C124.463 86.0576 124.183 84.5182 123.553 82.5939C124.113 82.349 124.804 82.0779 125.626 81.7805C126.466 81.5006 127.323 81.2382 128.198 80.9933C129.09 80.7658 129.938 80.5647 130.743 80.3897C131.548 80.2148 132.195 80.1098 132.685 80.0748ZM123.685 92.8024C123.353 92.575 123.047 92.4613 122.767 92.4613C122.47 92.4788 122.242 92.5663 122.085 92.7237C121.892 92.9161 121.796 93.1698 121.796 93.4847C121.796 93.7996 121.954 94.1145 122.268 94.4293C122.671 94.7617 123.073 95.1116 123.475 95.4789C123.878 95.8463 124.271 96.2224 124.656 96.6073C125.321 97.272 125.942 97.928 126.519 98.5753C127.114 99.2401 127.639 99.8698 128.094 100.465C128.391 100.762 128.697 100.911 129.012 100.911C129.327 100.946 129.581 100.867 129.773 100.675C130.263 100.185 130.149 99.4762 129.432 98.5491C128.732 97.6394 127.499 96.3011 125.732 94.5343C126.379 93.6071 127.105 92.6712 127.91 91.7266C128.697 90.7994 129.581 89.846 130.56 88.8664C131.19 88.2366 131.802 87.6418 132.397 87.0821C132.992 86.5223 133.587 85.98 134.182 85.4552C134.566 85.1403 134.907 84.9216 135.205 84.7991C135.502 84.7117 135.791 84.7029 136.071 84.7729C136.351 84.8779 136.639 85.0615 136.937 85.324C137.252 85.6038 137.628 85.9625 138.065 86.3998C138.625 86.9596 139.141 87.5456 139.613 88.1579C140.086 88.8052 140.479 89.4787 140.794 90.1784C140.899 90.3883 141.021 90.5633 141.161 90.7032C141.389 90.9306 141.608 91.0268 141.817 90.9919C142.045 90.9744 142.237 90.8869 142.395 90.7295C142.727 90.3971 142.841 89.9685 142.736 89.4437C142.631 88.9189 142.421 88.3766 142.106 87.8168C141.809 87.2745 141.441 86.7497 141.004 86.2424C140.584 85.7176 140.217 85.2977 139.902 84.9828C139.57 84.6505 139.185 84.2831 138.747 83.8807C138.345 83.4784 137.89 83.1285 137.383 82.8311C136.876 82.5687 136.333 82.4113 135.756 82.3588C135.179 82.3063 134.584 82.4638 133.972 82.8311C133.394 83.1635 132.747 83.6358 132.03 84.2481C131.295 84.8779 130.543 85.5776 129.773 86.3473C129.143 86.9771 128.531 87.6069 127.936 88.2366C127.342 88.9014 126.782 89.5311 126.257 90.1259C125.732 90.7207 125.277 91.263 124.892 91.7528C124.49 92.2601 124.175 92.6625 123.948 92.9599C123.86 92.8724 123.799 92.8287 123.764 92.8287C123.747 92.8462 123.72 92.8374 123.685 92.8024ZM133.079 89.811C132.782 89.5486 132.502 89.4437 132.24 89.4962C131.995 89.5661 131.776 89.6973 131.584 89.8898C131.409 90.0647 131.321 90.2921 131.321 90.572C131.339 90.8694 131.47 91.1406 131.715 91.3855C132.012 91.6828 132.318 91.9715 132.633 92.2514C132.966 92.5488 133.281 92.8462 133.578 93.1436C134.54 94.1057 135.441 95.1116 136.281 96.1612C136.578 96.4236 136.867 96.5548 137.147 96.5548C137.444 96.5723 137.68 96.5111 137.855 96.3711C138.118 96.1087 138.188 95.7763 138.065 95.374C137.925 94.9891 137.706 94.578 137.409 94.1407C137.112 93.7034 136.771 93.2748 136.386 92.8549C135.983 92.4526 135.633 92.1027 135.336 91.8053C134.969 91.4379 134.601 91.0881 134.234 90.7557C133.849 90.4408 133.464 90.1259 133.079 89.811ZM138.302 103.536C138.95 103.203 139.676 102.95 140.48 102.775C141.285 102.6 142.125 102.46 142.999 102.355C143.856 102.267 144.722 102.171 145.597 102.066C146.472 101.961 147.311 101.804 148.116 101.594C148.484 101.507 148.816 101.367 149.113 101.174C149.393 100.999 149.638 100.807 149.848 100.597C150.285 100.16 150.583 99.6697 150.74 99.1274C150.898 98.6201 150.933 98.0953 150.845 97.553C150.758 97.0107 150.565 96.4684 150.268 95.9261C149.97 95.4188 149.586 94.929 149.113 94.4566C148.641 93.9843 148.125 93.5207 147.565 93.0659C147.005 92.646 146.472 92.2874 145.964 91.99C145.457 91.7276 144.994 91.544 144.574 91.439C144.154 91.369 143.839 91.439 143.629 91.6489C143.437 91.8413 143.305 92.0775 143.235 92.3574C143.183 92.6548 143.253 92.8997 143.445 93.0921C143.48 93.1271 143.664 93.2408 143.996 93.4333C144.329 93.6257 144.722 93.8618 145.177 94.1417C145.632 94.4566 146.104 94.789 146.594 95.1389C147.102 95.5062 147.539 95.8736 147.906 96.241C148.361 96.6958 148.606 97.1681 148.641 97.6579C148.676 98.1827 148.475 98.6638 148.037 99.1012C147.793 99.3461 147.478 99.521 147.093 99.626C146.708 99.7659 146.236 99.8709 145.676 99.9408C145.116 100.011 144.478 100.072 143.76 100.125C143.026 100.195 142.203 100.299 141.294 100.439C139.737 100.667 138.512 100.947 137.62 101.279C136.728 101.611 136.002 102.058 135.442 102.617C134.655 103.405 134.27 104.262 134.288 105.189C134.323 106.134 134.891 107.157 135.993 108.259C136.361 108.626 136.78 108.976 137.253 109.309C137.725 109.676 138.197 109.973 138.67 110.201C139.124 110.446 139.553 110.594 139.955 110.647C140.34 110.717 140.638 110.647 140.848 110.437C141.023 110.262 141.127 110.052 141.162 109.807C141.197 109.562 141.127 109.352 140.953 109.177C140.865 109.09 140.69 108.968 140.428 108.81C140.165 108.653 139.859 108.451 139.509 108.207C139.159 107.997 138.792 107.752 138.407 107.472C138.04 107.209 137.716 106.938 137.436 106.658C136.579 105.801 136.527 104.996 137.279 104.244C137.541 103.982 137.882 103.746 138.302 103.536ZM147.146 112.38C147.794 112.047 148.52 111.794 149.324 111.619C150.129 111.444 150.969 111.304 151.843 111.199C152.701 111.112 153.566 111.015 154.441 110.91C155.316 110.805 156.155 110.648 156.96 110.438C157.328 110.351 157.66 110.211 157.957 110.018C158.237 109.843 158.482 109.651 158.692 109.441C159.129 109.004 159.427 108.514 159.584 107.971C159.742 107.464 159.777 106.939 159.689 106.397C159.602 105.855 159.409 105.312 159.112 104.77C158.814 104.263 158.43 103.773 157.957 103.301C157.485 102.828 156.969 102.365 156.409 101.91C155.849 101.49 155.316 101.131 154.808 100.834C154.301 100.572 153.838 100.388 153.418 100.283C152.998 100.213 152.683 100.283 152.473 100.493C152.281 100.685 152.149 100.922 152.079 101.201C152.027 101.499 152.097 101.744 152.289 101.936C152.324 101.971 152.508 102.085 152.84 102.277C153.173 102.47 153.566 102.706 154.021 102.986C154.476 103.301 154.948 103.633 155.438 103.983C155.946 104.35 156.383 104.718 156.75 105.085C157.205 105.54 157.45 106.012 157.485 106.502C157.52 107.027 157.319 107.508 156.881 107.945C156.637 108.19 156.322 108.365 155.937 108.47C155.552 108.61 155.08 108.715 154.52 108.785C153.96 108.855 153.322 108.916 152.604 108.969C151.87 109.039 151.047 109.143 150.138 109.283C148.581 109.511 147.356 109.791 146.464 110.123C145.572 110.456 144.846 110.902 144.286 111.461C143.499 112.249 143.114 113.106 143.132 114.033C143.167 114.978 143.735 116.001 144.837 117.103C145.205 117.47 145.624 117.82 146.097 118.153C146.569 118.52 147.041 118.817 147.514 119.045C147.969 119.29 148.397 119.438 148.799 119.491C149.184 119.561 149.482 119.491 149.692 119.281C149.867 119.106 149.972 118.896 150.007 118.651C150.041 118.406 149.972 118.196 149.797 118.021C149.709 117.934 149.534 117.812 149.272 117.654C149.009 117.497 148.703 117.295 148.353 117.051C148.003 116.841 147.636 116.596 147.251 116.316C146.884 116.053 146.56 115.782 146.28 115.502C145.423 114.645 145.371 113.841 146.123 113.088C146.385 112.826 146.726 112.59 147.146 112.38Z" fill="#434343"/>
</g>
<defs>
<filter id="filter0_d_540_2220" x="0" y="0" width="168" height="168" filterUnits="userSpaceOnUse" color-interpolation-filters="sRGB">
<feFlood flood-opacity="0" result="BackgroundImageFix"/>
<feColorMatrix in="SourceAlpha" type="matrix" values="0 0 0 0 0 0 0 0 0 0 0 0 0 0 0 0 0 0 127 0" result="hardAlpha"/>
<feOffset dy="4"/>
<feGaussianBlur stdDeviation="2"/>
<feComposite in2="hardAlpha" operator="out"/>
<feColorMatrix type="matrix" values="0 0 0 0 0 0 0 0 0 0 0 0 0 0 0 0 0 0 0.25 0"/>
<feBlend mode="normal" in2="BackgroundImageFix" result="effect1_dropShadow_540_2220"/>
<feBlend mode="normal" in="SourceGraphic" in2="effect1_dropShadow_540_2220" result="shape"/>
</filter>
</defs>
</svg>
