<svg width="35" height="55" viewBox="0 0 45 72" fill="none" xmlns="http://www.w3.org/2000/svg">
<g clip-path="url(#clip0_568_8256)">
<path d="M16.2467 6.75C16.2467 4.95979 16.9578 3.2429 18.2237 1.97703C19.4896 0.711159 21.2064 0 22.9967 0C24.7869 0 26.5038 0.711159 27.7696 1.97703C29.0355 3.2429 29.7467 4.95979 29.7467 6.75C29.7467 8.54021 29.0355 10.2571 27.7696 11.523C26.5038 12.7888 24.7869 13.5 22.9967 13.5C21.2064 13.5 19.4896 12.7888 18.2237 11.523C16.9578 10.2571 16.2467 8.54021 16.2467 6.75ZM21.8717 49.5V67.5C21.8717 69.9891 19.8607 72 17.3717 72C14.8826 72 12.8717 69.9891 12.8717 67.5V36.1266L8.84978 42.8203C7.57009 44.9438 4.79977 45.6328 2.67634 44.3531C0.5529 43.0734 -0.136163 40.3031 1.14352 38.1797L9.34196 24.5391C11.7888 20.475 16.1763 17.9859 20.9154 17.9859H25.092C29.831 17.9859 34.2185 20.475 36.6654 24.5391L44.8638 38.1797C46.1435 40.3031 45.4545 43.0734 43.331 44.3531C41.2076 45.6328 38.4373 44.9438 37.1576 42.8203L33.1217 36.1266V67.5C33.1217 69.9891 31.1107 72 28.6217 72C26.1326 72 24.1217 69.9891 24.1217 67.5V49.5H21.8717Z" fill="black"/>
</g>
<defs>
<clipPath id="clip0_568_8256">
<rect width="45" height="72" fill="white"/>
</clipPath>
</defs>
</svg>
