<svg width="115" height="80" viewBox="0 0 115 80" fill="none"
    filter="url(#squiggly) drop-shadow( 2px 2px 3px rgba(50, 50, 50, .7))"
    xmlns="http://www.w3.org/2000/svg">
    <path
        d="M0 54.3728C0 68.3796 11.5099 79.7435 25.6966 79.7435H91.3655C103.982 79.7435 114.207 69.6481 114.207 57.1918C114.207 46.2859 106.355 37.1772 95.9338 35.0982C96.6654 33.213 97.0759 31.1516 97.0759 29.0022C97.0759 19.6643 89.4026 12.0884 79.9448 12.0884C76.4294 12.0884 73.1459 13.1455 70.4335 14.9426C65.4905 6.48567 56.2647 0.8125 45.6828 0.8125C29.9079 0.8125 17.131 13.4274 17.131 29.0022C17.131 29.4779 17.1489 29.9536 17.1667 30.4293C7.17362 33.9001 0 43.3084 0 54.3728Z"
        fill="white" />
</svg>