<svg width="43" height="69" viewBox="0 0 56 90" fill="none" preserveAspectRatio="xMidYMin slice"
    xmlns="http://www.w3.org/2000/svg">
    <g clip-path="url(#clip0_568_8254)">
        <path
            d="M22.06 2.47129C23.6354 0.888949 25.7719 0 27.9997 0C30.2276 0 32.3641 0.888949 33.9394 2.47129C35.5147 4.05363 36.3997 6.19974 36.3997 8.4375C36.3997 10.6753 35.5147 12.8214 33.9394 14.4037C32.3641 15.9861 30.2276 16.875 27.9997 16.875C25.7719 16.875 23.6354 15.9861 22.06 14.4037C20.4847 12.8214 19.5997 10.6753 19.5997 8.4375C19.5997 7.96313 19.6395 7.49288 19.7172 7.03125H12.2496L10.4996 5.27344V3.51563L12.2496 2.47129H22.06Z"
            fill="#2D69AF" />
        <path fill-rule="evenodd" clip-rule="evenodd"
            d="M26.5997 61.875V84.375C26.5997 87.4863 24.0972 90 20.9997 90C17.9022 90 15.3997 87.4863 15.3997 84.375V45.1582L10.3947 53.5254C8.80224 56.1797 5.35474 57.041 2.71224 55.4414C0.069737 53.8418 -0.787763 50.3789 0.804737 47.7246L11.0072 30.6738C14.0522 25.5938 19.5122 22.4824 25.4097 22.4824H30.6072C36.5047 22.4824 41.9647 25.5938 45.0097 30.6738L55.2122 47.7246C56.8047 50.3789 55.9472 53.8418 53.3047 55.4414C50.6622 57.041 47.2147 56.1797 45.6222 53.5254L40.5997 45.1582V84.375C40.5997 87.4863 38.0972 90 34.9997 90C31.9022 90 29.3997 87.4863 29.3997 84.375V61.875H26.5997ZM17.4996 43.9453L19.2496 35.1563H22.7496L24.4996 42.1875L26.2496 35.1563H29.7496L31.4996 43.9453H29.7496L27.9996 38.6719L26.2496 43.9453H22.7496L20.9996 38.6719L19.2496 43.9453H17.4996ZM32.6668 43.9453V35.1563H38.889V36.9141H34.9996V38.6719H38.889V40.4297H34.9996V42.1875H38.889V43.9453H32.6668Z"
            fill="#2D69AF" />
    </g>
    <defs>
        <clipPath id="clip0_568_8254">
            <rect width="56" height="90" fill="white" />
        </clipPath>
    </defs>
</svg>