<svg width="86" height="81" viewBox="0 0 112 106" fill="none" preserveAspectRatio="xMidYMin slice" xmlns="http://www.w3.org/2000/svg">
<g clip-path="url(#clip0_572_8264)">
<path fill-rule="evenodd" clip-rule="evenodd" d="M54.5958 77.875V100.375C54.5958 103.486 52.0933 106 48.9958 106C45.8983 106 43.3958 103.486 43.3958 100.375V61.1582L38.3908 69.5254C36.7983 72.1797 33.3508 73.041 30.7083 71.4414C28.0658 69.8418 27.2083 66.3789 28.8008 63.7246L39.0033 46.6738C42.0483 41.5938 47.5083 38.4824 53.4058 38.4824H58.6033C64.5008 38.4824 69.9608 41.5938 73.0058 46.6738L83.2083 63.7246C84.8008 66.3789 83.9433 69.8418 81.3008 71.4414C78.6583 73.041 75.2108 72.1797 73.6183 69.5254L68.5958 61.1582V100.375C68.5958 103.486 66.0933 106 62.9958 106C59.8983 106 57.3958 103.486 57.3958 100.375V77.875H54.5958ZM45.4957 59.9453L47.2457 51.1562H50.7457L52.4957 58.1875L54.2457 51.1562H57.7457L59.4957 59.9453H57.7457L55.9957 54.6719L54.2457 59.9453H50.7457L48.9957 54.6719L47.2457 59.9453H45.4957ZM60.6629 59.9453V51.1562H66.8851V52.9141H62.9957V54.6719H66.8851V56.4297H62.9957V58.1875H66.8851V59.9453H60.6629Z" fill="#2D69AF"/>
<path d="M50.0561 18.4713C51.6314 16.8889 53.768 16 55.9958 16C58.2237 16 60.3602 16.8889 61.9355 18.4713C63.5108 20.0536 64.3958 22.1997 64.3958 24.4375C64.3958 26.6753 63.5108 28.8214 61.9355 30.4037C60.3602 31.9861 58.2237 32.875 55.9958 32.875C53.768 32.875 51.6314 31.9861 50.0561 30.4037C48.4808 28.8214 47.5958 26.6753 47.5958 24.4375C47.5958 22.1997 48.4808 20.0536 50.0561 18.4713Z" fill="#2D69AF"/>
<path d="M56.875 4.34766C57.35 4.06055 57.6667 3.53965 57.6667 2.95312C57.6667 2.04668 56.9208 1.3125 56 1.3125C55.0792 1.3125 54.3333 2.04668 54.3333 2.95312C54.3333 3.54375 54.65 4.06055 55.125 4.34766L52.7375 9.04805C52.3583 9.79453 51.375 10.0078 50.7125 9.48691L47 6.5625C47.2083 6.2877 47.3333 5.94727 47.3333 5.57812C47.3333 4.67168 46.5875 3.9375 45.6667 3.9375C44.7458 3.9375 44 4.67168 44 5.57812C44 6.48457 44.7458 7.21875 45.6667 7.21875C45.675 7.21875 45.6875 7.21875 45.6958 7.21875L47.6 17.5301C47.8292 18.777 48.9333 19.6875 50.225 19.6875H61.775C63.0625 19.6875 64.1667 18.7811 64.4 17.5301L66.3042 7.21875C66.3125 7.21875 66.325 7.21875 66.3333 7.21875C67.2542 7.21875 68 6.48457 68 5.57812C68 4.67168 67.2542 3.9375 66.3333 3.9375C65.4125 3.9375 64.6667 4.67168 64.6667 5.57812C64.6667 5.94727 64.7917 6.2877 65 6.5625L61.2875 9.48691C60.625 10.0078 59.6417 9.79453 59.2625 9.04805L56.875 4.34766Z" fill="#FFE812"/>
<path d="M18.2158 17.239C16.5635 15.6046 13.8916 15.6046 12.2393 17.239C10.6045 18.891 10.6045 21.5624 12.2393 23.2144L26.3193 37.2566C27.9541 38.9086 30.626 38.891 32.2783 37.2566C33.9307 35.6221 33.9307 32.9508 32.2783 31.2988L18.2158 17.239Z" fill="#FFE812"/>
<path d="M99.7607 17.239C98.126 15.587 95.4541 15.587 93.8018 17.239L79.7393 31.2988C78.0869 32.9332 78.1045 35.6046 79.7393 37.2566C81.374 38.9086 84.0459 38.9086 85.6982 37.2566L99.7607 23.1968C101.413 21.5624 101.396 18.891 99.7607 17.239Z" fill="#FFE812"/>
<path d="M12.2393 98.8032C10.5869 100.438 10.5869 103.109 12.2393 104.761H12.2568C13.8916 106.413 16.5635 106.413 18.2158 104.761L32.2607 90.7012C33.9131 89.0668 33.8955 86.3954 32.2607 84.7434C30.626 83.0914 27.9541 83.0914 26.3018 84.7434L12.2393 98.8032Z" fill="#FFE812"/>
<path d="M79.7393 90.7012L93.8018 104.761C95.4365 106.413 98.1084 106.395 99.7607 104.761C101.413 103.127 101.413 100.455 99.7607 98.8032L85.6982 84.7434C84.0635 83.0914 81.3916 83.109 79.7393 84.7434C78.0869 86.3779 78.0869 89.0492 79.7393 90.7012Z" fill="#FFE812"/>
<path d="M2.93422 51H10.1342V54.6H4.37422L4.28422 54.78L9.08422 63.54C10.0642 65.3 10.5542 66.64 10.5542 67.56C10.5542 69.58 9.88422 71.06 8.54422 72H0.594219V68.52H6.80422L6.89422 68.34L1.49422 58.65C0.714219 57.25 0.324219 56.11 0.324219 55.23C0.324219 53.15 1.19422 51.74 2.93422 51ZM21.9856 51C23.3856 52.14 24.4256 53.67 25.1056 55.59C25.7856 57.51 26.1256 59.49 26.1256 61.53C26.1256 63.55 25.7956 65.47 25.1356 67.29C24.4756 69.11 23.4256 70.68 21.9856 72H15.8056C14.3656 70.68 13.3156 69.11 12.6556 67.29C11.9956 65.47 11.6656 63.55 11.6656 61.53C11.6656 59.49 12.0056 57.51 12.6856 55.59C13.3656 53.67 14.4056 52.14 15.8056 51H21.9856ZM17.8156 68.52H19.9756C20.4756 67.94 20.8956 67 21.2356 65.7C21.5956 64.38 21.7756 62.99 21.7756 61.53C21.7756 60.07 21.6056 58.7 21.2656 57.42C20.9256 56.12 20.5056 55.18 20.0056 54.6H17.8156C17.3156 55.18 16.8856 56.12 16.5256 57.42C16.1856 58.7 16.0156 60.07 16.0156 61.53C16.0156 62.99 16.1856 64.38 16.5256 65.7C16.8856 67 17.3156 67.94 17.8156 68.52ZM86.1216 72V51H90.2316V68.52H96.4716V72H86.1216ZM107.386 51C108.786 52.14 109.826 53.67 110.506 55.59C111.186 57.51 111.526 59.49 111.526 61.53C111.526 63.55 111.196 65.47 110.536 67.29C109.876 69.11 108.826 70.68 107.386 72H101.206C99.766 70.68 98.716 69.11 98.056 67.29C97.396 65.47 97.066 63.55 97.066 61.53C97.066 59.49 97.406 57.51 98.086 55.59C98.766 53.67 99.806 52.14 101.206 51H107.386ZM103.216 68.52H105.376C105.876 67.94 106.296 67 106.636 65.7C106.996 64.38 107.176 62.99 107.176 61.53C107.176 60.07 107.006 58.7 106.666 57.42C106.326 56.12 105.906 55.18 105.406 54.6H103.216C102.716 55.18 102.286 56.12 101.926 57.42C101.586 58.7 101.416 60.07 101.416 61.53C101.416 62.99 101.586 64.38 101.926 65.7C102.286 67 102.716 67.94 103.216 68.52Z" fill="#FFE812"/>
</g>
<defs>
<clipPath id="clip0_572_8264">
<rect width="112" height="106" fill="white"/>
</clipPath>
</defs>
</svg>
