<svg>
    <g id="Bee1">
        <path id="Vector 146"
            d="M58.596 90.9524C58.4905 90.478 56.292 90.1021 55.8149 89.9983C54.9397 89.8081 54.2269 89.6905 53.5819 90.3942C52.7295 91.324 52.1152 93.0446 53.4804 93.835C54.1196 94.2051 54.3813 94.2039 55.1247 94.241C55.7139 94.2705 56.1287 94.8702 56.769 94.9617C57.898 95.123 59.6922 95.7158 59.6922 94.0583C59.6922 92.4892 60.2553 91.9257 58.5249 91.399C57.2772 91.0193 56.3241 90.587 54.9826 90.587C53.2262 90.587 54.9517 92.5343 55.7743 92.7693C56.7229 93.0403 57.7379 92.7555 58.596 93.3275"
            stroke="#FFE812" stroke-width="2" stroke-linecap="round" />
        <path id="Vector 147"
            d="M54.2116 89.8562C53.9115 87.9055 52.2938 87.1157 50.5576 87.1157"
            stroke="#FFE812" stroke-width="2" stroke-linecap="round" />
        <path id="Vector 148"
            d="M52.7502 90.9524C52.1223 90.9524 51.3929 90.5172 50.7405 90.3637C49.7175 90.123 48.9616 90.2665 48 90.587"
            stroke="#FFE812" stroke-width="2" stroke-linecap="round" />
        <path id="Vector 149"
            d="M57.8656 89.4908C57.8656 88.6362 57.6005 87.3623 58.3528 86.7604C59.1684 86.108 60.567 85.82 61.6109 86.0398C62.5602 86.2396 62.494 87.6739 62.4229 88.3844C62.3452 89.1618 61.2647 89.6687 60.5959 89.8359C59.6685 90.0677 61.5884 89.1254 62.1489 89.1254C62.6189 89.1254 63.6355 88.9036 63.8541 89.4502C64.0384 89.911 64.7402 91.07 64.0774 91.4599C63.3647 91.8791 62.3107 91.6832 61.5196 91.6832"
            stroke="#151515" stroke-width="2" stroke-linecap="round" />
        <path id="Vector 150"
            d="M55.4907 88.5773C54.6836 88.4876 54.8425 87.1606 54.5772 86.5676C54.3319 86.0193 54.1548 84.9767 54.8005 84.7C55.6956 84.3164 55.8806 83.9334 56.9117 84.0098C57.6722 84.0661 57.5725 84.8488 57.8658 85.2887"
            stroke="#151515" stroke-width="2" stroke-linecap="round" />
        <path id="Vector 151"
            d="M56.3516 90.8257C56.3516 92.2554 56.232 93.5935 55.6729 94.8982"
            stroke="#151515" stroke-width="2" stroke-linecap="round" />
        <path id="Vector 152"
            d="M58.7271 91.9287C58.7271 92.6609 58.7271 93.3931 58.7271 94.1253C58.7271 94.6019 58.5346 94.9665 58.3877 95.4074"
            stroke="#151515" stroke-width="2" stroke-linecap="round" />
        <path id="Vector_3"
            d="M61.4474 95L61.1206 95M62.6458 95.6537C62.7151 95.3767 63.0618 95.9161 63.1906 95.9805M63.7353 97.3969C63.7893 97.2348 64.0334 97.8554 64.0622 97.9416M64.0622 99.5758C64.0459 99.9668 63.7747 100.151 63.6264 100.447M62.6458 102.082C62.2564 102.117 62.14 102.444 61.7743 102.517M59.8132 103.825C59.517 103.825 59.2378 103.934 58.9416 103.934M57.3074 105.132C57.1406 105.299 57.0124 105.489 56.8716 105.677M56 108.074L56 107.311M56.2179 109.599C56.2179 109.825 56.1237 110.26 56.3268 110.362M56.6537 112.214C56.8446 112.429 56.9805 112.582 56.9805 112.868M57.8521 114.066C58.1226 114.126 58.3971 114.502 58.5058 114.72M59.7042 116.136C59.9167 116.148 60.0691 116.246 60.249 116.354M61.3385 117.443C61.5465 117.443 61.629 117.516 61.7743 117.661"
            stroke="#010101" stroke-linecap="round" />
    </g>
    <g id="Flower1">
        <path id="Vector 109"
            d="M87.7558 142.773C89.2349 142.588 89.0963 133.048 89.1621 131.57C89.2239 130.178 89.1779 128.776 89.1779 127.382C89.1779 126.251 88.609 125.417 88.609 124.301C88.609 123.316 88.0597 122.455 88.0402 121.441C88.0253 120.669 87.9115 119.902 87.4713 119.229C86.8557 118.287 85.7716 117.75 84.9116 116.891"
            stroke="#5C9F44" stroke-width="2" stroke-linecap="round" />
        <path id="Vector 110"
            d="M87.1863 142.204C89.8243 141.911 84.614 132.878 83.3624 131.854C81.131 130.029 78.0575 130.258 75.2407 130.258C72.2988 130.258 77.4187 140.346 78.2271 141.603C79.0599 142.899 81.6011 143.473 83.0464 143.61C83.9429 143.696 86.2849 143.959 86.9019 143.342"
            stroke="#5C9F44" stroke-width="2" stroke-linecap="round" />
        <path id="Vector 111"
            d="M88.6086 142.488C89.6727 142.276 89.9015 140.769 90.3783 139.992C90.9619 139.041 91.8941 138.294 92.5905 137.432C93.4915 136.316 96.3741 136.035 97.71 135.441C98.5895 135.05 100.145 135.378 101.123 135.378C102.115 135.378 103.398 134.971 103.398 136.231C103.398 138.587 101.33 140.97 100.27 142.931C99.3595 144.615 97.7389 145.655 95.9403 146.186C94.7264 146.544 92.7289 146.735 91.4528 146.407C89.7394 145.966 88.5124 144.885 86.9021 144.195"
            stroke="#5C9F44" stroke-width="2" stroke-linecap="round" />
        <path id="Vector 112"
            d="M83.4889 114.046C83.7004 113.095 85.5993 112.664 85.7485 111.471C86.009 109.387 84.4592 108.47 82.9833 107.505C82.2948 107.055 79.5699 106.257 78.9382 107.126C77.8446 108.629 77.7113 110.555 77.8005 112.34C77.8805 113.938 83.739 114.096 83.7734 113.478C83.8649 111.83 83.9344 107.479 81.0714 109.069C80.0767 109.622 80.0759 110.358 80.0759 111.423C80.0759 112.767 81.8918 112.435 82.8885 112.324C84.7153 112.121 82.7036 109.751 82.0668 109.433C80.3315 108.565 78.8855 107.691 79.6651 110.475C80.1822 112.322 80.6798 112.929 82.2249 111.202C83.294 110.007 80.5657 109.887 79.9653 110.349C79.202 110.936 78.5474 111.861 80.0759 111.771C81.2834 111.7 80.539 107.361 78.9382 109.496"
            stroke="#FFE812" stroke-width="2" stroke-linecap="round" />
        <path id="Vector 113"
            d="M102.83 137.084C102.65 137.893 99.8944 139.671 99.2906 140.197C97.8201 141.479 96.2655 142.752 94.2817 143.057C93.3322 143.203 92.7385 143.626 91.7377 143.626C91.0295 143.626 90.4266 143.342 89.7468 143.342"
            stroke="#5C9F44" stroke-width="2" stroke-linecap="round" />
        <path id="Vector 114"
            d="M88.6094 142.773C85.7465 142.252 83.6947 139.428 81.8465 137.432C81.1012 136.627 80.7157 135.74 79.6502 135.236C78.9416 134.9 77.8014 133.926 77.8014 133.103"
            stroke="#5C9F44" stroke-width="2" stroke-linecap="round" />
        <path id="Vector 115"
            d="M83.7734 133.387C83.7734 136.045 83.489 138.726 83.489 141.351"
            stroke="#5C9F44" stroke-width="2" stroke-linecap="round" />
        <path id="Vector 116"
            d="M81.2141 132.534C81.2141 134.753 81.778 137.374 80.0764 139.075"
            stroke="#5C9F44" stroke-width="2" stroke-linecap="round" />
        <path id="Vector 117"
            d="M98.2783 137.653C96.5167 139.575 96.2495 142.981 97.4251 145.333"
            stroke="#5C9F44" stroke-width="2" stroke-linecap="round" />
        <path id="Vector 118"
            d="M92.5908 139.644C90.7523 139.644 91.4531 144.842 91.4531 146.186"
            stroke="#5C9F44" stroke-width="2" stroke-linecap="round" />
        <path id="Vector 119"
            d="M84.9111 107.505C86.7232 107.505 89.4447 107.916 90.7417 106.32C91.6859 105.158 91.4527 103.715 91.4527 102.322C91.4527 101.086 91.8682 99.0216 91.0261 97.9925C90.4212 97.2531 88.0345 96.8622 87.1232 97.0444C83.0775 97.8536 82.3513 101.901 82.3513 105.577C82.3513 106.112 82.2912 106.689 82.3671 107.22C82.53 108.361 82.6477 105.739 82.6199 105.419C82.5179 104.246 82.1071 103.359 81.5297 102.369C80.9537 101.382 81.0317 100.436 80.1866 99.541C79.336 98.6404 76.4113 97.5912 75.1776 97.55C74.5118 97.5278 72.2083 97.2011 71.6698 97.7397C68.6134 100.796 69.3589 106.651 74.2296 106.651C75.2149 106.651 76.8833 106.974 77.8006 106.588C78.3099 106.374 78.4331 105.959 78.7645 105.561C79.5088 104.668 76.5187 106.191 75.3672 106.351C72.6428 106.731 69.7251 106.242 67.1191 107.094C65.5773 107.598 63.1438 108.769 63.0108 110.697C62.8404 113.168 64.7337 114.333 66.9927 114.584C68.2854 114.727 71.257 115.075 72.3334 114.11C73.3223 113.223 73.9175 112.505 74.4192 111.376C74.6033 110.962 75.4606 111.467 75.5252 110.918C75.6361 109.976 75.0342 111.035 74.8932 111.329C74.0205 113.144 73.4312 116.026 73.2657 118.012C73.1545 119.346 73.5394 121.169 75.0196 121.662C76.8101 122.259 78.7635 122.579 80.6448 122.579C81.3328 122.579 82.2852 122.796 82.4935 121.963C82.7514 120.931 82.6954 119.685 82.6199 118.629C82.5677 117.897 81.6247 116.184 80.9292 115.816C80.5863 115.635 80.1599 115.526 79.7915 115.342C78.779 114.836 79.5754 115.182 80.076 115.5C84.2975 118.187 88.2277 118.882 93.1592 118.882C94.432 118.882 97.71 117.45 97.71 116.101C97.71 114.641 96.8359 113.49 95.7032 112.64C94.2991 111.587 92.3452 110.141 90.6627 109.559C89.7613 109.247 88.4245 109.496 87.4709 109.496"
            stroke="#D279E0" stroke-width="2" stroke-linecap="round" />
        <path id="Vector 120"
            d="M96.0029 114.331C96.0029 114.829 94.9121 116.39 94.644 115.753C94.3041 114.946 94.4567 113.953 94.0752 113.098C93.5873 112.005 93.0306 114.616 92.8901 115.026C92.8037 115.278 92.5899 116.738 92.5899 116.401C92.5899 115.422 92.5009 114.392 92.0053 113.525C90.4362 110.779 90.1186 114.73 89.8089 116.037C89.7058 116.473 89.8381 117.019 89.6825 116.259C89.4885 115.31 89.2995 114.364 89.1137 113.414C88.6743 111.169 88.1126 112.821 87.739 114.315C87.044 117.095 87.2273 113.434 86.3327 113.098C85.455 112.769 85.3966 116.826 84.6262 114.9"
            stroke="#D279E0" stroke-width="2" stroke-linecap="round" />
        <path id="Vector 121"
            d="M78.6533 118.597C78.0469 118.026 77.0332 116.515 76.2358 116.338C75.1658 116.1 76.5685 119.534 76.6466 119.924C76.7898 120.64 76.5182 118.442 76.22 117.775C75.9277 117.122 74.9559 116.211 74.9559 115.468C74.9559 115.14 75.7438 115.518 75.9671 115.437C76.776 115.143 76.6624 114.158 76.6624 113.478"
            stroke="#D279E0" stroke-width="2" stroke-linecap="round" />
        <path id="Vector 122"
            d="M66.4237 112.055C66.3976 111.612 65.8101 109.059 66.3447 109.622C66.5609 109.85 67.7828 112.273 68.2724 111.566C69.0273 110.475 68.7763 109.351 69.9632 111.329C71.0902 113.207 70.69 109.455 70.69 108.69C70.69 107.393 70.9654 110.007 70.9744 110.349C71.0155 111.909 71.4772 109.984 71.6065 109.496C71.8509 108.572 72.551 109.282 72.9654 108.737C73.7829 107.661 73.7814 108.197 74.6719 108.642"
            stroke="#D279E0" stroke-width="2" stroke-linecap="round" />
        <path id="Vector 123"
            d="M74.9561 99.8254C74.4273 99.9576 74.4424 101.426 74.2609 101.88C74.2257 101.967 73.2219 103.791 73.7236 103.618C74.606 103.312 75.2978 102.322 75.8094 101.595C76.4786 100.644 75.8495 101.699 75.8094 102.101C75.6656 103.539 77.7716 99.9669 77.8003 100.742C77.8406 101.83 78.0171 102.883 78.0847 103.965C78.1119 104.4 78.3691 102.935 78.3691 102.67"
            stroke="#D279E0" stroke-width="2" stroke-linecap="round" />
        <path id="Vector 124"
            d="M89.4614 98.4032C90.0428 99.1139 90.299 99.9966 90.3146 100.9C90.3461 102.726 89.9568 100.954 89.5246 100.173C89.4363 100.013 88.1657 97.9637 88.1657 98.498C88.1657 99.8201 89.0095 101.273 89.1611 102.638C89.3946 104.739 87.6914 100.324 87.2492 100.015C86.3179 99.363 87.4159 102.294 87.6916 103.396C87.8115 103.876 88.7708 106.947 87.8813 105.087C87.4017 104.084 86.7609 103.284 86.633 102.132C86.6002 101.838 86.6172 100.859 86.6172 100.9C86.6172 101.684 87.0868 107.442 85.7007 104.818C85.1067 103.694 84.6516 102.492 84.0574 101.374C83.7044 100.709 83.4886 102.774 83.4886 103.112C83.4886 104.041 83.8684 105.799 82.9197 104.376"
            stroke="#D279E0" stroke-width="2" stroke-linecap="round" />
        <path id="Vector 125"
            d="M71.5438 102.101C72.3211 101.712 71.5535 98.685 71.8282 99.5094C72.2425 100.752 71.9456 102.211 72.1285 103.491C72.2897 104.62 72.6778 102.675 72.6815 102.448C72.6973 101.484 72.6278 99.7464 72.9817 98.8615C73.0657 98.6515 73.2192 99.2499 73.2977 99.462C73.59 100.251 74.0972 100.934 74.5144 101.658C74.895 102.319 76.5483 105.308 77.4534 104.439C78.1413 103.779 77.7861 102.567 78.4015 101.864C78.9655 101.219 79.2713 101.927 79.792 102.101"
            stroke="#D279E0" stroke-width="2" stroke-linecap="round" />
        <path id="Vector 126"
            d="M70.1213 112.909C70.1213 111.836 68.8921 111.389 68.1145 110.886C67.4761 110.473 66.253 108.293 65.8708 108.516C65.0641 108.986 65.8491 110.495 66.1394 111.076C66.5662 111.929 66.7932 112.055 67.7827 112.055C69.2388 112.055 73.2782 110.893 73.5185 109.211C73.6605 108.217 70.6901 108.218 70.6901 109.496"
            stroke="#D279E0" stroke-width="2" stroke-linecap="round" />
        <path id="Vector 127"
            d="M80.6445 119.166C78.8413 118.312 78.938 118.352 78.938 120.24C78.938 121.379 80.0757 120.253 80.0757 119.45"
            stroke="#D279E0" stroke-width="2" stroke-linecap="round" />
    </g>
    <g id="Butterfly1">
        <path id="Vector 142"
            d="M93.7031 78.7174C92.8891 77.1707 90.8244 75.8178 89.0946 75.4519C88.5524 75.3372 87.82 74.8948 87.3038 74.9252C86.2429 74.9876 88.2749 83.6536 88.6074 85.1167C88.7306 85.6587 88.694 86.2042 88.9102 86.7231C89.194 87.4042 90.058 84.8921 90.148 84.6822C90.9674 82.77 91.9451 80.9539 92.6234 78.9807C93.1158 77.5484 93.8794 76.1916 94.5195 74.8199C94.7245 74.3805 95.5876 71.8751 96.1259 72.5288C97.4401 74.1246 98.1724 76.1609 99.049 78.0064C99.7955 79.5778 100.568 81.5666 100.866 83.2733C100.911 83.5277 101.367 85.3308 101.116 85.1957C100.208 84.7065 99.71 84.123 99.1017 83.3259C98.1703 82.1055 97.1854 80.5917 96.0601 79.5601C95.2705 78.8364 94.886 77.6637 94.164 76.8213C93.3858 75.9134 92.9092 74.6799 92.2811 73.648C91.8017 72.8605 91.1407 72.1257 90.5035 71.4885C89.9414 70.9265 89.1202 71.0135 88.7259 70.422"
            stroke="#FF8412" stroke-width="2" stroke-linecap="round" />
        <path id="Vector 143"
            d="M93.4665 76.8214C93.4665 74.5535 94.1 71.1762 93.2295 69"
            stroke="#FF8412" stroke-width="2" stroke-linecap="round" />
        <path id="Vector 144"
            d="M88.4893 76.8214C89.0504 78.0685 89.6439 79.4742 89.9113 80.8111C90.2094 82.3014 90.4338 81.0451 90.5697 80.2976C90.7038 79.56 90.9126 79.3175 91.2149 78.6122C91.6393 77.6219 91.9751 78.784 92.5184 79.1915"
            stroke="#FF8412" stroke-width="2" stroke-linecap="round" />
        <path id="Vector 145"
            d="M95.3623 77.7693C95.3623 76.6364 94.9306 75.0128 96.3367 76.2683C97.2258 77.0622 98.4434 78.1261 98.4434 79.4284"
            stroke="#FF8412" stroke-width="2" stroke-linecap="round" />
    </g>
    <g id="Sun1">
        <path id="Vector_3"
            d="M88.7612 4.40853C88.5839 3.6105 85.7987 3.26601 85.155 3.13727C83.1579 2.73785 80.7393 2.90314 78.8765 3.70804C77.1064 4.47292 76.1405 5.34155 75.8022 7.23643C75.5356 8.72908 75.2421 11.6554 75.9319 13.0349C77.3853 15.9418 80.8835 17.6673 84.0005 17.9383C86.096 18.1206 90.4612 19.9841 92.0302 17.7178C93.3597 15.7974 95.1187 10.3171 92.1599 8.89684C90.9218 8.30257 88.9409 8.04641 87.5937 7.92394C86.5108 7.8255 85.4353 7.44398 84.3507 7.44398C83.4636 7.44398 82.292 7.2463 82.2233 8.48174C82.169 9.45983 82.0883 10.5637 82.5736 11.4264C83.3658 12.8348 84.9543 12.51 85.9593 13.5149M70.0818 4.64195C68.559 4.56181 67.1948 3.6596 65.6454 3.48745C64.9608 3.41138 64.2338 3.47447 63.5439 3.47447M69.8482 12.1139C68.9392 12.1139 67.9442 12.2999 67.0982 12.6328C66.0296 13.0532 65.1432 12.9033 64.0627 13.0998C63.3181 13.2351 61.8666 13.8126 61.4424 14.4488M71.4829 20.5198C70.6235 20.7842 69.7815 21.6472 69.122 22.2321C68.67 22.6329 68.792 23.1245 68.4475 23.5552C68.0486 24.0538 68.333 24.6609 67.9805 25.1897M80.8224 23.0882C79.7313 23.4519 80.3554 28.2981 80.3554 29.3926M88.7617 25.1897C89.2968 25.3235 89.07 29.2647 89.1768 29.9375C89.3867 31.26 90.4221 32.4713 91.0967 33.5956"
            stroke="#FFE812" stroke-width="4" stroke-linecap="round" />
    </g>
    <path id="Cloud1"
        d="M12.4083 21.4537C18.0196 21.4537 23.5657 21.2202 29.1681 21.2202C30.4096 21.2202 33.8899 21.1099 33.8899 19.2225C33.8899 17.4698 34.0709 15.7027 33.4748 14.0337C32.7444 11.9886 30.3751 11.6469 28.5066 11.6469C27.4461 11.6469 26.3047 11.764 25.2506 11.6469C24.8162 11.5986 23.8634 9.03037 23.4864 8.61144C22.9234 7.98586 22.4886 6.97697 21.5146 6.97697C20.0669 6.97697 19.1025 7.39153 18.0122 8.24823C16.8938 9.12695 16.6112 10.3401 16.6112 11.6988C16.6112 12.0407 16.8281 13.6582 16.3648 13.7354C15.355 13.9037 14.9622 12.5896 14.1725 12.2306C12.8047 11.6089 10.4659 12.6246 10.3068 14.2154C10.1013 16.2701 9.47818 17.5805 11.5781 18.535C12.0895 18.7675 13.5826 19.2531 13.9909 18.548C14.4645 17.73 13.3048 15.8677 14.9767 16.1352C16.1384 16.3211 16.994 17.5008 18.116 17.7048C20.0348 18.0537 22.2525 17.7178 24.1998 17.7178C26.1194 17.7178 29.0697 18.2164 30.9064 17.5362C32.415 16.9774 30.1576 15.9454 29.687 15.8369C28.1595 15.4843 26.685 14.9028 25.1338 14.5656C24.1952 14.3615 23.0798 14.1683 22.2151 13.7484C21.225 13.2674 20.9758 12.4851 20.3472 11.6469"
        stroke="white" stroke-width="4" stroke-linecap="round" />
</svg>