<svg>
    <g id="Bee2">
        <path id="Vector 153"
            d="M46.3879 89.9307C46.0533 89.9307 45.7602 90.0117 45.4759 90.1983C44.8945 90.5798 44.7389 90.7656 44.6035 91.4425C44.4427 92.2463 44.4748 93.0109 44.9802 93.678C45.3715 94.1946 45.8517 94.5703 46.5713 94.5703C46.9928 94.5703 47.5007 94.6649 47.8552 94.4117C48.1185 94.2235 48.3562 93.9805 48.6185 93.8119C49.104 93.4998 49.404 93.4104 49.9767 93.4104C50.2198 93.4104 50.5041 93.4917 50.7252 93.5938C50.8878 93.6688 51.0347 93.8314 51.2159 93.8515C51.4552 93.8781 51.6654 93.8589 51.9 93.9259C52.3592 94.0571 53.5492 94.101 53.9769 93.8069C54.593 93.3833 55.3103 92.7221 55.3103 91.9233C55.3103 90.7675 55.1551 89.4954 54.19 88.7509C53.2132 87.9973 51.5148 88.3246 50.3782 88.3246C49.1408 88.3246 47.8572 88.2049 46.6556 88.5229C46.1708 88.6512 45.599 88.9501 45.3371 89.3953C45.2359 89.5673 45.012 89.6192 44.8711 89.7522C44.6175 89.9917 44.5227 90.2364 44.3854 90.5503C44.2868 90.7755 44.1697 91.2146 43.9987 91.3582C43.8898 91.4497 43.8355 91.6299 43.7112 91.6953C43.5692 91.77 43.4155 91.7523 43.2651 91.849C42.6453 92.2474 42.0793 92.5913 41.7483 93.2716C41.5482 93.6828 41.2749 94.2086 41.2179 94.6645C41.1724 95.029 40.9453 95.3585 40.9453 95.7302"
            stroke="#FFE812" stroke-width="2" stroke-linecap="round" />
        <path id="Vector 154"
            d="M45.4951 94.5703C45.2639 94.3648 45.0308 94.7243 44.8904 94.8876C44.5578 95.2743 44.5137 95.5155 44.5137 96.0177C44.5137 96.2981 44.5359 98.3512 44.9598 98.1393"
            stroke="#FFE812" stroke-width="2" stroke-linecap="round" />
        <path id="Vector 155"
            d="M46.2984 91.269C46.7181 91.9153 47.129 92.5876 47.3542 93.3311C47.5058 93.8313 47.4583 92.6684 47.4583 92.5876C47.4583 92.2893 47.2152 89.2557 48.1721 89.9951C48.9536 90.599 49.5333 93.0776 48.192 93.3906C47.83 93.475 47.7113 92.2709 47.6963 92.1018C47.6052 91.0738 47.7531 89.6064 48.4894 88.8104C49.0214 88.2353 49.3584 88.6891 49.5105 89.2367C49.7317 90.0329 49.8997 90.8121 49.1536 91.3781C48.607 91.7927 47.6182 92.222 47.0172 91.621C46.3146 90.9184 47.8201 90.2412 48.2911 90.7436C48.8087 91.2957 48.0649 92.6837 47.6764 93.0981C47.1772 93.6306 46.501 93.8455 45.8226 93.5888C44.8242 93.2111 44.5662 91.448 45.5549 90.8477C46.4978 90.2752 48.1471 90.5552 49.2032 90.5552C49.661 90.5552 50.6784 90.3501 51.1165 90.5949C51.4638 90.789 51.2901 91.5858 51.1958 91.8688C51.0394 92.338 50.601 92.4681 50.1499 92.5132C49.9876 92.5294 49.831 92.5478 49.798 92.3496C49.6509 91.467 50.1746 90.8026 50.7894 90.238C51.4832 89.6008 52.2488 89.4284 52.1822 90.5602C52.1666 90.8267 51.5889 92.6854 51.1165 92.0126C50.8133 91.5807 50.8787 90.698 51.0422 90.2281C51.2396 89.6604 51.9792 89.7918 52.3954 90.0397C53.0946 90.4563 53.7932 91.6211 53.7932 92.3397"
            stroke="#FFE812" stroke-width="2" stroke-linecap="round" />
        <path id="Vector 156"
            d="M49.0645 87.9678C49.8623 89.3179 50.3136 90.5323 50.3136 92.1216C50.3136 92.643 50.2976 93.0642 49.9666 93.4897C49.8432 93.6484 49.8912 93.7891 49.689 93.8565"
            stroke="black" stroke-width="2" stroke-linecap="round" />
        <path id="Vector 157"
            d="M53.0801 88.5923C53.1904 88.9783 53.437 89.2477 53.437 89.6729C53.437 90.3701 53.437 91.0674 53.437 91.7647C53.437 92.468 53.6076 93.2397 53.0801 93.7672"
            stroke="black" stroke-width="2" stroke-linecap="round" />
        <path id="Vector 158"
            d="M47.1904 87.3432C47.1904 86.0312 47.9508 85.2117 48.3949 84.0766C48.8094 83.0175 50.1089 82.4359 51.1857 82.4359C51.5637 82.4359 51.9365 82.447 52.2663 82.659C52.4946 82.8057 52.5438 83.7729 52.5438 84.037C52.5438 84.4862 52.7161 84.8691 52.4348 85.2911C52.1605 85.7025 51.9228 86.1096 51.5624 86.451C51.309 86.6911 50.9779 86.7985 50.6503 86.8921C49.98 87.0836 51.9912 86.4617 52.5835 86.0941C53.3158 85.6396 54.0219 85.4695 54.8835 85.4695C55.1831 85.4695 55.8451 86.1903 55.8451 86.5402C55.8451 87.4177 55.0274 87.824 54.3283 88.057"
            stroke="black" stroke-width="2" stroke-linecap="round" />
        <path id="Vector 159"
            d="M45.1386 88.2354C44.4455 88.2354 43.5081 88.3314 43.0964 87.6108C42.763 87.0273 42.9006 86.4091 43.1063 85.8263C43.4307 84.9073 45.1484 84.7967 45.9416 85.0233"
            stroke="black" stroke-width="2" stroke-linecap="round" />
        <path id="Vector 160"
            d="M45.9413 84.0419C45.571 83.9493 46.5279 83.2409 46.6055 83.2042C46.9189 83.0557 47.3064 83.1925 47.6365 83.0604"
            stroke="black" stroke-width="2" stroke-linecap="round" />
        <path id="Vector"
            d="M61.4474 95L61.1206 95M62.6458 95.6537C62.7151 95.3767 63.0618 95.9161 63.1906 95.9805M63.7353 97.3969C63.7893 97.2348 64.0334 97.8554 64.0622 97.9416M64.0622 99.5758C64.0459 99.9668 63.7747 100.151 63.6264 100.447M62.6458 102.082C62.2564 102.117 62.14 102.444 61.7743 102.517M59.8132 103.825C59.517 103.825 59.2378 103.934 58.9416 103.934M57.3074 105.132C57.1406 105.299 57.0124 105.489 56.8716 105.677M56 108.074L56 107.311M56.2179 109.599C56.2179 109.825 56.1237 110.26 56.3268 110.362M56.6537 112.214C56.8446 112.429 56.9805 112.582 56.9805 112.868M57.8521 114.066C58.1226 114.126 58.3971 114.502 58.5058 114.72M59.7042 116.136C59.9167 116.148 60.0691 116.246 60.249 116.354M61.3385 117.443C61.5465 117.443 61.629 117.516 61.7743 117.661"
            stroke="#010101" stroke-linecap="round" />
        <path id="Vector 211"
            d="M59.248 93.6609C59.6089 93.6609 59.8948 93.8543 60.2286 93.9878"
            stroke="#010101" stroke-linecap="round" />
        <path id="Vector 212"
            d="M57.1787 92.3536C57.4303 92.3787 57.6376 92.5343 57.8324 92.6804"
            stroke="#010101" stroke-linecap="round" />
        <path id="Vector 213" d="M56.4153 91.7L55.9795 91.7" stroke="#010101"
            stroke-linecap="round" />
    </g>
    <g id="Butterfly2">
        <path id="Vector 161"
            d="M82.796 75.0389C81.5818 75.0389 81.0348 73.5304 79.9814 73.2294C79.759 73.1659 79.2063 72.7233 79.1772 73.1015C79.1284 73.7351 79.0127 74.3192 79.0127 74.9657C79.0127 76.282 79.1772 77.605 79.1772 78.9044C79.1772 79.8447 79.0811 80.7125 79.4331 81.582C79.7709 82.4166 80.3467 83.7424 81.3065 82.4228C81.682 81.9064 81.643 81.2305 81.7725 80.6316C81.9403 79.8558 82.2964 79.1035 82.4305 78.3287C82.6561 77.0255 82.6944 76.0985 83.3626 74.8835C83.9879 73.7467 84.5416 72.5073 85.2543 71.4383C86.0689 70.2164 87.2396 69.0054 88.8092 69.2907C89.9784 69.5033 89.8749 72.925 89.9972 73.796C90.1829 75.1195 90.1982 76.5053 90.1982 77.8444C90.1982 78.8889 90.5871 79.942 90.5272 80.9606C90.4747 81.8523 87.6828 80.3619 87.4018 79.8C86.9529 78.9022 86.0202 78.2957 85.5559 77.5062C85.0512 76.6482 83.8457 76.5115 83.454 75.5323"
            stroke="#FF8412" stroke-width="2" stroke-linecap="round" />
        <path id="Vector 162"
            d="M82.4666 74.3809C82.4666 72.8773 82.4131 69.7475 80.6206 68.9892C79.6329 68.5713 78.7596 67.8266 77.6963 67.4722"
            stroke="#FF8412" stroke-width="2" stroke-linecap="round" />
        <path id="Vector 163"
            d="M83.4536 74.7099C83.4536 72.5045 83.4536 70.299 83.4536 68.0936C83.4536 67.7864 83.6029 66.997 83.4262 66.732C83.1994 66.3917 82.5403 65.6325 82.1377 65.4983"
            stroke="#FF8412" stroke-width="2" stroke-linecap="round" />
        <path id="Vector 164"
            d="M84.1113 75.0389C84.6387 74.8631 84.9174 73.5671 85.1897 73.1381C86.0187 71.8317 86.4998 75.4409 86.5787 75.9893C86.6496 76.4814 86.6591 77.9563 86.7615 77.4697C86.9368 76.637 87.1428 75.8238 87.3646 75.0023C87.5091 74.4672 87.669 73.9312 87.8033 73.3939C87.876 73.1032 87.7996 72.6004 87.9769 72.3521C88.0345 72.2715 88.0592 73.3427 88.0592 73.4488C88.0592 74.0306 88.0592 74.6124 88.0592 75.1942C88.0592 76.6777 88.326 75.773 88.4704 74.8104C88.6038 73.921 88.6998 73.0145 88.7171 72.1145C88.7199 71.9683 88.7891 71.5542 88.708 71.6759C88.4136 72.1175 88.1354 72.5836 87.8947 73.0649"
            stroke="#FF8412" stroke-width="2" stroke-linecap="round" />
        <path id="Vector 165"
            d="M81.3147 75.0389C80.7545 76.1593 80.9857 77.4747 80.9857 78.7035C80.9857 79.3158 80.4922 80.0595 80.4922 80.9607"
            stroke="#FF8412" stroke-width="2" stroke-linecap="round" />
    </g>
    <g id="Flower2">
        <path id="Vector 166"
            d="M88.5527 141.494C88.9833 141.44 89.5601 139.348 89.7773 138.944C90.0568 138.425 90.0332 137.787 90.0332 137.217C90.0332 136.619 90.2939 136.062 90.4444 135.49C90.6039 134.884 90.5549 134.211 90.7277 133.635C91.0534 132.549 91.328 131.543 91.3491 130.382C91.3608 129.74 91.5297 129.183 91.7147 128.572C91.8789 128.03 91.9305 127.292 92.1716 126.781C93.8972 123.127 93.8165 118.842 93.8165 114.846"
            stroke="#5C9F44" stroke-width="2" stroke-linecap="round" />
        <path id="Vector 167"
            d="M89.211 141.988C88.7192 141.926 89.6791 139.275 89.741 138.99C89.8969 138.273 90.4173 137.693 90.7645 137.062C91.1408 136.378 91.4059 135.638 91.852 134.997C93.3317 132.87 96.1234 131.624 98.6693 131.624C98.9656 131.624 99.6416 131.5 99.8664 131.734C100.375 132.263 100.322 133.713 100.479 134.403C100.671 135.251 100.493 136.241 100.195 137.053C99.9417 137.746 99.7113 138.482 99.4095 139.155C99.1632 139.703 98.5571 140.031 98.1667 140.471C97.7651 140.922 96.774 141.977 96.1928 142.143C95.2306 142.418 94.2932 142.751 93.4055 143.221C92.7142 143.587 91.8882 143.517 91.1483 143.797C90.8516 143.909 89.8033 144.224 90.1979 143.632"
            stroke="#5C9F44" stroke-width="2" stroke-linecap="round" />
        <path id="Vector 168"
            d="M89.2106 139.52C89.143 138.911 87.9678 137.328 87.4378 136.961C86.6315 136.403 84.69 136.724 83.7549 136.724C81.4003 136.724 78.6855 136.509 76.6361 137.875C76.1796 138.179 74.1504 138.962 74.1504 139.52C74.1504 140.179 75.0667 141.325 75.4755 141.823C76.1911 142.694 76.9209 143.754 77.8972 144.327C79.5216 145.28 81.3882 145.442 83.2249 145.442C84.6234 145.442 86.2399 145.661 87.584 145.277C88.1001 145.13 88.5221 144.935 89.0096 144.747C89.7399 144.466 89.0173 144.162 88.7172 143.961"
            stroke="#5C9F44" stroke-width="2" stroke-linecap="round" />
        <path id="Vector 169"
            d="M76.2158 139.849C77.2596 140.517 78.4772 141.988 79.7524 141.988C80.9005 141.988 81.9337 142.365 83.0331 142.609C83.9159 142.805 85.013 142.646 85.9209 142.646C86.9016 142.646 87.4013 142.531 87.4013 141.494"
            stroke="#5C9F44" stroke-width="2" stroke-linecap="round" />
        <path id="Vector 170"
            d="M81.9726 137.875C81.9726 139.18 82.3338 143.1 80.4922 143.468"
            stroke="#5C9F44" stroke-width="2" stroke-linecap="round" />
        <path id="Vector 171"
            d="M85.5923 138.369C85.7229 139.887 85.9492 141.47 85.5009 142.956C85.3085 143.594 84.6736 144.09 84.2764 144.619"
            stroke="#5C9F44" stroke-width="2" stroke-linecap="round" />
        <path id="Vector 172"
            d="M92.0068 142.81C93.2318 141.585 94.0548 140.491 94.721 138.862C95.0838 137.975 95.6496 136.945 96.2014 136.148C96.9629 135.048 98.076 134.117 98.751 133.105"
            stroke="#5C9F44" stroke-width="2" stroke-linecap="round" />
        <path id="Vector 173"
            d="M91.3496 137.217C91.7782 137.217 92.2356 137.595 92.5011 137.912C93.2572 138.815 93.8167 139.325 94.8131 139.94C96.0077 140.678 98.328 141.5 96.9424 139.191"
            stroke="#5C9F44" stroke-width="2" stroke-linecap="round" />
        <path id="Vector 174"
            d="M94.6387 133.598C95.3888 135.651 96.4838 138.04 98.9155 138.04"
            stroke="#5C9F44" stroke-width="2" stroke-linecap="round" />
        <path id="Vector 175"
            d="M93.8162 114.024C93.0496 114.024 92.0632 113.417 91.6778 112.781C91.4451 112.397 91.1843 112.419 91.1843 111.922C91.1843 111.498 91.1843 111.075 91.1843 110.652C91.1843 108.923 92.5371 106.577 94.5107 106.621C96.6049 106.669 97.0241 110.131 96.5303 111.712C95.976 113.485 94.0492 114.489 92.2626 113.622C90.547 112.788 89.5152 110.328 90.9376 108.687C91.7874 107.706 92.6658 107.937 93.8893 107.937C95.2644 107.937 95.873 108.264 95.7901 109.838C95.7617 110.379 94.6696 111.984 94.1086 112.178C93.0702 112.536 91.8423 112.61 91.8423 111.3C91.8423 110.523 91.9316 109.98 92.8201 109.92C93.1437 109.899 93.7653 109.747 93.807 110.185C93.8511 110.648 93.8162 111.128 93.8162 111.593C93.8162 111.989 93.8162 110.801 93.8162 110.405"
            stroke="#FFE812" stroke-width="2" stroke-linecap="round" />
        <path id="Vector 176"
            d="M90.0337 108.431C89.0979 107.495 87.7607 107.181 87.0363 106C86.402 104.967 85.9655 103.933 85.5102 102.82C84.9769 101.516 85.475 100.92 86.0128 99.7951C86.5085 98.7585 87.5393 98.6853 88.5533 98.7259C89.7002 98.7718 90.7006 100.307 91.4228 101.029C92.227 101.833 92.9456 102.843 93.2322 103.99C93.3456 104.443 93.4881 104.919 93.4881 105.388C93.4881 105.764 93.4881 106.385 93.4881 105.635C93.4881 104.033 93.9909 101.593 94.9776 100.298C95.5777 99.5101 96.8416 99.3838 97.7649 99.3838C98.189 99.3838 98.7286 99.2936 99.1357 99.4021C99.6543 99.5404 99.7219 100.35 100.068 100.663C101.358 101.832 101.68 105.074 99.9855 106.055C99.5602 106.301 99.4072 106.632 98.9163 106.795C98.7767 106.842 98.2888 107.28 98.3863 107.28C99.2156 107.28 100.15 107.15 100.963 107.307C101.559 107.422 102.115 107.797 102.7 107.974C103.526 108.224 103.287 109.593 103.367 110.231C103.473 111.078 103.687 111.788 103.687 112.671C103.687 115.128 99.2678 114.769 97.9294 113.951C97.5546 113.722 97.2935 113.722 97.1069 113.302C97.0303 113.129 97.4211 114.075 97.5181 114.261C97.8189 114.84 98.3077 115.343 98.6605 115.897C99.13 116.635 99.0946 117.235 99.0808 118.099C99.0415 120.576 96.093 123.795 93.5795 123.555C92.2345 123.427 91.8629 121.672 91.8431 120.603C91.8251 119.629 91.5061 117.928 92.0899 117.085C92.2464 116.859 92.3887 116.604 92.5834 116.409C92.9419 116.05 92.3363 116.444 92.1721 116.491C90.8263 116.876 89.2312 117.755 87.8222 117.807C86.8705 117.842 85.4885 118.007 84.6055 117.606C83.3642 117.042 82.488 115.601 82.0558 114.353C81.6494 113.179 81.3533 111.824 81.9736 110.661C82.5179 109.64 83.9659 109.399 84.971 109.052C86.6662 108.468 88.7298 108.595 90.5272 108.595"
            stroke="#D279E0" stroke-width="2" stroke-linecap="round" />
        <path id="Vector 177"
            d="M90.0337 115.34C88.3138 115.196 86.9291 113.676 86.9083 112.013C86.9049 111.74 86.7056 109.963 87.1825 110.551C87.9809 111.535 88.2978 112.766 89.266 113.622C90.1511 114.404 88.7985 115.072 88.0598 115.011C87.0334 114.925 85.4389 113.633 85.766 112.488C85.7805 112.438 86.5957 114.029 86.6433 114.289C86.7238 114.727 87.1021 116.637 86.3235 116.637C84.1817 116.637 84.6703 113.965 84.4409 112.589C84.34 111.984 85.6901 113.684 85.9122 113.923C86.6254 114.693 87.3263 115.431 87.8861 116.327C88.2531 116.914 88.7411 117.708 89.5585 117.606C90.2815 117.516 91.1851 116.763 91.1851 115.998"
            stroke="#D279E0" stroke-width="2" stroke-linecap="round" />
        <path id="Vector 178"
            d="M95.1329 118.794C94.0357 118.882 94.6946 120.49 94.0546 121.188C93.1887 122.133 93.4836 119.523 93.5246 119.196C93.7776 117.172 95.5152 118.181 96.5768 118.922C97.2705 119.406 98.3512 119.871 97.5272 120.896C96.6659 121.967 95.8297 121.885 95.2791 120.768C94.6529 119.497 94.1778 118.366 95.0598 117.149C95.0885 117.109 96.2688 115.44 96.2113 116.418C96.2013 116.587 95.4619 116.589 95.4619 116.162"
            stroke="#D279E0" stroke-width="2" stroke-linecap="round" />
        <path id="Vector 179"
            d="M97.4355 112.543C97.4355 110.873 97.6697 109.315 99.7384 109.783C100.762 110.015 100.878 111.212 100.89 112.068C100.892 112.207 100.986 113.407 100.506 112.927C100.229 112.65 100.375 111.599 100.396 111.264C100.447 110.472 101.193 109.991 101.84 109.656C102.197 109.471 101.813 110.408 101.676 110.533C101.517 110.677 100.92 110.569 100.725 110.569"
            stroke="#D279E0" stroke-width="2" stroke-linecap="round" />
        <path id="Vector 180"
            d="M96.6127 105.964C95.5792 105.791 93.9852 104.208 94.5017 103.003C94.7408 102.445 96.0143 102.679 96.4391 102.774C97.1513 102.934 98.0142 103.733 98.084 104.501C98.1117 104.805 98.2369 105.589 98.0749 105.872C97.8394 106.284 97.4081 105.701 97.3621 105.497C97.2436 104.973 96.944 102.099 98.1937 102.208C98.6638 102.249 99.0669 102.6 99.0801 103.076C99.0961 103.651 99.0788 103.813 98.8425 103.222C98.6339 102.701 98.4222 102.255 98.4222 101.687C98.4222 101.234 98.0303 101.452 97.7276 101.285C95.0139 99.7874 97.1049 104.315 97.4352 105.141"
            stroke="#D279E0" stroke-width="2" stroke-linecap="round" />
        <path id="Vector 181"
            d="M98.4225 112.379C98.1045 111.924 99.1547 110.324 99.4826 109.939C99.7721 109.598 99.7928 109.188 99.9761 108.769C100.348 107.919 101.842 109.791 101.219 110.569"
            stroke="#D279E0" stroke-width="2" stroke-linecap="round" />
        <path id="Vector 182"
            d="M102.37 113.859C102.41 113.503 102.689 113.264 102.699 112.872C102.711 112.434 102.699 111.994 102.699 111.556"
            stroke="#D279E0" stroke-width="2" stroke-linecap="round" />
        <path id="Vector 183"
            d="M90.0334 106.951C88.5625 106.683 87.566 104.886 87.566 103.496C87.566 103.003 88.1392 102.536 88.6261 102.509C89.4904 102.463 89.7205 103.641 90.1065 104.209C90.4694 104.743 90.4336 104.999 89.7593 104.977C88.7884 104.944 87.6319 104.267 87.1639 103.405C86.8964 102.912 85.1568 100.598 86.3323 100.289C86.7772 100.172 87.3326 99.8956 87.7854 99.8956C88.0292 99.8956 87.6468 100.137 87.6391 100.142C87.266 100.428 87.0109 100.94 86.8167 101.358C86.4814 102.079 86.2276 103.513 86.3506 104.3C86.498 105.244 87.3671 105.762 88.0961 106.256C88.6922 106.66 90.4363 106.905 91.1118 106.585C91.2913 106.5 91.1749 105.772 91.2032 105.616C91.3143 105.005 91.8428 104.623 91.8428 103.99"
            stroke="#D279E0" stroke-width="2" stroke-linecap="round" />
    </g>
    <g id="Sun2">
        <path id="Vector_2"
            d="M83.9617 9.19519C86.0353 9.19519 89.7863 12.6817 89.1765 14.2672C88.715 15.4669 86.3079 15.8178 85.2459 16.0833C83.6644 16.4787 82.4263 16.4053 81.056 15.7201C79.9342 15.1592 78.7992 13.2363 78.254 12.1139C77.4567 10.4724 77.1749 8.90185 77.5665 7.1067C77.8643 5.74192 78.9487 3.94153 80.5371 3.94153L83.9617 3.94153C85.3594 3.94153 86.4103 4.64202 87.8144 4.64202C89.0997 4.64202 90.3129 5.15533 91.5114 5.52411C93.2944 6.07273 95.5328 6.85373 95.5328 9.19519C95.5328 10.1445 95.3528 10.97 95.2993 11.8804C95.2766 12.2651 94.4952 13.1187 94.3523 13.6186C93.9127 15.1572 93.1122 16.881 92.4973 18.4183M70.5486 8.14439C68.3533 8.14439 66.188 8.37789 64.0107 8.37789M71.4826 15.3828C69.7658 16.1677 67.9771 16.6695 66.4625 17.8475C65.7086 18.4339 64.8281 19.1771 64.0107 19.5858M76.3865 19.8192C76.3256 21.4043 75.545 23.1087 75.0893 24.6058C74.7294 25.7885 74.5186 26.7549 74.5186 27.9915M84.7918 22.3877C84.2163 23.1071 84.5282 24.8457 84.6102 25.6567C84.7639 27.1769 85.4923 28.558 85.4923 30.0931M93.8984 23.3216C93.8984 25.8143 94.527 28.1166 94.8324 30.56"
            stroke="#FFE812" stroke-width="4" stroke-linecap="round" />
    </g>
    <path id="Cloud2"
        d="M17.3823 21.5552C14.9892 21.5552 13.9471 17.8069 14.6841 15.8995C15.6752 13.3342 17.6719 11.2814 20.6512 11.2814C21.7791 11.2814 22.8043 11.0479 23.9202 11.0479C24.7449 11.0479 26.4834 12.6185 27.0853 11.5149C27.6536 10.4731 28.0215 8.7167 29.5241 8.47946C30.5845 8.31203 31.3566 7.54548 32.4557 7.54548C34.562 7.54548 36.529 8.66052 36.529 10.9182C36.529 11.8007 38.0614 11.0479 38.7601 11.0479C40.226 11.0479 40.3822 12.3843 41.4324 12.9678C43.3859 14.053 42.1725 17.3797 40.9654 18.5198C38.9133 20.4579 36.4355 20.9978 33.74 21.3347C32.4204 21.4997 31.1297 22.2557 29.7576 22.2557C28.4344 22.2557 27.1113 22.2557 25.7881 22.2557C23.8219 22.2557 20.5317 21.94 19.367 20.1283C18.5013 18.7817 19.0569 16.6931 19.834 15.4843C20.457 14.5152 22.4088 14.2203 23.4402 13.9796C26.3151 13.3088 29.0197 12.6257 31.8071 11.6965C33.024 11.2909 33.3736 13.2801 34.0643 14.1353C34.7156 14.9417 36.2487 15.1932 37.2294 15.2509C37.8941 15.2899 36.6259 16.1094 36.529 16.1848C35.7392 16.7991 35.0092 17.5531 34.1421 18.0528C32.7488 18.8557 30.6891 19.6873 29.0571 19.6873C27.3646 19.6873 23.6867 20.5057 23.6867 17.7026C23.6867 16.5434 24.6661 16.6051 25.5546 16.1848C26.6494 15.667 27.9241 14.7839 29.1738 14.7839C30.3802 14.7839 31.5866 14.7839 32.793 14.7839"
        stroke="white" stroke-width="4" stroke-linecap="round" />
</svg>