<svg width="220" height="70" viewBox="0 0 220 70" fill="none" xmlns="http://www.w3.org/2000/svg">
<g id="not-full-screen">
<path id="expand" d="M136.989 28H118.992C117.33 28 115.993 26.6625 115.993 25V7C115.993 5.7875 116.718 4.6875 117.843 4.225C118.967 3.7625 120.255 4.0125 121.117 4.875L126.116 9.875L135.277 0.7125C135.739 0.25 136.351 0 136.989 0C137.626 0 138.239 0.25 138.701 0.7125L143.288 5.3C143.738 5.75 143.988 6.3625 143.988 7C143.988 7.6375 143.738 8.25 143.275 8.7125L134.114 17.875L139.113 22.875C139.976 23.7375 140.226 25.025 139.763 26.15C139.301 27.275 138.201 28 136.989 28ZM136.989 42C138.201 42 139.301 42.725 139.763 43.85C140.226 44.975 139.976 46.2625 139.113 47.125L134.114 52.125L143.288 61.3C143.738 61.75 144 62.3625 144 63.0125C144 63.6625 143.75 64.2625 143.288 64.725L138.701 69.3125C138.239 69.75 137.626 70 136.989 70C136.351 70 135.739 69.75 135.277 69.2875L126.116 60.125L121.117 65.125C120.255 65.9875 118.967 66.2375 117.843 65.775C116.718 65.3125 115.993 64.2125 115.993 63V45C115.993 43.3375 117.33 42 118.992 42H136.989ZM98.9951 42C100.657 42 101.995 43.3375 101.995 45V63C101.995 64.2125 101.27 65.3125 100.145 65.775C99.0201 66.2375 97.7329 65.9875 96.8705 65.125L91.8715 60.125L82.7108 69.2875C82.2484 69.75 81.636 70 80.9986 70C80.3613 70 79.7489 69.75 79.2865 69.2875L74.7124 64.7125C74.25 64.25 74 63.6375 74 63C74 62.3625 74.25 61.75 74.7124 61.2875L83.8731 52.125L78.874 47.125C78.0117 46.2625 77.7618 44.975 78.2242 43.85C78.6866 42.725 79.7864 42 80.9986 42H98.9951ZM80.9986 28C79.7864 28 78.6866 27.275 78.2242 26.15C77.7618 25.025 78.0117 23.7375 78.874 22.875L83.8731 17.875L74.7124 8.7125C74.25 8.25 74 7.6375 74 7C74 6.3625 74.25 5.75 74.7124 5.2875L79.2865 0.7125C79.7489 0.25 80.3613 0 80.9986 0C81.636 0 82.2484 0.25 82.7108 0.7125L91.8715 9.875L96.8705 4.875C97.7329 4.0125 99.0201 3.7625 100.145 4.225C101.27 4.6875 101.995 5.7875 101.995 7V25C101.995 26.6625 100.657 28 98.9951 28H80.9986Z" fill="#898989"/>
<path id="shirink" d="M50.9889 34H32.9924C31.3302 34 29.993 32.6625 29.993 31V13C29.993 11.7875 30.7178 10.6875 31.8426 10.225C32.9674 9.7625 34.2546 10.0125 35.117 10.875L40.116 15.875L49.2767 6.7125C49.7391 6.25 50.3515 6 50.9889 6C51.6262 6 52.2386 6.25 52.701 6.7125L57.2876 11.3C57.7376 11.75 57.9875 12.3625 57.9875 13C57.9875 13.6375 57.7376 14.25 57.2751 14.7125L48.1144 23.875L53.1135 28.875C53.9758 29.7375 54.2257 31.025 53.7633 32.15C53.3009 33.275 52.2011 34 50.9889 34ZM50.9889 36C52.2011 36 53.3009 36.725 53.7633 37.85C54.2257 38.975 53.9758 40.2625 53.1135 41.125L48.1144 46.125L57.2876 55.3C57.7376 55.75 58 56.3625 58 57.0125C58 57.6625 57.7501 58.2625 57.2876 58.725L52.701 63.3125C52.2386 63.75 51.6262 64 50.9889 64C50.3515 64 49.7391 63.75 49.2767 63.2875L40.116 54.125L35.117 59.125C34.2546 59.9875 32.9674 60.2375 31.8426 59.775C30.7178 59.3125 29.993 58.2125 29.993 57V39C29.993 37.3375 31.3302 36 32.9924 36H50.9889ZM24.9951 36C26.6573 36 27.9945 37.3375 27.9945 39V57C27.9945 58.2125 27.2697 59.3125 26.1449 59.775C25.0201 60.2375 23.7329 59.9875 22.8705 59.125L17.8715 54.125L8.7108 63.2875C8.24839 63.75 7.63601 64 6.99863 64C6.36126 64 5.74888 63.75 5.28647 63.2875L0.712361 58.7125C0.249951 58.25 0 57.6375 0 57C0 56.3625 0.249951 55.75 0.712361 55.2875L9.87307 46.125L4.87405 41.125C4.01172 40.2625 3.76177 38.975 4.22417 37.85C4.68658 36.725 5.78637 36 6.99863 36H24.9951ZM6.99863 34C5.78637 34 4.68658 33.275 4.22417 32.15C3.76177 31.025 4.01172 29.7375 4.87405 28.875L9.87307 23.875L0.712361 14.7125C0.249951 14.25 0 13.6375 0 13C0 12.3625 0.249951 11.75 0.712361 11.2875L5.28647 6.7125C5.74888 6.25 6.36126 6 6.99863 6C7.63601 6 8.24839 6.25 8.7108 6.7125L17.8715 15.875L22.8705 10.875C23.7329 10.0125 25.0201 9.7625 26.1449 10.225C27.2697 10.6875 27.9945 11.7875 27.9945 13V31C27.9945 32.6625 26.6573 34 24.9951 34H6.99863Z" fill="#353535"/>
<path id="normal" d="M212.989 31H194.992C193.33 31 191.993 29.6625 191.993 28V10C191.993 8.7875 192.718 7.6875 193.843 7.225C194.967 6.7625 196.255 7.0125 197.117 7.875L202.116 12.875L211.277 3.7125C211.739 3.25 212.351 3 212.989 3C213.626 3 214.239 3.25 214.701 3.7125L219.288 8.3C219.738 8.75 219.988 9.3625 219.988 10C219.988 10.6375 219.738 11.25 219.275 11.7125L210.114 20.875L215.113 25.875C215.976 26.7375 216.226 28.025 215.763 29.15C215.301 30.275 214.201 31 212.989 31ZM212.989 39C214.201 39 215.301 39.725 215.763 40.85C216.226 41.975 215.976 43.2625 215.113 44.125L210.114 49.125L219.288 58.3C219.738 58.75 220 59.3625 220 60.0125C220 60.6625 219.75 61.2625 219.288 61.725L214.701 66.3125C214.239 66.75 213.626 67 212.989 67C212.351 67 211.739 66.75 211.277 66.2875L202.116 57.125L197.117 62.125C196.255 62.9875 194.967 63.2375 193.843 62.775C192.718 62.3125 191.993 61.2125 191.993 60V42C191.993 40.3375 193.33 39 194.992 39H212.989ZM180.995 39C182.657 39 183.995 40.3375 183.995 42V60C183.995 61.2125 183.27 62.3125 182.145 62.775C181.02 63.2375 179.733 62.9875 178.871 62.125L173.872 57.125L164.711 66.2875C164.248 66.75 163.636 67 162.999 67C162.361 67 161.749 66.75 161.286 66.2875L156.712 61.7125C156.25 61.25 156 60.6375 156 60C156 59.3625 156.25 58.75 156.712 58.2875L165.873 49.125L160.874 44.125C160.012 43.2625 159.762 41.975 160.224 40.85C160.687 39.725 161.786 39 162.999 39H180.995ZM162.999 31C161.786 31 160.687 30.275 160.224 29.15C159.762 28.025 160.012 26.7375 160.874 25.875L165.873 20.875L156.712 11.7125C156.25 11.25 156 10.6375 156 10C156 9.3625 156.25 8.75 156.712 8.2875L161.286 3.7125C161.749 3.25 162.361 3 162.999 3C163.636 3 164.248 3.25 164.711 3.7125L173.872 12.875L178.871 7.875C179.733 7.0125 181.02 6.7625 182.145 7.225C183.27 7.6875 183.995 8.7875 183.995 10V28C183.995 29.6625 182.657 31 180.995 31H162.999Z" fill="#636363"/>
</g>
</svg>
