<svg width="48" height="48" viewBox="0 0 65 58" fill="none" xmlns="http://www.w3.org/2000/svg">
<path d="M47.9994 25.8476C52.243 25.8476 56.3128 27.5308 59.3135 30.5269C62.3142 33.523 64 37.5866 64 41.8237C64 46.0608 62.3142 50.1244 59.3135 53.1205C56.3128 56.1166 52.243 57.7998 47.9994 57.7998C43.7558 57.7998 39.686 56.1166 36.6853 53.1205C33.6846 50.1244 31.9988 46.0608 31.9988 41.8237C31.9988 37.5866 33.6846 33.523 36.6853 30.5269C39.686 27.5308 43.7558 25.8476 47.9994 25.8476ZM47.9994 52.4744C48.7067 52.4744 49.385 52.1939 49.8851 51.6945C50.3852 51.1952 50.6662 50.5179 50.6662 49.8118C50.6662 49.1056 50.3852 48.4283 49.8851 47.9289C49.385 47.4296 48.7067 47.1491 47.9994 47.1491C47.2921 47.1491 46.6138 47.4296 46.1137 47.9289C45.6136 48.4283 45.3326 49.1056 45.3326 49.8118C45.3326 50.5179 45.6136 51.1952 46.1137 51.6945C46.6138 52.1939 47.2921 52.4744 47.9994 52.4744ZM40.888 36.6758V37.3859C40.888 38.3622 41.688 39.161 42.6659 39.161C43.6437 39.161 44.4437 38.3622 44.4437 37.3859V36.6758C44.4437 36.0878 44.9215 35.6108 45.5104 35.6108H50.0106C50.8662 35.6108 51.5551 36.2986 51.5551 37.1529C51.5551 37.7298 51.2329 38.2513 50.7328 38.5175L47.1771 40.3814C46.5882 40.6921 46.2215 41.2912 46.2215 41.9568V43.5988C46.2215 44.5751 47.0216 45.3739 47.9994 45.3739C48.9772 45.3739 49.7772 44.5751 49.7772 43.5988V43.033L52.3884 41.6684C54.0663 40.7919 55.1108 39.0501 55.1108 37.164C55.1108 34.346 52.8218 32.0716 50.0106 32.0716H45.5104C42.9548 32.0716 40.888 34.1352 40.888 36.6869V36.6758Z" fill="black"/>
<path d="M13.9613 2.35957C14.9585 1.36087 16.3109 0.799805 17.7211 0.799805C19.1313 0.799805 20.4837 1.36087 21.4809 2.35957C22.478 3.35827 23.0382 4.7128 23.0382 6.12517C23.0382 7.53755 22.478 8.89208 21.4809 9.89078C20.4837 10.8895 19.1313 11.4505 17.7211 11.4505C16.3109 11.4505 14.9585 10.8895 13.9613 9.89078C12.9642 8.89208 12.404 7.53755 12.404 6.12517C12.404 5.82577 12.4292 5.52897 12.4783 5.23761H7.75143L6.6437 4.12816V3.01871L7.75143 2.35957H13.9613Z" fill="black"/>
<path fill-rule="evenodd" clip-rule="evenodd" d="M16.8349 39.8525V54.0535C16.8349 56.0172 15.2509 57.6037 13.2902 57.6037C11.3295 57.6037 9.74542 56.0172 9.74542 54.0535V29.3016L6.5773 34.5826C5.56926 36.2579 3.38703 36.8015 1.71435 35.7919C0.04167 34.7823 -0.501119 32.5967 0.506919 30.9214L6.96501 20.1597C8.89247 16.9534 12.3486 14.9897 16.0817 14.9897H19.3716C23.1047 14.9897 26.5608 16.9534 28.4883 20.1597L33.7389 29.3016C32.004 30.8907 30.9314 31.4678 30.0295 35.6108L25.6968 29.3016V54.0535C25.6968 56.0172 24.1127 57.6037 22.152 57.6037C20.1914 57.6037 18.6073 56.0172 18.6073 54.0535V39.8525H16.8349ZM12.1824 22.9888L11.0746 28.5361H12.1824L13.2901 25.2077L14.3978 28.5361H16.6133L17.721 25.2077L18.8288 28.5361H19.9365L18.8288 22.9888H16.6133L15.5056 27.4266L14.3978 22.9888H12.1824ZM20.6753 28.5361V22.9888H24.6139V24.0983H22.152V25.2077H24.6139V26.3172H22.152V27.4266H24.6139V28.5361H20.6753Z" fill="black"/>
</svg>
