<svg width="48" height="48" viewBox="0 0 32 58" fill="none" xmlns="http://www.w3.org/2000/svg">
<g clip-path="url(#clip0_568_8260)">
<path d="M8.64286 11C9.90714 11 10.9286 12.0055 10.9286 13.25V15.5H20.0714V13.25C20.0714 12.0055 21.0929 11 22.3571 11C23.6214 11 24.6429 12.0055 24.6429 13.25V15.5H28.0714C29.9643 15.5 31.5 17.0117 31.5 18.875V22.25H-0.5V18.875C-0.5 17.0117 1.03571 15.5 2.92857 15.5H6.35714V13.25C6.35714 12.0055 7.37857 11 8.64286 11ZM-0.5 24.5H31.5V43.625C31.5 45.4883 29.9643 47 28.0714 47H2.92857C1.03571 47 -0.5 45.4883 -0.5 43.625V24.5ZM4.07143 30.125V32.375C4.07143 32.9938 4.58571 33.5 5.21429 33.5H7.5C8.12857 33.5 8.64286 32.9938 8.64286 32.375V30.125C8.64286 29.5062 8.12857 29 7.5 29H5.21429C4.58571 29 4.07143 29.5062 4.07143 30.125ZM13.2143 30.125V32.375C13.2143 32.9938 13.7286 33.5 14.3571 33.5H16.6429C17.2714 33.5 17.7857 32.9938 17.7857 32.375V30.125C17.7857 29.5062 17.2714 29 16.6429 29H14.3571C13.7286 29 13.2143 29.5062 13.2143 30.125ZM23.5 29C22.8714 29 22.3571 29.5062 22.3571 30.125V32.375C22.3571 32.9938 22.8714 33.5 23.5 33.5H25.7857C26.4143 33.5 26.9286 32.9938 26.9286 32.375V30.125C26.9286 29.5062 26.4143 29 25.7857 29H23.5ZM4.07143 39.125V41.375C4.07143 41.9938 4.58571 42.5 5.21429 42.5H7.5C8.12857 42.5 8.64286 41.9938 8.64286 41.375V39.125C8.64286 38.5062 8.12857 38 7.5 38H5.21429C4.58571 38 4.07143 38.5062 4.07143 39.125ZM14.3571 38C13.7286 38 13.2143 38.5062 13.2143 39.125V41.375C13.2143 41.9938 13.7286 42.5 14.3571 42.5H16.6429C17.2714 42.5 17.7857 41.9938 17.7857 41.375V39.125C17.7857 38.5062 17.2714 38 16.6429 38H14.3571ZM22.3571 39.125V41.375C22.3571 41.9938 22.8714 42.5 23.5 42.5H25.7857C26.4143 42.5 26.9286 41.9938 26.9286 41.375V39.125C26.9286 38.5062 26.4143 38 25.7857 38H23.5C22.8714 38 22.3571 38.5062 22.3571 39.125Z" fill="black"/>
</g>
<defs>
<clipPath id="clip0_568_8260">
<rect width="32" height="58" fill="white"/>
</clipPath>
</defs>
</svg>
