<svg>
    <g id="Flower1">
        <path id="Vector 109"
            d="M81.7558 98.7726C83.2349 98.5877 83.0963 89.0479 83.1621 87.5696C83.2239 86.1777 83.1779 84.7758 83.1779 83.3823C83.1779 82.2506 82.609 81.417 82.609 80.3011C82.609 79.3156 82.0597 78.4554 82.0402 77.4411C82.0253 76.6688 81.9115 75.9021 81.4713 75.2289C80.8557 74.2873 79.7716 73.7504 78.9116 72.8904"
            stroke="#5C9F44" stroke-width="2" stroke-linecap="round" />
        <path id="Vector 110"
            d="M81.1863 98.2038C83.8243 97.9107 78.614 88.8781 77.3624 87.8541C75.131 86.0284 72.0575 86.2582 69.2407 86.2582C66.2988 86.2582 71.4187 96.3459 72.2271 97.6034C73.0599 98.8989 75.6011 99.4725 77.0464 99.6101C77.9429 99.6955 80.2849 99.9584 80.9019 99.3415"
            stroke="#5C9F44" stroke-width="2" stroke-linecap="round" />
        <path id="Vector 111"
            d="M82.6086 98.4882C83.6727 98.2754 83.9015 96.7688 84.3783 95.9916C84.9619 95.0406 85.8941 94.2941 86.5905 93.4319C87.4915 92.3163 90.3741 92.0347 91.71 91.4409C92.5895 91.05 94.1449 91.3777 95.1231 91.3777C96.115 91.3777 97.3984 90.9709 97.3984 92.231C97.3984 94.5873 95.3298 96.9697 94.2698 98.9306C93.3595 100.615 91.7389 101.655 89.9403 102.186C88.7264 102.544 86.7289 102.735 85.4528 102.407C83.7394 101.966 82.5124 100.885 80.9021 100.195"
            stroke="#5C9F44" stroke-width="2" stroke-linecap="round" />
        <path id="Vector 112"
            d="M77.4889 70.0463C77.7004 69.0949 79.5993 68.6643 79.7485 67.4707C80.009 65.387 78.4592 64.4697 76.9833 63.5047C76.2948 63.0545 73.5699 62.2569 72.9382 63.1254C71.8446 64.6291 71.7113 66.5551 71.8005 68.3398C71.8805 69.9379 77.739 70.0959 77.7734 69.4775C77.8649 67.8301 77.9344 63.4784 75.0714 65.069C74.0767 65.6215 74.0759 66.3575 74.0759 67.4233C74.0759 68.7664 75.8918 68.4347 76.8885 68.324C78.7153 68.121 76.7036 65.7507 76.0668 65.4324C74.3315 64.5647 72.8855 63.6912 73.6651 66.4753C74.1822 68.322 74.6798 68.9289 76.2249 67.2021C77.294 66.0072 74.5657 65.887 73.9653 66.3488C73.202 66.936 72.5474 67.8609 74.0759 67.7709C75.2834 67.6999 74.539 63.3612 72.9382 65.4956"
            stroke="#FFE812" stroke-width="2" stroke-linecap="round" />
        <path id="Vector 113"
            d="M96.8301 93.0842C96.6504 93.8926 93.8944 95.6707 93.2906 96.197C91.8201 97.4791 90.2655 98.7518 88.2817 99.057C87.3322 99.2031 86.7385 99.6259 85.7377 99.6259C85.0295 99.6259 84.4266 99.3415 83.7468 99.3415"
            stroke="#5C9F44" stroke-width="2" stroke-linecap="round" />
        <path id="Vector 114"
            d="M82.6094 98.7727C79.7465 98.2521 77.6947 95.428 75.8465 93.4319C75.1012 92.627 74.7157 91.7403 73.6502 91.2356C72.9416 90.8999 71.8014 89.9263 71.8014 89.1024"
            stroke="#5C9F44" stroke-width="2" stroke-linecap="round" />
        <path id="Vector 115" d="M77.7734 89.3868C77.7734 92.045 77.489 94.7264 77.489 97.3506"
            stroke="#5C9F44" stroke-width="2" stroke-linecap="round" />
        <path id="Vector 116" d="M75.2141 88.5334C75.2141 90.7527 75.778 93.3735 74.0764 95.0751"
            stroke="#5C9F44" stroke-width="2" stroke-linecap="round" />
        <path id="Vector 117" d="M92.2783 93.6531C90.5167 95.5748 90.2495 98.9813 91.4251 101.332"
            stroke="#5C9F44" stroke-width="2" stroke-linecap="round" />
        <path id="Vector 118" d="M86.5908 95.6439C84.7523 95.6439 85.4531 100.842 85.4531 102.186"
            stroke="#5C9F44" stroke-width="2" stroke-linecap="round" />
        <path id="Vector 119"
            d="M78.9111 63.5046C80.7232 63.5046 83.4447 63.9159 84.7417 62.3195C85.6859 61.1575 85.4527 59.7152 85.4527 58.3218C85.4527 57.086 85.8682 55.0215 85.0261 53.9924C84.4212 53.253 82.0345 52.862 81.1232 53.0443C77.0775 53.8534 76.3513 57.901 76.3513 61.5769C76.3513 62.1123 76.2912 62.6888 76.3671 63.2202C76.53 64.3604 76.6477 61.7386 76.6199 61.4189C76.5179 60.2455 76.1071 59.3591 75.5297 58.3693C74.9537 57.3819 75.0317 56.4357 74.1866 55.5409C73.336 54.6403 70.4113 53.591 69.1776 53.5499C68.5118 53.5277 66.2083 53.201 65.6698 53.7395C62.6134 56.7959 63.3589 62.6513 68.2296 62.6513C69.2149 62.6513 70.8833 62.9744 71.8006 62.5881C72.3099 62.3737 72.4331 61.9587 72.7645 61.5611C73.5088 60.6679 70.5187 62.1905 69.3672 62.3511C66.6428 62.7313 63.7251 62.2418 61.1191 63.0938C59.5773 63.5978 57.1438 64.7684 57.0108 66.6964C56.8404 69.1676 58.7337 70.3325 60.9927 70.5835C62.2854 70.7271 65.257 71.0745 66.3334 70.1095C67.3223 69.2229 67.9175 68.5047 68.4192 67.3759C68.6033 66.9616 69.4606 67.4669 69.5252 66.9176C69.6361 65.9757 69.0342 67.0351 68.8932 67.3285C68.0205 69.1436 67.4312 72.0258 67.2657 74.0123C67.1545 75.3463 67.5394 77.169 69.0196 77.6624C70.8101 78.2592 72.7635 78.5788 74.6448 78.5788C75.3328 78.5788 76.2852 78.7957 76.4935 77.9626C76.7514 76.9312 76.6954 75.6848 76.6199 74.6286C76.5677 73.8967 75.6247 72.1842 74.9292 71.816C74.5863 71.6344 74.1599 71.5261 73.7915 71.3419C72.779 70.8357 73.5754 71.1814 74.076 71.5C78.2975 74.1864 82.2277 74.8814 87.1592 74.8814C88.432 74.8814 91.71 73.45 91.71 72.1004C91.71 70.6413 90.8359 69.4895 89.7032 68.64C88.2991 67.5869 86.3452 66.1412 84.6627 65.5587C83.7613 65.2467 82.4245 65.4955 81.4709 65.4955"
            stroke="#D279E0" stroke-width="2" stroke-linecap="round" />
        <path id="Vector 120"
            d="M90.0029 70.3307C90.0029 70.829 88.9121 72.3894 88.644 71.7528C88.3041 70.9455 88.4567 69.9528 88.0752 69.0982C87.5873 68.0054 87.0306 70.6161 86.8901 71.0259C86.8037 71.2781 86.5899 72.738 86.5899 72.4006C86.5899 71.4216 86.5009 70.3922 86.0053 69.5248C84.4362 66.7789 84.1186 70.7297 83.8089 72.0372C83.7058 72.4724 83.8381 73.0192 83.6825 72.2584C83.4885 71.31 83.2995 70.3641 83.1137 69.4142C82.6743 67.1688 82.1126 68.8205 81.739 70.3149C81.044 73.0949 81.2273 69.4337 80.3327 69.0982C79.455 68.7691 79.3966 72.8257 78.6262 70.8995"
            stroke="#D279E0" stroke-width="2" stroke-linecap="round" />
        <path id="Vector 121"
            d="M72.6533 74.597C72.0469 74.0262 71.0332 72.5146 70.2358 72.3374C69.1658 72.0996 70.5685 75.5337 70.6466 75.9243C70.7898 76.6404 70.5182 74.4419 70.22 73.7753C69.9277 73.122 68.9559 72.2108 68.9559 71.4684C68.9559 71.1395 69.7438 71.518 69.9671 71.4368C70.776 71.1426 70.6624 70.1578 70.6624 69.4774"
            stroke="#D279E0" stroke-width="2" stroke-linecap="round" />
        <path id="Vector 122"
            d="M60.4237 68.0553C60.3976 67.6117 59.8101 65.0592 60.3447 65.6219C60.5609 65.8495 61.7828 68.2728 62.2724 67.5655C63.0273 66.4751 62.7763 65.3504 63.9632 67.3285C65.0902 69.2069 64.69 65.4551 64.69 64.6897C64.69 63.3924 64.9654 66.0069 64.9744 66.3488C65.0155 67.9084 65.4772 65.984 65.6065 65.4955C65.8509 64.5721 66.551 65.2823 66.9654 64.7371C67.7829 63.6613 67.7814 64.197 68.6719 64.6423"
            stroke="#D279E0" stroke-width="2" stroke-linecap="round" />
        <path id="Vector 123"
            d="M68.9561 55.8253C68.4273 55.9575 68.4424 57.4255 68.2609 57.8795C68.2257 57.9673 67.2219 59.7912 67.7236 59.6176C68.606 59.3121 69.2978 58.322 69.8094 57.595C70.4786 56.6441 69.8495 57.6994 69.8094 58.1007C69.6656 59.5384 71.7716 55.9668 71.8003 56.7418C71.8406 57.83 72.0171 58.8828 72.0847 59.9652C72.1119 60.4001 72.3691 58.9351 72.3691 58.6695"
            stroke="#D279E0" stroke-width="2" stroke-linecap="round" />
        <path id="Vector 124"
            d="M83.4614 54.4031C84.0428 55.1138 84.299 55.9965 84.3146 56.8996C84.3461 58.7261 83.9568 56.9541 83.5246 56.1728C83.4363 56.0132 82.1657 53.9636 82.1657 54.4979C82.1657 55.8199 83.0095 57.2732 83.1611 58.6378C83.3946 60.7385 81.6914 56.3244 81.2492 56.0148C80.3179 55.3629 81.4159 58.2934 81.6916 59.3962C81.8115 59.8757 82.7708 62.9469 81.8813 61.0869C81.4017 60.0842 80.7609 59.2836 80.633 58.1321C80.6002 57.8376 80.6172 56.859 80.6172 56.8996C80.6172 57.684 81.0868 63.442 79.7007 60.8183C79.1067 59.694 78.6516 58.4921 78.0574 57.3737C77.7044 56.7092 77.4886 58.7738 77.4886 59.1118C77.4886 60.0409 77.8684 61.7989 76.9197 60.3759"
            stroke="#D279E0" stroke-width="2" stroke-linecap="round" />
        <path id="Vector 125"
            d="M65.5438 58.1006C66.3211 57.712 65.5535 54.6848 65.8282 55.5092C66.2425 56.7521 65.9456 58.2113 66.1285 59.4911C66.2897 60.6195 66.6778 58.6749 66.6815 58.4482C66.6973 57.4839 66.6278 55.7463 66.9817 54.8614C67.0657 54.6514 67.2192 55.2497 67.2977 55.4618C67.59 56.2509 68.0972 56.9335 68.5144 57.6582C68.895 58.3192 70.5483 61.3081 71.4534 60.4392C72.1413 59.7789 71.7861 58.5669 72.4015 57.8636C72.9655 57.2191 73.2713 57.9271 73.792 58.1006"
            stroke="#D279E0" stroke-width="2" stroke-linecap="round" />
        <path id="Vector 126"
            d="M64.1213 68.9085C64.1213 67.8357 62.8921 67.389 62.1145 66.8859C61.4761 66.4728 60.253 64.2928 59.8708 64.5158C59.0641 64.9863 59.8491 66.495 60.1394 67.0755C60.5662 67.9292 60.7932 68.0552 61.7827 68.0552C63.2388 68.0552 67.2782 66.8929 67.5185 65.211C67.6605 64.2171 64.6901 64.2175 64.6901 65.4954"
            stroke="#D279E0" stroke-width="2" stroke-linecap="round" />
        <path id="Vector 127"
            d="M74.6445 75.1657C72.8413 74.3115 72.938 74.3515 72.938 76.2402C72.938 77.3791 74.0757 76.2529 74.0757 75.4501"
            stroke="#D279E0" stroke-width="2" stroke-linecap="round" />
    </g>
    <g id="Butterfly1">
        <path id="Vector 142"
            d="M87.7578 44.219C86.9438 42.6723 84.879 41.3194 83.1493 40.9535C82.6071 40.8388 81.8747 40.3964 81.3585 40.4268C80.2976 40.4892 82.3296 49.1552 82.6621 50.6183C82.7853 51.1603 82.7487 51.7058 82.9649 52.2247C83.2487 52.9058 84.1127 50.3937 84.2026 50.1837C85.0221 48.2716 85.9998 46.4554 86.6781 44.4823C87.1705 43.0499 87.9341 41.6932 88.5742 40.3215C88.7792 39.8821 89.6423 37.3767 90.1806 38.0303C91.4948 39.6262 92.2271 41.6625 93.1037 43.5079C93.8502 45.0794 94.6228 47.0682 94.9208 48.7749C94.9652 49.0292 95.4219 50.8324 95.171 50.6973C94.2626 50.2081 93.7647 49.6246 93.1564 48.8275C92.225 47.6071 91.2401 46.0932 90.1148 45.0617C89.3252 44.3379 88.9407 43.1652 88.2187 42.3229C87.4405 41.415 86.9639 40.1815 86.3357 39.1496C85.8564 38.3621 85.1954 37.6273 84.5582 36.9901C83.9961 36.4281 83.1749 36.5151 82.7806 35.9236"
            stroke="#FF8412" stroke-width="2" stroke-linecap="round" />
        <path id="Vector 143" d="M87.5212 42.323C87.5212 40.0551 88.1547 36.6778 87.2842 34.5016"
            stroke="#FF8412" stroke-width="2" stroke-linecap="round" />
        <path id="Vector 144"
            d="M82.5439 42.323C83.1051 43.57 83.6986 44.9758 83.966 46.3127C84.2641 47.803 84.4885 46.5467 84.6244 45.7992C84.7585 45.0616 84.9673 44.8191 85.2696 44.1137C85.694 43.1235 86.0298 44.2856 86.5731 44.6931"
            stroke="#FF8412" stroke-width="2" stroke-linecap="round" />
        <path id="Vector 145"
            d="M89.417 43.2709C89.417 42.138 88.9853 40.5144 90.3914 41.7699C91.2805 42.5638 92.4981 43.6277 92.4981 44.93"
            stroke="#FF8412" stroke-width="2" stroke-linecap="round" />
    </g>
    <g id="Bee1">
        <path id="Vector 146"
            d="M58.6506 59.454C58.5452 58.9796 56.3467 58.6037 55.8696 58.4999C54.9944 58.3097 54.2816 58.1921 53.6366 58.8958C52.7842 59.8256 52.1699 61.5462 53.5351 62.3366C54.1743 62.7067 54.4359 62.7054 55.1794 62.7426C55.7686 62.7721 56.1833 63.3718 56.8237 63.4633C57.9527 63.6246 59.7468 64.2174 59.7468 62.5599C59.7468 60.9908 60.31 60.4273 58.5796 59.9006C57.3319 59.5209 56.3787 59.0886 55.0373 59.0886C53.2809 59.0886 55.0064 61.0358 55.829 61.2709C56.7775 61.5419 57.7926 61.2571 58.6506 61.8291"
            stroke="#FFE812" stroke-width="2" stroke-linecap="round" />
        <path id="Vector 147" d="M54.2663 58.3578C53.9662 56.4071 52.3485 55.6173 50.6123 55.6173"
            stroke="#FFE812" stroke-width="2" stroke-linecap="round" />
        <path id="Vector 148"
            d="M52.8049 59.454C52.177 59.454 51.4476 59.0188 50.7952 58.8653C49.7722 58.6246 49.0163 58.7681 48.0547 59.0886"
            stroke="#FFE812" stroke-width="2" stroke-linecap="round" />
        <path id="Vector 149"
            d="M57.9203 57.9924C57.9203 57.1378 57.6552 55.8638 58.4075 55.262C59.2231 54.6096 60.6217 54.3216 61.6656 54.5414C62.6149 54.7412 62.5487 56.1755 62.4776 56.886C62.3999 57.6634 61.3194 58.1703 60.6506 58.3375C59.7231 58.5693 61.6431 57.627 62.2036 57.627C62.6736 57.627 63.6901 57.4052 63.9088 57.9518C64.0931 58.4126 64.7949 59.5716 64.1321 59.9615C63.4194 60.3807 62.3654 60.1848 61.5743 60.1848"
            stroke="#151515" stroke-width="2" stroke-linecap="round" />
        <path id="Vector 150"
            d="M55.5454 57.0789C54.7383 56.9892 54.8971 55.6621 54.6319 55.0692C54.3866 54.5208 54.2095 53.4783 54.8552 53.2016C55.7503 52.818 55.9353 52.435 56.9664 52.5114C57.7269 52.5677 57.6272 53.3503 57.9205 53.7903"
            stroke="#151515" stroke-width="2" stroke-linecap="round" />
        <path id="Vector 151" d="M56.4063 59.3273C56.4063 60.757 56.2867 62.0951 55.7275 63.3998"
            stroke="#151515" stroke-width="2" stroke-linecap="round" />
        <path id="Vector 152"
            d="M58.7818 60.4303C58.7818 61.1625 58.7818 61.8947 58.7818 62.6268C58.7818 63.1034 58.5893 63.4681 58.4424 63.9089"
            stroke="#151515" stroke-width="2" stroke-linecap="round" />
        <path id="Vector_3"
            d="M61.5021 63.5016L61.1753 63.5016M62.7005 64.1553C62.7698 63.8783 63.1165 64.4177 63.2453 64.4821M63.79 65.8985C63.844 65.7364 64.0881 66.357 64.1169 66.4432M64.1169 68.0774C64.1006 68.4684 63.8294 68.6524 63.6811 68.949M62.7005 70.5832C62.3111 70.6186 62.1947 70.9459 61.8289 71.019M59.8679 72.3264C59.5717 72.3264 59.2925 72.4353 58.9963 72.4353M57.3621 73.6338C57.1953 73.8005 57.0671 73.9908 56.9263 74.1785M56.0547 76.5754L56.0547 75.8127M56.2726 78.1007C56.2726 78.3265 56.1784 78.7617 56.3815 78.8633M56.7084 80.7154C56.8993 80.9302 57.0352 81.0836 57.0352 81.3691M57.9068 82.5675C58.1772 82.6276 58.4518 83.0039 58.5605 83.2212M59.7589 84.6376C59.9714 84.65 60.1238 84.7475 60.3037 84.8554M61.3932 85.9449C61.6012 85.9449 61.6837 86.0176 61.8289 86.1628"
            stroke="#010101" stroke-linecap="round" />
    </g>
    <g id="Sun1">
        <path id="Vector_4"
            d="M88.7612 4.40841C88.5839 3.61038 85.7987 3.26589 85.155 3.13715C83.1579 2.73773 80.7393 2.90301 78.8765 3.70792C77.1064 4.4728 76.1405 5.34143 75.8022 7.2363C75.5356 8.72895 75.2421 11.6552 75.9319 13.0348C77.3853 15.9416 80.8835 17.6672 84.0005 17.9382C86.096 18.1204 90.4612 19.984 92.0302 17.7177C93.3597 15.7973 95.1187 10.317 92.1599 8.89672C90.9218 8.30245 88.9409 8.04629 87.5937 7.92382C86.5108 7.82538 85.4353 7.44386 84.3507 7.44386C83.4636 7.44386 82.292 7.24618 82.2233 8.48162C82.169 9.45971 82.0883 10.5636 82.5736 11.4263C83.3658 12.8346 84.9543 12.5098 85.9593 13.5148M70.0818 4.64183C68.559 4.56168 67.1948 3.65948 65.6454 3.48732C64.9608 3.41125 64.2338 3.47435 63.5439 3.47435M69.8482 12.1138C68.9392 12.1138 67.9442 12.2998 67.0982 12.6326C66.0296 13.053 65.1432 12.9032 64.0627 13.0996C63.3181 13.235 61.8666 13.8125 61.4424 14.4487M71.4829 20.5196C70.6235 20.7841 69.7815 21.6471 69.122 22.2319C68.67 22.6327 68.792 23.1244 68.4475 23.5551C68.0486 24.0537 68.333 24.6608 67.9805 25.1896M80.8224 23.088C79.7313 23.4517 80.3554 28.2979 80.3554 29.3924M88.7617 25.1896C89.2968 25.3234 89.07 29.2646 89.1768 29.9373C89.3867 31.2599 90.4221 32.4711 91.0967 33.5955"
            stroke="#FFE812" stroke-width="4" stroke-linecap="round" />
    </g>
    <path id="Cloud1"
        d="M12.4083 21.4536C18.0196 21.4536 23.5657 21.2201 29.1681 21.2201C30.4096 21.2201 33.8899 21.1098 33.8899 19.2224C33.8899 17.4696 34.0709 15.7026 33.4748 14.0336C32.7444 11.9884 30.3751 11.6468 28.5066 11.6468C27.4461 11.6468 26.3047 11.7639 25.2506 11.6468C24.8162 11.5985 23.8634 9.03025 23.4864 8.61132C22.9234 7.98573 22.4886 6.97685 21.5146 6.97685C20.0669 6.97685 19.1025 7.39141 18.0122 8.24811C16.8938 9.12683 16.6112 10.3399 16.6112 11.6987C16.6112 12.0406 16.8281 13.658 16.3648 13.7353C15.355 13.9036 14.9622 12.5895 14.1725 12.2305C12.8047 11.6088 10.4659 12.6245 10.3068 14.2152C10.1013 16.27 9.47818 17.5804 11.5781 18.5349C12.0895 18.7674 13.5826 19.253 13.9909 18.5479C14.4645 17.7298 13.3048 15.8676 14.9767 16.1351C16.1384 16.321 16.994 17.5007 18.116 17.7047C20.0348 18.0536 22.2525 17.7177 24.1998 17.7177C26.1194 17.7177 29.0697 18.2163 30.9064 17.5361C32.415 16.9773 30.1576 15.9453 29.687 15.8367C28.1595 15.4842 26.685 14.9027 25.1338 14.5655C24.1952 14.3614 23.0798 14.1682 22.2151 13.7482C21.225 13.2673 20.9758 12.4849 20.3472 11.6468"
        stroke="white" stroke-width="4" stroke-linecap="round" />
</svg>