<svg width="168" height="168" viewBox="0 0 168 168" fill="none" xmlns="http://www.w3.org/2000/svg">
<g id="Property 1=DONE">
<g id="back">
<path d="M4 0L28 18H4V0Z" fill="#4E7540"/>
<path d="M146 160V136L164 160H146Z" fill="#4E7540"/>
</g>
<g id="Wrapper" filter="url(#filter0_d_540_2212)">
<path d="M164 73.1424L90 3.75918e-06L4 0C45.6573 43.5697 119.5 117.07 164 160V73.1424Z" fill="#5C9F44"/>
</g>
<path id="status" d="M82.4124 15.593C81.9152 16.2393 81.3186 16.9851 80.6225 17.8303C79.9265 18.7252 79.1683 19.6575 78.3479 20.627C77.5276 21.5965 76.6575 22.566 75.7377 23.5355C74.8428 24.5299 73.9354 25.487 73.0156 26.4067C71.7478 27.6746 70.5048 28.7932 69.2867 29.7627C68.0686 30.782 66.9748 31.5277 66.0053 32.0001C65.5081 32.2487 65.1477 32.4848 64.9239 32.7086C64.551 33.0815 64.3397 33.4419 64.29 33.7899C64.2403 34.1877 64.3397 34.5109 64.5883 34.7594C65.0358 35.2069 65.7816 35.2566 66.8257 34.9086C68.2178 36.3007 69.8461 37.4815 71.7105 38.451C73.5998 39.4454 75.5264 40.1042 77.4903 40.4274C79.479 40.7754 81.418 40.7257 83.3073 40.2782C85.1718 39.8556 86.8125 38.9358 88.2294 37.5188C89.2984 36.4499 90.0939 35.1821 90.6159 33.7154C91.138 32.2487 91.4239 30.7447 91.4736 29.2034C91.5233 27.6621 91.3369 26.1333 90.9142 24.6169C90.4916 23.1502 89.8702 21.8575 89.0498 20.7388C88.6769 20.4157 88.2792 20.3162 87.8566 20.4405C87.4091 20.5897 87.0486 20.801 86.7752 21.0744C86.5763 21.2733 86.4396 21.5095 86.365 21.7829C86.2904 22.1061 86.3401 22.4044 86.5142 22.6779C87.1108 23.6225 87.5458 24.679 87.8193 25.8474C88.0927 27.0655 88.1797 28.2712 88.0803 29.4644C88.0057 30.6825 87.7571 31.8261 87.3345 32.895C86.9119 34.0137 86.3153 34.9583 85.5447 35.729C84.6497 36.6239 83.5186 37.1832 82.1514 37.407C80.7593 37.6555 79.3174 37.6307 77.8259 37.3324C76.3343 37.0838 74.8676 36.5866 73.4258 35.8408C71.9839 35.1448 70.7286 34.2871 69.6596 33.2679C70.9026 32.2735 72.1207 31.2294 73.3139 30.1356C74.532 29.0667 75.7377 27.9356 76.9309 26.7423C78.4971 25.1762 79.9513 23.6225 81.2937 22.0812C82.6113 20.5648 83.8045 19.0236 84.8735 17.4574C85.1469 17.0348 85.2588 16.6246 85.2091 16.2269C85.1593 15.8789 85.0226 15.5681 84.7989 15.2947C84.5503 15.0461 84.2147 14.8845 83.7921 14.8099C83.3943 14.7602 82.9966 14.9342 82.5988 15.332C82.5491 15.3817 82.5118 15.419 82.487 15.4438C82.487 15.4935 82.4621 15.5433 82.4124 15.593ZM84.5393 49.3409C84.6636 49.8629 84.8625 50.2607 85.136 50.5341C85.0365 50.5838 84.9247 50.6708 84.8004 50.7951C84.4026 51.1929 84.328 51.7646 84.5766 52.5104C84.8252 53.2562 85.3597 54.0393 86.1801 54.8596C87.4727 56.1523 88.8649 56.9229 90.3564 57.1715C91.848 57.4201 93.3271 57.3331 94.7938 56.9105C96.2605 56.4879 97.6774 55.8167 99.0447 54.8969C100.387 54.002 101.568 53.0449 102.587 52.0257C103.78 50.8324 104.812 49.5273 105.682 48.1103C106.552 46.7431 107.174 45.351 107.547 43.934C107.895 42.5419 107.957 41.187 107.733 39.8695C107.509 38.552 106.888 37.3836 105.869 36.3644C104.402 34.8977 102.923 33.9406 101.431 33.4931C99.9396 33.0954 98.4605 33.0581 96.9938 33.3813C95.5271 33.7044 94.1226 34.3135 92.7802 35.2084C91.4129 36.1282 90.1327 37.1847 88.9394 38.378C87.075 40.2424 85.8445 42.0447 85.2478 43.7848C84.6264 45.5498 84.3902 47.4019 84.5393 49.3409ZM87.1496 50.907C87.1496 50.8076 87.0998 50.7081 87.0004 50.6087C86.901 50.5093 86.8015 50.4595 86.7021 50.4595L86.8513 50.3104C87.249 49.9126 87.4479 49.3657 87.4479 48.6697C87.423 47.5013 87.7213 46.1838 88.3428 44.7171C88.9643 43.2504 89.9089 41.8831 91.1768 40.6153C92.1214 39.6706 93.1282 38.8627 94.1972 38.1915C95.2661 37.5203 96.335 37.048 97.404 36.7745C98.4729 36.5011 99.517 36.4762 100.536 36.7C101.555 36.9237 102.488 37.4582 103.333 38.3034C104.004 38.9746 104.427 39.7452 104.601 40.6153C104.75 41.5102 104.688 42.4424 104.414 43.4119C104.141 44.4312 103.656 45.4628 102.96 46.5069C102.239 47.5759 101.344 48.6448 100.275 49.7138C99.604 50.385 98.7837 51.081 97.8142 51.8019C96.8695 52.5477 95.8627 53.1319 94.7938 53.5545C93.7 54.002 92.5937 54.1884 91.4751 54.1138C90.3813 54.0641 89.362 53.5669 88.4174 52.6223C87.8953 52.1002 87.5722 51.7025 87.4479 51.429C87.3484 51.1805 87.249 51.0064 87.1496 50.907ZM108.368 73.9157C108.269 73.9654 108.145 74.0649 107.996 74.214C107.647 74.562 107.461 74.9474 107.436 75.37C107.411 75.7926 107.536 76.1406 107.809 76.4141C108.083 76.6875 108.431 76.8615 108.853 76.9361C109.276 77.0107 109.736 76.874 110.233 76.5259C111.451 75.6559 112.657 74.6988 113.85 73.6547C115.043 72.6106 116.236 71.4919 117.43 70.2987C119.369 68.3597 121.221 66.3088 122.986 64.146C124.726 62.0081 126.217 59.9448 127.46 57.9561C127.734 57.5335 127.846 57.1482 127.796 56.8001C127.771 56.477 127.647 56.2035 127.423 55.9798C127.15 55.7063 126.727 55.5572 126.155 55.5323C125.608 55.4826 124.626 55.6193 123.209 55.9425C121.792 56.2657 119.791 56.8001 117.206 57.5459C114.645 58.3165 111.227 59.3979 106.951 60.79C105.385 61.3121 104.204 61.6974 103.409 61.946C102.613 62.1946 102.129 62.4307 101.955 62.6545C101.681 62.9279 101.545 63.2884 101.545 63.7359C101.52 64.2082 101.644 64.5811 101.917 64.8545C102.116 65.0534 102.29 65.1777 102.439 65.2274C102.589 65.3268 102.812 65.3268 103.111 65.2274C103.409 65.1777 103.844 65.041 104.416 64.8172C104.963 64.6184 105.758 64.3698 106.802 64.0715L118.586 60.4171C119.555 60.1437 120.375 59.92 121.047 59.7459C121.718 59.5719 122.24 59.4476 122.613 59.3731C120.375 62.5053 118.001 65.3268 115.491 67.8376C114.272 69.0557 113.067 70.162 111.874 71.1563C110.655 72.1756 109.487 73.0954 108.368 73.9157ZM98.8225 64.8172C99.6677 63.7234 100.786 62.4307 102.178 60.9392C103.546 59.4725 104.988 57.9809 106.504 56.4645C108.095 54.8735 109.698 53.3696 111.314 51.9526C112.93 50.5853 114.297 49.3424 115.416 48.2237C115.888 47.7514 116.149 47.2666 116.199 46.7694C116.224 46.2971 116.075 45.8994 115.752 45.5762C115.553 45.3773 115.267 45.2655 114.894 45.2406C114.521 45.2655 114.111 45.4519 113.663 45.7999C112.072 47.0429 110.357 48.5096 108.518 50.2C106.703 51.9153 104.901 53.6679 103.111 55.4577C101.793 56.7753 100.55 58.0431 99.3818 59.2612C98.2134 60.529 97.1818 61.7347 96.2868 62.8782C95.8642 63.3505 95.6902 63.798 95.7648 64.2206C95.8642 64.6681 96.0507 65.0285 96.3241 65.302C96.6473 65.5257 97.0202 65.6252 97.4428 65.6003C97.8405 65.6003 98.2258 65.4139 98.5987 65.041L98.8225 64.8172ZM114.373 78.5783C113.901 78.2551 113.466 78.0935 113.068 78.0935C112.646 78.1184 112.323 78.2427 112.099 78.4664C111.825 78.7399 111.689 79.1003 111.689 79.5478C111.689 79.9953 111.912 80.4427 112.36 80.8902C112.932 81.3625 113.503 81.8597 114.075 82.3818C114.647 82.9038 115.206 83.4383 115.753 83.9852C116.698 84.9298 117.58 85.8621 118.401 86.7818C119.246 87.7265 119.992 88.6214 120.638 89.4666C121.061 89.8892 121.496 90.1005 121.943 90.1005C122.39 90.1503 122.751 90.0384 123.024 89.7649C123.72 89.0689 123.559 88.0621 122.54 86.7446C121.545 85.4519 119.793 83.5501 117.282 81.0394C118.202 79.7218 119.233 78.3919 120.377 77.0495C121.496 75.7319 122.751 74.3771 124.143 72.985C125.038 72.09 125.908 71.2448 126.753 70.4493C127.599 69.6538 128.444 68.8832 129.289 68.1374C129.836 67.69 130.321 67.3792 130.743 67.2052C131.166 67.0809 131.576 67.0685 131.974 67.1679C132.371 67.3171 132.782 67.5781 133.204 67.951C133.652 68.3487 134.186 68.8583 134.808 69.4798C135.603 70.2753 136.337 71.1081 137.008 71.9782C137.679 72.898 138.238 73.855 138.686 74.8494C138.835 75.1477 139.009 75.3963 139.208 75.5952C139.531 75.9184 139.842 76.0551 140.14 76.0054C140.463 75.9805 140.737 75.8562 140.96 75.6325C141.433 75.1602 141.594 74.5511 141.445 73.8053C141.296 73.0596 140.998 72.2889 140.55 71.4934C140.128 70.7228 139.606 69.977 138.984 69.2561C138.387 68.5103 137.865 67.9137 137.418 67.4662C136.946 66.9939 136.399 66.4719 135.777 65.9001C135.205 65.3283 134.559 64.8311 133.838 64.4085C133.117 64.0357 132.347 63.8119 131.526 63.7373C130.706 63.6628 129.861 63.8865 128.991 64.4085C128.17 64.8809 127.25 65.5521 126.231 66.4221C125.187 67.3171 124.118 68.3114 123.024 69.4052C122.129 70.3002 121.259 71.1951 120.414 72.09C119.569 73.0347 118.773 73.9296 118.028 74.7748C117.282 75.6201 116.636 76.3907 116.089 77.0867C115.517 77.8077 115.069 78.3794 114.746 78.802C114.622 78.6777 114.535 78.6156 114.485 78.6156C114.46 78.6404 114.423 78.628 114.373 78.5783ZM127.723 74.3274C127.3 73.9545 126.902 73.8053 126.53 73.8799C126.182 73.9793 125.871 74.1658 125.597 74.4392C125.349 74.6878 125.224 75.011 125.224 75.4087C125.249 75.8314 125.436 76.2167 125.784 76.5647C126.206 76.9873 126.641 77.3975 127.089 77.7952C127.561 78.2178 128.009 78.6404 128.431 79.0631C129.799 80.4303 131.079 81.8597 132.272 83.3513C132.695 83.7242 133.105 83.9106 133.503 83.9106C133.925 83.9355 134.261 83.8485 134.509 83.6496C134.882 83.2767 134.982 82.8044 134.808 82.2326C134.609 81.6857 134.298 81.1015 133.875 80.48C133.453 79.8585 132.968 79.2495 132.421 78.6529C131.849 78.0811 131.352 77.5839 130.93 77.1613C130.408 76.6393 129.886 76.1421 129.364 75.6698C128.817 75.2223 128.27 74.7748 127.723 74.3274Z" fill="#434343"/>
</g>
<defs>
<filter id="filter0_d_540_2212" x="0" y="0" width="168" height="168" filterUnits="userSpaceOnUse" color-interpolation-filters="sRGB">
<feFlood flood-opacity="0" result="BackgroundImageFix"/>
<feColorMatrix in="SourceAlpha" type="matrix" values="0 0 0 0 0 0 0 0 0 0 0 0 0 0 0 0 0 0 127 0" result="hardAlpha"/>
<feOffset dy="4"/>
<feGaussianBlur stdDeviation="2"/>
<feComposite in2="hardAlpha" operator="out"/>
<feColorMatrix type="matrix" values="0 0 0 0 0 0 0 0 0 0 0 0 0 0 0 0 0 0 0.25 0"/>
<feBlend mode="normal" in2="BackgroundImageFix" result="effect1_dropShadow_540_2212"/>
<feBlend mode="normal" in="SourceGraphic" in2="effect1_dropShadow_540_2212" result="shape"/>
</filter>
</defs>
</svg>
