<svg>
    <g id="Bee2" clip-path="url(#clip2_632_964)">
        <path id="Vector 153"
            d="M46.4426 58.4322C46.108 58.4322 45.8149 58.5133 45.5306 58.6999C44.9492 59.0814 44.7935 59.2671 44.6582 59.9441C44.4974 60.7479 44.5295 61.5125 45.0349 62.1796C45.4262 62.6962 45.9064 63.0719 46.626 63.0719C47.0474 63.0719 47.5553 63.1665 47.9099 62.9132C48.1732 62.7251 48.4109 62.4821 48.6732 62.3135C49.1587 62.0014 49.4587 61.912 50.0314 61.912C50.2745 61.912 50.5588 61.9933 50.7799 62.0954C50.9425 62.1704 51.0894 62.333 51.2706 62.3531C51.5099 62.3797 51.7201 62.3604 51.9547 62.4275C52.4139 62.5587 53.6038 62.6026 54.0316 62.3085C54.6477 61.8849 55.365 61.2237 55.365 60.4249C55.365 59.2691 55.2098 57.997 54.2447 57.2525C53.2679 56.4989 51.5695 56.8262 50.4329 56.8262C49.1955 56.8262 47.9118 56.7064 46.7103 57.0245C46.2255 57.1528 45.6537 57.4516 45.3918 57.8969C45.2906 58.0689 45.0667 58.1208 44.9258 58.2538C44.6722 58.4933 44.5774 58.738 44.4401 59.0518C44.3415 59.2771 44.2244 59.7162 44.0534 59.8598C43.9445 59.9513 43.8902 60.1315 43.7659 60.1969C43.6239 60.2716 43.4702 60.2539 43.3198 60.3505C42.6999 60.749 42.134 61.0929 41.803 61.7732C41.6029 62.1844 41.3296 62.7102 41.2726 63.166C41.2271 63.5306 41 63.8601 41 64.2318"
            stroke="#FFE812" stroke-width="2" stroke-linecap="round" />
        <path id="Vector 154"
            d="M45.5498 63.0719C45.3186 62.8664 45.0855 63.2259 44.9451 63.3892C44.6125 63.7759 44.5684 64.017 44.5684 64.5193C44.5684 64.7997 44.5906 66.8528 45.0145 66.6409"
            stroke="#FFE812" stroke-width="2" stroke-linecap="round" />
        <path id="Vector 155"
            d="M46.3531 59.7706C46.7728 60.4169 47.1836 61.0892 47.4089 61.8327C47.5605 62.3329 47.513 61.17 47.513 61.0891C47.513 60.7909 47.2699 57.7573 48.2268 58.4967C49.0083 59.1005 49.588 61.5792 48.2466 61.8922C47.8847 61.9766 47.7659 60.7725 47.751 60.6034C47.6599 59.5754 47.8078 58.1079 48.5441 57.312C49.0761 56.7368 49.4131 57.1907 49.5652 57.7383C49.7863 58.5345 49.9543 59.3137 49.2083 59.8797C48.6617 60.2943 47.6729 60.7236 47.0719 60.1226C46.3693 59.42 47.8748 58.7428 48.3458 59.2452C48.8633 59.7973 48.1196 61.1853 47.7311 61.5997C47.2319 62.1322 46.5557 62.3471 45.8773 62.0904C44.8788 61.7126 44.6209 59.9496 45.6096 59.3493C46.5525 58.7768 48.2018 59.0568 49.2578 59.0568C49.7157 59.0568 50.7331 58.8517 51.1712 59.0965C51.5185 59.2906 51.3448 60.0874 51.2505 60.3704C51.0941 60.8396 50.6557 60.9697 50.2046 61.0148C50.0423 61.031 49.8857 61.0494 49.8527 60.8512C49.7056 59.9686 50.2292 59.3042 50.844 58.7396C51.5379 58.1024 52.3035 57.93 52.2369 59.0618C52.2212 59.3283 51.6436 61.187 51.1712 60.5141C50.868 60.0823 50.9334 59.1996 51.0968 58.7297C51.2943 58.162 52.0339 58.2934 52.4501 58.5413C53.1493 58.9579 53.8479 60.1227 53.8479 60.8413"
            stroke="#FFE812" stroke-width="2" stroke-linecap="round" />
        <path id="Vector 156"
            d="M49.1191 56.4694C49.9169 57.8195 50.3683 59.0338 50.3683 60.6232C50.3683 61.1446 50.3523 61.5658 50.0213 61.9913C49.8979 62.15 49.9459 62.2907 49.7437 62.3581"
            stroke="black" stroke-width="2" stroke-linecap="round" />
        <path id="Vector 157"
            d="M53.1348 57.0939C53.2451 57.4799 53.4917 57.7493 53.4917 58.1745C53.4917 58.8717 53.4917 59.569 53.4917 60.2663C53.4917 60.9696 53.6623 61.7413 53.1348 62.2688"
            stroke="black" stroke-width="2" stroke-linecap="round" />
        <path id="Vector 158"
            d="M47.2451 55.8448C47.2451 54.5327 48.0055 53.7133 48.4496 52.5782C48.8641 51.5191 50.1636 50.9375 51.2403 50.9375C51.6184 50.9375 51.9912 50.9486 52.3209 51.1606C52.5493 51.3073 52.5985 52.2745 52.5985 52.5386C52.5985 52.9878 52.7708 53.3707 52.4895 53.7927C52.2152 54.2041 51.9774 54.6111 51.6171 54.9526C51.3636 55.1926 51.0326 55.3001 50.705 55.3937C50.0347 55.5852 52.0459 54.9633 52.6382 54.5957C53.3705 54.1411 54.0766 53.9711 54.9382 53.9711C55.2378 53.9711 55.8998 54.6919 55.8998 55.0418C55.8998 55.9192 55.0821 56.3256 54.383 56.5586"
            stroke="black" stroke-width="2" stroke-linecap="round" />
        <path id="Vector 159"
            d="M45.1933 56.737C44.5001 56.737 43.5628 56.8329 43.1511 56.1124C42.8176 55.5289 42.9553 54.9107 43.161 54.3279C43.4854 53.4089 45.2031 53.2983 45.9963 53.5249"
            stroke="black" stroke-width="2" stroke-linecap="round" />
        <path id="Vector 160"
            d="M45.996 52.5435C45.6257 52.4509 46.5826 51.7425 46.6602 51.7058C46.9736 51.5573 47.3611 51.6941 47.6912 51.562"
            stroke="black" stroke-width="2" stroke-linecap="round" />
        <path id="Vector"
            d="M61.5021 63.5016L61.1753 63.5016M62.7005 64.1553C62.7698 63.8783 63.1165 64.4177 63.2453 64.4821M63.79 65.8985C63.844 65.7364 64.0881 66.357 64.1169 66.4432M64.1169 68.0774C64.1006 68.4684 63.8294 68.6524 63.6811 68.949M62.7005 70.5832C62.3111 70.6186 62.1947 70.9459 61.8289 71.019M59.8679 72.3264C59.5717 72.3264 59.2925 72.4353 58.9963 72.4353M57.3621 73.6338C57.1953 73.8005 57.0671 73.9908 56.9263 74.1785M56.0547 76.5754L56.0547 75.8127M56.2726 78.1007C56.2726 78.3265 56.1784 78.7617 56.3815 78.8633M56.7084 80.7154C56.8993 80.9302 57.0352 81.0836 57.0352 81.3691M57.9068 82.5675C58.1772 82.6276 58.4518 83.0039 58.5605 83.2212M59.7589 84.6376C59.9714 84.65 60.1238 84.7475 60.3037 84.8554M61.3932 85.9449C61.6012 85.9449 61.6837 86.0176 61.8289 86.1628"
            stroke="#010101" stroke-linecap="round" />
        <path id="Vector 211" d="M59.3027 62.1625C59.6636 62.1625 59.9495 62.3559 60.2833 62.4894"
            stroke="#010101" stroke-linecap="round" />
        <path id="Vector 212" d="M57.2334 60.8552C57.4849 60.8803 57.6923 61.0359 57.8871 61.182"
            stroke="#010101" stroke-linecap="round" />
        <path id="Vector 213" d="M56.47 60.2015L56.0342 60.2015" stroke="#010101"
            stroke-linecap="round" />
    </g>
    <g id="Butterfly2" clip-path="url(#clip3_632_964)">
        <path id="Vector 161"
            d="M76.8507 40.5404C75.6365 40.5404 75.0895 39.032 74.0361 38.731C73.8137 38.6675 73.261 38.2249 73.2319 38.6031C73.1831 39.2367 73.0674 39.8207 73.0674 40.4673C73.0674 41.7835 73.2319 43.1065 73.2319 44.406C73.2319 45.3463 73.1358 46.2141 73.4878 47.0836C73.8255 47.9182 74.4014 49.244 75.3611 47.9243C75.7367 47.408 75.6977 46.7321 75.8272 46.1332C75.9949 45.3574 76.3511 44.605 76.4852 43.8303C76.7107 42.5271 76.7491 41.6001 77.4173 40.3851C78.0425 39.2483 78.5963 38.0089 79.309 36.9399C80.1236 35.718 81.2943 34.507 82.8638 34.7923C84.0331 35.0049 83.9296 38.4266 84.0519 39.2976C84.2376 40.6211 84.2529 42.0068 84.2529 43.346C84.2529 44.3905 84.6418 45.4436 84.5819 46.4622C84.5294 47.3539 81.7375 45.8635 81.4565 45.3016C81.0076 44.4038 80.0749 43.7973 79.6105 43.0078C79.1058 42.1498 77.9003 42.0131 77.5087 41.0339"
            stroke="#FF8412" stroke-width="2" stroke-linecap="round" />
        <path id="Vector 162"
            d="M76.5213 39.8825C76.5213 38.3789 76.4678 35.2491 74.6753 34.4907C73.6876 34.0729 72.8143 33.3282 71.751 32.9738"
            stroke="#FF8412" stroke-width="2" stroke-linecap="round" />
        <path id="Vector 163"
            d="M77.5083 40.2115C77.5083 38.0061 77.5083 35.8006 77.5083 33.5952C77.5083 33.288 77.6576 32.4986 77.4809 32.2336C77.2541 31.8933 76.595 31.1341 76.1924 30.9999"
            stroke="#FF8412" stroke-width="2" stroke-linecap="round" />
        <path id="Vector 164"
            d="M78.166 40.5404C78.6933 40.3647 78.9721 39.0687 79.2444 38.6396C80.0734 37.3333 80.5545 40.9425 80.6334 41.4909C80.7042 41.983 80.7137 43.4578 80.8162 42.9713C80.9915 42.1386 81.1975 41.3253 81.4193 40.5039C81.5638 39.9688 81.7237 39.4328 81.858 38.8955C81.9306 38.6048 81.8542 38.102 82.0316 37.8537C82.0892 37.7731 82.1138 38.8443 82.1138 38.9503C82.1138 39.5322 82.1138 40.114 82.1138 40.6958C82.1138 42.1793 82.3807 41.2746 82.5251 40.312C82.6585 39.4226 82.7545 38.516 82.7718 37.6161C82.7746 37.4699 82.8438 37.0558 82.7627 37.1775C82.4683 37.6191 82.19 38.0851 81.9494 38.5665"
            stroke="#FF8412" stroke-width="2" stroke-linecap="round" />
        <path id="Vector 165"
            d="M75.3693 40.5405C74.8092 41.6608 75.0404 42.9763 75.0404 44.2051C75.0404 44.8174 74.5469 45.5611 74.5469 46.4623"
            stroke="#FF8412" stroke-width="2" stroke-linecap="round" />
    </g>
    <g id="Flower2" clip-path="url(#clip4_632_964)">
        <path id="Vector 166"
            d="M82.5527 97.4939C82.9833 97.4401 83.5601 95.3477 83.7773 94.9443C84.0568 94.4252 84.0332 93.7865 84.0332 93.2171C84.0332 92.6188 84.2939 92.0619 84.4444 91.4899C84.6039 90.884 84.5549 90.2109 84.7277 89.6348C85.0534 88.549 85.328 87.5425 85.3491 86.3815C85.3608 85.74 85.5297 85.1824 85.7147 84.5721C85.8789 84.0301 85.9305 83.2914 86.1716 82.7809C87.8972 79.1267 87.8165 74.8421 87.8165 70.8461"
            stroke="#5C9F44" stroke-width="2" stroke-linecap="round" />
        <path id="Vector 167"
            d="M83.211 97.9874C82.7192 97.926 83.6791 95.2745 83.741 94.99C83.8969 94.273 84.4173 93.6931 84.7645 93.0618C85.1408 92.3776 85.4059 91.6377 85.852 90.9965C87.3317 88.8694 90.1234 87.6244 92.6693 87.6244C92.9656 87.6244 93.6416 87.5002 93.8664 87.734C94.375 88.2629 94.322 89.7129 94.4787 90.4025C94.6715 91.2507 94.4925 92.2413 94.1954 93.0526C93.9417 93.7455 93.7113 94.4823 93.4095 95.1545C93.1632 95.7032 92.5571 96.0312 92.1667 96.4704C91.7651 96.9222 90.774 97.9767 90.1928 98.1428C89.2306 98.4177 88.2932 98.7512 87.4055 99.2211C86.7142 99.5871 85.8882 99.5173 85.1483 99.7968C84.8516 99.909 83.8033 100.224 84.1979 99.6324"
            stroke="#5C9F44" stroke-width="2" stroke-linecap="round" />
        <path id="Vector 168"
            d="M83.2106 95.52C83.143 94.9108 81.9678 93.3282 81.4378 92.9612C80.6315 92.403 78.69 92.7236 77.7549 92.7236C75.4003 92.7236 72.6855 92.5087 70.6361 93.875C70.1796 94.1793 68.1504 94.9622 68.1504 95.52C68.1504 96.1787 69.0667 97.3252 69.4755 97.8229C70.1911 98.6941 70.9209 99.7538 71.8972 100.327C73.5216 101.28 75.3882 101.442 77.2249 101.442C78.6234 101.442 80.2399 101.661 81.584 101.277C82.1001 101.13 82.5221 100.935 83.0096 100.747C83.7399 100.466 83.0173 100.161 82.7172 99.9613"
            stroke="#5C9F44" stroke-width="2" stroke-linecap="round" />
        <path id="Vector 169"
            d="M70.2158 95.849C71.2596 96.517 72.4772 97.9874 73.7524 97.9874C74.9005 97.9874 75.9337 98.3645 77.0331 98.6088C77.9159 98.805 79.013 98.6454 79.9209 98.6454C80.9016 98.6454 81.4013 98.5304 81.4013 97.4939"
            stroke="#5C9F44" stroke-width="2" stroke-linecap="round" />
        <path id="Vector 170" d="M75.9726 93.875C75.9726 95.1799 76.3338 99.0994 74.4922 99.4678"
            stroke="#5C9F44" stroke-width="2" stroke-linecap="round" />
        <path id="Vector 171"
            d="M79.5923 94.3685C79.7229 95.8871 79.9492 97.4696 79.5009 98.9561C79.3085 99.5942 78.6736 100.09 78.2764 100.619"
            stroke="#5C9F44" stroke-width="2" stroke-linecap="round" />
        <path id="Vector 172"
            d="M86.0068 98.8098C87.2318 97.5848 88.0548 96.4904 88.721 94.862C89.0838 93.975 89.6496 92.9449 90.2014 92.1479C90.9629 91.0479 92.076 90.1173 92.751 89.1047"
            stroke="#5C9F44" stroke-width="2" stroke-linecap="round" />
        <path id="Vector 173"
            d="M85.3496 93.217C85.7782 93.217 86.2356 93.5945 86.5011 93.9116C87.2572 94.8147 87.8167 95.3249 88.8131 95.9403C90.0077 96.6781 92.328 97.5003 90.9424 95.191"
            stroke="#5C9F44" stroke-width="2" stroke-linecap="round" />
        <path id="Vector 174" d="M88.6387 89.5983C89.3888 91.6512 90.4838 94.0396 92.9155 94.0396"
            stroke="#5C9F44" stroke-width="2" stroke-linecap="round" />
        <path id="Vector 175"
            d="M87.8162 70.0235C87.0496 70.0235 86.0632 69.4166 85.6778 68.7807C85.4451 68.3968 85.1843 68.4189 85.1843 67.9217C85.1843 67.4983 85.1843 67.0749 85.1843 66.6514C85.1843 64.923 86.5371 62.5765 88.5107 62.6214C90.6049 62.669 91.0241 66.1314 90.5303 67.7115C89.976 69.4853 88.0492 70.4892 86.2626 69.6214C84.547 68.7881 83.5152 66.3278 84.9376 64.6867C85.7874 63.7061 86.6658 63.9373 87.8893 63.9373C89.2644 63.9373 89.873 64.2635 89.7901 65.8381C89.7617 66.3784 88.6696 67.9841 88.1086 68.1776C87.0702 68.5357 85.8423 68.61 85.8423 67.3003C85.8423 66.523 85.9316 65.9796 86.8201 65.9204C87.1437 65.8988 87.7653 65.747 87.807 66.1854C87.8511 66.6481 87.8162 67.1277 87.8162 67.5927C87.8162 67.9887 87.8162 66.8007 87.8162 66.4047"
            stroke="#FFE812" stroke-width="2" stroke-linecap="round" />
        <path id="Vector 176"
            d="M84.0337 64.4308C83.0979 63.495 81.7607 63.1806 81.0363 62C80.402 60.9664 79.9655 59.9329 79.5102 58.8198C78.9769 57.5163 79.475 56.9194 80.0128 55.795C80.5085 54.7584 81.5393 54.6852 82.5533 54.7258C83.7002 54.7716 84.7006 56.3064 85.4228 57.0287C86.227 57.8329 86.9456 58.843 87.2322 59.9895C87.3456 60.4431 87.4881 60.9193 87.4881 61.3877C87.4881 61.764 87.4881 62.385 87.4881 61.6345C87.4881 60.0325 87.9909 57.5926 88.9776 56.2976C89.5777 55.51 90.8416 55.3837 91.7649 55.3837C92.189 55.3837 92.7286 55.2934 93.1357 55.402C93.6543 55.5403 93.7219 56.3496 94.0678 56.6631C95.3578 57.8322 95.6802 61.0737 93.9855 62.0548C93.5602 62.3011 93.4072 62.6314 92.9163 62.795C92.7767 62.8416 92.2888 63.2794 92.3863 63.2794C93.2156 63.2794 94.1504 63.1495 94.9634 63.3068C95.5593 63.4221 96.1148 63.7967 96.6997 63.9739C97.5262 64.2244 97.287 65.5925 97.3668 66.2311C97.4726 67.0775 97.6866 67.7879 97.6866 68.6711C97.6866 71.1282 93.2678 70.7684 91.9294 69.9505C91.5546 69.7215 91.2935 69.7216 91.1069 69.3017C91.0303 69.1292 91.4211 70.0745 91.5181 70.2612C91.8189 70.8396 92.3077 71.3426 92.6605 71.897C93.13 72.6348 93.0946 73.2346 93.0808 74.0994C93.0415 76.5754 90.093 79.7944 87.5795 79.555C86.2345 79.427 85.8629 77.6721 85.8431 76.6033C85.8251 75.6288 85.5061 73.9283 86.0899 73.085C86.2464 72.8588 86.3887 72.6034 86.5834 72.4087C86.9419 72.0502 86.3363 72.4441 86.1721 72.491C84.8263 72.8755 83.2312 73.7547 81.8222 73.8069C80.8705 73.8422 79.4885 74.0073 78.6055 73.6059C77.3642 73.0417 76.488 71.6012 76.0558 70.3526C75.6494 69.1785 75.3533 67.8236 75.9736 66.6606C76.5179 65.64 77.9659 65.3988 78.971 65.0523C80.6662 64.4677 82.7298 64.5953 84.5272 64.5953"
            stroke="#D279E0" stroke-width="2" stroke-linecap="round" />
        <path id="Vector 177"
            d="M84.0337 71.3395C82.3138 71.1962 80.9291 69.6754 80.9083 68.0131C80.9049 67.7402 80.7056 65.9631 81.1825 66.5509C81.9809 67.5351 82.2978 68.7658 83.266 69.6215C84.1511 70.4036 82.7985 71.0721 82.0598 71.0105C81.0334 70.925 79.4389 69.633 79.766 68.4883C79.7805 68.4375 80.5957 70.0293 80.6433 70.2886C80.7238 70.727 81.1021 72.6372 80.3235 72.6372C78.1817 72.6372 78.6703 69.9653 78.4409 68.5888C78.34 67.9834 79.6901 69.6834 79.9122 69.923C80.6254 70.6925 81.3263 71.4308 81.8861 72.3265C82.2531 72.9136 82.7411 73.708 83.5585 73.6059C84.2815 73.5155 85.1851 72.7628 85.1851 71.9975"
            stroke="#D279E0" stroke-width="2" stroke-linecap="round" />
        <path id="Vector 178"
            d="M89.1329 74.7939C88.0357 74.8817 88.6946 76.49 88.0546 77.1882C87.1887 78.1327 87.4836 75.5232 87.5246 75.196C87.7776 73.1715 89.5152 74.1804 90.5768 74.9218C91.2705 75.4063 92.3512 75.8714 91.5272 76.8957C90.6659 77.9665 89.8297 77.8851 89.2791 76.7678C88.6529 75.4969 88.1778 74.3661 89.0598 73.149C89.0885 73.1094 90.2688 71.4399 90.2113 72.4179C90.2013 72.5872 89.4619 72.5893 89.4619 72.162"
            stroke="#D279E0" stroke-width="2" stroke-linecap="round" />
        <path id="Vector 179"
            d="M91.4355 68.5432C91.4355 66.873 91.6697 65.315 93.7384 65.7834C94.7621 66.0151 94.8777 67.2122 94.8899 68.068C94.8919 68.2066 94.9859 69.4069 94.5061 68.927C94.2289 68.6498 94.3752 67.5987 94.3964 67.2638C94.4467 66.4718 95.1929 65.9911 95.8403 65.6554C96.1969 65.4705 95.8133 66.4077 95.6758 66.5327C95.5172 66.6769 94.9196 66.5693 94.7254 66.5693"
            stroke="#D279E0" stroke-width="2" stroke-linecap="round" />
        <path id="Vector 180"
            d="M90.6127 61.9634C89.5792 61.7912 87.9852 60.2077 88.5017 59.0026C88.7408 58.4447 90.0143 58.6785 90.4391 58.7741C91.1513 58.9343 92.0142 59.7328 92.084 60.5013C92.1117 60.8052 92.2369 61.5886 92.0749 61.872C91.8394 62.2841 91.4081 61.701 91.3621 61.4974C91.2436 60.9728 90.944 58.0988 92.1937 58.2075C92.6638 58.2484 93.0669 58.5996 93.0801 59.0757C93.0961 59.6508 93.0788 59.8124 92.8425 59.2219C92.6339 58.7004 92.4222 58.2552 92.4222 57.6866C92.4222 57.2336 92.0303 57.4515 91.7276 57.2845C89.0139 55.7873 91.1049 60.3153 91.4352 61.141"
            stroke="#D279E0" stroke-width="2" stroke-linecap="round" />
        <path id="Vector 181"
            d="M92.4225 68.3786C92.1045 67.9243 93.1547 66.3244 93.4826 65.9386C93.7721 65.598 93.7928 65.1877 93.9761 64.7689C94.348 63.9187 95.8418 65.7905 95.2189 66.5692"
            stroke="#D279E0" stroke-width="2" stroke-linecap="round" />
        <path id="Vector 182"
            d="M96.3701 69.8591C96.4096 69.5033 96.6885 69.2642 96.6991 68.8721C96.7109 68.4341 96.6991 67.9944 96.6991 67.5562"
            stroke="#D279E0" stroke-width="2" stroke-linecap="round" />
        <path id="Vector 183"
            d="M84.0334 62.9504C82.5625 62.683 81.566 60.8856 81.566 59.4961C81.566 59.0027 82.1392 58.5354 82.6261 58.5091C83.4904 58.4624 83.7205 59.6413 84.1065 60.2089C84.4694 60.7424 84.4336 60.999 83.7593 60.9765C82.7884 60.9442 81.6319 60.2668 81.1639 59.4047C80.8964 58.9119 79.1568 56.5978 80.3323 56.2885C80.7772 56.1714 81.3326 55.8955 81.7854 55.8955C82.0292 55.8955 81.6468 56.1364 81.6391 56.1422C81.266 56.4276 81.0109 56.9399 80.8167 57.3577C80.4814 58.0791 80.2276 59.5127 80.3506 60.3003C80.498 61.2437 81.3671 61.7621 82.0961 62.2559C82.6922 62.6597 84.4363 62.9048 85.1118 62.5849C85.2913 62.4998 85.1749 61.7718 85.2032 61.6162C85.3143 61.005 85.8428 60.6232 85.8428 59.9896"
            stroke="#D279E0" stroke-width="2" stroke-linecap="round" />
    </g>
    <g id="Sun2" clip-path="url(#clip5_632_964)">
        <path id="Vector_2"
            d="M83.9617 9.19507C86.0353 9.19507 89.7863 12.6815 89.1765 14.2671C88.715 15.4668 86.3079 15.8177 85.2459 16.0832C83.6644 16.4786 82.4263 16.4051 81.056 15.72C79.9342 15.1591 78.7992 13.2362 78.254 12.1138C77.4567 10.4723 77.1749 8.90173 77.5665 7.10658C77.8643 5.74179 78.9487 3.94141 80.5371 3.94141L83.9617 3.94141C85.3594 3.94141 86.4103 4.6419 87.8144 4.6419C89.0997 4.6419 90.3129 5.15521 91.5114 5.52399C93.2944 6.0726 95.5328 6.85361 95.5328 9.19507C95.5328 10.1444 95.3528 10.9699 95.2993 11.8803C95.2766 12.2649 94.4952 13.1185 94.3523 13.6185C93.9127 15.1571 93.1122 16.8809 92.4973 18.4182M70.5486 8.14427C68.3533 8.14427 66.188 8.37777 64.0107 8.37777M71.4826 15.3827C69.7658 16.1675 67.9771 16.6694 66.4625 17.8474C65.7086 18.4338 64.8281 19.177 64.0107 19.5857M76.3865 19.819C76.3256 21.4042 75.545 23.1086 75.0893 24.6057C74.7294 25.7884 74.5186 26.7547 74.5186 27.9914M84.7918 22.3876C84.2163 23.107 84.5282 24.8455 84.6102 25.6565C84.7639 27.1768 85.4923 28.5579 85.4923 30.093M93.8984 23.3215C93.8984 25.8141 94.527 28.1165 94.8324 30.5599"
            stroke="#FFE812" stroke-width="4" stroke-linecap="round" />
    </g>
    <path id="Cloud2"
        d="M17.3823 21.5551C14.9892 21.5551 13.9471 17.8068 14.6841 15.8993C15.6752 13.3341 17.6719 11.2813 20.6512 11.2813C21.7791 11.2813 22.8043 11.0478 23.9202 11.0478C24.7449 11.0478 26.4834 12.6184 27.0853 11.5148C27.6536 10.473 28.0215 8.71658 29.5241 8.47934C30.5845 8.31191 31.3566 7.54535 32.4557 7.54535C34.562 7.54535 36.529 8.6604 36.529 10.9181C36.529 11.8006 38.0614 11.0478 38.7601 11.0478C40.226 11.0478 40.3822 12.3842 41.4324 12.9677C43.3859 14.0529 42.1725 17.3796 40.9654 18.5197C38.9133 20.4578 36.4355 20.9977 33.74 21.3346C32.4204 21.4995 31.1297 22.2556 29.7576 22.2556C28.4344 22.2556 27.1113 22.2556 25.7881 22.2556C23.8219 22.2556 20.5317 21.9399 19.367 20.1282C18.5013 18.7816 19.0569 16.693 19.834 15.4842C20.457 14.5151 22.4088 14.2201 23.4402 13.9795C26.3151 13.3087 29.0197 12.6256 31.8071 11.6964C33.024 11.2908 33.3736 13.28 34.0643 14.1351C34.7156 14.9416 36.2487 15.193 37.2294 15.2507C37.8941 15.2898 36.6259 16.1093 36.529 16.1847C35.7392 16.7989 35.0092 17.553 34.1421 18.0527C32.7488 18.8556 30.6891 19.6872 29.0571 19.6872C27.3646 19.6872 23.6867 20.5056 23.6867 17.7024C23.6867 16.5433 24.6661 16.605 25.5546 16.1847C26.6494 15.6669 27.9241 14.7837 29.1738 14.7837C30.3802 14.7837 31.5866 14.7837 32.793 14.7837"
        stroke="white" stroke-width="4" stroke-linecap="round" />

</svg>