<svg width="24" height="38" viewBox="0 0 36 52" fill="none" filter="url(#squiggly) drop-shadow( 2px 2px 3px rgba(50, 50, 50, .7))" xmlns="http://www.w3.org/2000/svg">
<path d="M5.23448 10.663C5.23448 7.72238 7.58182 5.33152 10.469 5.33152H13.0862C15.9733 5.33152 18.3207 7.72238 18.3207 10.663V10.9629C18.3207 12.779 17.4128 14.4701 15.9161 15.4448L12.4646 17.7023C10.4035 19.0519 9.16034 21.3761 9.16034 23.8669V23.9918C9.16034 25.4663 10.3299 26.6576 11.7776 26.6576C13.2252 26.6576 14.3948 25.4663 14.3948 23.9918V23.8752C14.3948 23.1921 14.7383 22.559 15.2945 22.1925L18.746 19.9349C21.7395 17.9689 23.5552 14.595 23.5552 10.9629V10.663C23.5552 4.77338 18.8687 0 13.0862 0H10.469C4.6865 0 0 4.77338 0 10.663C0 12.1375 1.16958 13.3288 2.61724 13.3288C4.0649 13.3288 5.23448 12.1375 5.23448 10.663ZM11.7776 37.3207C12.6453 37.3207 13.4774 36.9696 14.0909 36.3447C14.7045 35.7198 15.0491 34.8722 15.0491 33.9885C15.0491 33.1047 14.7045 32.2571 14.0909 31.6322C13.4774 31.0073 12.6453 30.6562 11.7776 30.6562C10.9099 30.6562 10.0778 31.0073 9.46425 31.6322C8.85071 32.2571 8.50603 33.1047 8.50603 33.9885C8.50603 34.8722 8.85071 35.7198 9.46425 36.3447C10.0778 36.9696 10.9099 37.3207 11.7776 37.3207Z" fill="black"/>
</svg>
