<svg width="188" height="188" viewBox="0 0 188 188" fill="none" xmlns="http://www.w3.org/2000/svg">
<g id="Property 1=DROPPED">
<g id="back">
<path d="M4 0L24.25 27L24.25 0L4 0Z" fill="#893649"/>
<path d="M184 159.75H157L184 180V159.75Z" fill="#893649"/>
</g>
<g id="Wrapper" filter="url(#filter0_d_540_2216)">
<path d="M86.2852 180L4 96.75L4 0C53.0159 46.8645 135.704 129.938 184 180H86.2852Z" fill="#C9274C"/>
</g>
<path id="status" d="M16.0774 67.4665C16.6758 67.0061 17.3664 66.4537 18.149 65.8092C18.9776 65.1647 19.8408 64.4627 20.7385 63.7031C21.6362 62.9435 22.5339 62.1379 23.4315 61.2862C24.3523 60.4576 25.2384 59.6174 26.0901 58.7658C27.264 57.5919 28.2998 56.441 29.1975 55.3131C30.1412 54.1852 30.8318 53.1724 31.2691 52.2747C31.4993 51.8144 31.718 51.4806 31.9251 51.2735C32.2704 50.9282 32.6041 50.7326 32.9264 50.6865C33.2947 50.6405 33.5939 50.7326 33.8241 50.9627C34.2384 51.3771 34.2844 52.0676 33.9622 53.0343C35.2512 54.3233 36.3445 55.831 37.2422 57.5573C38.1629 59.3067 38.7729 61.0906 39.0721 62.909C39.3944 64.7504 39.3484 66.5458 38.934 68.2951C38.5427 70.0215 37.6911 71.5406 36.3791 72.8527C35.3893 73.8424 34.2154 74.579 32.8573 75.0624C31.4993 75.5457 30.1067 75.8104 28.6796 75.8565C27.2525 75.9025 25.8369 75.7299 24.4328 75.3386C23.0748 74.9473 21.8778 74.3718 20.842 73.6122C20.5428 73.267 20.4507 72.8987 20.5658 72.5074C20.7039 72.0931 20.8996 71.7593 21.1528 71.5061C21.3369 71.322 21.5556 71.1954 21.8088 71.1263C22.108 71.0573 22.3842 71.1033 22.6374 71.2644C23.5121 71.8169 24.4904 72.2197 25.5722 72.4729C26.7001 72.7261 27.8164 72.8066 28.9213 72.7146C30.0492 72.6455 31.108 72.4153 32.0977 72.024C33.1335 71.6327 34.0082 71.0803 34.7218 70.3667C35.5504 69.5381 36.0683 68.4908 36.2755 67.2248C36.5057 65.9358 36.4826 64.6008 36.2064 63.2197C35.9762 61.8386 35.5159 60.4806 34.8254 59.1456C34.1809 57.8105 33.3867 56.6481 32.443 55.6584C31.5223 56.8093 30.5556 57.9371 29.5428 59.042C28.553 60.1698 27.5057 61.2862 26.4008 62.3911C24.9507 63.8412 23.5121 65.1877 22.085 66.4307C20.6809 67.6506 19.2538 68.7555 17.8037 69.7453C17.4124 69.9984 17.0326 70.102 16.6643 70.056C16.3421 70.01 16.0543 69.8834 15.8011 69.6762C15.571 69.446 15.4214 69.1353 15.3523 68.744C15.3063 68.3757 15.4674 68.0074 15.8357 67.6391C15.8817 67.5931 15.9162 67.5586 15.9393 67.5355C15.9853 67.5355 16.0313 67.5125 16.0774 67.4665ZM41.594 92.845C41.5249 93.2363 41.3753 93.547 41.1451 93.7772C40.8459 94.0765 40.4776 94.2146 40.0403 94.1915C39.6029 94.1685 39.2346 94.0074 38.9354 93.7082C38.6132 93.3859 38.5211 92.6724 38.6592 91.5675C38.7973 90.4627 39.0505 89.1967 39.4188 87.7696C39.7871 86.3425 40.2129 84.9039 40.6963 83.4537C41.2027 81.9806 41.686 80.7376 42.1464 79.7249C42.1924 79.5867 42.25 79.4141 42.319 79.207C42.4341 78.9998 42.5837 78.8041 42.7679 78.62C42.9981 78.3898 43.3548 78.1712 43.8382 77.964C44.3446 77.7798 45.0006 77.8374 45.8062 78.1366C46.865 78.5049 47.7512 78.7696 48.4648 78.9307C49.2014 79.1149 49.7998 79.207 50.2602 79.207C50.7435 79.1839 51.1233 79.1034 51.3996 78.9653C51.6988 78.8502 51.9405 78.7006 52.1246 78.5164C52.8382 77.8029 52.9763 76.9052 52.5389 75.8233C52.1476 74.7415 51.388 73.6366 50.2602 72.5088C49.7998 72.0484 49.2819 71.5766 48.7065 71.0932C48.154 70.6328 47.5326 70.1494 46.842 69.6431C46.2666 70.5868 45.4955 71.6111 44.5287 72.7159C43.585 73.8438 42.5262 74.9947 41.3523 76.1686C40.4776 77.0433 39.5799 77.8949 38.6592 78.7236C37.7615 79.5752 36.8983 80.3694 36.0697 81.1059C35.2411 81.8425 34.4585 82.487 33.7219 83.0394C33.0083 83.6149 32.4099 84.0752 31.9265 84.4205C31.5582 84.6967 31.1784 84.8003 30.7871 84.7312C30.4188 84.6852 30.1196 84.5471 29.8894 84.3169C29.6362 84.0637 29.4751 83.7415 29.406 83.3502C29.36 82.9819 29.4981 82.6366 29.8204 82.3144C29.9355 82.1993 30.039 82.1187 30.1311 82.0727C31.4201 81.1059 32.8817 79.9205 34.516 78.5164C36.1503 77.1123 37.727 75.6507 39.2462 74.1315C40.5121 72.8655 41.64 71.6456 42.6298 70.4717C43.6195 69.2978 44.3331 68.285 44.7704 67.4333C45.0006 66.973 45.2078 66.6507 45.3919 66.4666C45.7372 66.1213 46.0824 65.9372 46.4277 65.9142C46.796 65.8681 47.1067 65.9717 47.3599 66.2249C47.498 66.363 47.6016 66.5357 47.6707 66.7428L47.7397 66.8119C48.5223 67.4564 49.2589 68.0778 49.9494 68.6763C50.663 69.2978 51.319 69.9078 51.9175 70.5062C52.7461 71.3349 53.4827 72.1865 54.1272 73.0612C54.7947 73.9589 55.2665 74.8451 55.5428 75.7198C55.819 76.5944 55.888 77.4461 55.7499 78.2747C55.6118 79.1034 55.186 79.8745 54.4724 80.588C53.6898 81.3706 52.5274 81.8195 50.9852 81.9346C49.4661 82.0266 47.4405 81.6583 44.9085 80.8297C44.5863 81.5663 44.2295 82.4755 43.8382 83.5573C43.4699 84.6622 43.1247 85.79 42.8024 86.9409C42.5032 88.1148 42.2385 89.2312 42.0083 90.29C41.7781 91.3488 41.64 92.2005 41.594 92.845ZM60.4815 82.592C60.9648 82.707 61.3331 82.8912 61.5863 83.1444C61.6323 83.0523 61.7129 82.9487 61.828 82.8336C62.1963 82.4654 62.7257 82.3963 63.4162 82.6265C64.1068 82.8567 64.8318 83.3515 65.5914 84.1111C66.7883 85.3081 67.5019 86.597 67.7321 87.9781C67.9622 89.3592 67.8817 90.7287 67.4904 92.0868C67.0991 93.4448 66.4776 94.7569 65.6259 96.0228C64.7973 97.2658 63.9111 98.3591 62.9674 99.3029C61.8625 100.408 60.6541 101.363 59.3421 102.169C58.0761 102.974 56.7871 103.55 55.4751 103.895C54.1861 104.217 52.9316 104.275 51.7117 104.068C50.4917 103.86 49.4099 103.285 48.4662 102.341C47.1081 100.983 46.2219 99.6136 45.8076 98.2325C45.4393 96.8515 45.4048 95.4819 45.704 94.1239C46.0033 92.7658 46.5672 91.4653 47.3958 90.2223C48.2475 88.9564 49.2258 87.771 50.3306 86.6661C52.0569 84.9398 53.7257 83.8004 55.337 83.248C56.9712 82.6725 58.6861 82.4538 60.4815 82.592ZM61.9316 85.0088C61.8395 85.0088 61.7474 84.9628 61.6554 84.8707C61.5633 84.7786 61.5173 84.6866 61.5173 84.5945L61.3791 84.7326C61.0109 85.1009 60.5045 85.285 59.86 85.285C58.7781 85.262 57.5582 85.5382 56.2001 86.1137C54.8421 86.6891 53.5761 87.5638 52.4022 88.7377C51.5275 89.6124 50.7795 90.5446 50.158 91.5344C49.5365 92.5241 49.0992 93.5139 48.846 94.5037C48.5928 95.4934 48.5697 96.4602 48.7769 97.4039C48.9841 98.3476 49.4789 99.2108 50.2616 99.9934C50.883 100.615 51.5966 101.006 52.4022 101.167C53.2308 101.305 54.094 101.248 54.9917 100.995C55.9354 100.741 56.8907 100.293 57.8574 99.6481C58.8472 98.9806 59.837 98.152 60.8267 97.1622C61.4482 96.5407 62.0927 95.7811 62.7602 94.8835C63.4508 94.0088 63.9917 93.0766 64.383 92.0868C64.7973 91.074 64.9699 90.0497 64.9009 89.0139C64.8548 88.0011 64.3945 87.0574 63.5198 86.1827C63.0364 85.6994 62.6681 85.4001 62.415 85.285C62.1848 85.193 62.0236 85.1009 61.9316 85.0088ZM69.4943 106.244C70.5301 106.958 71.4623 107.545 72.291 108.005C73.1426 108.488 73.9137 108.822 74.6043 109.006C75.3178 109.167 75.9623 109.167 76.5378 109.006C77.1592 108.845 77.7577 108.477 78.3331 107.901C78.8165 107.418 79.0697 106.797 79.0927 106.037C79.1157 105.277 78.9661 104.46 78.6439 103.586C78.3216 102.711 77.8383 101.813 77.1938 100.892C76.5493 99.9718 75.8012 99.0856 74.9495 98.2339C74.7424 98.0268 74.5352 97.8196 74.328 97.6124C74.1209 97.4053 73.8907 97.1981 73.6375 96.991C73.016 97.8887 72.2449 98.8439 71.3242 99.8567C70.4265 100.892 69.4598 101.928 68.424 102.964C67.5493 103.839 66.6401 104.702 65.6964 105.554C64.7757 106.428 63.8895 107.245 63.0378 108.005C62.2092 108.742 61.4151 109.398 60.6555 109.973C59.9419 110.548 59.3435 111.009 58.8601 111.354C58.4688 111.607 58.089 111.711 57.7207 111.665C57.3754 111.642 57.0762 111.504 56.823 111.25C56.5698 110.997 56.4087 110.675 56.3396 110.284C56.2936 109.915 56.4317 109.57 56.754 109.248C56.869 109.133 56.9726 109.052 57.0647 109.006C57.7092 108.5 58.4112 107.936 59.1708 107.314C59.9764 106.693 60.7936 106.014 61.6222 105.277C62.4509 104.541 63.2795 103.781 64.1081 102.999C64.9828 102.216 65.823 101.422 66.6286 100.616C67.9406 99.3043 69.103 98.0498 70.1158 96.8529C71.1516 95.6329 71.8421 94.5971 72.1874 93.7455C72.3485 93.3081 72.5557 92.9629 72.8089 92.7097C73.1311 92.3874 73.4649 92.2148 73.8101 92.1918C74.1784 92.1457 74.4892 92.2493 74.7424 92.5025C75.1797 92.9398 75.2948 93.5843 75.0876 94.436C75.3638 94.6662 75.617 94.8963 75.8472 95.1265C76.0774 95.3567 76.3076 95.5869 76.5378 95.8171C77.6886 96.9679 78.7014 98.1879 79.5761 99.4769C80.4738 100.789 81.1298 102.066 81.5441 103.309C81.9815 104.575 82.1311 105.784 81.993 106.935C81.8779 108.109 81.3715 109.144 80.4738 110.042C78.8856 111.63 77.0211 112.252 74.8805 111.906C72.7628 111.584 70.438 110.456 67.9061 108.523C67.86 108.477 67.814 108.454 67.768 108.454C67.768 108.454 67.745 108.431 67.6989 108.385C67.3997 108.086 67.2846 107.763 67.3536 107.418C67.4457 107.05 67.6299 106.727 67.9061 106.451C68.0902 106.267 68.3319 106.141 68.6311 106.071C68.9304 106.002 69.2181 106.06 69.4943 106.244ZM83.2718 120.022C84.3076 120.735 85.2399 121.322 86.0685 121.783C86.9202 122.266 87.6913 122.6 88.3818 122.784C89.0953 122.945 89.7398 122.945 90.3153 122.784C90.9368 122.623 91.5352 122.254 92.1107 121.679C92.594 121.196 92.8472 120.574 92.8703 119.814C92.8933 119.055 92.7437 118.238 92.4214 117.363C92.0992 116.488 91.6158 115.591 90.9713 114.67C90.3268 113.749 89.5787 112.863 88.7271 112.011C88.5199 111.804 88.3127 111.597 88.1056 111.39C87.8984 111.183 87.6682 110.976 87.415 110.768C86.7936 111.666 86.0225 112.621 85.1018 113.634C84.2041 114.67 83.2373 115.706 82.2015 116.742C81.3268 117.616 80.4176 118.479 79.4739 119.331C78.5532 120.206 77.667 121.023 76.8153 121.783C75.9867 122.519 75.1926 123.175 74.433 123.751C73.7195 124.326 73.121 124.786 72.6376 125.132C72.2463 125.385 71.8665 125.488 71.4982 125.442C71.153 125.419 70.8537 125.281 70.6005 125.028C70.3473 124.775 70.1862 124.453 70.1172 124.061C70.0711 123.693 70.2092 123.348 70.5315 123.025C70.6466 122.91 70.7502 122.83 70.8422 122.784C71.4867 122.277 72.1888 121.713 72.9484 121.092C73.754 120.471 74.5711 119.791 75.3997 119.055C76.2284 118.318 77.057 117.559 77.8857 116.776C78.7603 115.994 79.6005 115.199 80.4061 114.394C81.7181 113.082 82.8805 111.827 83.8933 110.63C84.9291 109.41 85.6197 108.375 85.9649 107.523C86.126 107.086 86.3332 106.74 86.5864 106.487C86.9086 106.165 87.2424 105.992 87.5877 105.969C87.956 105.923 88.2667 106.027 88.5199 106.28C88.9572 106.717 89.0723 107.362 88.8652 108.214C89.1414 108.444 89.3946 108.674 89.6248 108.904C89.8549 109.134 90.0851 109.364 90.3153 109.595C91.4662 110.745 92.479 111.965 93.3536 113.254C94.2513 114.566 94.9073 115.844 95.3217 117.087C95.759 118.353 95.9086 119.561 95.7705 120.712C95.6554 121.886 95.149 122.922 94.2513 123.82C92.6631 125.408 90.7987 126.029 88.658 125.684C86.5404 125.362 84.2156 124.234 81.6836 122.3C81.6376 122.254 81.5915 122.231 81.5455 122.231C81.5455 122.231 81.5225 122.208 81.4764 122.162C81.1772 121.863 81.0621 121.541 81.1312 121.196C81.2233 120.827 81.4074 120.505 81.6836 120.229C81.8678 120.045 82.1094 119.918 82.4087 119.849C82.7079 119.78 82.9956 119.838 83.2718 120.022ZM99.6734 122.336C99.3742 121.899 99.2246 121.496 99.2246 121.128C99.2476 120.737 99.3627 120.437 99.5698 120.23C99.823 119.977 100.157 119.85 100.571 119.85C100.985 119.85 101.4 120.058 101.814 120.472C102.251 121.001 102.712 121.531 103.195 122.06C103.678 122.59 104.173 123.107 104.68 123.614C105.554 124.488 106.418 125.306 107.269 126.065C108.144 126.848 108.973 127.538 109.755 128.137C110.146 128.528 110.342 128.931 110.342 129.345C110.388 129.76 110.285 130.093 110.031 130.347C109.387 130.991 108.455 130.841 107.235 129.898C106.038 128.977 104.277 127.354 101.952 125.029C100.732 125.881 99.5008 126.836 98.2578 127.895C97.0379 128.931 95.7834 130.093 94.4944 131.382C93.6658 132.211 92.8831 133.017 92.1466 133.799C91.41 134.582 90.6965 135.364 90.0059 136.147C89.5916 136.653 89.3039 137.102 89.1428 137.494C89.0277 137.885 89.0162 138.265 89.1082 138.633C89.2463 139.001 89.488 139.381 89.8333 139.772C90.2016 140.187 90.6734 140.682 91.2489 141.257C91.9855 141.994 92.7566 142.673 93.5622 143.294C94.4138 143.916 95.3 144.433 96.2207 144.848C96.4969 144.986 96.7271 145.147 96.9113 145.331C97.2105 145.63 97.3371 145.918 97.2911 146.194C97.268 146.494 97.1529 146.747 96.9458 146.954C96.5085 147.391 95.9445 147.541 95.254 147.403C94.5634 147.265 93.8499 146.988 93.1133 146.574C92.3998 146.183 91.7092 145.699 91.0417 145.124C90.3512 144.572 89.7988 144.088 89.3844 143.674C88.9471 143.236 88.4637 142.73 87.9343 142.155C87.4049 141.625 86.9446 141.027 86.5533 140.359C86.208 139.692 86.0008 138.978 85.9318 138.219C85.8627 137.459 86.0699 136.676 86.5533 135.871C86.9906 135.111 87.6121 134.26 88.4177 133.316C89.2463 132.349 90.167 131.359 91.1798 130.347C92.0085 129.518 92.8371 128.712 93.6658 127.93C94.5404 127.147 95.3691 126.41 96.1517 125.72C96.9343 125.029 97.6478 124.431 98.2923 123.925C98.9598 123.395 99.4893 122.981 99.8806 122.682C99.7655 122.567 99.7079 122.486 99.7079 122.44C99.7309 122.417 99.7194 122.382 99.6734 122.336ZM95.7374 134.697C95.3921 134.306 95.254 133.937 95.323 133.592C95.4151 133.27 95.5877 132.982 95.8409 132.729C96.0711 132.499 96.3703 132.384 96.7386 132.384C97.1299 132.407 97.4867 132.579 97.809 132.901C98.2003 133.293 98.5801 133.696 98.9483 134.11C99.3396 134.547 99.7309 134.962 100.122 135.353C101.388 136.619 102.712 137.804 104.093 138.909C104.438 139.3 104.611 139.68 104.611 140.049C104.634 140.44 104.553 140.751 104.369 140.981C104.024 141.326 103.586 141.418 103.057 141.257C102.551 141.073 102.01 140.785 101.434 140.394C100.859 140.002 100.295 139.554 99.7425 139.047C99.213 138.518 98.7527 138.057 98.3614 137.666C97.878 137.183 97.4177 136.699 96.9803 136.216C96.566 135.71 96.1517 135.203 95.7374 134.697ZM98.8116 150.201C99.4101 149.74 100.101 149.188 100.883 148.543C101.712 147.899 102.575 147.197 103.473 146.437C104.37 145.678 105.268 144.872 106.166 144.02C107.087 143.192 107.973 142.352 108.824 141.5C109.998 140.326 111.034 139.175 111.932 138.047C112.875 136.919 113.566 135.907 114.003 135.009C114.234 134.549 114.452 134.215 114.659 134.008C115.005 133.662 115.338 133.467 115.661 133.421C116.029 133.375 116.328 133.467 116.558 133.697C116.973 134.111 117.019 134.802 116.696 135.769C117.985 137.058 119.079 138.565 119.976 140.292C120.897 142.041 121.507 143.825 121.806 145.643C122.129 147.485 122.083 149.28 121.668 151.029C121.277 152.756 120.425 154.275 119.113 155.587C118.124 156.577 116.95 157.313 115.592 157.797C114.234 158.28 112.841 158.545 111.414 158.591C109.987 158.637 108.571 158.464 107.167 158.073C105.809 157.682 104.612 157.106 103.576 156.347C103.277 156.001 103.185 155.633 103.3 155.242C103.438 154.827 103.634 154.494 103.887 154.24C104.071 154.056 104.29 153.93 104.543 153.861C104.842 153.792 105.118 153.838 105.372 153.999C106.246 154.551 107.225 154.954 108.306 155.207C109.434 155.46 110.551 155.541 111.656 155.449C112.783 155.38 113.842 155.15 114.832 154.758C115.868 154.367 116.742 153.815 117.456 153.101C118.285 152.272 118.803 151.225 119.01 149.959C119.24 148.67 119.217 147.335 118.941 145.954C118.711 144.573 118.25 143.215 117.56 141.88C116.915 140.545 116.121 139.382 115.177 138.393C114.257 139.544 113.29 140.671 112.277 141.776C111.287 142.904 110.24 144.02 109.135 145.125C107.685 146.575 106.246 147.922 104.819 149.165C103.415 150.385 101.988 151.49 100.538 152.48C100.147 152.733 99.7669 152.836 99.3986 152.79C99.0763 152.744 98.7886 152.618 98.5354 152.41C98.3052 152.18 98.1556 151.87 98.0866 151.478C98.0405 151.11 98.2016 150.742 98.5699 150.373C98.616 150.327 98.6505 150.293 98.6735 150.27C98.7195 150.27 98.7656 150.247 98.8116 150.201Z" fill="#434343"/>
</g>
<defs>
<filter id="filter0_d_540_2216" x="0" y="0" width="188" height="188" filterUnits="userSpaceOnUse" color-interpolation-filters="sRGB">
<feFlood flood-opacity="0" result="BackgroundImageFix"/>
<feColorMatrix in="SourceAlpha" type="matrix" values="0 0 0 0 0 0 0 0 0 0 0 0 0 0 0 0 0 0 127 0" result="hardAlpha"/>
<feOffset dy="4"/>
<feGaussianBlur stdDeviation="2"/>
<feComposite in2="hardAlpha" operator="out"/>
<feColorMatrix type="matrix" values="0 0 0 0 0 0 0 0 0 0 0 0 0 0 0 0 0 0 0.25 0"/>
<feBlend mode="normal" in2="BackgroundImageFix" result="effect1_dropShadow_540_2216"/>
<feBlend mode="normal" in="SourceGraphic" in2="effect1_dropShadow_540_2216" result="shape"/>
</filter>
</defs>
</svg>
