<svg width="239" height="76" viewBox="0 0 239 76" fill="none" xmlns="http://www.w3.org/2000/svg">
<g id="full-screen">
<path id="expand" d="M104.286 0.285767H83.7147C81.8147 0.285767 80.2861 1.81434 80.2861 3.71434V24.2858C80.2861 25.6715 81.1147 26.9286 82.4004 27.4572C83.6861 27.9858 85.1576 27.7001 86.1433 26.7143L91.8576 21.0001L108.884 38.0035L91.881 55.0069L86.1667 49.2926C85.181 48.3069 83.7096 48.0212 82.4239 48.5497C81.1381 49.0783 80.3096 50.3354 80.3096 51.7212V72.2926C80.3096 74.1926 81.8381 75.7212 83.7381 75.7212H104.31C105.695 75.7212 106.952 74.8926 107.481 73.6069C108.01 72.3212 107.724 70.8498 106.738 69.8641L101.024 64.1497L118.027 47.1463L135.031 64.1497L129.316 69.8641C128.331 70.8498 128.045 72.3212 128.574 73.6069C129.102 74.8926 130.359 75.7212 131.745 75.7212H152.316C154.216 75.7212 155.745 74.1926 155.745 72.2926V51.7212C155.745 50.3354 154.916 49.0783 153.631 48.5497C152.345 48.0212 150.874 48.3069 149.888 49.2926L144.174 55.0069L127.17 38.0035L144.174 21.0001L149.888 26.7143C150.874 27.7001 152.345 27.9858 153.631 27.4572C154.916 26.9286 155.745 25.6715 155.745 24.2858V3.71435C155.745 1.81435 154.216 0.285767 152.316 0.285767H131.745C130.359 0.285767 129.102 1.11434 128.574 2.40005C128.045 3.68577 128.331 5.1572 129.316 6.14292L135.031 11.8572L118.027 28.8606L101 11.8572L106.715 6.14291C107.7 5.1572 107.986 3.68577 107.458 2.40005C106.929 1.11434 105.672 0.285767 104.286 0.285767Z" fill="#898989"/>
<path id="normal" d="M199 6H178.429C176.529 6 175 7.52857 175 9.42857V30C175 31.3857 175.829 32.6429 177.114 33.1714C178.4 33.7 179.871 33.4143 180.857 32.4286L186.571 26.7143L197.857 38L186.571 49.2857L180.857 43.5714C179.871 42.5857 178.4 42.3 177.114 42.8286C175.829 43.3571 175 44.6143 175 46V66.5714C175 68.4714 176.529 70 178.429 70H199C200.386 70 201.643 69.1714 202.171 67.8857C202.7 66.6 202.414 65.1286 201.429 64.1429L195.714 58.4286L207 47.1429L218.286 58.4286L212.571 64.1429C211.586 65.1286 211.3 66.6 211.829 67.8857C212.357 69.1714 213.614 70 215 70H235.571C237.471 70 239 68.4714 239 66.5714V46C239 44.6143 238.171 43.3571 236.886 42.8286C235.6 42.3 234.129 42.5857 233.143 43.5714L227.429 49.2857L216.143 38L227.429 26.7143L233.143 32.4286C234.129 33.4143 235.6 33.7 236.886 33.1714C238.171 32.6429 239 31.3857 239 30V9.42857C239 7.52857 237.471 6 235.571 6H215C213.614 6 212.357 6.82857 211.829 8.11429C211.3 9.4 211.586 10.8714 212.571 11.8571L218.286 17.5714L207 28.8571L195.714 17.5714L201.429 11.8571C202.414 10.8714 202.7 9.4 202.171 8.11429C201.643 6.82857 200.386 6 199 6Z" fill="#636363"/>
<path id="shirink" d="M24.1426 9.14282H3.57115C1.67115 9.14282 0.142578 10.6714 0.142578 12.5714V33.1428C0.142578 34.5285 0.971149 35.7857 2.25686 36.3143C3.54258 36.8428 5.01401 36.5571 5.99972 35.5714L11.714 29.8571L19.857 38L11.7142 46.1429L5.99987 40.4286C5.01415 39.4429 3.54273 39.1571 2.25701 39.6857C0.971297 40.2143 0.142726 41.4714 0.142726 42.8571V63.4286C0.142726 65.3286 1.6713 66.8571 3.5713 66.8571H24.1427C25.5284 66.8571 26.7856 66.0286 27.3142 64.7429C27.8427 63.4571 27.557 61.9857 26.5713 61L20.857 55.2857L28.9999 47.1429L37.1427 55.2857L31.4284 61C30.4427 61.9857 30.157 63.4571 30.6856 64.7429C31.2142 66.0286 32.4713 66.8571 33.857 66.8571H54.4284C56.3284 66.8571 57.857 65.3286 57.857 63.4286V42.8571C57.857 41.4714 57.0284 40.2143 55.7427 39.6857C54.457 39.1571 52.9856 39.4429 51.9999 40.4286L46.2856 46.1429L38.1427 38L46.2856 29.8571L51.9999 35.5714C52.9856 36.5571 54.457 36.8428 55.7427 36.3143C57.0284 35.7857 57.857 34.5286 57.857 33.1429V12.5714C57.857 10.6714 56.3284 9.14285 54.4284 9.14285H33.857C32.4713 9.14285 31.2142 9.97142 30.6856 11.2571C30.157 12.5428 30.4427 14.0143 31.4284 15L37.1427 20.7143L28.9999 28.8571L20.8569 20.7143L26.5712 15C27.5569 14.0143 27.8426 12.5428 27.314 11.2571C26.7854 9.97139 25.5283 9.14282 24.1426 9.14282Z" fill="#353535"/>
</g>
</svg>
