<svg width="48" height="48" viewBox="0 0 65 58" fill="none" xmlns="http://www.w3.org/2000/svg">
    <path
        d="M7.3125 9.96875C7.3125 8.28628 7.91172 6.67273 8.97833 5.48304C10.0449 4.29336 11.4916 3.625 13 3.625C14.5084 3.625 15.9551 4.29336 17.0217 5.48304C18.0883 6.67273 18.6875 8.28628 18.6875 9.96875C18.6875 11.6512 18.0883 13.2648 17.0217 14.4545C15.9551 15.6441 14.5084 16.3125 13 16.3125C11.4916 16.3125 10.0449 15.6441 8.97833 14.4545C7.91172 13.2648 7.3125 11.6512 7.3125 9.96875ZM6.5 27.8332C5.48438 29.102 4.875 30.7898 4.875 32.625C4.875 34.4602 5.48438 36.148 6.5 37.4168V27.8332ZM21.1656 22.2484C18.1492 25.2277 16.25 29.5891 16.25 34.4375C16.25 38.323 17.4688 41.8914 19.5 44.6895V47.125C19.5 49.1301 18.0477 50.75 16.25 50.75H9.75C7.95234 50.75 6.5 49.1301 6.5 47.125V44.0891C2.66094 42.05 0 37.6887 0 32.625C0 25.6129 5.08828 19.9375 11.375 19.9375H14.625C17.0625 19.9375 19.3172 20.7871 21.1656 22.2371V22.2484ZM45.5 47.125V44.6895C47.5312 41.8914 48.75 38.323 48.75 34.4375C48.75 29.5891 46.8508 25.2277 43.8344 22.2371C45.6828 20.7871 47.9375 19.9375 50.375 19.9375H53.625C59.9117 19.9375 65 25.6129 65 32.625C65 37.6887 62.3391 42.05 58.5 44.0891V47.125C58.5 49.1301 57.0477 50.75 55.25 50.75H48.75C46.9523 50.75 45.5 49.1301 45.5 47.125ZM46.3125 9.96875C46.3125 8.28628 46.9117 6.67273 47.9783 5.48304C49.0449 4.29336 50.4916 3.625 52 3.625C53.5084 3.625 54.9551 4.29336 56.0217 5.48304C57.0883 6.67273 57.6875 8.28628 57.6875 9.96875C57.6875 11.6512 57.0883 13.2648 56.0217 14.4545C54.9551 15.6441 53.5084 16.3125 52 16.3125C50.4916 16.3125 49.0449 15.6441 47.9783 14.4545C46.9117 13.2648 46.3125 11.6512 46.3125 9.96875ZM58.5 27.8332V37.4281C59.5156 36.148 60.125 34.4715 60.125 32.6363C60.125 30.8012 59.5156 29.1133 58.5 27.8445V27.8332ZM32.5 3.625C34.2239 3.625 35.8772 4.38884 37.0962 5.74848C38.3152 7.10811 39 8.95218 39 10.875C39 12.7978 38.3152 14.6419 37.0962 16.0015C35.8772 17.3612 34.2239 18.125 32.5 18.125C30.7761 18.125 29.1228 17.3612 27.9038 16.0015C26.6848 14.6419 26 12.7978 26 10.875C26 8.95218 26.6848 7.10811 27.9038 5.74848C29.1228 4.38884 30.7761 3.625 32.5 3.625ZM24.375 34.4375C24.375 36.2727 24.9844 37.9492 26 39.2293V29.6457C24.9844 30.9258 24.375 32.6023 24.375 34.4375ZM39 29.6457V39.2406C40.0156 37.9605 40.625 36.284 40.625 34.4488C40.625 32.6137 40.0156 30.9258 39 29.657V29.6457ZM45.5 34.4375C45.5 39.5012 42.8391 43.8625 39 45.9016V50.75C39 52.7551 37.5477 54.375 35.75 54.375H29.25C27.4523 54.375 26 52.7551 26 50.75V45.9016C22.1609 43.8625 19.5 39.5012 19.5 34.4375C19.5 27.4254 24.5883 21.75 30.875 21.75H34.125C40.4117 21.75 45.5 27.4254 45.5 34.4375Z"
        fill="black" />
</svg>