<svg width="188" height="188" viewBox="0 0 188 188" fill="none" xmlns="http://www.w3.org/2000/svg">
<g id="Property 1=POSTPONED">
<g id="back">
<path d="M4 0L24.25 27V0L4 0Z" fill="#968D5D"/>
<path d="M184 159.75H157L184 180V159.75Z" fill="#968D5D"/>
</g>
<g id="Wrapper" filter="url(#filter0_d_540_2189)">
<path d="M86.2852 180L4 96.75L4 0C53.0159 46.8645 135.704 129.938 184 180H86.2852Z" fill="#EED22F"/>
</g>
<path id="status" d="M19.7447 58.2332C20.5734 58.8041 21.3191 59.2736 21.982 59.6419C22.6634 60.0286 23.2803 60.2956 23.8327 60.443C24.4035 60.5719 24.9191 60.5719 25.3795 60.443C25.8767 60.3141 26.3554 60.0194 26.8158 59.5591C27.2025 59.1724 27.405 58.6752 27.4235 58.0675C27.4419 57.4598 27.3222 56.8061 27.0644 56.1064C26.8066 55.4067 26.4199 54.6885 25.9043 53.9519C25.3887 53.2154 24.7902 52.5064 24.1089 51.8251C23.9432 51.6594 23.7774 51.4936 23.6117 51.3279C23.446 51.1622 23.2618 50.9964 23.0593 50.8307C22.5621 51.5489 21.9452 52.3131 21.2087 53.1233C20.4905 53.9519 19.7171 54.7806 18.8885 55.6092C18.1887 56.309 17.4614 56.9995 16.7064 57.6808C15.9698 58.3806 15.2609 59.0343 14.5795 59.6419C13.9166 60.2312 13.2813 60.756 12.6737 61.2163C12.1028 61.6767 11.624 62.045 11.2373 62.3212C10.9243 62.5238 10.6205 62.6066 10.3258 62.5698C10.0496 62.5514 9.81024 62.4409 9.60768 62.2383C9.40512 62.0358 9.27622 61.778 9.22098 61.4649C9.18415 61.1703 9.29464 60.8941 9.55244 60.6363C9.64451 60.5442 9.72737 60.4798 9.80103 60.443C10.3166 60.0378 10.8783 59.5867 11.4859 59.0895C12.1304 58.5923 12.7841 58.0491 13.447 57.4598C14.11 56.8706 14.7729 56.2629 15.4358 55.6368C16.1355 55.0108 16.8076 54.3755 17.4521 53.731C18.5018 52.6813 19.4317 51.6778 20.2419 50.7202C21.0705 49.7443 21.623 48.9156 21.8992 48.2343C22.0281 47.8844 22.1938 47.6082 22.3964 47.4057C22.6542 47.1479 22.9212 47.0098 23.1974 46.9913C23.492 46.9545 23.7406 47.0374 23.9432 47.2399C24.293 47.5898 24.3851 48.1054 24.2194 48.7867C24.4404 48.9709 24.6429 49.155 24.8271 49.3392C25.0112 49.5233 25.1953 49.7074 25.3795 49.8916C26.3002 50.8123 27.1104 51.7883 27.8102 52.8195C28.5283 53.8691 29.0531 54.8911 29.3846 55.8854C29.7344 56.8982 29.8541 57.865 29.7437 58.7857C29.6516 59.7248 29.2465 60.5534 28.5283 61.2716C27.2577 62.5422 25.7662 63.0394 24.0537 62.7631C22.3595 62.5053 20.4997 61.603 18.4741 60.0563C18.4373 60.0194 18.4005 60.001 18.3637 60.001C18.3637 60.001 18.3452 59.9826 18.3084 59.9458C18.069 59.7064 17.977 59.4486 18.0322 59.1724C18.1059 58.8777 18.2532 58.6199 18.4741 58.399C18.6215 58.2517 18.8148 58.1504 19.0542 58.0951C19.2936 58.0399 19.5237 58.0859 19.7447 58.2332ZM34.5785 61.3556C34.9652 61.4476 35.2598 61.5949 35.4624 61.7975C35.4992 61.7238 35.5637 61.641 35.6557 61.5489C35.9504 61.2543 36.3739 61.199 36.9263 61.3832C37.4787 61.5673 38.0588 61.9632 38.6665 62.5709C39.624 63.5284 40.1948 64.5596 40.379 65.6645C40.5631 66.7693 40.4987 67.865 40.1856 68.9514C39.8726 70.0379 39.3754 71.0875 38.6941 72.1003C38.0312 73.0946 37.3222 73.9693 36.5672 74.7243C35.6833 75.6082 34.7166 76.3724 33.667 77.0169C32.6542 77.6614 31.623 78.1217 30.5734 78.3979C29.5422 78.6557 28.5386 78.7018 27.5627 78.536C26.5867 78.3703 25.7212 77.91 24.9663 77.155C23.8798 76.0685 23.1709 74.9729 22.8394 73.868C22.5448 72.7632 22.5172 71.6675 22.7566 70.5811C22.9959 69.4947 23.4471 68.4543 24.11 67.4599C24.7913 66.4471 25.5739 65.4988 26.4578 64.6149C27.8389 63.2338 29.1739 62.3223 30.4629 61.8804C31.7703 61.42 33.1422 61.2451 34.5785 61.3556ZM35.7386 63.2891C35.6649 63.2891 35.5913 63.2522 35.5176 63.1786C35.444 63.1049 35.4071 63.0313 35.4071 62.9576L35.2966 63.0681C35.002 63.3627 34.5969 63.51 34.0813 63.51C33.2158 63.4916 32.2399 63.7126 31.1534 64.1729C30.067 64.6333 29.0542 65.333 28.1151 66.2722C27.4154 66.9719 26.8169 67.7177 26.3197 68.5095C25.8225 69.3013 25.4727 70.0931 25.2701 70.8849C25.0675 71.6767 25.0491 72.4501 25.2149 73.2051C25.3806 73.9601 25.7765 74.6506 26.4026 75.2767C26.8998 75.7739 27.4706 76.087 28.1151 76.2159C28.778 76.3263 29.4685 76.2803 30.1867 76.0777C30.9417 75.8752 31.7059 75.5161 32.4793 75.0005C33.2711 74.4665 34.0629 73.8036 34.8547 73.0118C35.3519 72.5146 35.8675 71.9069 36.4015 71.1888C36.9539 70.489 37.3867 69.7432 37.6997 68.9514C38.0312 68.1412 38.1693 67.3218 38.114 66.4931C38.0772 65.6829 37.7089 64.9279 37.0092 64.2282C36.6225 63.8415 36.3278 63.6021 36.1253 63.51C35.9411 63.4364 35.8122 63.3627 35.7386 63.2891ZM44.3299 75.6369C43.9801 76.3182 43.7131 77.0824 43.5289 77.9295C43.3448 78.7765 43.1975 79.6604 43.087 80.5811C42.9949 81.4834 42.8936 82.3949 42.7831 83.3156C42.6727 84.2364 42.5069 85.1202 42.286 85.9673C42.1939 86.354 42.0466 86.7039 41.844 87.0169C41.6599 87.3115 41.4573 87.5693 41.2363 87.7903C40.776 88.2507 40.2604 88.5637 39.6895 88.7294C39.1555 88.8952 38.6031 88.932 38.0323 88.8399C37.4614 88.7478 36.8906 88.5453 36.3197 88.2322C35.7857 87.9192 35.2701 87.5141 34.7729 87.0169C34.2758 86.5197 33.7878 85.9765 33.309 85.3872C32.8671 84.798 32.4896 84.2364 32.1765 83.7023C31.9003 83.1683 31.707 82.6804 31.5965 82.2384C31.5228 81.7965 31.5965 81.465 31.8175 81.244C32.02 81.0415 32.2686 80.9034 32.5632 80.8297C32.8763 80.7745 33.1341 80.8481 33.3366 81.0507C33.3735 81.0875 33.4932 81.2809 33.6957 81.6307C33.8983 81.9806 34.1469 82.3949 34.4415 82.8737C34.7729 83.3525 35.1228 83.8497 35.4911 84.3653C35.8778 84.8993 36.2645 85.3596 36.6512 85.7463C37.13 86.2251 37.6272 86.4829 38.1428 86.5197C38.6952 86.5566 39.2016 86.3448 39.6619 85.8844C39.9197 85.6266 40.1039 85.2952 40.2144 84.8901C40.3617 84.485 40.4722 83.9878 40.5458 83.3985C40.6195 82.8093 40.6839 82.1371 40.7392 81.3822C40.8128 80.6088 40.9233 79.7433 41.0706 78.7857C41.31 77.1469 41.6046 75.8579 41.9545 74.9188C42.3044 73.9796 42.7739 73.2154 43.3632 72.6262C44.1918 71.7975 45.0941 71.3924 46.0701 71.4108C47.0645 71.4477 48.1417 72.0461 49.3018 73.2062C49.6885 73.5929 50.0568 74.0349 50.4066 74.5321C50.7933 75.0292 51.1064 75.5264 51.3458 76.0236C51.6036 76.5024 51.7601 76.9535 51.8153 77.3771C51.889 77.7822 51.8153 78.0952 51.5944 78.3162C51.4102 78.5003 51.1892 78.6108 50.9314 78.6476C50.6736 78.6845 50.4527 78.6108 50.2685 78.4267C50.1765 78.3346 50.0476 78.1505 49.8818 77.8742C49.7161 77.598 49.5043 77.2758 49.2465 76.9075C49.0256 76.5392 48.7678 76.1525 48.4731 75.7474C48.1969 75.3607 47.9115 75.02 47.6169 74.7254C46.7146 73.8231 45.8675 73.7679 45.0757 74.5597C44.7995 74.8359 44.5509 75.195 44.3299 75.6369ZM44.7454 95.0558C45.7766 94.2824 46.909 93.3709 48.1428 92.3213C49.395 91.2533 50.5919 90.1484 51.7336 89.0068C52.6727 88.0676 53.5105 87.1561 54.2471 86.2722C55.0021 85.3699 55.5545 84.5781 55.9044 83.8968C55.9044 83.7863 55.9688 83.6666 56.0977 83.5377C55.5269 82.9669 54.9929 82.4513 54.4957 81.9909C54.0353 81.5306 53.6579 81.0978 53.3632 80.6927C53.087 80.306 52.9213 79.9562 52.866 79.6431C52.8108 79.3301 52.9213 79.0354 53.1975 78.7592C53.3816 78.5751 53.621 78.483 53.9157 78.483C54.2287 78.5014 54.5233 78.6487 54.7995 78.925C55.0942 79.2932 55.444 79.6984 55.8492 80.1403C56.2727 80.6007 56.7238 81.0702 57.2026 81.549C58.1601 82.5065 59.1453 83.4549 60.1581 84.394C61.1893 85.3147 62.0732 86.0513 62.8097 86.6037L62.9755 86.7694C63.1964 86.9904 63.3069 87.2482 63.3069 87.5428C63.3253 87.819 63.2425 88.0492 63.0583 88.2334C62.8005 88.4912 62.4783 88.574 62.0916 88.4819C61.7233 88.4083 61.309 88.2149 60.8486 87.9019C60.4067 87.6073 59.9279 87.2206 59.4123 86.7418C58.8967 86.263 58.3719 85.7566 57.8379 85.2226C57.3959 86.0329 56.733 86.9352 55.8492 87.9295C55.0021 88.9239 54.0722 89.9275 53.0594 90.9402C52.4149 91.5847 51.7612 92.2016 51.0983 92.7909C50.4538 93.3985 49.8185 93.9602 49.1924 94.4758C48.5847 95.0098 48.0139 95.4886 47.4799 95.9121C46.9643 96.3172 46.5315 96.6579 46.1817 96.9341C45.887 97.1551 45.5832 97.2379 45.2702 97.1827C44.9755 97.1458 44.7362 97.0354 44.552 96.8512C44.3495 96.6487 44.2206 96.3909 44.1653 96.0778C44.1285 95.7832 44.239 95.507 44.4968 95.2492C44.5888 95.1571 44.6717 95.0927 44.7454 95.0558ZM61.7336 100.222C62.5622 100.793 63.308 101.263 63.9709 101.631C64.6523 102.018 65.2691 102.285 65.8216 102.432C66.3924 102.561 66.908 102.561 67.3684 102.432C67.8655 102.303 68.3443 102.008 68.8047 101.548C69.1914 101.161 69.3939 100.664 69.4123 100.056C69.4308 99.4487 69.3111 98.795 69.0533 98.0953C68.7955 97.3955 68.4088 96.6774 67.8932 95.9408C67.3776 95.2042 66.7791 94.4953 66.0978 93.814C65.932 93.6482 65.7663 93.4825 65.6006 93.3168C65.4349 93.1511 65.2507 92.9853 65.0482 92.8196C64.551 93.5378 63.9341 94.302 63.1975 95.1122C62.4794 95.9408 61.706 96.7695 60.8773 97.5981C60.1776 98.2978 59.4502 98.9884 58.6953 99.6697C57.9587 100.369 57.2497 101.023 56.5684 101.631C55.9055 102.22 55.2702 102.745 54.6625 103.205C54.0917 103.666 53.6129 104.034 53.2262 104.31C52.9132 104.513 52.6093 104.596 52.3147 104.559C52.0385 104.54 51.7991 104.43 51.5966 104.227C51.394 104.025 51.2651 103.767 51.2099 103.454C51.173 103.159 51.2835 102.883 51.5413 102.625C51.6334 102.533 51.7163 102.469 51.7899 102.432C52.3055 102.027 52.8671 101.576 53.4748 101.078C54.1193 100.581 54.773 100.038 55.4359 99.4487C56.0988 98.8595 56.7618 98.2518 57.4247 97.6257C58.1244 96.9996 58.7965 96.3643 59.441 95.7198C60.4906 94.6702 61.4206 93.6667 62.2308 92.7091C63.0594 91.7332 63.6119 90.9045 63.8881 90.2232C64.017 89.8733 64.1827 89.5971 64.3853 89.3946C64.6431 89.1368 64.9101 88.9986 65.1863 88.9802C65.4809 88.9434 65.7295 89.0263 65.932 89.2288C66.2819 89.5787 66.374 90.0943 66.2083 90.7756C66.4292 90.9598 66.6318 91.1439 66.8159 91.3281C67.0001 91.5122 67.1842 91.6963 67.3684 91.8805C68.2891 92.8012 69.0993 93.7771 69.799 94.8083C70.5172 95.858 71.042 96.8799 71.3735 97.8743C71.7233 98.8871 71.843 99.8538 71.7325 100.775C71.6405 101.714 71.2354 102.542 70.5172 103.26C69.2466 104.531 67.7551 105.028 66.0425 104.752C64.3484 104.494 62.4886 103.592 60.463 102.045C60.4262 102.008 60.3894 101.99 60.3525 101.99C60.3525 101.99 60.3341 101.971 60.2973 101.935C60.0579 101.695 59.9658 101.437 60.0211 101.161C60.0947 100.867 60.242 100.609 60.463 100.388C60.6103 100.241 60.8037 100.139 61.0431 100.084C61.2825 100.029 61.5126 100.075 61.7336 100.222ZM76.5674 103.344C76.9541 103.437 77.2487 103.584 77.4513 103.786C77.4881 103.713 77.5525 103.63 77.6446 103.538C77.9392 103.243 78.3628 103.188 78.9152 103.372C79.4676 103.556 80.0477 103.952 80.6553 104.56C81.6129 105.517 82.1837 106.549 82.3679 107.653C82.552 108.758 82.4876 109.854 82.1745 110.94C81.8615 112.027 81.3643 113.076 80.683 114.089C80.02 115.084 79.3111 115.958 78.5561 116.713C77.6722 117.597 76.7055 118.361 75.6559 119.006C74.6431 119.65 73.6119 120.111 72.5623 120.387C71.5311 120.645 70.5275 120.691 69.5516 120.525C68.5756 120.359 67.7101 119.899 66.9551 119.144C65.8687 118.057 65.1598 116.962 64.8283 115.857C64.5337 114.752 64.5061 113.656 64.7454 112.57C64.9848 111.484 65.436 110.443 66.0989 109.449C66.7802 108.436 67.5628 107.488 68.4467 106.604C69.8278 105.223 71.1628 104.311 72.4518 103.869C73.7592 103.409 75.1311 103.234 76.5674 103.344ZM77.7275 105.278C77.6538 105.278 77.5802 105.241 77.5065 105.167C77.4328 105.094 77.396 105.02 77.396 104.946L77.2855 105.057C76.9909 105.352 76.5858 105.499 76.0702 105.499C75.2047 105.481 74.2288 105.701 73.1423 106.162C72.0559 106.622 71.0431 107.322 70.104 108.261C69.4042 108.961 68.8058 109.707 68.3086 110.498C67.8114 111.29 67.4615 112.082 67.259 112.874C67.0564 113.666 67.038 114.439 67.2037 115.194C67.3695 115.949 67.7654 116.64 68.3915 117.266C68.8886 117.763 69.4595 118.076 70.104 118.205C70.7669 118.315 71.4574 118.269 72.1756 118.067C72.9306 117.864 73.6948 117.505 74.4682 116.989C75.26 116.455 76.0518 115.792 76.8436 115.001C77.3408 114.503 77.8564 113.896 78.3904 113.178C78.9428 112.478 79.3755 111.732 79.6886 110.94C80.02 110.13 80.1582 109.311 80.1029 108.482C80.0661 107.672 79.6978 106.917 78.9981 106.217C78.6114 105.83 78.3167 105.591 78.1142 105.499C77.93 105.425 77.8011 105.352 77.7275 105.278ZM94.771 120.996C94.8078 120.922 94.8814 120.83 94.9919 120.719C95.2497 120.462 95.5352 120.323 95.8482 120.305C96.1612 120.287 96.419 120.379 96.6216 120.581C96.8241 120.784 96.953 121.042 97.0083 121.355C97.0635 121.668 96.9623 122.008 96.7045 122.377C96.06 123.279 95.351 124.172 94.5776 125.056C93.8042 125.94 92.9756 126.824 92.0917 127.708C90.6554 129.144 89.1362 130.516 87.5342 131.823C85.9505 133.112 84.4222 134.217 82.949 135.138C82.636 135.34 82.3506 135.423 82.0928 135.386C81.8534 135.368 81.6508 135.276 81.4851 135.11C81.2825 134.908 81.172 134.595 81.1536 134.171C81.1168 133.766 81.2181 133.039 81.4575 131.989C81.6968 130.939 82.0928 129.457 82.6452 127.542C83.216 125.645 84.017 123.113 85.0482 119.946C85.4349 118.786 85.7204 117.911 85.9045 117.322C86.0886 116.733 86.2636 116.374 86.4293 116.245C86.6319 116.042 86.8989 115.941 87.2303 115.941C87.5802 115.922 87.8564 116.015 88.059 116.217C88.2063 116.364 88.2984 116.493 88.3352 116.604C88.4088 116.714 88.4088 116.88 88.3352 117.101C88.2984 117.322 88.1971 117.644 88.0313 118.068C87.884 118.473 87.6999 119.062 87.4789 119.836L84.772 128.564C84.5695 129.282 84.4037 129.89 84.2748 130.387C84.1459 130.884 84.0539 131.271 83.9986 131.547C86.3188 129.89 88.4088 128.131 90.2687 126.271C91.171 125.369 91.9904 124.476 92.727 123.592C93.482 122.69 94.1633 121.824 94.771 120.996ZM88.0313 113.925C87.2211 114.551 86.2636 115.379 85.1587 116.41C84.0723 117.423 82.9674 118.491 81.8442 119.615C80.6657 120.793 79.5516 121.981 78.502 123.178C77.4892 124.375 76.5685 125.387 75.7398 126.216C75.39 126.566 75.0309 126.759 74.6626 126.796C74.3127 126.815 74.0181 126.704 73.7787 126.465C73.6314 126.317 73.5485 126.106 73.5301 125.829C73.5485 125.553 73.6867 125.249 73.9445 124.918C74.8652 123.739 75.9516 122.469 77.2038 121.106C78.4744 119.762 79.7726 118.427 81.0984 117.101C82.0743 116.125 83.0135 115.204 83.9158 114.339C84.8549 113.473 85.748 112.709 86.595 112.046C86.9449 111.733 87.2764 111.604 87.5894 111.66C87.9209 111.733 88.1879 111.871 88.3904 112.074C88.5562 112.313 88.6298 112.59 88.6114 112.903C88.6114 113.197 88.4733 113.483 88.1971 113.759L88.0313 113.925ZM98.2247 125.444C97.9853 125.094 97.8657 124.772 97.8657 124.477C97.8841 124.164 97.9761 123.925 98.1419 123.759C98.3444 123.556 98.6114 123.455 98.9429 123.455C99.2743 123.455 99.6058 123.621 99.9373 123.952C100.287 124.376 100.655 124.799 101.042 125.223C101.429 125.646 101.825 126.061 102.23 126.466C102.93 127.165 103.62 127.819 104.301 128.427C105.001 129.053 105.664 129.605 106.29 130.084C106.603 130.397 106.76 130.719 106.76 131.051C106.797 131.382 106.714 131.649 106.511 131.852C105.996 132.368 105.25 132.248 104.274 131.493C103.316 130.756 101.908 129.458 100.048 127.598C99.0718 128.28 98.0866 129.044 97.0923 129.891C96.1163 130.719 95.1127 131.649 94.0815 132.681C93.4186 133.343 92.7925 133.988 92.2033 134.614C91.614 135.24 91.0432 135.866 90.4908 136.492C90.1593 136.897 89.9291 137.256 89.8002 137.57C89.7081 137.883 89.6989 138.186 89.7726 138.481C89.8831 138.776 90.0764 139.079 90.3526 139.393C90.6473 139.724 91.0248 140.12 91.4851 140.58C92.0744 141.17 92.6913 141.713 93.3358 142.21C94.0171 142.707 94.726 143.121 95.4626 143.453C95.6836 143.563 95.8677 143.692 96.015 143.84C96.2544 144.079 96.3557 144.309 96.3189 144.53C96.3004 144.769 96.2084 144.972 96.0426 145.138C95.6928 145.488 95.2416 145.607 94.6892 145.497C94.1368 145.386 93.5659 145.165 92.9767 144.834C92.4058 144.521 91.8534 144.134 91.3194 143.674C90.767 143.232 90.325 142.845 89.9936 142.514C89.6437 142.164 89.257 141.759 88.8335 141.298C88.4099 140.875 88.0417 140.396 87.7286 139.862C87.4524 139.328 87.2867 138.757 87.2314 138.15C87.1762 137.542 87.3419 136.916 87.7286 136.271C88.0785 135.664 88.5757 134.982 89.2202 134.227C89.8831 133.454 90.6197 132.662 91.4299 131.852C92.0928 131.189 92.7557 130.544 93.4186 129.918C94.1184 129.292 94.7813 128.703 95.4074 128.151C96.0334 127.598 96.6043 127.119 97.1199 126.714C97.6539 126.291 98.0774 125.959 98.3905 125.72C98.2984 125.628 98.2524 125.563 98.2524 125.527C98.2708 125.508 98.2616 125.481 98.2247 125.444ZM95.0759 135.332C94.7997 135.019 94.6892 134.725 94.7444 134.448C94.8181 134.191 94.9562 133.96 95.1588 133.758C95.3429 133.574 95.5823 133.482 95.8769 133.482C96.19 133.5 96.4754 133.638 96.7332 133.896C97.0462 134.209 97.3501 134.531 97.6447 134.863C97.9577 135.213 98.2708 135.544 98.5838 135.857C99.5966 136.87 100.655 137.818 101.76 138.702C102.036 139.015 102.175 139.319 102.175 139.614C102.193 139.927 102.129 140.175 101.981 140.359C101.705 140.635 101.355 140.709 100.932 140.58C100.527 140.433 100.094 140.203 99.6334 139.89C99.1731 139.577 98.7219 139.218 98.28 138.812C97.8564 138.389 97.4882 138.021 97.1751 137.708C96.7884 137.321 96.4201 136.934 96.0703 136.548C95.7388 136.142 95.4074 135.737 95.0759 135.332ZM97.5353 147.735C98.0141 147.367 98.5665 146.925 99.1926 146.409C99.8555 145.894 100.546 145.332 101.264 144.725C101.982 144.117 102.7 143.472 103.419 142.791C104.155 142.128 104.864 141.456 105.545 140.775C106.485 139.836 107.313 138.915 108.031 138.013C108.786 137.11 109.339 136.3 109.689 135.582C109.873 135.214 110.048 134.947 110.214 134.781C110.49 134.505 110.757 134.348 111.015 134.311C111.309 134.274 111.549 134.348 111.733 134.532C112.064 134.864 112.101 135.416 111.843 136.19C112.874 137.221 113.749 138.427 114.467 139.808C115.204 141.207 115.692 142.635 115.931 144.089C116.189 145.562 116.152 146.999 115.821 148.398C115.508 149.779 114.826 150.995 113.777 152.044C112.985 152.836 112.046 153.425 110.959 153.812C109.873 154.199 108.759 154.41 107.617 154.447C106.475 154.484 105.343 154.346 104.22 154.033C103.133 153.72 102.176 153.26 101.347 152.652C101.108 152.376 101.034 152.081 101.126 151.768C101.237 151.437 101.393 151.17 101.596 150.967C101.743 150.82 101.918 150.718 102.12 150.663C102.36 150.608 102.581 150.645 102.783 150.774C103.483 151.216 104.266 151.538 105.131 151.74C106.033 151.943 106.927 152.007 107.81 151.934C108.713 151.878 109.56 151.694 110.352 151.381C111.18 151.068 111.88 150.626 112.451 150.055C113.114 149.393 113.528 148.555 113.694 147.542C113.878 146.511 113.86 145.443 113.639 144.338C113.454 143.233 113.086 142.147 112.534 141.079C112.018 140.011 111.383 139.081 110.628 138.289C109.891 139.209 109.118 140.112 108.308 140.996C107.516 141.898 106.678 142.791 105.794 143.675C104.634 144.835 103.483 145.912 102.341 146.907C101.218 147.883 100.076 148.766 98.9164 149.558C98.6033 149.761 98.2995 149.844 98.0049 149.807C97.7471 149.77 97.5169 149.669 97.3143 149.503C97.1302 149.319 97.0105 149.07 96.9553 148.757C96.9184 148.463 97.0473 148.168 97.342 147.873C97.3788 147.837 97.4064 147.809 97.4248 147.791C97.4616 147.791 97.4985 147.772 97.5353 147.735Z" fill="#434343"/>
</g>
<defs>
<filter id="filter0_d_540_2189" x="0" y="0" width="188" height="188" filterUnits="userSpaceOnUse" color-interpolation-filters="sRGB">
<feFlood flood-opacity="0" result="BackgroundImageFix"/>
<feColorMatrix in="SourceAlpha" type="matrix" values="0 0 0 0 0 0 0 0 0 0 0 0 0 0 0 0 0 0 127 0" result="hardAlpha"/>
<feOffset dy="4"/>
<feGaussianBlur stdDeviation="2"/>
<feComposite in2="hardAlpha" operator="out"/>
<feColorMatrix type="matrix" values="0 0 0 0 0 0 0 0 0 0 0 0 0 0 0 0 0 0 0.25 0"/>
<feBlend mode="normal" in2="BackgroundImageFix" result="effect1_dropShadow_540_2189"/>
<feBlend mode="normal" in="SourceGraphic" in2="effect1_dropShadow_540_2189" result="shape"/>
</filter>
</defs>
</svg>
