<svg width="188" height="188" viewBox="0 0 188 188" fill="none" xmlns="http://www.w3.org/2000/svg">
<g id="Property 1=CLICKME">
<g id="back">
<path d="M4 0L24.25 27L24.25 0L4 0Z" fill="#693B6A"/>
<path d="M184 159.75L157 159.75L184 180L184 159.75Z" fill="#693B6A"/>
</g>
<g id="Wrapper" filter="url(#filter0_d_632_798)">
<path d="M86.2852 180L4 96.75L4 0C53.0159 46.8645 135.704 129.938 184 180L86.2852 180Z" fill="#B452B6"/>
</g>
<path id="status" d="M52.4882 79.9398C52.6686 80.1203 52.7589 80.3007 52.7589 80.4812C52.7847 80.6616 52.7266 80.8228 52.5849 80.9646C52.4302 81.1192 52.2691 81.203 52.1015 81.2159C51.9339 81.2288 51.7663 81.1901 51.5988 81.0999C51.4441 81.0226 51.283 80.913 51.1154 80.7712C50.9736 80.6294 50.8318 80.4876 50.69 80.3458C50.0455 79.7013 49.5106 78.9859 49.0852 78.1997C48.6856 77.4134 48.4343 76.6077 48.3312 75.7828C48.2409 74.9707 48.3312 74.1586 48.6019 73.3466C48.8725 72.5345 49.3688 71.7676 50.0907 71.0457C51.0187 70.1176 52.0048 69.5183 53.0489 69.2476C54.1188 68.9769 55.1629 68.9124 56.1812 69.0542C57.2124 69.2089 58.1727 69.5118 59.0621 69.963C59.9773 70.4141 60.7507 70.9039 61.3823 71.4324C61.6143 71.6644 61.7174 71.8836 61.6916 72.0898C61.6658 72.296 61.5885 72.4636 61.4596 72.5925C61.1374 72.9148 60.8151 72.9534 60.4929 72.7085C59.887 72.2574 59.191 71.8449 58.4047 71.4711C57.6442 71.0973 56.845 70.8524 56.0071 70.7364C55.1693 70.6204 54.3379 70.6655 53.5129 70.8717C52.7009 71.0651 51.9468 71.5098 51.2507 72.2058C50.6836 72.773 50.3162 73.3853 50.1487 74.0426C49.9811 74.7 49.9553 75.3574 50.0713 76.0148C50.2002 76.6593 50.4387 77.2845 50.7867 77.8903C51.1476 78.509 51.5666 79.0568 52.0435 79.5338C52.1079 79.5982 52.1788 79.6691 52.2562 79.7465C52.3335 79.8238 52.4108 79.8882 52.4882 79.9398ZM63.1812 73.8501C63.4519 73.7083 63.729 73.7792 64.0126 74.0627C64.1673 74.2174 64.2704 74.4108 64.3219 74.6428C64.3993 74.8748 64.3671 75.0617 64.2253 75.2035L64.1479 75.2809C63.7741 75.5 63.3681 75.7642 62.9298 76.0736C62.5045 76.3701 62.0598 76.6987 61.5957 77.0597C61.1446 77.4335 60.687 77.8266 60.2229 78.2391C59.7718 78.6387 59.34 79.0447 58.9275 79.4572C58.4635 79.9212 58.0252 80.3724 57.6127 80.8106C57.2002 81.2489 56.878 81.6743 56.646 82.0868C56.414 82.4992 56.2851 82.8859 56.2593 83.2469C56.2593 83.6078 56.4268 83.9558 56.762 84.2909C57.4709 84.9999 58.2379 85.6122 59.0628 86.1278C59.9007 86.6305 60.7708 87.1138 61.6731 87.5779C61.7246 87.6037 61.7891 87.6552 61.8664 87.7326C62.0211 87.8872 62.0791 88.0741 62.0404 88.2933C62.0146 88.4995 61.9309 88.6735 61.7891 88.8153C61.4926 89.1118 61.1704 89.1633 60.8223 88.97C59.8942 88.4802 58.9533 87.9388 57.9994 87.3459C57.0585 86.74 56.2593 86.1084 55.6019 85.451C55.1894 85.0386 54.8994 84.6454 54.7318 84.2716C54.5642 83.8978 54.4805 83.5433 54.4805 83.2082C54.4805 82.873 54.532 82.5637 54.6351 82.2801C54.7511 82.0094 54.88 81.7645 55.0218 81.5454C55.2925 81.0684 55.6406 80.5657 56.0659 80.0372C56.5042 79.5217 56.9876 78.9996 57.516 78.4711C57.993 77.9942 58.4892 77.5237 59.0048 77.0597C59.5204 76.5956 60.0296 76.1638 60.5323 75.7642C61.0479 75.3517 61.5248 74.9779 61.9631 74.6428C62.4142 74.3205 62.8203 74.0563 63.1812 73.8501ZM63.646 91.4843C64.3936 90.9429 65.1799 90.3113 66.0049 89.5895C66.8427 88.8805 67.6483 88.1394 68.4217 87.366C69.0404 86.7472 69.5947 86.1414 70.0845 85.5485C70.5744 84.9555 70.9224 84.4271 71.1286 83.963C71.2317 83.7826 71.1995 83.5957 71.0319 83.4023C70.8644 83.209 70.6775 83.0092 70.4712 82.8029C70.2779 82.6096 70.1297 82.3969 70.0265 82.1649C69.9363 81.92 70.0201 81.6686 70.2779 81.4108C70.4068 81.2819 70.5744 81.2175 70.7806 81.2175C70.9997 81.2303 71.206 81.3335 71.3993 81.5268C71.6313 81.8104 71.8505 82.0682 72.0567 82.3002C72.2758 82.5451 72.4885 82.7707 72.6948 82.9769C72.9912 83.2734 73.3521 83.5699 73.7775 83.8663C74.2158 84.1757 74.6605 84.556 75.1116 85.0071C75.2663 85.1618 75.3436 85.3422 75.3436 85.5485C75.3565 85.7418 75.2985 85.903 75.1696 86.0319C75.0021 86.1994 74.7958 86.2639 74.5509 86.2252C74.3189 86.1994 74.0804 86.1156 73.8355 85.9739C73.5906 85.8321 73.3521 85.658 73.1201 85.4518C72.8881 85.2456 72.6883 85.0587 72.5207 84.8911C72.1856 85.484 71.6893 86.1479 71.0319 86.8826C70.3874 87.6302 69.6978 88.3714 68.9631 89.1061C68.2284 89.8408 67.4808 90.524 66.7203 91.1556C65.9855 91.7872 65.3733 92.2964 64.8834 92.6831C65.0768 92.8764 65.283 93.0569 65.5022 93.2245C65.7471 93.392 65.9984 93.6047 66.2562 93.8625C66.4109 94.0172 66.4882 94.1977 66.4882 94.4039C66.5011 94.5972 66.456 94.7455 66.3529 94.8486C66.1595 95.0419 65.9146 95.0935 65.6182 95.0033C65.3217 94.913 65.0123 94.7584 64.6901 94.5392C64.3678 94.3201 64.0585 94.0623 63.762 93.7658C63.4526 93.4823 63.1948 93.2373 62.9886 93.0311C62.7695 92.812 62.531 92.5735 62.2732 92.3157C62.0283 92.0708 61.8156 91.8195 61.6352 91.5617C61.4547 91.3039 61.3387 91.0589 61.2871 90.8269C61.2356 90.5949 61.3 90.3887 61.4805 90.2082C61.6094 90.0793 61.7705 90.0213 61.9639 90.0342C62.183 90.0471 62.3892 90.1502 62.5826 90.3436C62.6599 90.4467 62.7373 90.5498 62.8146 90.6529C62.9177 90.756 63.0208 90.8591 63.124 90.9623L63.646 91.4843ZM73.0436 100.495C73.224 100.676 73.3142 100.856 73.3142 101.037C73.34 101.217 73.282 101.378 73.1402 101.52C72.9855 101.675 72.8244 101.758 72.6569 101.771C72.4893 101.784 72.3217 101.745 72.1541 101.655C71.9995 101.578 71.8383 101.468 71.6708 101.327C71.529 101.185 71.3872 101.043 71.2454 100.901C70.6009 100.257 70.066 99.5413 69.6406 98.755C69.241 97.9687 68.9897 97.1631 68.8865 96.3382C68.7963 95.5261 68.8865 94.714 69.1572 93.902C69.4279 93.0899 69.9242 92.3229 70.646 91.6011C71.5741 90.673 72.5602 90.0736 73.6043 89.8029C74.6741 89.5323 75.7182 89.4678 76.7365 89.6096C77.7677 89.7643 78.728 90.0672 79.6174 90.5183C80.5326 90.9695 81.306 91.4593 81.9376 91.9878C82.1697 92.2198 82.2728 92.4389 82.247 92.6452C82.2212 92.8514 82.1439 93.019 82.015 93.1479C81.6927 93.4701 81.3705 93.5088 81.0482 93.2639C80.4424 92.8128 79.7463 92.4003 78.96 92.0265C78.1995 91.6527 77.4004 91.4077 76.5625 91.2917C75.7247 91.1757 74.8933 91.2208 74.0683 91.4271C73.2562 91.6204 72.5022 92.0651 71.8061 92.7612C71.239 93.3283 70.8716 93.9406 70.704 94.598C70.5365 95.2554 70.5107 95.9128 70.6267 96.5702C70.7556 97.2147 70.994 97.8398 71.3421 98.4457C71.703 99.0644 72.1219 99.6122 72.5988 100.089C72.6633 100.154 72.7342 100.224 72.8115 100.302C72.8889 100.379 72.9662 100.444 73.0436 100.495ZM77.6654 102.255C77.5107 102.23 77.414 102.197 77.3754 102.159C77.0016 102.558 76.66 102.939 76.3506 103.3C76.0541 103.673 75.7641 104.002 75.4805 104.286C75.2227 104.543 74.9778 104.672 74.7458 104.672C74.5267 104.685 74.3462 104.621 74.2044 104.479C74.0884 104.363 74.0304 104.202 74.0304 103.996C74.0433 103.802 74.1464 103.583 74.3398 103.338C74.9843 102.513 75.7448 101.624 76.6213 100.67C77.5107 99.729 78.4194 98.7945 79.3475 97.8664C80.0307 97.1832 80.6945 96.5452 81.339 95.9522C81.9964 95.3464 82.6151 94.805 83.1952 94.3281C83.6077 93.993 83.9621 93.9736 84.2586 94.2701C84.4133 94.4248 84.4906 94.631 84.4906 94.8888C84.4906 95.1466 84.3811 95.3851 84.1619 95.6042L84.0459 95.7202C83.4916 96.1456 82.8472 96.6999 82.1124 97.383C81.4035 98.0662 80.6623 98.7945 79.8889 99.5679L78.7288 100.728C79.3733 100.702 80.1274 100.618 80.991 100.477C81.8546 100.335 82.7183 100.167 83.5819 99.9739C84.4455 99.7806 85.2576 99.5743 86.0181 99.3552C86.7786 99.1361 87.3844 98.9298 87.8356 98.7365C88.0418 98.6591 88.2223 98.6333 88.3769 98.6591C88.5445 98.6978 88.6799 98.7687 88.783 98.8718C88.899 98.9878 88.957 99.1361 88.957 99.3165C88.9699 99.5099 88.8861 99.6968 88.7056 99.8772C88.6154 99.9675 88.3447 100.096 87.8936 100.264C87.4682 100.431 86.9268 100.612 86.2694 100.805C85.612 100.999 84.8838 101.198 84.0846 101.405C83.2983 101.598 82.512 101.766 81.7257 101.907C80.9394 102.049 80.1854 102.159 79.4635 102.236C78.7546 102.301 78.1552 102.307 77.6654 102.255ZM80.0242 109.177C79.8825 108.391 79.7858 107.573 79.7342 106.722C79.6956 105.884 79.7149 105.001 79.7922 104.073C79.8051 103.751 79.8953 103.506 80.0629 103.338C80.2047 103.196 80.3723 103.132 80.5656 103.145C80.7848 103.158 80.9652 103.235 81.107 103.377C81.2101 103.48 81.2681 103.667 81.281 103.938C81.3068 104.195 81.3068 104.479 81.281 104.788C81.281 105.098 81.2617 105.413 81.223 105.736C81.1972 106.045 81.1908 106.296 81.2037 106.49C81.2166 106.657 81.2488 106.896 81.3004 107.205C81.3519 107.515 81.3906 107.837 81.4164 108.172C81.4679 108.507 81.4937 108.816 81.4937 109.1C81.4937 109.384 81.4421 109.577 81.339 109.68C81.1972 109.822 81.0168 109.899 80.7976 109.912C80.5914 109.912 80.4174 109.841 80.2756 109.699C80.1467 109.57 80.0629 109.396 80.0242 109.177ZM94.527 115.25C94.1274 115.289 93.8116 115.192 93.5796 114.96C93.3476 114.728 93.2767 114.335 93.3669 113.781C93.4571 113.226 93.5925 112.64 93.7729 112.021L94.411 109.875C94.4497 109.759 94.5077 109.662 94.585 109.585C94.7526 109.417 94.9588 109.327 95.2037 109.314C95.4615 109.314 95.6613 109.385 95.8031 109.527C95.932 109.656 95.9513 109.92 95.8611 110.32C95.7838 110.706 95.6678 111.119 95.5131 111.557C95.3842 111.995 95.2682 112.408 95.1651 112.795C95.0748 113.168 95.0877 113.413 95.2037 113.529C95.2811 113.607 95.4035 113.626 95.5711 113.587C96.8859 113.355 97.93 113.175 98.7034 113.046C99.5025 112.917 100.115 112.82 100.54 112.756C100.991 112.691 101.294 112.646 101.449 112.621C101.629 112.595 101.758 112.582 101.836 112.582C102.029 112.466 102.216 112.421 102.396 112.446C102.603 112.472 102.764 112.543 102.88 112.659C102.996 112.775 103.067 112.936 103.092 113.143C103.118 113.349 103.047 113.561 102.88 113.781C102.3 114.593 101.616 115.431 100.83 116.294C100.07 117.158 99.2641 118.015 98.4133 118.866C97.9493 119.33 97.395 119.845 96.7505 120.412C96.1318 120.98 95.5131 121.495 94.8944 121.959C94.2885 122.41 93.7278 122.752 93.2122 122.984C92.6966 123.216 92.3357 123.229 92.1295 123.023C91.9877 122.881 91.9103 122.7 91.8975 122.481C91.8975 122.275 92.007 122.062 92.2261 121.843C92.3293 121.74 92.413 121.669 92.4775 121.631C93.3798 121.063 94.2563 120.419 95.1071 119.697C95.9836 118.975 96.7892 118.247 97.5239 117.512C98.0911 116.945 98.6196 116.391 99.1094 115.849C99.5992 115.308 100.057 114.799 100.482 114.322L97.1566 114.902C96.5894 114.979 96.0674 115.05 95.5904 115.115C95.1264 115.192 94.7719 115.237 94.527 115.25ZM95.7258 107.941C95.1586 108.38 94.5141 108.934 93.7923 109.604C93.0704 110.275 92.3228 110.996 91.5494 111.77C90.776 112.543 90.0284 113.329 89.3066 114.129C88.6105 114.928 87.9725 115.617 87.3924 116.197C87.1346 116.455 86.8897 116.584 86.6577 116.584C86.4385 116.597 86.2581 116.533 86.1163 116.391C86.0003 116.275 85.9423 116.114 85.9423 115.907C85.9552 115.714 86.0583 115.495 86.2516 115.25C86.8961 114.425 87.6373 113.555 88.4752 112.64C89.3259 111.738 90.1766 110.861 91.0274 110.01C91.6719 109.366 92.297 108.754 92.9029 108.173C93.5216 107.606 94.1274 107.091 94.7204 106.627C94.9653 106.408 95.1973 106.317 95.4164 106.356C95.6484 106.408 95.8353 106.504 95.9771 106.646C96.1189 106.788 96.1769 106.975 96.1511 107.207C96.1383 107.426 96.0351 107.632 95.8418 107.825L95.7258 107.941ZM103.983 116.353C103.815 116.108 103.731 115.882 103.731 115.676C103.744 115.457 103.809 115.29 103.925 115.173C104.066 115.032 104.253 114.961 104.485 114.961C104.717 114.961 104.949 115.077 105.181 115.309C105.426 115.605 105.684 115.902 105.955 116.198C106.225 116.495 106.503 116.785 106.786 117.068C107.276 117.558 107.759 118.016 108.236 118.441C108.726 118.879 109.19 119.266 109.628 119.601C109.848 119.82 109.957 120.046 109.957 120.278C109.983 120.51 109.925 120.697 109.783 120.839C109.422 121.2 108.9 121.116 108.217 120.587C107.547 120.072 106.561 119.163 105.259 117.861C104.576 118.338 103.886 118.873 103.19 119.466C102.507 120.046 101.804 120.697 101.082 121.419C100.618 121.883 100.18 122.334 99.7676 122.772C99.3551 123.21 98.9555 123.649 98.5688 124.087C98.3368 124.37 98.1756 124.622 98.0854 124.841C98.021 125.06 98.0145 125.273 98.0661 125.479C98.1434 125.685 98.2788 125.898 98.4721 126.117C98.6783 126.349 98.9426 126.626 99.2648 126.948C99.6773 127.361 100.109 127.741 100.56 128.089C101.037 128.437 101.533 128.727 102.049 128.959C102.204 129.037 102.333 129.127 102.436 129.23C102.603 129.398 102.674 129.559 102.648 129.713C102.636 129.881 102.571 130.023 102.455 130.139C102.21 130.384 101.894 130.467 101.508 130.39C101.121 130.313 100.721 130.158 100.309 129.926C99.9093 129.707 99.5226 129.436 99.1488 129.114C98.7621 128.805 98.4528 128.534 98.2208 128.302C97.9758 128.057 97.7052 127.773 97.4087 127.451C97.1122 127.155 96.8544 126.82 96.6353 126.446C96.4419 126.072 96.3259 125.672 96.2873 125.247C96.2486 124.822 96.3646 124.383 96.6353 123.932C96.8802 123.507 97.2282 123.03 97.6794 122.501C98.1434 121.96 98.659 121.406 99.2262 120.839C99.6902 120.375 100.154 119.923 100.618 119.485C101.108 119.047 101.572 118.634 102.01 118.248C102.449 117.861 102.848 117.526 103.209 117.242C103.583 116.946 103.879 116.714 104.099 116.546C104.034 116.482 104.002 116.437 104.002 116.411C104.015 116.398 104.008 116.379 103.983 116.353ZM101.778 123.275C101.585 123.056 101.508 122.849 101.546 122.656C101.598 122.476 101.695 122.315 101.836 122.173C101.965 122.044 102.133 121.979 102.339 121.979C102.558 121.992 102.758 122.089 102.938 122.269C103.158 122.489 103.37 122.714 103.577 122.946C103.796 123.191 104.015 123.423 104.234 123.642C104.943 124.351 105.684 125.015 106.457 125.634C106.651 125.853 106.747 126.066 106.747 126.272C106.76 126.491 106.715 126.665 106.612 126.794C106.419 126.987 106.174 127.039 105.877 126.948C105.594 126.845 105.291 126.684 104.969 126.465C104.646 126.246 104.331 125.995 104.021 125.711C103.725 125.415 103.467 125.157 103.248 124.938C102.977 124.667 102.719 124.396 102.474 124.126C102.242 123.842 102.01 123.558 101.778 123.275ZM36.219 114.56C36.3608 114.367 36.6379 113.935 37.0504 113.265C37.4886 112.594 37.9591 111.815 38.4618 110.925C38.2556 110.771 38.0622 110.603 37.8818 110.423C37.7013 110.242 37.5144 110.055 37.3211 109.862C37.0633 109.604 36.7926 109.333 36.509 109.05C36.2383 108.753 36.0063 108.47 35.8129 108.199C35.6325 107.915 35.51 107.651 35.4456 107.406C35.394 107.148 35.4585 106.929 35.6389 106.749C35.7807 106.607 35.9547 106.549 36.161 106.575C36.3801 106.614 36.6057 106.749 36.8377 106.981C37.276 107.574 37.7529 108.128 38.2685 108.644C38.4232 108.798 38.5778 108.953 38.7325 109.108C38.8872 109.262 39.0548 109.404 39.2352 109.533C39.609 108.85 39.9635 108.173 40.2987 107.503C40.6467 106.82 40.9367 106.195 41.1687 105.627C41.4136 105.073 41.5877 104.603 41.6908 104.216C41.7939 103.829 41.7874 103.578 41.6714 103.462C41.4523 103.243 41.0205 103.211 40.376 103.365C39.7315 103.52 38.9839 103.778 38.1331 104.139C37.2824 104.5 36.3866 104.931 35.4456 105.434C34.5175 105.924 33.6474 106.394 32.8354 106.846C32.0362 107.31 31.3595 107.716 30.8052 108.064C30.2638 108.399 29.9545 108.605 29.8771 108.682C29.7224 108.785 29.5613 108.818 29.3937 108.779C29.2391 108.753 29.1102 108.689 29.007 108.586C28.8524 108.431 28.7621 108.238 28.7364 108.006C28.7106 107.774 28.7879 107.567 28.9684 107.387C31.1081 105.969 33.1061 104.796 34.9622 103.868C35.7485 103.468 36.5412 103.101 37.3404 102.766C38.1525 102.418 38.913 102.16 39.6219 101.992C40.3438 101.812 40.9883 101.735 41.5554 101.76C42.1355 101.799 42.5866 101.98 42.9089 102.302C43.244 102.637 43.3536 103.159 43.2376 103.868C43.1344 104.59 42.896 105.408 42.5222 106.324C42.1613 107.226 41.7101 108.167 41.1687 109.146C40.6402 110.113 40.1182 111.022 39.6026 111.873C39.0999 112.71 38.6423 113.439 38.2298 114.057C37.8302 114.663 37.5853 115.05 37.4951 115.218L37.3791 115.334C37.1728 115.54 36.9408 115.643 36.683 115.643C36.451 115.643 36.2641 115.572 36.1223 115.43C36.0192 115.327 35.9612 115.205 35.9483 115.063C35.9612 114.921 36.0514 114.754 36.219 114.56ZM42.929 120.033C43.0837 120.187 43.1481 120.329 43.1223 120.458C43.1094 120.574 43.045 120.69 42.929 120.806C42.7485 120.961 42.5681 121.038 42.3876 121.038C42.22 121.025 42.0525 120.974 41.8849 120.883C41.7302 120.806 41.5884 120.703 41.4595 120.574C41.3306 120.445 41.2146 120.329 41.1115 120.226C40.5443 119.659 40.1447 119.027 39.9127 118.331C39.6807 117.635 39.5969 116.907 39.6614 116.146C39.7387 115.399 39.9578 114.651 40.3188 113.904C40.7055 113.156 41.2211 112.46 41.8656 111.815C42.6003 111.081 43.4575 110.572 44.4371 110.288C45.4167 110.004 46.4028 109.895 47.3954 109.959C48.3879 110.024 49.3224 110.236 50.1989 110.597C51.0754 110.958 51.7844 111.409 52.3258 111.951C52.5062 112.131 52.5836 112.312 52.5578 112.492C52.5449 112.66 52.4804 112.801 52.3644 112.917C52.2226 113.059 52.0551 113.162 51.8617 113.227C51.6813 113.278 51.5524 113.266 51.475 113.188C50.8692 112.737 50.186 112.376 49.4255 112.105C48.665 111.835 47.8916 111.68 47.1053 111.641C46.3319 111.616 45.5843 111.719 44.8625 111.951C44.1535 112.17 43.5348 112.544 43.0063 113.072C41.872 114.284 41.2855 115.476 41.2468 116.649C41.2211 117.809 41.6207 118.802 42.4456 119.627C42.5101 119.691 42.581 119.762 42.6583 119.839C42.7485 119.904 42.8388 119.968 42.929 120.033ZM43.2383 122.121C43.4961 121.812 43.7797 121.489 44.0891 121.154C44.4113 120.806 44.7658 120.439 45.1525 120.052C45.5392 119.665 45.9195 119.311 46.2933 118.989C46.6671 118.666 47.028 118.383 47.376 118.138L47.4147 118.099C46.9507 117.713 46.5253 117.326 46.1386 116.939C45.0172 115.818 44.6885 115.025 45.1525 114.561C45.2685 114.445 45.4361 114.406 45.6552 114.445C45.8743 114.484 46.0999 114.619 46.3319 114.851C46.6413 115.238 46.9893 115.624 47.376 116.011C47.8787 116.514 48.4072 117.004 48.9615 117.481C49.5286 117.945 50.012 118.376 50.4116 118.776C50.6307 118.995 50.7532 119.208 50.779 119.414C50.8176 119.633 50.7661 119.814 50.6243 119.955C50.4181 120.162 50.1345 120.187 49.7736 120.033C49.4255 119.865 49.0517 119.582 48.6521 119.182C48.1752 119.53 47.7047 119.897 47.2407 120.284C46.8024 120.671 46.3642 121.083 45.9259 121.522C45.6423 121.805 45.3716 122.102 45.1138 122.411C44.8689 122.707 44.6047 122.997 44.3211 123.281C44.1277 123.474 43.928 123.558 43.7217 123.532C43.5155 123.532 43.3544 123.474 43.2383 123.358C43.0966 123.217 43.0128 123.03 42.987 122.798C42.9612 122.566 43.045 122.34 43.2383 122.121ZM53.6607 132.002C53.8024 131.809 54.0796 131.377 54.4921 130.706C54.9303 130.036 55.4008 129.256 55.9035 128.367C55.6973 128.212 55.5039 128.045 55.3235 127.864C55.143 127.684 54.9561 127.497 54.7627 127.303C54.5049 127.046 54.2343 126.775 53.9507 126.491C53.68 126.195 53.448 125.911 53.2546 125.641C53.0742 125.357 52.9517 125.093 52.8873 124.848C52.8357 124.59 52.9001 124.371 53.0806 124.191C53.2224 124.049 53.3964 123.991 53.6026 124.017C53.8218 124.055 54.0474 124.191 54.2794 124.423C54.7176 125.016 55.1946 125.57 55.7102 126.085C55.8648 126.24 56.0195 126.395 56.1742 126.549C56.3289 126.704 56.4964 126.846 56.6769 126.975C57.0507 126.292 57.4052 125.615 57.7403 124.945C58.0884 124.261 58.3784 123.636 58.6104 123.069C58.8553 122.515 59.0293 122.044 59.1324 121.658C59.2356 121.271 59.2291 121.02 59.1131 120.904C58.894 120.684 58.4622 120.652 57.8177 120.807C57.1732 120.962 56.4256 121.219 55.5748 121.58C54.7241 121.941 53.8282 122.373 52.8873 122.876C51.9592 123.366 51.0891 123.836 50.277 124.287C49.4779 124.751 48.8011 125.157 48.2469 125.505C47.7055 125.84 47.3961 126.047 47.3188 126.124C47.1641 126.227 47.003 126.259 46.8354 126.221C46.6807 126.195 46.5518 126.13 46.4487 126.027C46.294 125.873 46.2038 125.679 46.178 125.447C46.1522 125.215 46.2296 125.009 46.41 124.829C48.5498 123.411 50.5477 122.238 52.4039 121.31C53.1902 120.91 53.9829 120.543 54.7821 120.208C55.5941 119.86 56.3547 119.602 57.0636 119.434C57.7854 119.254 58.4299 119.176 58.9971 119.202C59.5771 119.241 60.0283 119.421 60.3505 119.744C60.6857 120.079 60.7952 120.601 60.6792 121.31C60.5761 122.031 60.3377 122.85 59.9638 123.765C59.6029 124.667 59.1518 125.608 58.6104 126.588C58.0819 127.555 57.5599 128.464 57.0443 129.314C56.5416 130.152 56.084 130.88 55.6715 131.499C55.2719 132.105 55.027 132.492 54.9368 132.659L54.8207 132.775C54.6145 132.982 54.3825 133.085 54.1247 133.085C53.8927 133.085 53.7058 133.014 53.564 132.872C53.4609 132.769 53.4029 132.646 53.39 132.505C53.4029 132.363 53.4931 132.195 53.6607 132.002ZM57.3351 134.671C58.0827 134.129 58.869 133.498 59.6939 132.776C60.5318 132.067 61.3374 131.326 62.1108 130.553C62.7295 129.934 63.2838 129.328 63.7736 128.735C64.2634 128.142 64.6115 127.614 64.8177 127.15C64.9208 126.969 64.8886 126.782 64.721 126.589C64.5535 126.396 64.3665 126.196 64.1603 125.989C63.967 125.796 63.8187 125.583 63.7156 125.351C63.6254 125.107 63.7092 124.855 63.967 124.597C64.0959 124.468 64.2634 124.404 64.4697 124.404C64.6888 124.417 64.895 124.52 65.0884 124.713C65.3204 124.997 65.5395 125.255 65.7458 125.487C65.9649 125.732 66.1776 125.957 66.3838 126.163C66.6803 126.46 67.0412 126.756 67.4666 127.053C67.9048 127.362 68.3495 127.743 68.8007 128.194C68.9554 128.348 69.0327 128.529 69.0327 128.735C69.0456 128.928 68.9876 129.09 68.8587 129.218C68.6911 129.386 68.4849 129.45 68.24 129.412C68.008 129.386 67.7695 129.302 67.5246 129.16C67.2797 129.019 67.0412 128.845 66.8092 128.638C66.5772 128.432 66.3774 128.245 66.2098 128.078C65.8747 128.671 65.3784 129.334 64.721 130.069C64.0765 130.817 63.3869 131.558 62.6522 132.293C61.9175 133.027 61.1698 133.711 60.4093 134.342C59.6746 134.974 59.0623 135.483 58.5725 135.87C58.7659 136.063 58.9721 136.243 59.1912 136.411C59.4361 136.579 59.6875 136.791 59.9453 137.049C60.1 137.204 60.1773 137.384 60.1773 137.59C60.1902 137.784 60.1451 137.932 60.042 138.035C59.8486 138.228 59.6037 138.28 59.3072 138.19C59.0108 138.1 58.7014 137.945 58.3792 137.726C58.0569 137.507 57.7475 137.249 57.4511 136.952C57.1417 136.669 56.8839 136.424 56.6777 136.218C56.4586 135.999 56.2201 135.76 55.9623 135.502C55.7174 135.257 55.5047 135.006 55.3242 134.748C55.1438 134.49 55.0278 134.245 54.9762 134.013C54.9246 133.781 54.9891 133.575 55.1696 133.395C55.2985 133.266 55.4596 133.208 55.6529 133.221C55.8721 133.234 56.0783 133.337 56.2716 133.53C56.349 133.633 56.4263 133.736 56.5037 133.839C56.6068 133.943 56.7099 134.046 56.813 134.149L57.3351 134.671ZM75.5494 136.721C75.5751 136.67 75.6267 136.605 75.704 136.528C75.8845 136.347 76.0843 136.251 76.3034 136.238C76.5226 136.225 76.703 136.289 76.8448 136.431C76.9866 136.573 77.0768 136.753 77.1155 136.972C77.1542 137.192 77.0833 137.43 76.9028 137.688C76.4517 138.319 75.9554 138.945 75.414 139.563C74.8726 140.182 74.2926 140.801 73.6739 141.42C72.6685 142.425 71.605 143.385 70.4836 144.3C69.3751 145.203 68.3052 145.976 67.274 146.621C67.0549 146.762 66.8551 146.82 66.6746 146.795C66.5071 146.782 66.3653 146.717 66.2493 146.601C66.1075 146.46 66.0301 146.24 66.0172 145.944C65.9915 145.66 66.0623 145.151 66.2299 144.416C66.3975 143.682 66.6746 142.644 67.0613 141.304C67.4609 139.976 68.0216 138.203 68.7435 135.986C69.0142 135.174 69.2139 134.562 69.3428 134.15C69.4717 133.737 69.5942 133.486 69.7102 133.396C69.852 133.254 70.0389 133.183 70.2709 133.183C70.5158 133.17 70.7092 133.234 70.851 133.376C70.9541 133.479 71.0185 133.57 71.0443 133.647C71.0959 133.724 71.0959 133.84 71.0443 133.995C71.0185 134.15 70.9476 134.375 70.8316 134.672C70.7285 134.955 70.5996 135.368 70.4449 135.909L68.5501 142.019C68.4083 142.522 68.2923 142.947 68.2021 143.295C68.1119 143.643 68.0474 143.914 68.0087 144.107C69.6329 142.947 71.0959 141.716 72.3978 140.414C73.0294 139.783 73.603 139.157 74.1186 138.539C74.6471 137.907 75.124 137.301 75.5494 136.721ZM70.8316 131.771C70.2645 132.21 69.5942 132.79 68.8208 133.512C68.0603 134.22 67.2869 134.968 66.5006 135.754C65.6756 136.579 64.8958 137.411 64.1611 138.249C63.4521 139.086 62.8076 139.795 62.2276 140.375C61.9827 140.62 61.7313 140.756 61.4735 140.781C61.2286 140.794 61.0224 140.717 60.8548 140.549C60.7517 140.446 60.6937 140.298 60.6808 140.105C60.6937 139.911 60.7904 139.699 60.9708 139.467C61.6153 138.642 62.3758 137.752 63.2523 136.798C64.1417 135.858 65.0505 134.923 65.9786 133.995C66.6617 133.312 67.3191 132.667 67.9507 132.061C68.6081 131.456 69.2333 130.921 69.8262 130.457C70.0711 130.237 70.3031 130.147 70.5223 130.186C70.7543 130.237 70.9412 130.334 71.083 130.476C71.199 130.644 71.2506 130.837 71.2377 131.056C71.2377 131.262 71.141 131.462 70.9476 131.655L70.8316 131.771ZM73.0173 146.331C73.7004 145.777 74.4674 145.152 75.3181 144.456C76.1946 143.76 77.0196 143.025 77.793 142.252C78.2957 141.749 78.7533 141.24 79.1658 140.724C79.5911 140.196 79.9392 139.667 80.2099 139.139C80.3259 138.868 80.4548 138.662 80.5966 138.52C80.777 138.34 80.9639 138.23 81.1573 138.191C81.3635 138.166 81.5375 138.224 81.6793 138.365C81.95 138.636 82.008 139.003 81.8533 139.467C81.6987 139.932 81.4409 140.434 81.0799 140.976C80.719 141.517 80.2872 142.065 79.7845 142.619C79.2818 143.173 78.8177 143.663 78.3924 144.089C77.6576 144.823 76.91 145.494 76.1495 146.099C75.389 146.705 74.693 147.234 74.0613 147.685C73.8164 147.852 73.578 147.923 73.346 147.898C73.1397 147.872 72.9721 147.794 72.8432 147.665C72.6886 147.511 72.5919 147.324 72.5532 147.105C72.5274 146.899 72.6241 146.686 72.8432 146.467C72.9077 146.402 72.9657 146.357 73.0173 146.331ZM71.0451 148.149C71.1482 148.2 71.2191 148.246 71.2578 148.284C71.3222 148.349 71.3673 148.407 71.3931 148.458C71.4189 148.51 71.4447 148.548 71.4705 148.574C71.522 148.626 71.5671 148.671 71.6058 148.71C71.6703 148.748 71.7218 148.787 71.7605 148.826C72.0441 149.109 72.231 149.399 72.3212 149.696C72.4243 149.979 72.4565 150.256 72.4179 150.527C72.3921 150.785 72.3083 151.036 72.1665 151.281C72.0376 151.513 71.8829 151.719 71.7025 151.9C71.5091 152.093 71.2836 152.241 71.0258 152.345C70.768 152.473 70.5037 152.544 70.233 152.557C69.9623 152.596 69.6916 152.57 69.421 152.48C69.1374 152.403 68.8925 152.261 68.6862 152.055C68.4671 151.835 68.2866 151.578 68.1448 151.281C68.0159 150.998 67.9451 150.695 67.9322 150.372C67.9193 150.076 67.9708 149.767 68.0868 149.444C68.2029 149.122 68.3962 148.826 68.6669 148.555C68.9891 148.233 69.3694 148.033 69.8077 147.956C70.2717 147.878 70.6842 147.943 71.0451 148.149ZM70.5037 149.618L70.3104 149.425C70.1815 149.425 70.0461 149.457 69.9043 149.522C69.7754 149.599 69.6659 149.683 69.5756 149.773C69.3952 149.953 69.3307 150.147 69.3823 150.353C69.4467 150.572 69.5499 150.753 69.6916 150.894C69.8592 151.062 70.0397 151.139 70.233 151.126C70.4264 151.139 70.5939 151.075 70.7357 150.933C70.9033 150.766 70.9935 150.585 71.0064 150.392C71.0322 150.185 70.9291 149.966 70.6971 149.734C70.6197 149.657 70.5553 149.618 70.5037 149.618Z" fill="#434343"/>
</g>
<defs>
<filter id="filter0_d_632_798" x="0" y="0" width="188" height="188" filterUnits="userSpaceOnUse" color-interpolation-filters="sRGB">
<feFlood flood-opacity="0" result="BackgroundImageFix"/>
<feColorMatrix in="SourceAlpha" type="matrix" values="0 0 0 0 0 0 0 0 0 0 0 0 0 0 0 0 0 0 127 0" result="hardAlpha"/>
<feOffset dy="4"/>
<feGaussianBlur stdDeviation="2"/>
<feComposite in2="hardAlpha" operator="out"/>
<feColorMatrix type="matrix" values="0 0 0 0 0 0 0 0 0 0 0 0 0 0 0 0 0 0 0.25 0"/>
<feBlend mode="normal" in2="BackgroundImageFix" result="effect1_dropShadow_632_798"/>
<feBlend mode="normal" in="SourceGraphic" in2="effect1_dropShadow_632_798" result="shape"/>
</filter>
</defs>
</svg>
