<svg width="168" height="168" viewBox="0 0 168 168" fill="none" xmlns="http://www.w3.org/2000/svg">
<g id="Property 1=Default">
<g id="back">
<path d="M4 0L28 18H4V0Z" fill="#B3B0A5"/>
<path d="M146 160V136L164 160H146Z" fill="#B3B0A5"/>
</g>
<g id="Wrapper" filter="url(#filter0_d_418_865)">
<path d="M164 73.1424L90 3.75918e-06L4 0C45.6573 43.5697 119.5 117.07 164 160V73.1424Z" fill="#F5F0D6"/>
</g>
<g id="info" clip-path="url(#clip0_418_865)">
<path id="Exclude" fill-rule="evenodd" clip-rule="evenodd" d="M115.632 81.5952C112.119 83.462 108.201 84.4615 104.184 84.4615C97.5049 84.4615 91.0992 81.698 86.3763 76.7787C81.6533 71.8595 79 65.1876 79 58.2308C79 51.2739 81.6533 44.602 86.3763 39.6828C91.0992 34.7636 97.5049 32 104.184 32C110.863 32 117.269 34.7636 121.992 39.6828C124.005 41.7791 125.642 44.1937 126.857 46.813L117.974 55.6968L120.802 58.5253L128.379 50.9488C129.03 53.2951 129.368 55.7447 129.368 58.2308C129.368 58.4876 129.365 58.744 129.358 59H121V63H128.949C128.487 65.5985 127.653 68.1043 126.477 70.4335L118.209 62.6239C117.922 62.3542 117.561 62.2051 117.181 62.2051C116.326 62.2051 115.632 62.9433 115.632 63.8517V81.5952ZM115.632 81.5952C117.96 80.3579 120.11 78.7395 121.992 76.7787C123.802 74.8935 125.308 72.7509 126.477 70.4335L136.506 79.9058C136.82 80.2039 137 80.6298 137 81.0769C137 81.9428 136.339 82.6454 135.524 82.6454H127.638L131.424 90.715C131.952 91.8364 131.524 93.1991 130.469 93.7598C129.414 94.3205 128.132 93.8662 127.605 92.7449L123.725 84.4907L118.209 91.1977C117.929 91.5383 117.521 91.73 117.101 91.73C116.293 91.73 115.632 91.0344 115.632 90.1686V81.5952ZM128.949 63H134V59H129.358C129.32 60.3498 129.182 61.6867 128.949 63ZM128.379 50.9488L129.995 49.3326L127.166 46.5042L126.857 46.813C127.475 48.1437 127.984 49.5273 128.379 50.9488ZM102.61 66.4279H100.249C98.9408 66.4279 97.8882 67.5243 97.8882 68.887C97.8882 70.2498 98.9408 71.3462 100.249 71.3462H108.119C109.428 71.3462 110.48 70.2498 110.48 68.887C110.48 67.5243 109.428 66.4279 108.119 66.4279H107.332V57.4111C107.332 56.0483 106.28 54.9519 104.971 54.9519H100.249C98.9408 54.9519 97.8882 56.0483 97.8882 57.4111C97.8882 58.7738 98.9408 59.8702 100.249 59.8702H102.61V66.4279ZM106.41 46.0757C105.82 45.4608 105.019 45.1154 104.184 45.1154C103.349 45.1154 102.549 45.4608 101.958 46.0757C101.368 46.6906 101.036 47.5246 101.036 48.3942C101.036 49.2638 101.368 50.0978 101.958 50.7127C102.549 51.3276 103.349 51.6731 104.184 51.6731C105.019 51.6731 105.82 51.3276 106.41 50.7127C107.001 50.0978 107.332 49.2638 107.332 48.3942C107.332 47.5246 107.001 46.6906 106.41 46.0757ZM117.499 42.4999V55.5003H113.499V42.4999H117.499ZM95 49V45H91V49H87V53H91V57H95V53H99V49H95Z" fill="black"/>
</g>
</g>
<defs>
<filter id="filter0_d_418_865" x="0" y="0" width="168" height="168" filterUnits="userSpaceOnUse" color-interpolation-filters="sRGB">
<feFlood flood-opacity="0" result="BackgroundImageFix"/>
<feColorMatrix in="SourceAlpha" type="matrix" values="0 0 0 0 0 0 0 0 0 0 0 0 0 0 0 0 0 0 127 0" result="hardAlpha"/>
<feOffset dy="4"/>
<feGaussianBlur stdDeviation="2"/>
<feComposite in2="hardAlpha" operator="out"/>
<feColorMatrix type="matrix" values="0 0 0 0 0 0 0 0 0 0 0 0 0 0 0 0 0 0 0.25 0"/>
<feBlend mode="normal" in2="BackgroundImageFix" result="effect1_dropShadow_418_865"/>
<feBlend mode="normal" in="SourceGraphic" in2="effect1_dropShadow_418_865" result="shape"/>
</filter>
<clipPath id="clip0_418_865">
<rect width="58" height="62" fill="white" transform="translate(79 32)"/>
</clipPath>
</defs>
</svg>
