<svg width="168" height="168" viewBox="0 0 168 168" fill="none" xmlns="http://www.w3.org/2000/svg">
<g id="Property 1=DONE">
<g id="back">
<path d="M4 0L28 18H4V0Z" fill="#4E7540"/>
<path d="M146 160V136L164 160H146Z" fill="#4E7540"/>
</g>
<g id="Wrapper" filter="url(#filter0_d_540_2212)">
<path d="M164 73.1424L90 3.75918e-06L4 0C45.6573 43.5697 119.5 117.07 164 160V73.1424Z" fill="#5C9F44"/>
</g>
<path id="status" d="M139.13 76.3105C138.484 76.8077 137.738 77.4043 136.893 78.1004C135.998 78.7964 135.065 79.5546 134.096 80.375C133.126 81.1953 132.157 82.0654 131.187 82.9852C130.193 83.8801 129.236 84.7875 128.316 85.7073C127.048 86.9751 125.93 88.2181 124.96 89.4362C123.941 90.6543 123.195 91.7481 122.723 92.7176C122.474 93.2148 122.238 93.5752 122.014 93.799C121.641 94.1719 121.281 94.3832 120.933 94.4329C120.535 94.4826 120.212 94.3832 119.963 94.1346C119.516 93.6871 119.466 92.9413 119.814 91.8972C118.422 90.5051 117.241 88.8768 116.272 87.0124C115.277 85.1231 114.619 83.1965 114.296 81.2326C113.948 79.2439 113.997 77.3049 114.445 75.4156C114.867 73.5511 115.787 71.9104 117.204 70.4935C118.273 69.4245 119.541 68.629 121.008 68.107C122.474 67.5849 123.978 67.299 125.519 67.2493C127.061 67.1996 128.59 67.386 130.106 67.8087C131.573 68.2313 132.865 68.8527 133.984 69.6731C134.307 70.046 134.407 70.4437 134.282 70.8663C134.133 71.3138 133.922 71.6743 133.648 71.9477C133.45 72.1466 133.213 72.2833 132.94 72.3579C132.617 72.4325 132.318 72.3828 132.045 72.2087C131.1 71.6121 130.044 71.1771 128.875 70.9036C127.657 70.6302 126.452 70.5432 125.258 70.6426C124.04 70.7172 122.897 70.9658 121.828 71.3884C120.709 71.811 119.765 72.4076 118.994 73.1782C118.099 74.0732 117.54 75.2043 117.316 76.5715C117.067 77.9636 117.092 79.4055 117.391 80.897C117.639 82.3886 118.136 83.8553 118.882 85.2971C119.578 86.739 120.436 87.9943 121.455 89.0633C122.449 87.8203 123.493 86.6022 124.587 85.409C125.656 84.1909 126.787 82.9852 127.981 81.792C129.547 80.2258 131.1 78.7716 132.642 77.4292C134.158 76.1116 135.699 74.9184 137.265 73.8494C137.688 73.576 138.098 73.4641 138.496 73.5138C138.844 73.5636 139.155 73.7003 139.428 73.924C139.677 74.1726 139.838 74.5082 139.913 74.9308C139.963 75.3286 139.789 75.7263 139.391 76.1241C139.341 76.1738 139.304 76.2111 139.279 76.2359C139.229 76.2359 139.18 76.2608 139.13 76.3105ZM105.382 74.1836C104.86 74.0593 104.462 73.8604 104.189 73.5869C104.139 73.6864 104.052 73.7982 103.928 73.9225C103.53 74.3203 102.958 74.3949 102.212 74.1463C101.467 73.8977 100.684 73.3632 99.8633 72.5428C98.5706 71.2502 97.8 69.858 97.5514 68.3665C97.3028 66.8749 97.3898 65.3958 97.8124 63.9291C98.235 62.4624 98.9062 61.0455 99.826 59.6782C100.721 58.3358 101.678 57.155 102.697 56.1358C103.89 54.9425 105.196 53.9109 106.613 53.0408C107.98 52.1707 109.372 51.5492 110.789 51.1763C112.181 50.8283 113.536 50.7662 114.853 50.9899C116.171 51.2136 117.339 51.8351 118.359 52.8543C119.825 54.321 120.782 55.8002 121.23 57.2917C121.628 58.7833 121.665 60.2624 121.342 61.7291C121.018 63.1958 120.409 64.6003 119.514 65.9427C118.595 67.31 117.538 68.5902 116.345 69.7835C114.48 71.6479 112.678 72.8784 110.938 73.4751C109.173 74.0965 107.321 74.3327 105.382 74.1836ZM103.816 71.5733C103.915 71.5733 104.015 71.6231 104.114 71.7225C104.214 71.8219 104.263 71.9214 104.263 72.0208L104.413 71.8716C104.81 71.4739 105.357 71.275 106.053 71.275C107.222 71.2999 108.539 71.0016 110.006 70.3801C111.473 69.7586 112.84 68.814 114.108 67.5461C115.052 66.6015 115.86 65.5947 116.531 64.5257C117.203 63.4568 117.675 62.3879 117.948 61.3189C118.222 60.25 118.247 59.2059 118.023 58.1866C117.799 57.1674 117.265 56.2352 116.42 55.39C115.748 54.7188 114.978 54.2962 114.108 54.1222C113.213 53.973 112.28 54.0352 111.311 54.3086C110.292 54.5821 109.26 55.0668 108.216 55.7629C107.147 56.4838 106.078 57.3787 105.009 58.4477C104.338 59.1189 103.642 59.9392 102.921 60.9087C102.175 61.8534 101.591 62.8602 101.168 63.9291C100.721 65.0229 100.534 66.1292 100.609 67.2478C100.659 68.3416 101.156 69.3609 102.101 70.3055C102.623 70.8276 103.02 71.1507 103.294 71.275C103.542 71.3745 103.716 71.4739 103.816 71.5733ZM80.8072 50.3545C80.7575 50.4539 80.658 50.5782 80.5089 50.7274C80.1608 51.0754 79.7755 51.2619 79.3529 51.2867C78.9303 51.3116 78.5823 51.1873 78.3088 50.9138C78.0354 50.6404 77.8614 50.2924 77.7868 49.8697C77.7122 49.4471 77.8489 48.9872 78.197 48.4901C79.067 47.272 80.0241 46.0663 81.0682 44.873C82.1123 43.6798 83.231 42.4866 84.4242 41.2933C86.3632 39.3543 88.4141 37.5023 90.5769 35.7373C92.7148 33.9971 94.7781 32.5056 96.7668 31.2626C97.1894 30.9892 97.5747 30.8773 97.9228 30.927C98.2459 30.9519 98.5194 31.0762 98.7431 31.2999C99.0166 31.5734 99.1657 31.996 99.1906 32.5677C99.2403 33.1146 99.1036 34.0966 98.7804 35.5135C98.4572 36.9305 97.9228 38.9317 97.177 41.517C96.4064 44.0775 95.325 47.4957 93.9329 51.7715C93.4108 53.3376 93.0255 54.5184 92.7769 55.3139C92.5283 56.1094 92.2922 56.5942 92.0684 56.7682C91.795 57.0416 91.4345 57.1784 90.987 57.1784C90.5147 57.2032 90.1418 57.0789 89.8684 56.8055C89.6695 56.6066 89.5452 56.4326 89.4955 56.2834C89.3961 56.1343 89.3961 55.9105 89.4955 55.6122C89.5452 55.3139 89.6819 54.8789 89.9057 54.3071C90.1045 53.7602 90.3531 52.9647 90.6514 51.9206L94.3057 40.1374C94.5792 39.1678 94.8029 38.3475 94.9769 37.6763C95.151 37.0051 95.2753 36.4831 95.3498 36.1102C92.2176 38.3475 89.3961 40.7215 86.8853 43.2323C85.6672 44.4504 84.5609 45.6561 83.5666 46.8493C82.5473 48.0674 81.6275 49.2358 80.8072 50.3545ZM89.9057 59.9004C90.9995 59.0552 92.2922 57.9366 93.7837 56.5444C95.2504 55.1772 96.742 53.7354 98.2584 52.2189C99.8494 50.6279 101.353 49.0245 102.77 47.4087C104.138 45.7928 105.381 44.4256 106.499 43.3069C106.972 42.8346 107.456 42.5736 107.953 42.5238C108.426 42.499 108.824 42.6481 109.147 42.9713C109.346 43.1702 109.457 43.4561 109.482 43.829C109.457 44.2018 109.271 44.612 108.923 45.0595C107.68 46.6505 106.213 48.3658 104.523 50.2053C102.808 52.0201 101.055 53.8224 99.2652 55.6122C97.9476 56.9298 96.6798 58.1727 95.4617 59.3411C94.1939 60.5095 92.9882 61.5411 91.8447 62.4361C91.3724 62.8587 90.9249 63.0327 90.5023 62.9581C90.0548 62.8587 89.6944 62.6722 89.4209 62.3988C89.1972 62.0756 89.0977 61.7027 89.1226 61.2801C89.1226 60.8824 89.309 60.4971 89.6819 60.1242L89.9057 59.9004ZM76.1446 44.3495C76.4678 44.8218 76.6294 45.2569 76.6294 45.6546C76.6045 46.0772 76.4802 46.4004 76.2565 46.6241C75.983 46.8976 75.6226 47.0343 75.1751 47.0343C74.7276 47.0343 74.2802 46.8106 73.8327 46.3631C73.3604 45.7913 72.8632 45.2196 72.3411 44.6478C71.8191 44.0761 71.2846 43.5167 70.7377 42.9698C69.7931 42.0252 68.8608 41.1427 67.9411 40.3223C66.9964 39.4771 66.1015 38.7313 65.2563 38.085C64.8336 37.6624 64.6223 37.2273 64.6223 36.7799C64.5726 36.3324 64.6845 35.9719 64.9579 35.6985C65.654 35.0024 66.6608 35.164 67.9783 36.1833C69.271 37.1776 71.1728 38.9302 73.6835 41.441C75.0011 40.5212 76.331 39.4895 77.6734 38.346C78.991 37.2273 80.3458 35.9719 81.7379 34.5798C82.6329 33.6849 83.4781 32.8148 84.2736 31.9696C85.0691 31.1244 85.8397 30.2792 86.5855 29.434C87.0329 28.8871 87.3437 28.4023 87.5177 27.9797C87.642 27.5571 87.6544 27.1469 87.555 26.7492C87.4058 26.3514 87.1448 25.9413 86.7719 25.5186C86.3742 25.0712 85.8646 24.5367 85.2431 23.9152C84.4476 23.1197 83.6148 22.3864 82.7447 21.7152C81.8249 21.044 80.8678 20.4847 79.8735 20.0372C79.5752 19.888 79.3266 19.714 79.1277 19.5151C78.8045 19.192 78.6678 18.8812 78.7175 18.5829C78.7424 18.2598 78.8667 17.9863 79.0904 17.7626C79.5627 17.2902 80.1718 17.1287 80.9176 17.2778C81.6633 17.427 82.434 17.7253 83.2295 18.1727C84.0001 18.5954 84.7459 19.1174 85.4668 19.7389C86.2126 20.3355 86.8092 20.8575 87.2567 21.305C87.729 21.7773 88.251 22.3242 88.8228 22.9457C89.3946 23.5175 89.8917 24.1638 90.3144 24.8847C90.6872 25.6057 90.911 26.3763 90.9856 27.1966C91.0601 28.017 90.8364 28.8622 90.3144 29.7323C89.842 30.5526 89.1708 31.4724 88.3008 32.4917C87.4058 33.5357 86.4115 34.6047 85.3176 35.6985C84.4227 36.5934 83.5278 37.4635 82.6329 38.3087C81.6882 39.1539 80.7933 39.9494 79.9481 40.6952C79.1028 41.441 78.3322 42.0873 77.6361 42.6342C76.9152 43.206 76.3435 43.6534 75.9209 43.9766C76.0452 44.1009 76.1073 44.1879 76.1073 44.2376C76.0824 44.2625 76.0949 44.2998 76.1446 44.3495ZM80.3955 31.0001C80.7684 31.4227 80.9176 31.8205 80.843 32.1933C80.7436 32.5414 80.5571 32.8521 80.2837 33.1256C80.0351 33.3742 79.7119 33.4985 79.3141 33.4985C78.8915 33.4736 78.5062 33.2872 78.1582 32.9391C77.7356 32.5165 77.3254 32.0815 76.9277 31.634C76.5051 31.1617 76.0824 30.7142 75.6598 30.2916C74.2926 28.9244 72.8632 27.6441 71.3716 26.4509C70.9987 26.0283 70.8123 25.6181 70.8123 25.2203C70.7874 24.7977 70.8744 24.4621 71.0733 24.2135C71.4462 23.8406 71.9185 23.7412 72.4903 23.9152C73.0372 24.1141 73.6214 24.4248 74.2429 24.8474C74.8643 25.2701 75.4734 25.7548 76.07 26.3017C76.6418 26.8735 77.139 27.3707 77.5616 27.7933C78.0836 28.3153 78.5808 28.8374 79.0531 29.3594C79.5006 29.9063 79.9481 30.4532 80.3955 31.0001Z" fill="#434343"/>
</g>
<defs>
<filter id="filter0_d_540_2212" x="0" y="0" width="168" height="168" filterUnits="userSpaceOnUse" color-interpolation-filters="sRGB">
<feFlood flood-opacity="0" result="BackgroundImageFix"/>
<feColorMatrix in="SourceAlpha" type="matrix" values="0 0 0 0 0 0 0 0 0 0 0 0 0 0 0 0 0 0 127 0" result="hardAlpha"/>
<feOffset dy="4"/>
<feGaussianBlur stdDeviation="2"/>
<feComposite in2="hardAlpha" operator="out"/>
<feColorMatrix type="matrix" values="0 0 0 0 0 0 0 0 0 0 0 0 0 0 0 0 0 0 0.25 0"/>
<feBlend mode="normal" in2="BackgroundImageFix" result="effect1_dropShadow_540_2212"/>
<feBlend mode="normal" in="SourceGraphic" in2="effect1_dropShadow_540_2212" result="shape"/>
</filter>
</defs>
</svg>
