<svg width="168" height="168" viewBox="0 0 168 168" fill="none" xmlns="http://www.w3.org/2000/svg">
<g id="Property 1=DROPPED">
<g id="back">
<path d="M4 0L28 18H4V0Z" fill="#893649"/>
<path d="M146 160V136L164 160H146Z" fill="#893649"/>
</g>
<g id="Wrapper" filter="url(#filter0_d_540_2216)">
<path d="M164 73.1424L90 3.75918e-06L4 0C45.6573 43.5697 119.5 117.07 164 160V73.1424Z" fill="#C9274C"/>
</g>
<path id="status" d="M157.654 99.3262C157.056 99.7866 156.365 100.339 155.582 100.984C154.754 101.628 153.891 102.33 152.993 103.09C152.095 103.849 151.198 104.655 150.3 105.507C149.379 106.335 148.493 107.175 147.641 108.027C146.467 109.201 145.432 110.352 144.534 111.48C143.59 112.608 142.9 113.62 142.462 114.518C142.232 114.978 142.013 115.312 141.806 115.519C141.461 115.865 141.127 116.06 140.805 116.106C140.437 116.152 140.138 116.06 139.907 115.83C139.493 115.416 139.447 114.725 139.769 113.758C138.48 112.469 137.387 110.962 136.489 109.235C135.569 107.486 134.959 105.702 134.659 103.884C134.337 102.042 134.383 100.247 134.797 98.4976C135.189 96.7713 136.04 95.2521 137.352 93.9401C138.342 92.9503 139.516 92.2137 140.874 91.7304C142.232 91.247 143.625 90.9823 145.052 90.9362C146.479 90.8902 147.895 91.0628 149.299 91.4541C150.657 91.8454 151.854 92.4209 152.889 93.1805C153.189 93.5257 153.281 93.894 153.166 94.2853C153.028 94.6997 152.832 95.0334 152.579 95.2866C152.395 95.4707 152.176 95.5973 151.923 95.6664C151.623 95.7355 151.347 95.6894 151.094 95.5283C150.219 94.9759 149.241 94.5731 148.159 94.3199C147.031 94.0667 145.915 93.9861 144.81 94.0782C143.682 94.1472 142.623 94.3774 141.634 94.7687C140.598 95.16 139.723 95.7124 139.01 96.426C138.181 97.2546 137.663 98.3019 137.456 99.5679C137.226 100.857 137.249 102.192 137.525 103.573C137.755 104.954 138.216 106.312 138.906 107.647C139.551 108.982 140.345 110.145 141.288 111.134C142.209 109.983 143.176 108.856 144.189 107.751C145.178 106.623 146.226 105.507 147.331 104.402C148.781 102.952 150.219 101.605 151.646 100.362C153.051 99.1421 154.478 98.0372 155.928 97.0475C156.319 96.7943 156.699 96.6907 157.067 96.7367C157.389 96.7828 157.677 96.9094 157.93 97.1165C158.16 97.3467 158.31 97.6574 158.379 98.0487C158.425 98.417 158.264 98.7853 157.896 99.1536C157.85 99.1996 157.815 99.2342 157.792 99.2572C157.746 99.2572 157.7 99.2802 157.654 99.3262ZM132.137 73.9477C132.207 73.5564 132.356 73.2457 132.586 73.0155C132.886 72.7163 133.254 72.5782 133.691 72.6012C134.129 72.6242 134.497 72.7853 134.796 73.0846C135.118 73.4068 135.21 74.1204 135.072 75.2252C134.934 76.3301 134.681 77.596 134.313 79.0232C133.944 80.4503 133.519 81.8889 133.035 83.339C132.529 84.8121 132.045 86.0551 131.585 87.0679C131.539 87.206 131.481 87.3786 131.412 87.5858C131.297 87.7929 131.148 87.9886 130.964 88.1727C130.733 88.4029 130.377 88.6216 129.893 88.8287C129.387 89.0129 128.731 88.9553 127.925 88.6561C126.866 88.2878 125.98 88.0231 125.267 87.862C124.53 87.6778 123.932 87.5858 123.471 87.5858C122.988 87.6088 122.608 87.6894 122.332 87.8275C122.033 87.9425 121.791 88.0922 121.607 88.2763C120.893 88.9899 120.755 89.8876 121.193 90.9694C121.584 92.0512 122.343 93.1561 123.471 94.284C123.932 94.7443 124.45 95.2162 125.025 95.6995C125.577 96.1599 126.199 96.6433 126.889 97.1497C127.465 96.2059 128.236 95.1816 129.203 94.0768C130.146 92.9489 131.205 91.798 132.379 90.6241C133.254 89.7494 134.152 88.8978 135.072 88.0691C135.97 87.2175 136.833 86.4234 137.662 85.6868C138.49 84.9502 139.273 84.3057 140.01 83.7533C140.723 83.1779 141.322 82.7175 141.805 82.3722C142.173 82.096 142.553 81.9924 142.944 82.0615C143.313 82.1075 143.612 82.2456 143.842 82.4758C144.095 82.729 144.256 83.0513 144.325 83.4426C144.371 83.8109 144.233 84.1561 143.911 84.4784C143.796 84.5935 143.692 84.674 143.6 84.7201C142.311 85.6868 140.85 86.8722 139.215 88.2763C137.581 89.6804 136.004 91.142 134.485 92.6612C133.219 93.9272 132.091 95.1471 131.102 96.321C130.112 97.4949 129.398 98.5077 128.961 99.3594C128.731 99.8197 128.524 100.142 128.34 100.326C127.994 100.671 127.649 100.856 127.304 100.879C126.935 100.925 126.625 100.821 126.372 100.568C126.233 100.43 126.13 100.257 126.061 100.05L125.992 99.9809C125.209 99.3364 124.473 98.7149 123.782 98.1164C123.068 97.4949 122.412 96.885 121.814 96.2865C120.985 95.4579 120.249 94.6062 119.604 93.7315C118.937 92.8338 118.465 91.9476 118.189 91.073C117.912 90.1983 117.843 89.3466 117.982 88.518C118.12 87.6894 118.545 86.9183 119.259 86.2047C120.042 85.4221 121.204 84.9733 122.746 84.8582C124.265 84.7661 126.291 85.1344 128.823 85.963C129.145 85.2264 129.502 84.3172 129.893 83.2354C130.262 82.1306 130.607 81.0027 130.929 79.8518C131.228 78.6779 131.493 77.5615 131.723 76.5027C131.953 75.4439 132.091 74.5922 132.137 73.9477ZM113.25 84.2008C112.767 84.0857 112.398 83.9015 112.145 83.6483C112.099 83.7404 112.019 83.844 111.903 83.9591C111.535 84.3274 111.006 84.3964 110.315 84.1662C109.625 83.9361 108.9 83.4412 108.14 82.6816C106.943 81.4847 106.23 80.1957 105.999 78.8146C105.769 77.4335 105.85 76.064 106.241 74.7059C106.632 73.3479 107.254 72.0359 108.106 70.7699C108.934 69.5269 109.82 68.4336 110.764 67.4899C111.869 66.385 113.077 65.4298 114.389 64.6241C115.655 63.8185 116.944 63.2431 118.256 62.8978C119.545 62.5756 120.8 62.518 122.02 62.7252C123.24 62.9323 124.322 63.5078 125.265 64.4515C126.623 65.8096 127.51 67.1791 127.924 68.5602C128.292 69.9412 128.327 71.3108 128.027 72.6689C127.728 74.0269 127.164 75.3274 126.336 76.5704C125.484 77.8364 124.506 79.0218 123.401 80.1266C121.675 81.853 120.006 82.9923 118.394 83.5448C116.76 84.1202 115.045 84.3389 113.25 84.2008ZM111.8 81.7839C111.892 81.7839 111.984 81.8299 112.076 81.922C112.168 82.0141 112.214 82.1062 112.214 82.1982L112.352 82.0601C112.721 81.6918 113.227 81.5077 113.871 81.5077C114.953 81.5307 116.173 81.2545 117.531 80.6791C118.889 80.1036 120.155 79.2289 121.329 78.055C122.204 77.1803 122.952 76.2481 123.573 75.2584C124.195 74.2686 124.632 73.2788 124.885 72.2891C125.139 71.2993 125.162 70.3326 124.955 69.3888C124.747 68.4451 124.252 67.5819 123.47 66.7993C122.848 66.1778 122.135 65.7865 121.329 65.6254C120.501 65.4873 119.637 65.5448 118.74 65.798C117.796 66.0512 116.841 66.5001 115.874 67.1446C114.884 67.8121 113.894 68.6407 112.905 69.6305C112.283 70.252 111.639 71.0116 110.971 71.9093C110.281 72.7839 109.74 73.7162 109.348 74.7059C108.934 75.7187 108.762 76.743 108.831 77.7788C108.877 78.7916 109.337 79.7353 110.212 80.61C110.695 81.0934 111.063 81.3926 111.316 81.5077C111.547 81.5998 111.708 81.6918 111.8 81.7839ZM104.237 60.5486C103.201 59.8351 102.269 59.2481 101.44 58.7877C100.589 58.3044 99.8177 57.9706 99.1272 57.7865C98.4136 57.6253 97.7691 57.6253 97.1937 57.7865C96.5722 57.9476 95.9737 58.3159 95.3983 58.8913C94.9149 59.3747 94.6617 59.9962 94.6387 60.7558C94.6157 61.5154 94.7653 62.3325 95.0876 63.2072C95.4098 64.0818 95.8932 64.9795 96.5377 65.9002C97.1822 66.821 97.9303 67.7071 98.7819 68.5588C98.9891 68.766 99.1962 68.9731 99.4034 69.1803C99.6106 69.3874 99.8407 69.5946 100.094 69.8018C100.715 68.9041 101.487 67.9488 102.407 66.936C103.305 65.9002 104.272 64.8644 105.307 63.8286C106.182 62.954 107.091 62.0908 108.035 61.2391C108.956 60.3645 109.842 59.5473 110.694 58.7877C111.522 58.0512 112.316 57.3952 113.076 56.8197C113.79 56.2443 114.388 55.7839 114.871 55.4387C115.263 55.1855 115.642 55.0819 116.011 55.1279C116.356 55.1509 116.655 55.289 116.908 55.5422C117.162 55.7954 117.323 56.1177 117.392 56.509C117.438 56.8773 117.3 57.2225 116.977 57.5448C116.862 57.6599 116.759 57.7404 116.667 57.7865C116.022 58.2929 115.32 58.8568 114.561 59.4783C113.755 60.0998 112.938 60.7788 112.109 61.5154C111.281 62.2519 110.452 63.0115 109.623 63.7941C108.749 64.5767 107.908 65.3708 107.103 66.1765C105.791 67.4885 104.628 68.7429 103.616 69.9399C102.58 71.1598 101.889 72.1956 101.544 73.0473C101.383 73.4846 101.176 73.8299 100.923 74.0831C100.6 74.4053 100.267 74.578 99.9213 74.601C99.553 74.647 99.2423 74.5434 98.9891 74.2902C98.5517 73.8529 98.4367 73.2084 98.6438 72.3567C98.3676 72.1266 98.1144 71.8964 97.8842 71.6662C97.654 71.436 97.4239 71.2058 97.1937 70.9757C96.0428 69.8248 95.03 68.6048 94.1553 67.3158C93.2576 66.0038 92.6016 64.7263 92.1873 63.4834C91.75 62.2174 91.6004 61.009 91.7385 59.8581C91.8536 58.6842 92.36 57.6484 93.2576 56.7507C94.8459 55.1624 96.7103 54.541 98.851 54.8862C100.969 55.2085 103.293 56.3363 105.825 58.2698C105.871 58.3159 105.917 58.3389 105.963 58.3389C105.963 58.3389 105.986 58.3619 106.033 58.408C106.332 58.7072 106.447 59.0294 106.378 59.3747C106.286 59.743 106.102 60.0652 105.825 60.3414C105.641 60.5256 105.4 60.6522 105.1 60.7212C104.801 60.7903 104.513 60.7327 104.237 60.5486ZM90.4596 46.7711C89.4238 46.0575 88.4916 45.4706 87.6629 45.0102C86.8113 44.5268 86.0402 44.1931 85.3496 44.0089C84.6361 43.8478 83.9916 43.8478 83.4162 44.0089C82.7947 44.1701 82.1962 44.5383 81.6208 45.1138C81.1374 45.5972 80.8842 46.2186 80.8612 46.9782C80.8382 47.7378 80.9878 48.555 81.31 49.4296C81.6323 50.3043 82.1156 51.202 82.7601 52.1227C83.4046 53.0434 84.1527 53.9296 85.0044 54.7813C85.2115 54.9884 85.4187 55.1956 85.6259 55.4027C85.833 55.6099 86.0632 55.8171 86.3164 56.0242C86.9379 55.1265 87.709 54.1713 88.6297 53.1585C89.5274 52.1227 90.4941 51.0869 91.5299 50.0511C92.4046 49.1764 93.3138 48.3133 94.2575 47.4616C95.1783 46.5869 96.0644 45.7698 96.9161 45.0102C97.7447 44.2736 98.5388 43.6176 99.2984 43.0422C100.012 42.4667 100.61 42.0064 101.094 41.6611C101.485 41.4079 101.865 41.3043 102.233 41.3504C102.578 41.3734 102.878 41.5115 103.131 41.7647C103.384 42.0179 103.545 42.3401 103.614 42.7314C103.66 43.0997 103.522 43.445 103.2 43.7672C103.085 43.8823 102.981 43.9629 102.889 44.0089C102.245 44.5153 101.543 45.0793 100.783 45.7007C99.9775 46.3222 99.1603 47.0013 98.3317 47.7378C97.503 48.4744 96.6744 49.234 95.8458 50.0166C94.9711 50.7992 94.1309 51.5933 93.3253 52.3989C92.0133 53.7109 90.8509 54.9654 89.8381 56.1623C88.8023 57.3823 88.1118 58.4181 87.7665 59.2697C87.6054 59.7071 87.3982 60.0523 87.145 60.3055C86.8228 60.6278 86.489 60.8004 86.1438 60.8234C85.7755 60.8695 85.4647 60.7659 85.2115 60.5127C84.7742 60.0754 84.6591 59.4309 84.8663 58.5792C84.5901 58.349 84.3369 58.1188 84.1067 57.8887C83.8765 57.6585 83.6463 57.4283 83.4162 57.1981C82.2653 56.0472 81.2525 54.8273 80.3778 53.5383C79.4801 52.2263 78.8241 50.9488 78.4098 49.7058C77.9724 48.4399 77.8228 47.2314 77.9609 46.0805C78.076 44.9066 78.5824 43.8708 79.4801 42.9731C81.0683 41.3849 82.9328 40.7634 85.0734 41.1087C87.1911 41.4309 89.5159 42.5588 92.0478 44.4923C92.0939 44.5383 92.1399 44.5614 92.1859 44.5614C92.1859 44.5614 92.209 44.5844 92.255 44.6304C92.5542 44.9296 92.6693 45.2519 92.6003 45.5972C92.5082 45.9655 92.324 46.2877 92.0478 46.5639C91.8637 46.7481 91.622 46.8747 91.3228 46.9437C91.0235 47.0128 90.7358 46.9552 90.4596 46.7711ZM74.058 44.4564C74.3573 44.8937 74.5069 45.2966 74.5069 45.6648C74.4839 46.0561 74.3688 46.3554 74.1616 46.5625C73.9084 46.8157 73.5747 46.9423 73.1603 46.9423C72.746 46.9423 72.3317 46.7352 71.9174 46.3208C71.48 45.7914 71.0197 45.262 70.5363 44.7326C70.0529 44.2032 69.5581 43.6853 69.0517 43.1789C68.177 42.3042 67.3138 41.4871 66.4622 40.7275C65.5875 39.9449 64.7588 39.2544 63.9762 38.6559C63.5849 38.2646 63.3893 37.8618 63.3893 37.4475C63.3433 37.0332 63.4468 36.6994 63.7 36.4462C64.3445 35.8017 65.2767 35.9513 66.4967 36.8951C67.6936 37.8158 69.4545 39.4385 71.7793 41.7633C72.9992 40.9117 74.2307 39.9564 75.4736 38.8976C76.6936 37.8618 77.948 36.6994 79.237 35.4104C80.0657 34.5818 80.8483 33.7761 81.5849 32.9935C82.3214 32.2109 83.035 31.4283 83.7255 30.6457C84.1398 30.1393 84.4276 29.6905 84.5887 29.2992C84.7038 28.9079 84.7153 28.5281 84.6232 28.1598C84.4851 27.7915 84.2434 27.4117 83.8981 27.0204C83.5299 26.6061 83.058 26.1112 82.4826 25.5358C81.746 24.7992 80.9749 24.1202 80.1693 23.4987C79.3176 22.8772 78.4314 22.3593 77.5107 21.945C77.2345 21.8069 77.0043 21.6458 76.8202 21.4616C76.5209 21.1624 76.3943 20.8747 76.4404 20.5985C76.4634 20.2992 76.5785 20.046 76.7856 19.8389C77.223 19.4015 77.7869 19.2519 78.4775 19.39C79.168 19.5281 79.8815 19.8043 80.6181 20.2187C81.3317 20.61 82.0222 21.0933 82.6897 21.6688C83.3802 22.2212 83.9327 22.7046 84.347 23.1189C84.7843 23.5562 85.2677 24.0626 85.7971 24.6381C86.3265 25.1675 86.7869 25.766 87.1782 26.4335C87.5235 27.101 87.7306 27.8145 87.7997 28.5741C87.8687 29.3337 87.6616 30.1163 87.1782 30.9219C86.7408 31.6815 86.1194 32.5332 85.3137 33.4769C84.4851 34.4437 83.5644 35.4334 82.5516 36.4462C81.723 37.2749 80.8943 38.0805 80.0657 38.8631C79.191 39.6457 78.3624 40.3823 77.5798 41.0728C76.7972 41.7633 76.0836 42.3618 75.4391 42.8682C74.7716 43.3976 74.2422 43.8119 73.8509 44.1111C73.966 44.2262 74.0235 44.3068 74.0235 44.3528C74.0005 44.3758 74.012 44.4104 74.058 44.4564ZM77.9941 32.0958C78.3393 32.4871 78.4775 32.8554 78.4084 33.2007C78.3163 33.5229 78.1437 33.8107 77.8905 34.0639C77.6603 34.294 77.3611 34.4091 76.9928 34.4091C76.6015 34.3861 76.2447 34.2135 75.9225 33.8912C75.5312 33.4999 75.1514 33.0971 74.7831 32.6828C74.3918 32.2455 74.0005 31.8311 73.6092 31.4398C72.3432 30.1739 71.0197 28.9884 69.6386 27.8836C69.2934 27.4923 69.1207 27.1125 69.1207 26.7442C69.0977 26.3529 69.1783 26.0422 69.3624 25.812C69.7077 25.4667 70.145 25.3746 70.6744 25.5358C71.1808 25.7199 71.7217 26.0076 72.2972 26.3989C72.8726 26.7902 73.4366 27.2391 73.989 27.7455C74.5184 28.2749 74.9787 28.7352 75.3701 29.1265C75.8534 29.6099 76.3138 30.0933 76.7511 30.5767C77.1654 31.0831 77.5798 31.5895 77.9941 32.0958ZM74.9198 16.592C74.3214 17.0523 73.6308 17.6048 72.8482 18.2493C72.0196 18.8938 71.1564 19.5958 70.2587 20.3554C69.361 21.115 68.4633 21.9206 67.5656 22.7723C66.6449 23.6009 65.7587 24.441 64.9071 25.2927C63.7332 26.4666 62.6974 27.6175 61.7997 28.7454C60.8559 29.8732 60.1654 30.886 59.7281 31.7837C59.4979 32.2441 59.2792 32.5778 59.0721 32.785C58.7268 33.1303 58.393 33.3259 58.0708 33.372C57.7025 33.418 57.4033 33.3259 57.1731 33.0957C56.7588 32.6814 56.7127 31.9909 57.035 31.0241C55.746 29.7351 54.6527 28.2275 53.755 26.5011C52.8342 24.7518 52.2243 22.9679 51.925 21.1495C51.6028 19.3081 51.6488 17.5127 52.0631 15.7633C52.4545 14.037 53.3061 12.5178 54.6181 11.2058C55.6079 10.216 56.7818 9.47948 58.1398 8.9961C59.4979 8.51273 60.8905 8.24802 62.3176 8.20199C63.7447 8.15595 65.1603 8.32859 66.5644 8.71989C67.9224 9.11119 69.1193 9.68664 70.1551 10.4462C70.4544 10.7915 70.5464 11.1598 70.4314 11.5511C70.2932 11.9654 70.0976 12.2992 69.8444 12.5524C69.6603 12.7365 69.4416 12.8631 69.1884 12.9321C68.8892 13.0012 68.6129 12.9552 68.3598 12.794C67.4851 12.2416 66.5068 11.8388 65.425 11.5856C64.2971 11.3324 63.1807 11.2518 62.0759 11.3439C60.948 11.413 59.8892 11.6432 58.8994 12.0345C57.8636 12.4258 56.989 12.9782 56.2754 13.6917C55.4468 14.5204 54.9289 15.5677 54.7217 16.8337C54.4915 18.1227 54.5145 19.4577 54.7908 20.8388C55.0209 22.2198 55.4813 23.5779 56.1718 24.9129C56.8163 26.2479 57.6104 27.4103 58.5542 28.4001C59.4749 27.2492 60.4416 26.1213 61.4544 25.0165C62.4442 23.8886 63.4915 22.7723 64.5963 21.6674C66.0465 20.2173 67.4851 18.8707 68.9122 17.6278C70.3163 16.4078 71.7434 15.303 73.1935 14.3132C73.5848 14.06 73.9646 13.9564 74.3329 14.0025C74.6551 14.0485 74.9428 14.1751 75.196 14.3823C75.4262 14.6124 75.5758 14.9232 75.6449 15.3145C75.6909 15.6828 75.5298 16.0511 75.1615 16.4193C75.1155 16.4654 75.0809 16.4999 75.0579 16.5229C75.0119 16.5229 74.9659 16.5459 74.9198 16.592Z" fill="#434343"/>
</g>
<defs>
<filter id="filter0_d_540_2216" x="0" y="0" width="168" height="168" filterUnits="userSpaceOnUse" color-interpolation-filters="sRGB">
<feFlood flood-opacity="0" result="BackgroundImageFix"/>
<feColorMatrix in="SourceAlpha" type="matrix" values="0 0 0 0 0 0 0 0 0 0 0 0 0 0 0 0 0 0 127 0" result="hardAlpha"/>
<feOffset dy="4"/>
<feGaussianBlur stdDeviation="2"/>
<feComposite in2="hardAlpha" operator="out"/>
<feColorMatrix type="matrix" values="0 0 0 0 0 0 0 0 0 0 0 0 0 0 0 0 0 0 0.25 0"/>
<feBlend mode="normal" in2="BackgroundImageFix" result="effect1_dropShadow_540_2216"/>
<feBlend mode="normal" in="SourceGraphic" in2="effect1_dropShadow_540_2216" result="shape"/>
</filter>
</defs>
</svg>
