<svg width="168" height="167" viewBox="0 0 168 167" fill="none" xmlns="http://www.w3.org/2000/svg">
<g id="Property 1=IN PROGRESS">
<g id="back">
<path d="M4 0L28 18H4V0Z" fill="#3E5774"/>
<path d="M146 160V136L164 160H146Z" fill="#3E5774"/>
</g>
<g id="Wrapper" filter="url(#filter0_d_540_2220)">
<path d="M164 73.1424L90 3.75918e-06L4 0C45.6573 43.5697 119.5 117.07 164 160V73.1424Z" fill="#2D69AF"/>
</g>
<path id="status" d="M154.368 107.769C153.354 108.504 152.287 109.361 151.167 110.341C150.03 111.303 148.937 112.309 147.887 113.358C147.047 114.198 146.295 115.02 145.63 115.825C144.966 116.63 144.493 117.347 144.213 117.977C144.073 118.222 144.117 118.475 144.345 118.738C144.572 119 144.826 119.271 145.106 119.551C145.368 119.813 145.569 120.102 145.709 120.417C145.832 120.749 145.718 121.09 145.368 121.44C145.193 121.615 144.966 121.703 144.686 121.703C144.388 121.685 144.108 121.545 143.846 121.283C143.531 120.898 143.234 120.548 142.954 120.233C142.656 119.901 142.368 119.595 142.088 119.315C141.686 118.913 141.196 118.51 140.618 118.108C140.024 117.688 139.42 117.172 138.808 116.56C138.598 116.35 138.493 116.105 138.493 115.825C138.475 115.563 138.554 115.344 138.729 115.169C138.957 114.942 139.236 114.854 139.569 114.907C139.884 114.942 140.207 115.055 140.54 115.248C140.872 115.44 141.196 115.676 141.511 115.956C141.825 116.236 142.097 116.49 142.324 116.717C142.779 115.912 143.452 115.011 144.345 114.014C145.219 113 146.155 111.994 147.152 110.997C148.149 110 149.164 109.072 150.196 108.215C151.193 107.358 152.024 106.667 152.689 106.142C152.427 105.88 152.147 105.635 151.849 105.408C151.517 105.18 151.176 104.891 150.826 104.542C150.616 104.332 150.511 104.087 150.511 103.807C150.494 103.544 150.555 103.343 150.695 103.203C150.957 102.941 151.289 102.871 151.692 102.993C152.094 103.116 152.514 103.326 152.951 103.623C153.389 103.921 153.809 104.27 154.211 104.673C154.631 105.058 154.981 105.39 155.261 105.67C155.558 105.967 155.882 106.291 156.231 106.641C156.564 106.973 156.852 107.314 157.097 107.664C157.342 108.014 157.5 108.346 157.57 108.661C157.64 108.976 157.552 109.256 157.307 109.501C157.132 109.676 156.914 109.755 156.651 109.737C156.354 109.72 156.074 109.58 155.812 109.317C155.707 109.177 155.602 109.037 155.497 108.898C155.357 108.758 155.217 108.618 155.077 108.478L154.368 107.769ZM129.649 104.987C129.614 105.057 129.544 105.144 129.439 105.249C129.194 105.494 128.923 105.625 128.626 105.643C128.328 105.66 128.083 105.573 127.891 105.38C127.698 105.188 127.576 104.943 127.523 104.646C127.471 104.348 127.567 104.025 127.812 103.675C128.424 102.817 129.098 101.969 129.833 101.129C130.567 100.29 131.355 99.4499 132.194 98.6103C133.559 97.2458 135.002 95.9425 136.524 94.7005C138.028 93.4759 139.48 92.4263 140.88 91.5516C141.177 91.3592 141.448 91.2805 141.693 91.3155C141.921 91.333 142.113 91.4204 142.271 91.5779C142.463 91.7703 142.568 92.0677 142.585 92.47C142.62 92.8549 142.524 93.5459 142.297 94.543C142.069 95.5401 141.693 96.9484 141.168 98.7677C140.626 100.57 139.865 102.975 138.886 105.984C138.518 107.086 138.247 107.917 138.072 108.477C137.897 109.036 137.731 109.378 137.574 109.5C137.381 109.692 137.127 109.789 136.813 109.789C136.48 109.806 136.218 109.719 136.025 109.526C135.885 109.386 135.798 109.264 135.763 109.159C135.693 109.054 135.693 108.896 135.763 108.687C135.798 108.477 135.894 108.17 136.052 107.768C136.192 107.383 136.366 106.823 136.576 106.089L139.148 97.7968C139.34 97.1146 139.498 96.5373 139.62 96.065C139.743 95.5926 139.83 95.2253 139.883 94.9629C137.678 96.5373 135.693 98.2079 133.926 99.9748C133.069 100.832 132.29 101.68 131.591 102.52C130.873 103.377 130.226 104.199 129.649 104.987ZM136.052 111.704C136.821 111.109 137.731 110.322 138.781 109.343C139.813 108.38 140.862 107.366 141.929 106.299C143.049 105.179 144.107 104.051 145.104 102.914C146.067 101.777 146.941 100.814 147.729 100.027C148.061 99.6949 148.402 99.5112 148.752 99.4762C149.084 99.4587 149.364 99.5637 149.592 99.7911C149.732 99.931 149.81 100.132 149.828 100.395C149.81 100.657 149.679 100.946 149.434 101.261C148.559 102.38 147.527 103.587 146.338 104.882C145.131 106.159 143.897 107.427 142.638 108.687C141.711 109.614 140.819 110.488 139.961 111.311C139.069 112.133 138.221 112.859 137.416 113.489C137.084 113.786 136.769 113.908 136.471 113.856C136.157 113.786 135.903 113.655 135.71 113.462C135.553 113.235 135.483 112.972 135.501 112.675C135.501 112.395 135.632 112.124 135.894 111.862L136.052 111.704ZM122.614 86.3015C121.827 85.7592 121.119 85.3131 120.489 84.9632C119.842 84.5958 119.256 84.3422 118.731 84.2022C118.189 84.0798 117.699 84.0798 117.261 84.2022C116.789 84.3247 116.334 84.6046 115.897 85.0419C115.53 85.4093 115.337 85.8816 115.32 86.4589C115.302 87.0362 115.416 87.6572 115.661 88.322C115.906 88.9867 116.273 89.669 116.763 90.3687C117.253 91.0685 117.821 91.742 118.468 92.3892C118.626 92.5467 118.783 92.7041 118.941 92.8615C119.098 93.019 119.273 93.1764 119.466 93.3339C119.938 92.6516 120.524 91.9256 121.224 91.1559C121.906 90.3687 122.641 89.5815 123.428 88.7943C124.093 88.1295 124.784 87.4735 125.501 86.8263C126.201 86.1615 126.874 85.5405 127.521 84.9632C128.151 84.4034 128.755 83.9049 129.332 83.4675C129.874 83.0302 130.329 82.6803 130.696 82.4179C130.994 82.2255 131.282 82.1468 131.562 82.1817C131.825 82.1992 132.052 82.3042 132.245 82.4966C132.437 82.6891 132.56 82.934 132.612 83.2314C132.647 83.5112 132.542 83.7736 132.297 84.0186C132.21 84.106 132.131 84.1673 132.061 84.2022C131.571 84.5871 131.038 85.0157 130.46 85.488C129.848 85.9603 129.227 86.4764 128.597 87.0362C127.967 87.596 127.338 88.1733 126.708 88.7681C126.043 89.3628 125.405 89.9664 124.792 90.5786C123.795 91.5758 122.912 92.5292 122.142 93.4388C121.355 94.366 120.83 95.1532 120.568 95.8005C120.445 96.1328 120.288 96.3952 120.095 96.5877C119.85 96.8326 119.597 96.9638 119.334 96.9813C119.055 97.0163 118.818 96.9375 118.626 96.7451C118.294 96.4127 118.206 95.9229 118.364 95.2756C118.154 95.1007 117.961 94.9258 117.786 94.7508C117.611 94.5759 117.436 94.401 117.261 94.226C116.387 93.3514 115.617 92.4242 114.952 91.4446C114.27 90.4474 113.771 89.4765 113.457 88.5319C113.124 87.5697 113.011 86.6513 113.115 85.7767C113.203 84.8845 113.588 84.0973 114.27 83.415C115.477 82.208 116.894 81.7357 118.521 81.9981C120.13 82.243 121.897 83.1001 123.822 84.5696C123.856 84.6046 123.891 84.6221 123.926 84.6221C123.926 84.6221 123.944 84.6396 123.979 84.6746C124.206 84.902 124.294 85.1469 124.241 85.4093C124.171 85.6892 124.031 85.9341 123.822 86.144C123.682 86.284 123.498 86.3802 123.27 86.4327C123.043 86.4851 122.824 86.4414 122.614 86.3015ZM112.878 65.5443C112.931 65.247 113.044 65.0108 113.219 64.8359C113.447 64.6084 113.727 64.5035 114.059 64.521C114.391 64.5385 114.671 64.6609 114.899 64.8883C115.144 65.1332 115.214 65.6755 115.109 66.5152C115.004 67.3549 114.811 68.3171 114.531 69.4017C114.251 70.4863 113.928 71.5796 113.56 72.6817C113.176 73.8013 112.808 74.7459 112.458 75.5157C112.423 75.6206 112.38 75.7518 112.327 75.9093C112.24 76.0667 112.126 76.2154 111.986 76.3553C111.811 76.5303 111.54 76.6965 111.173 76.8539C110.788 76.9939 110.289 76.9501 109.677 76.7227C108.872 76.4428 108.199 76.2416 107.656 76.1192C107.097 75.9792 106.642 75.9093 106.292 75.9093C105.925 75.9268 105.636 75.988 105.426 76.0929C105.199 76.1804 105.015 76.2941 104.875 76.4341C104.333 76.9764 104.228 77.6586 104.56 78.4808C104.857 79.303 105.435 80.1427 106.292 80.9999C106.642 81.3497 107.035 81.7084 107.473 82.0757C107.893 82.4256 108.365 82.793 108.89 83.1778C109.327 82.4606 109.913 81.6821 110.648 80.8424C111.365 79.9853 112.17 79.1106 113.062 78.2184C113.727 77.5537 114.409 76.9064 115.109 76.2766C115.791 75.6294 116.447 75.0258 117.077 74.466C117.706 73.9063 118.301 73.4164 118.861 72.9966C119.403 72.5592 119.858 72.2094 120.226 71.947C120.505 71.7371 120.794 71.6583 121.091 71.7108C121.371 71.7458 121.599 71.8508 121.774 72.0257C121.966 72.2181 122.089 72.463 122.141 72.7604C122.176 73.0403 122.071 73.3027 121.826 73.5476C121.739 73.6351 121.66 73.6963 121.59 73.7313C120.61 74.466 119.5 75.367 118.258 76.4341C117.015 77.5012 115.817 78.612 114.663 79.7666C113.7 80.7287 112.843 81.6559 112.091 82.5481C111.339 83.4402 110.797 84.2099 110.464 84.8572C110.289 85.2071 110.132 85.452 109.992 85.5919C109.729 85.8543 109.467 85.9943 109.205 86.0118C108.925 86.0468 108.689 85.968 108.496 85.7756C108.391 85.6706 108.312 85.5394 108.26 85.382L108.207 85.3295C107.613 84.8397 107.053 84.3674 106.528 83.9125C105.986 83.4402 105.487 82.9766 105.032 82.5218C104.403 81.892 103.843 81.2448 103.353 80.58C102.846 79.8978 102.487 79.2243 102.277 78.5595C102.067 77.8948 102.015 77.2475 102.12 76.6177C102.225 75.988 102.548 75.4019 103.091 74.8596C103.685 74.2649 104.569 73.9237 105.741 73.8363C106.895 73.7663 108.435 74.0462 110.359 74.676C110.604 74.1162 110.875 73.4252 111.173 72.603C111.453 71.7633 111.715 70.9061 111.96 70.0314C112.187 69.1393 112.388 68.2908 112.563 67.4861C112.738 66.6814 112.843 66.0342 112.878 65.5443ZM98.5238 73.3367C98.1564 73.2492 97.8765 73.1092 97.6841 72.9168C97.6491 72.9868 97.5879 73.0655 97.5004 73.153C97.2205 73.4329 96.8181 73.4854 96.2933 73.3104C95.7685 73.1355 95.2175 72.7594 94.6402 72.1821C93.7305 71.2724 93.1882 70.2928 93.0133 69.2432C92.8384 68.1936 92.8996 67.1527 93.197 66.1206C93.4944 65.0885 93.9667 64.0913 94.614 63.1292C95.2437 62.1845 95.9172 61.3536 96.6345 60.6364C97.4741 59.7967 98.3926 59.0707 99.3897 58.4584C100.352 57.8461 101.331 57.4088 102.329 57.1464C103.308 56.9015 104.262 56.8578 105.189 57.0152C106.116 57.1726 106.938 57.61 107.655 58.3272C108.687 59.3593 109.361 60.4002 109.676 61.4498C109.956 62.4994 109.982 63.5403 109.755 64.5724C109.527 65.6045 109.099 66.5929 108.469 67.5376C107.822 68.4997 107.078 69.4006 106.238 70.2403C104.926 71.5523 103.658 72.4183 102.434 72.8381C101.192 73.2754 99.8883 73.4416 98.5238 73.3367ZM97.4217 71.4998C97.4916 71.4998 97.5616 71.5348 97.6316 71.6048C97.7016 71.6748 97.7365 71.7447 97.7365 71.8147L97.8415 71.7098C98.1214 71.4299 98.5063 71.2899 98.9961 71.2899C99.8183 71.3074 100.745 71.0975 101.778 70.6602C102.81 70.2228 103.772 69.5581 104.664 68.6659C105.329 68.0011 105.897 67.2926 106.37 66.5404C106.842 65.7882 107.174 65.036 107.367 64.2838C107.559 63.5315 107.577 62.7968 107.419 62.0796C107.262 61.3623 106.886 60.7063 106.291 60.1116C105.819 59.6392 105.276 59.3418 104.664 59.2194C104.034 59.1144 103.378 59.1582 102.696 59.3506C101.979 59.543 101.253 59.8841 100.518 60.374C99.7658 60.8813 99.0136 61.511 98.2614 62.2633C97.789 62.7356 97.2992 63.3129 96.7919 63.9951C96.2671 64.6599 95.856 65.3684 95.5586 66.1206C95.2437 66.8903 95.1125 67.6688 95.165 68.456C95.2 69.2257 95.5499 69.9429 96.2146 70.6077C96.582 70.975 96.8619 71.2025 97.0543 71.2899C97.2292 71.3599 97.3517 71.4299 97.4217 71.4998ZM94.6654 48.3811C94.4555 48.1712 94.368 47.9787 94.403 47.8038C94.4205 47.6464 94.5079 47.4889 94.6654 47.3315C94.9103 47.1216 95.1552 47.0166 95.4001 47.0166C95.6275 47.0341 95.8549 47.1041 96.0824 47.2265C96.2923 47.3315 96.4847 47.4714 96.6597 47.6464C96.8346 47.8213 96.992 47.9787 97.132 48.1187C97.9017 48.8884 98.444 49.7456 98.7589 50.6902C99.0738 51.6349 99.1875 52.6233 99.1 53.6554C98.995 54.67 98.6976 55.6846 98.2078 56.6993C97.683 57.7139 96.9833 58.6585 96.1086 59.5332C95.1115 60.5304 93.9482 61.2213 92.6186 61.6062C91.2891 61.9911 89.9509 62.1398 88.6039 62.0523C87.2569 61.9648 85.9886 61.6762 84.799 61.1864C83.6095 60.6965 82.6473 60.0843 81.9126 59.3495C81.6677 59.1046 81.5627 58.8597 81.5977 58.6148C81.6152 58.3874 81.7027 58.195 81.8601 58.0375C82.0526 57.8451 82.28 57.7051 82.5424 57.6177C82.7873 57.5477 82.9622 57.5652 83.0672 57.6702C83.8894 58.2824 84.8165 58.7723 85.8487 59.1396C86.8808 59.507 87.9304 59.7169 88.9975 59.7694C90.0471 59.8044 91.0617 59.6644 92.0414 59.3495C93.0035 59.0521 93.8432 58.5448 94.5604 57.8276C96.0999 56.1832 96.8958 54.5651 96.9483 52.9731C96.9833 51.3987 96.441 50.0517 95.3214 48.9321C95.2339 48.8447 95.1377 48.7485 95.0328 48.6435C94.9103 48.556 94.7878 48.4686 94.6654 48.3811ZM94.2455 45.5471C93.8957 45.967 93.5108 46.4043 93.091 46.8592C92.6536 47.3315 92.1726 47.8301 91.6478 48.3549C91.1229 48.8797 90.6069 49.3607 90.0996 49.7981C89.5923 50.2354 89.1024 50.6203 88.6301 50.9526L88.5776 51.0051C89.2074 51.5299 89.7847 52.0547 90.3095 52.5795C91.8314 54.1015 92.2775 55.1773 91.6478 55.8071C91.4903 55.9645 91.2629 56.017 90.9655 55.9645C90.6681 55.9121 90.362 55.7284 90.0471 55.4135C89.6273 54.8887 89.1549 54.3639 88.6301 53.8391C87.9479 53.1568 87.2306 52.4921 86.4784 51.8448C85.7087 51.215 85.0527 50.629 84.5104 50.0867C84.213 49.7893 84.0468 49.5007 84.0118 49.2208C83.9593 48.9234 84.0293 48.6785 84.2218 48.4861C84.5016 48.2062 84.8865 48.1712 85.3763 48.3811C85.8487 48.6085 86.356 48.9934 86.8983 49.5357C87.5455 49.0633 88.184 48.5648 88.8138 48.04C89.4086 47.5152 90.0034 46.9554 90.5981 46.3606C90.983 45.9757 91.3504 45.5734 91.7002 45.1535C92.0326 44.7512 92.3912 44.3576 92.7761 43.9727C93.0385 43.7103 93.3096 43.5966 93.5895 43.6316C93.8694 43.6316 94.0881 43.7103 94.2455 43.8678C94.438 44.0602 94.5517 44.3139 94.5867 44.6287C94.6217 44.9436 94.5079 45.2498 94.2455 45.5471ZM80.3634 33.0295C80.4159 32.7321 80.5296 32.4959 80.7045 32.321C80.9319 32.0936 81.2118 31.9886 81.5442 32.0061C81.8766 32.0236 82.1565 32.1461 82.3839 32.3735C82.6288 32.6184 82.6988 33.1607 82.5938 34.0004C82.4888 34.8401 82.2964 35.8022 82.0165 36.8868C81.7366 37.9714 81.413 39.0647 81.0456 40.1668C80.6608 41.2864 80.2934 42.2311 79.9435 43.0008C79.9085 43.1057 79.8648 43.2369 79.8123 43.3944C79.7249 43.5518 79.6112 43.7005 79.4712 43.8405C79.2963 44.0154 79.0251 44.1816 78.6578 44.339C78.2729 44.479 77.7743 44.4353 77.1621 44.2078C76.3574 43.9279 75.6839 43.7268 75.1416 43.6043C74.5818 43.4644 74.1269 43.3944 73.7771 43.3944C73.4097 43.4119 73.1211 43.4731 72.9111 43.5781C72.6837 43.6655 72.5 43.7792 72.3601 43.9192C71.8178 44.4615 71.7128 45.1437 72.0452 45.9659C72.3426 46.7881 72.9199 47.6278 73.7771 48.485C74.1269 48.8349 74.5205 49.1935 74.9579 49.5609C75.3777 49.9107 75.85 50.2781 76.3749 50.663C76.8122 49.9457 77.3982 49.1673 78.133 48.3276C78.8502 47.4704 79.6549 46.5957 80.5471 45.7035C81.2118 45.0388 81.8941 44.3915 82.5938 43.7618C83.276 43.1145 83.9321 42.511 84.5618 41.9512C85.1916 41.3914 85.7864 40.9016 86.3462 40.4817C86.8885 40.0444 87.3433 39.6945 87.7107 39.4321C87.9906 39.2222 88.2792 39.1435 88.5766 39.1959C88.8565 39.2309 89.0839 39.3359 89.2588 39.5108C89.4513 39.7033 89.5737 39.9482 89.6262 40.2456C89.6612 40.5255 89.5562 40.7879 89.3113 41.0328C89.2238 41.1202 89.1451 41.1815 89.0752 41.2164C88.0955 41.9512 86.9847 42.8521 85.7426 43.9192C84.5006 44.9863 83.3023 46.0971 82.1477 47.2517C81.1856 48.2139 80.3284 49.141 79.5762 50.0332C78.8239 50.9254 78.2816 51.6951 77.9493 52.3423C77.7743 52.6922 77.6169 52.9371 77.4769 53.0771C77.2145 53.3395 76.9521 53.4794 76.6897 53.4969C76.4098 53.5319 76.1737 53.4532 75.9812 53.2607C75.8763 53.1558 75.7976 53.0246 75.7451 52.8671L75.6926 52.8147C75.0978 52.3248 74.538 51.8525 74.0132 51.3977C73.4709 50.9254 72.9724 50.4618 72.5175 50.0069C71.8878 49.3772 71.328 48.7299 70.8382 48.0652C70.3308 47.3829 69.9722 46.7094 69.7623 46.0447C69.5524 45.3799 69.4999 44.7326 69.6049 44.1029C69.7098 43.4731 70.0334 42.8871 70.5757 42.3448C71.1705 41.75 72.054 41.4089 73.226 41.3214C74.3806 41.2514 75.92 41.5313 77.8443 42.1611C78.0892 41.6013 78.3604 40.9103 78.6578 40.0881C78.9377 39.2484 79.2001 38.3912 79.445 37.5166C79.6724 36.6244 79.8736 35.776 80.0485 34.9713C80.2234 34.1666 80.3284 33.5193 80.3634 33.0295ZM67.6358 42.0288C67.8632 42.3612 67.9769 42.6674 67.9769 42.9473C67.9594 43.2446 67.872 43.4721 67.7145 43.6295C67.5221 43.8219 67.2684 43.9181 66.9535 43.9181C66.6387 43.9182 66.3238 43.7607 66.0089 43.4458C65.6765 43.0435 65.3266 42.6411 64.9593 42.2388C64.5919 41.8364 64.2158 41.4428 63.8309 41.058C63.1662 40.3932 62.5102 39.7722 61.8629 39.1949C61.1982 38.6001 60.5684 38.0753 59.9736 37.6205C59.6762 37.3231 59.5275 37.017 59.5275 36.7021C59.4926 36.3872 59.5713 36.1335 59.7637 35.9411C60.2535 35.4513 60.962 35.565 61.8892 36.2822C62.7988 36.982 64.1371 38.2153 65.9039 39.9821C66.8311 39.3348 67.767 38.6089 68.7116 37.8042C69.6388 37.017 70.5922 36.1335 71.5718 35.1539C72.2016 34.5241 72.7964 33.9119 73.3562 33.3171C73.916 32.7223 74.4583 32.1275 74.9831 31.5327C75.298 31.1479 75.5166 30.8068 75.6391 30.5094C75.7265 30.212 75.7353 29.9233 75.6653 29.6434C75.5604 29.3635 75.3767 29.0749 75.1143 28.7775C74.8344 28.4626 74.4758 28.0865 74.0384 27.6492C73.4786 27.0894 72.8926 26.5733 72.2803 26.101C71.6331 25.6287 70.9596 25.2351 70.2598 24.9202C70.0499 24.8152 69.875 24.6928 69.735 24.5528C69.5076 24.3254 69.4114 24.1067 69.4464 23.8968C69.4639 23.6694 69.5513 23.477 69.7088 23.3195C70.0411 22.9871 70.4697 22.8734 70.9945 22.9784C71.5194 23.0834 72.0617 23.2933 72.6214 23.6082C73.1637 23.9056 73.6885 24.2729 74.1959 24.7103C74.7207 25.1301 75.1405 25.4975 75.4554 25.8123C75.7878 26.1447 76.1551 26.5296 76.5575 26.9669C76.9598 27.3693 77.3097 27.8241 77.6071 28.3314C77.8695 28.8387 78.0269 29.381 78.0794 29.9583C78.1319 30.5356 77.9745 31.1304 77.6071 31.7427C77.2747 32.3199 76.8024 32.9672 76.1901 33.6844C75.5604 34.4192 74.8606 35.1714 74.0909 35.9411C73.4611 36.5709 72.8314 37.1831 72.2016 37.7779C71.5368 38.3727 70.9071 38.9325 70.3123 39.4573C69.7175 39.9821 69.1752 40.4369 68.6854 40.8218C68.1781 41.2241 67.7757 41.539 67.4783 41.7664C67.5658 41.8539 67.6095 41.9151 67.6095 41.9501C67.5921 41.9676 67.6008 41.9939 67.6358 42.0288ZM70.6272 32.6348C70.8896 32.9322 70.9945 33.2121 70.9421 33.4745C70.8721 33.7194 70.7409 33.9381 70.5485 34.1305C70.3735 34.3055 70.1461 34.3929 69.8662 34.3929C69.5688 34.3754 69.2977 34.2442 69.0528 33.9993C68.7554 33.7019 68.4667 33.3958 68.1868 33.0809C67.8894 32.7485 67.5921 32.4336 67.2947 32.1363C66.3325 31.1741 65.3266 30.2732 64.277 29.4335C64.0146 29.1361 63.8834 28.8475 63.8834 28.5676C63.8659 28.2702 63.9272 28.034 64.0671 27.8591C64.3295 27.5967 64.6619 27.5267 65.0642 27.6492C65.4491 27.7891 65.8602 28.0078 66.2975 28.3052C66.7349 28.6026 67.1635 28.9437 67.5833 29.3285C67.9857 29.7309 68.3355 30.0808 68.6329 30.3782C69.0003 30.7455 69.3502 31.1129 69.6825 31.4803C69.9974 31.8651 70.3123 32.25 70.6272 32.6348ZM56.9025 27.412C57.2348 26.7647 57.4885 26.0387 57.6634 25.234C57.8384 24.4293 57.9783 23.5896 58.0833 22.7149C58.1707 21.8578 58.267 20.9918 58.3719 20.1172C58.4769 19.2425 58.6343 18.4028 58.8442 17.5981C58.9317 17.2307 59.0717 16.8983 59.2641 16.601C59.439 16.3211 59.6314 16.0761 59.8414 15.8662C60.2787 15.4289 60.7685 15.1315 61.3108 14.9741C61.8181 14.8166 62.3429 14.7816 62.8852 14.8691C63.4275 14.9566 63.9698 15.149 64.5121 15.4464C65.0195 15.7438 65.5093 16.1286 65.9816 16.601C66.4539 17.0733 66.9175 17.5893 67.3723 18.1491C67.7922 18.7089 68.1508 19.2425 68.4482 19.7498C68.7106 20.2571 68.8943 20.7207 68.9992 21.1405C69.0692 21.5604 68.9992 21.8753 68.7893 22.0852C68.5969 22.2776 68.3607 22.4088 68.0808 22.4788C67.7834 22.5313 67.5385 22.4613 67.3461 22.2689C67.3111 22.2339 67.1974 22.0502 67.005 21.7178C66.8125 21.3854 66.5764 20.9918 66.2965 20.537C65.9816 20.0822 65.6492 19.6098 65.2994 19.12C64.932 18.6127 64.5646 18.1754 64.1973 17.808C63.7424 17.3532 63.2701 17.1083 62.7803 17.0733C62.2555 17.0383 61.7744 17.2395 61.3371 17.6768C61.0922 17.9217 60.9172 18.2366 60.8123 18.6215C60.6723 19.0063 60.5674 19.4786 60.4974 20.0384C60.4274 20.5982 60.3662 21.2367 60.3137 21.954C60.2437 22.6887 60.1388 23.5109 59.9988 24.4206C59.7714 25.9775 59.4915 27.202 59.1591 28.0942C58.8267 28.9864 58.3807 29.7124 57.8209 30.2721C57.0337 31.0594 56.1765 31.4442 55.2493 31.4267C54.3047 31.3917 53.2813 30.8232 52.1792 29.7211C51.8118 29.3537 51.462 28.9339 51.1296 28.4616C50.7622 27.9892 50.4648 27.5169 50.2374 27.0446C49.9925 26.5898 49.8438 26.1612 49.7913 25.7588C49.7214 25.374 49.7913 25.0766 50.0013 24.8666C50.1762 24.6917 50.3861 24.5868 50.631 24.5518C50.8759 24.5168 51.0859 24.5868 51.2608 24.7617C51.3483 24.8492 51.4707 25.0241 51.6282 25.2865C51.7856 25.5489 51.9868 25.855 52.2317 26.2049C52.4416 26.5548 52.6865 26.9221 52.9664 27.307C53.2288 27.6744 53.5 27.998 53.7799 28.2779C54.637 29.1351 55.4417 29.1875 56.194 28.4353C56.4564 28.1729 56.6925 27.8318 56.9025 27.412ZM48.0584 18.5679C48.3908 17.9207 48.6445 17.1947 48.8194 16.39C48.9943 15.5853 49.1343 14.7456 49.2392 13.8709C49.3267 13.0137 49.4229 12.1478 49.5279 11.2731C49.6328 10.3984 49.7903 9.55876 50.0002 8.75406C50.0877 8.38669 50.2276 8.05432 50.4201 7.75693C50.595 7.47703 50.7874 7.23212 50.9973 7.0222C51.4347 6.58486 51.9245 6.28747 52.4668 6.13003C52.9741 5.97259 53.4989 5.9376 54.0412 6.02507C54.5835 6.11253 55.1258 6.30496 55.6681 6.60235C56.1754 6.89974 56.6652 7.2846 57.1376 7.75692C57.6099 8.22925 58.0735 8.74531 58.5283 9.3051C58.9481 9.86489 59.3068 10.3984 59.6042 10.9058C59.8666 11.4131 60.0502 11.8767 60.1552 12.2965C60.2252 12.7163 60.1552 13.0312 59.9453 13.2411C59.7528 13.4336 59.5167 13.5648 59.2368 13.6348C58.9394 13.6872 58.6945 13.6173 58.5021 13.4248C58.4671 13.3898 58.3534 13.2062 58.1609 12.8738C57.9685 12.5414 57.7323 12.1478 57.4525 11.693C57.1376 11.2381 56.8052 10.7658 56.4553 10.276C56.088 9.76868 55.7206 9.33134 55.3532 8.96398C54.8984 8.50915 54.4261 8.26424 53.9363 8.22925C53.4114 8.19426 52.9304 8.39544 52.493 8.83278C52.2481 9.07769 52.0732 9.39257 51.9682 9.77743C51.8283 10.1623 51.7233 10.6346 51.6533 11.1944C51.5834 11.7542 51.5221 12.3927 51.4697 13.1099C51.3997 13.8447 51.2947 14.6669 51.1548 15.5765C50.9274 17.1335 50.6475 18.358 50.3151 19.2502C49.9827 20.1423 49.5366 20.8683 48.9768 21.4281C48.1896 22.2153 47.3324 22.6002 46.4053 22.5827C45.4606 22.5477 44.4373 21.9792 43.3352 20.8771C42.9678 20.5097 42.6179 20.0899 42.2856 19.6175C41.9182 19.1452 41.6208 18.6729 41.3934 18.2006C41.1485 17.7457 40.9998 17.3171 40.9473 16.9148C40.8773 16.5299 40.9473 16.2325 41.1572 16.0226C41.3322 15.8477 41.5421 15.7427 41.787 15.7077C42.0319 15.6727 42.2418 15.7427 42.4168 15.9177C42.5042 16.0051 42.6267 16.1801 42.7841 16.4425C42.9416 16.7049 43.1427 17.011 43.3877 17.3609C43.5976 17.7107 43.8425 18.0781 44.1224 18.463C44.3848 18.8303 44.6559 19.154 44.9358 19.4339C45.793 20.291 46.5977 20.3435 47.3499 19.5913C47.6123 19.3289 47.8485 18.9878 48.0584 18.5679Z" fill="#434343"/>
</g>
<defs>
<filter id="filter0_d_540_2220" x="0" y="0" width="168" height="168" filterUnits="userSpaceOnUse" color-interpolation-filters="sRGB">
<feFlood flood-opacity="0" result="BackgroundImageFix"/>
<feColorMatrix in="SourceAlpha" type="matrix" values="0 0 0 0 0 0 0 0 0 0 0 0 0 0 0 0 0 0 127 0" result="hardAlpha"/>
<feOffset dy="4"/>
<feGaussianBlur stdDeviation="2"/>
<feComposite in2="hardAlpha" operator="out"/>
<feColorMatrix type="matrix" values="0 0 0 0 0 0 0 0 0 0 0 0 0 0 0 0 0 0 0.25 0"/>
<feBlend mode="normal" in2="BackgroundImageFix" result="effect1_dropShadow_540_2220"/>
<feBlend mode="normal" in="SourceGraphic" in2="effect1_dropShadow_540_2220" result="shape"/>
</filter>
</defs>
</svg>
