<svg width="168" height="169" viewBox="0 0 168 169" fill="none" xmlns="http://www.w3.org/2000/svg">
<g id="Property 1=POSTPONED">
<g id="back">
<path d="M4 1L28 19H4V1Z" fill="#968D5D"/>
<path d="M146 161V137L164 161H146Z" fill="#968D5D"/>
</g>
<g id="Wrapper" filter="url(#filter0_d_540_2189)">
<path d="M164 74.1424L90 1L4 1C45.6573 44.5697 119.5 118.07 164 161V74.1424Z" fill="#EED22F"/>
</g>
<path id="status" d="M146.983 101.949C146.154 101.378 145.408 100.909 144.745 100.54C144.064 100.154 143.447 99.8867 142.895 99.7394C142.324 99.6105 141.808 99.6105 141.348 99.7394C140.851 99.8683 140.372 100.163 139.912 100.623C139.525 101.01 139.322 101.507 139.304 102.115C139.286 102.723 139.405 103.376 139.663 104.076C139.921 104.776 140.308 105.494 140.823 106.23C141.339 106.967 141.937 107.676 142.619 108.357C142.784 108.523 142.95 108.689 143.116 108.854C143.282 109.02 143.466 109.186 143.668 109.352C144.165 108.633 144.782 107.869 145.519 107.059C146.237 106.23 147.01 105.402 147.839 104.573C148.539 103.873 149.266 103.183 150.021 102.502C150.758 101.802 151.467 101.148 152.148 100.54C152.811 99.9512 153.446 99.4264 154.054 98.966C154.625 98.5057 155.103 98.1374 155.49 97.8612C155.803 97.6586 156.107 97.5757 156.402 97.6126C156.678 97.631 156.917 97.7415 157.12 97.944C157.322 98.1466 157.451 98.4044 157.507 98.7174C157.543 99.0121 157.433 99.2883 157.175 99.5461C157.083 99.6381 157 99.7026 156.927 99.7394C156.411 100.145 155.849 100.596 155.242 101.093C154.597 101.59 153.943 102.133 153.28 102.723C152.618 103.312 151.955 103.919 151.292 104.546C150.592 105.172 149.92 105.807 149.275 106.451C148.226 107.501 147.296 108.505 146.486 109.462C145.657 110.438 145.105 111.267 144.828 111.948C144.699 112.298 144.534 112.574 144.331 112.777C144.073 113.035 143.806 113.173 143.53 113.191C143.236 113.228 142.987 113.145 142.784 112.942C142.435 112.593 142.342 112.077 142.508 111.396C142.287 111.211 142.085 111.027 141.9 110.843C141.716 110.659 141.532 110.475 141.348 110.291C140.427 109.37 139.617 108.394 138.917 107.363C138.199 106.313 137.674 105.291 137.343 104.297C136.993 103.284 136.873 102.317 136.984 101.397C137.076 100.458 137.481 99.6289 138.199 98.9108C139.47 97.6402 140.961 97.143 142.674 97.4192C144.368 97.677 146.228 98.5793 148.253 100.126C148.29 100.163 148.327 100.181 148.364 100.181C148.364 100.181 148.382 100.2 148.419 100.237C148.659 100.476 148.751 100.734 148.695 101.01C148.622 101.305 148.474 101.562 148.253 101.783C148.106 101.931 147.913 102.032 147.673 102.087C147.434 102.142 147.204 102.096 146.983 101.949ZM132.149 98.8268C131.762 98.7347 131.468 98.5874 131.265 98.3849C131.228 98.4585 131.164 98.5414 131.072 98.6335C130.777 98.9281 130.354 98.9833 129.801 98.7992C129.249 98.615 128.669 98.2191 128.061 97.6115C127.104 96.6539 126.533 95.6227 126.349 94.5179C126.164 93.413 126.229 92.3174 126.542 91.2309C126.855 90.1445 127.352 89.0949 128.033 88.0821C128.696 87.0877 129.405 86.2131 130.16 85.4581C131.044 84.5742 132.011 83.81 133.061 83.1655C134.073 82.521 135.105 82.0606 136.154 81.7844C137.185 81.5266 138.189 81.4806 139.165 81.6463C140.141 81.8121 141.006 82.2724 141.761 83.0274C142.848 84.1138 143.557 85.2095 143.888 86.3143C144.183 87.4192 144.21 88.5148 143.971 89.6013C143.732 90.6877 143.28 91.7281 142.618 92.7225C141.936 93.7353 141.154 94.6836 140.27 95.5675C138.889 96.9486 137.554 97.8601 136.265 98.302C134.957 98.7624 133.585 98.9373 132.149 98.8268ZM130.989 96.8933C131.063 96.8933 131.136 96.9301 131.21 97.0038C131.284 97.0775 131.32 97.1511 131.32 97.2248L131.431 97.1143C131.726 96.8197 132.131 96.6723 132.646 96.6723C133.512 96.6908 134.488 96.4698 135.574 96.0094C136.661 95.5491 137.673 94.8493 138.612 93.9102C139.312 93.2105 139.911 92.4647 140.408 91.6729C140.905 90.8811 141.255 90.0893 141.457 89.2974C141.66 88.5056 141.678 87.7322 141.513 86.9772C141.347 86.2223 140.951 85.5317 140.325 84.9056C139.828 84.4085 139.257 84.0954 138.612 83.9665C137.95 83.856 137.259 83.9021 136.541 84.1046C135.786 84.3072 135.022 84.6663 134.248 85.1819C133.456 85.7159 132.665 86.3788 131.873 87.1706C131.376 87.6678 130.86 88.2755 130.326 88.9936C129.774 89.6933 129.341 90.4391 129.028 91.2309C128.696 92.0412 128.558 92.8606 128.614 93.6892C128.65 94.4995 129.019 95.2544 129.718 95.9542C130.105 96.3409 130.4 96.5803 130.602 96.6723C130.786 96.746 130.915 96.8197 130.989 96.8933ZM122.398 84.5455C122.747 83.8641 123.014 83.0999 123.199 82.2529C123.383 81.4058 123.53 80.522 123.641 79.6012C123.733 78.6989 123.834 77.7874 123.944 76.8667C124.055 75.946 124.221 75.0621 124.442 74.2151C124.534 73.8284 124.681 73.4785 124.884 73.1655C125.068 72.8708 125.27 72.613 125.491 72.3921C125.952 71.9317 126.467 71.6187 127.038 71.4529C127.572 71.2872 128.124 71.2504 128.695 71.3425C129.266 71.4345 129.837 71.6371 130.408 71.9501C130.942 72.2632 131.457 72.6683 131.955 73.1655C132.452 73.6626 132.94 74.2059 133.419 74.7951C133.86 75.3844 134.238 75.946 134.551 76.48C134.827 77.014 135.021 77.502 135.131 77.944C135.205 78.3859 135.131 78.7174 134.91 78.9383C134.708 79.1409 134.459 79.279 134.164 79.3526C133.851 79.4079 133.593 79.3342 133.391 79.1317C133.354 79.0948 133.234 78.9015 133.032 78.5516C132.829 78.2018 132.581 77.7874 132.286 77.3087C131.955 76.8299 131.605 76.3327 131.236 75.8171C130.85 75.2831 130.463 74.8227 130.076 74.436C129.598 73.9573 129.1 73.6995 128.585 73.6626C128.032 73.6258 127.526 73.8376 127.066 74.2979C126.808 74.5557 126.624 74.8872 126.513 75.2923C126.366 75.6974 126.255 76.1946 126.182 76.7839C126.108 77.3731 126.044 78.0452 125.988 78.8002C125.915 79.5736 125.804 80.4391 125.657 81.3966C125.418 83.0355 125.123 84.3245 124.773 85.2636C124.423 86.2027 123.954 86.9669 123.364 87.5562C122.536 88.3848 121.633 88.7899 120.657 88.7715C119.663 88.7347 118.586 88.1362 117.426 86.9761C117.039 86.5894 116.671 86.1475 116.321 85.6503C115.934 85.1531 115.621 84.656 115.382 84.1588C115.124 83.68 114.967 83.2288 114.912 82.8053C114.839 82.4002 114.912 82.0872 115.133 81.8662C115.317 81.6821 115.538 81.5716 115.796 81.5347C116.054 81.4979 116.275 81.5716 116.459 81.7557C116.551 81.8478 116.68 82.0319 116.846 82.3081C117.011 82.5843 117.223 82.9066 117.481 83.2749C117.702 83.6432 117.96 84.0299 118.254 84.435C118.531 84.8217 118.816 85.1623 119.111 85.457C120.013 86.3593 120.86 86.4145 121.652 85.6227C121.928 85.3465 122.177 84.9874 122.398 84.5455ZM121.982 65.1265C120.951 65.8999 119.818 66.8114 118.585 67.8611C117.333 68.9291 116.136 70.0339 114.994 71.1756C114.055 72.1147 113.217 73.0263 112.48 73.9101C111.725 74.8124 111.173 75.6042 110.823 76.2856C110.823 76.3961 110.759 76.5158 110.63 76.6447C111.201 77.2155 111.735 77.7311 112.232 78.1914C112.692 78.6518 113.07 79.0845 113.364 79.4897C113.641 79.8764 113.806 80.2262 113.861 80.5393C113.917 80.8523 113.806 81.1469 113.53 81.4231C113.346 81.6073 113.107 81.6994 112.812 81.6994C112.499 81.6809 112.204 81.5336 111.928 81.2574C111.633 80.8891 111.283 80.484 110.878 80.0421C110.455 79.5817 110.004 79.1122 109.525 78.6334C108.567 77.6758 107.582 76.7275 106.569 75.7884C105.538 74.8677 104.654 74.1311 103.918 73.5787L103.752 73.413C103.531 73.192 103.421 72.9342 103.421 72.6396C103.402 72.3633 103.485 72.1332 103.669 71.949C103.927 71.6912 104.249 71.6084 104.636 71.7004C105.004 71.7741 105.419 71.9674 105.879 72.2805C106.321 72.5751 106.8 72.9618 107.315 73.4406C107.831 73.9193 108.356 74.4257 108.89 74.9597C109.332 74.1495 109.995 73.2472 110.878 72.2529C111.725 71.2585 112.655 70.2549 113.668 69.2421C114.313 68.5976 114.966 67.9808 115.629 67.3915C116.274 66.7838 116.909 66.2222 117.535 65.7066C118.143 65.1726 118.714 64.6938 119.248 64.2703C119.763 63.8652 120.196 63.5245 120.546 63.2483C120.84 63.0273 121.144 62.9445 121.457 62.9997C121.752 63.0365 121.991 63.147 122.176 63.3312C122.378 63.5337 122.507 63.7915 122.562 64.1046C122.599 64.3992 122.489 64.6754 122.231 64.9332C122.139 65.0253 122.056 65.0897 121.982 65.1265ZM104.994 59.9602C104.165 59.3894 103.42 58.9198 102.757 58.5516C102.075 58.1649 101.458 57.8979 100.906 57.7505C100.335 57.6216 99.8195 57.6216 99.3592 57.7505C98.862 57.8794 98.3832 58.1741 97.9229 58.6344C97.5362 59.0211 97.3336 59.5183 97.3152 60.126C97.2968 60.7336 97.4165 61.3874 97.6743 62.0871C97.9321 62.7868 98.3188 63.505 98.8344 64.2416C99.35 64.9781 99.9484 65.6871 100.63 66.3684C100.795 66.5341 100.961 66.6999 101.127 66.8656C101.293 67.0313 101.477 67.197 101.679 67.3628C102.177 66.6446 102.793 65.8804 103.53 65.0702C104.248 64.2416 105.022 63.4129 105.85 62.5843C106.55 61.8845 107.277 61.194 108.032 60.5127C108.769 59.8129 109.478 59.1592 110.159 58.5516C110.822 57.9623 111.457 57.4375 112.065 56.9771C112.636 56.5168 113.115 56.1485 113.501 55.8723C113.814 55.6697 114.118 55.5869 114.413 55.6237C114.689 55.6421 114.928 55.7526 115.131 55.9551C115.334 56.1577 115.462 56.4155 115.518 56.7285C115.554 57.0232 115.444 57.2994 115.186 57.5572C115.094 57.6493 115.011 57.7137 114.938 57.7505C114.422 58.1557 113.86 58.6068 113.253 59.104C112.608 59.6012 111.955 60.1444 111.292 60.7336C110.629 61.3229 109.966 61.9306 109.303 62.5567C108.603 63.1827 107.931 63.818 107.287 64.4625C106.237 65.5121 105.307 66.5157 104.497 67.4733C103.668 68.4492 103.116 69.2779 102.839 69.9592C102.711 70.309 102.545 70.5853 102.342 70.7878C102.084 71.0456 101.817 71.1837 101.541 71.2021C101.247 71.239 100.998 71.1561 100.795 70.9535C100.446 70.6037 100.354 70.0881 100.519 69.4068C100.298 69.2226 100.096 69.0385 99.9116 68.8543C99.7275 68.6702 99.5433 68.486 99.3592 68.3019C98.4385 67.3812 97.6282 66.4052 96.9285 65.374C96.2103 64.3244 95.6855 63.3024 95.3541 62.3081C95.0042 61.2953 94.8845 60.3285 94.995 59.4078C95.0871 58.4687 95.4922 57.6401 96.2103 56.9219C97.4809 55.6513 98.9725 55.1541 100.685 55.4303C102.379 55.6881 104.239 56.5904 106.265 58.1372C106.301 58.1741 106.338 58.1925 106.375 58.1925C106.375 58.1925 106.393 58.2109 106.43 58.2477C106.67 58.4871 106.762 58.7449 106.706 59.0211C106.633 59.3157 106.485 59.5735 106.265 59.7945C106.117 59.9418 105.924 60.0431 105.684 60.0984C105.445 60.1536 105.215 60.1076 104.994 59.9602ZM90.1602 56.8379C89.7735 56.7459 89.4788 56.5985 89.2763 56.396C89.2394 56.4696 89.175 56.5525 89.0829 56.6446C88.7883 56.9392 88.3648 56.9944 87.8123 56.8103C87.2599 56.6262 86.6799 56.2303 86.0722 55.6226C85.1147 54.665 84.5438 53.6339 84.3597 52.529C84.1755 51.4241 84.24 50.3285 84.553 49.2421C84.8661 48.1556 85.3632 47.106 86.0446 46.0932C86.7075 45.0989 87.4164 44.2242 88.1714 43.4692C89.0553 42.5853 90.022 41.8211 91.0717 41.1766C92.0844 40.5321 93.1156 40.0718 94.1653 39.7955C95.1964 39.5377 96.2 39.4917 97.176 39.6574C98.1519 39.8232 99.0174 40.2835 99.7724 41.0385C100.859 42.125 101.568 43.2206 101.899 44.3255C102.194 45.4303 102.221 46.526 101.982 47.6124C101.743 48.6988 101.292 49.7392 100.629 50.7336C99.9473 51.7464 99.1647 52.6947 98.2808 53.5786C96.8998 54.9597 95.5647 55.8712 94.2757 56.3131C92.9683 56.7735 91.5965 56.9484 90.1602 56.8379ZM89.0001 54.9044C89.0737 54.9044 89.1474 54.9413 89.221 55.0149C89.2947 55.0886 89.3315 55.1622 89.3315 55.2359L89.442 55.1254C89.7366 54.8308 90.1417 54.6835 90.6573 54.6835C91.5228 54.7019 92.4988 54.4809 93.5852 54.0205C94.6716 53.5602 95.6844 52.8605 96.6236 51.9213C97.3233 51.2216 97.9218 50.4758 98.4189 49.684C98.9161 48.8922 99.266 48.1004 99.4686 47.3086C99.6711 46.5167 99.6895 45.7433 99.5238 44.9884C99.3581 44.2334 98.9622 43.5428 98.3361 42.9168C97.8389 42.4196 97.2681 42.1065 96.6236 41.9776C95.9606 41.8672 95.2701 41.9132 94.552 42.1157C93.797 42.3183 93.0328 42.6774 92.2594 43.193C91.4676 43.727 90.6758 44.3899 89.8839 45.1817C89.3868 45.6789 88.8712 46.2866 88.3371 47.0047C87.7847 47.7045 87.352 48.4502 87.0389 49.2421C86.7075 50.0523 86.5694 50.8717 86.6246 51.7004C86.6614 52.5106 87.0297 53.2656 87.7295 53.9653C88.1162 54.352 88.4108 54.5914 88.6134 54.6835C88.7975 54.7571 88.9264 54.8308 89.0001 54.9044ZM71.9566 39.1868C71.9197 39.2604 71.8461 39.3525 71.7356 39.463C71.4778 39.7208 71.1924 39.8589 70.8793 39.8773C70.5663 39.8957 70.3085 39.8037 70.1059 39.6011C69.9034 39.3985 69.7745 39.1407 69.7192 38.8277C69.664 38.5147 69.7653 38.174 70.0231 37.8057C70.6676 36.9034 71.3765 36.0103 72.1499 35.1264C72.9233 34.2426 73.752 33.3587 74.6358 32.4748C76.0722 31.0385 77.5913 29.6666 79.1934 28.3592C80.777 27.0702 82.3054 25.9653 83.7785 25.0446C84.0916 24.8421 84.377 24.7592 84.6348 24.796C84.8742 24.8145 85.0767 24.9065 85.2424 25.0723C85.445 25.2748 85.5555 25.5879 85.5739 26.0114C85.6107 26.4165 85.5095 27.1439 85.2701 28.1935C85.0307 29.2431 84.6348 30.7254 84.0823 32.6405C83.5115 34.5372 82.7105 37.0691 81.6793 40.2364C81.2926 41.3965 81.0072 42.2712 80.823 42.8604C80.6389 43.4497 80.464 43.8087 80.2982 43.9376C80.0957 44.1402 79.8287 44.2415 79.4972 44.2415C79.1473 44.2599 78.8711 44.1678 78.6686 43.9653C78.5212 43.818 78.4292 43.6891 78.3923 43.5786C78.3187 43.4681 78.3187 43.3024 78.3923 43.0814C78.4292 42.8604 78.5305 42.5382 78.6962 42.1146C78.8435 41.7095 79.0276 41.1203 79.2486 40.3469L81.9555 31.6185C82.1581 30.9004 82.3238 30.2927 82.4527 29.7955C82.5816 29.2983 82.6737 28.9116 82.7289 28.6354C80.4087 30.2927 78.3187 32.0513 76.4589 33.9111C75.5566 34.8134 74.7371 35.7065 74.0006 36.5904C73.2456 37.4927 72.5642 38.3581 71.9566 39.1868ZM78.6962 46.2578C79.5064 45.6318 80.464 44.8031 81.5688 43.7719C82.6552 42.7591 83.7601 41.6911 84.8834 40.5678C86.0619 39.3893 87.1759 38.2016 88.2256 37.0047C89.2383 35.8078 90.159 34.795 90.9877 33.9663C91.3376 33.6165 91.6966 33.4231 92.0649 33.3863C92.4148 33.3679 92.7094 33.4784 92.9488 33.7177C93.0961 33.8651 93.179 34.0768 93.1974 34.353C93.179 34.6292 93.0409 34.9331 92.7831 35.2645C91.8624 36.4431 90.7759 37.7136 89.5238 39.0763C88.2532 40.4205 86.955 41.7556 85.6291 43.0814C84.6532 44.0573 83.7141 44.9781 82.8118 45.8435C81.8726 46.709 80.9796 47.4732 80.1325 48.1361C79.7826 48.4491 79.4512 48.578 79.1381 48.5228C78.8067 48.4491 78.5397 48.311 78.3371 48.1085C78.1714 47.8691 78.0977 47.5929 78.1161 47.2798C78.1161 46.9852 78.2542 46.6998 78.5305 46.4236L78.6962 46.2578ZM68.5028 34.7386C68.7422 35.0885 68.8619 35.4107 68.8619 35.7054C68.8435 36.0184 68.7514 36.2578 68.5857 36.4235C68.3831 36.6261 68.1161 36.7274 67.7846 36.7274C67.4532 36.7274 67.1217 36.5616 66.7903 36.2302C66.4404 35.8067 66.0721 35.3831 65.6854 34.9596C65.2987 34.5361 64.9028 34.1218 64.4977 33.7166C63.798 33.0169 63.1074 32.3632 62.4261 31.7555C61.7264 31.1294 61.0634 30.577 60.4374 30.0982C60.1243 29.7852 59.9678 29.463 59.9678 29.1315C59.931 28.8 60.0138 28.533 60.2164 28.3305C60.732 27.8149 61.4778 27.9346 62.4537 28.6896C63.4113 29.4261 64.8199 30.7243 66.6798 32.5842C67.6557 31.9028 68.6409 31.1386 69.6353 30.2916C70.6112 29.463 71.6148 28.533 72.646 27.5018C73.3089 26.8389 73.935 26.1944 74.5243 25.5683C75.1135 24.9423 75.6843 24.3162 76.2368 23.6901C76.5682 23.285 76.7984 22.9259 76.9273 22.6129C77.0194 22.2998 77.0286 21.996 76.9549 21.7013C76.8444 21.4067 76.6511 21.1029 76.3749 20.7898C76.0803 20.4584 75.7028 20.0625 75.2424 19.6021C74.6532 19.0129 74.0363 18.4696 73.3918 17.9725C72.7104 17.4753 72.0015 17.061 71.2649 16.7295C71.044 16.619 70.8598 16.4901 70.7125 16.3428C70.4731 16.1034 70.3718 15.8732 70.4087 15.6523C70.4271 15.4129 70.5192 15.2103 70.6849 15.0446C71.0348 14.6947 71.4859 14.575 72.0383 14.6855C72.5908 14.796 73.1616 15.017 73.7509 15.3484C74.3217 15.6615 74.8741 16.0482 75.4081 16.5085C75.9606 16.9505 76.4025 17.3372 76.734 17.6686C77.0838 18.0185 77.4705 18.4236 77.8941 18.884C78.3176 19.3075 78.6859 19.7863 78.9989 20.3203C79.2751 20.8543 79.4409 21.4251 79.4961 22.0328C79.5513 22.6405 79.3856 23.2666 78.9989 23.9111C78.649 24.5187 78.1519 25.2001 77.5074 25.955C76.8444 26.7284 76.1079 27.5202 75.2977 28.3305C74.6347 28.9934 73.9718 29.6379 73.3089 30.264C72.6092 30.8901 71.9463 31.4793 71.3202 32.0317C70.6941 32.5842 70.1232 33.0629 69.6077 33.468C69.0736 33.8916 68.6501 34.223 68.3371 34.4624C68.4291 34.5545 68.4752 34.6189 68.4752 34.6558C68.4568 34.6742 68.466 34.7018 68.5028 34.7386ZM71.6516 24.8502C71.9278 25.1632 72.0383 25.4579 71.9831 25.7341C71.9094 25.9919 71.7713 26.222 71.5688 26.4246C71.3846 26.6087 71.1452 26.7008 70.8506 26.7008C70.5376 26.6824 70.2521 26.5443 69.9943 26.2865C69.6813 25.9735 69.3775 25.6512 69.0828 25.3197C68.7698 24.9699 68.4568 24.6384 68.1437 24.3254C67.1309 23.3126 66.0721 22.3643 64.9673 21.4804C64.691 21.1673 64.5529 20.8635 64.5529 20.5689C64.5345 20.2558 64.599 20.0072 64.7463 19.8231C65.0225 19.5469 65.3724 19.4732 65.7959 19.6021C66.201 19.7494 66.6338 19.9796 67.0941 20.2927C67.5545 20.6057 68.0056 20.9648 68.4476 21.3699C68.8711 21.7934 69.2394 22.1617 69.5524 22.4747C69.9391 22.8614 70.3074 23.2481 70.6573 23.6348C70.9887 24.04 71.3202 24.4451 71.6516 24.8502ZM69.1922 12.4471C68.7135 12.8154 68.161 13.2573 67.5349 13.7729C66.872 14.2885 66.1815 14.8502 65.4633 15.4578C64.7452 16.0655 64.027 16.71 63.3089 17.3913C62.5723 18.0542 61.8634 18.7263 61.182 19.4077C60.2429 20.3468 59.4143 21.2675 58.6961 22.1698C57.9411 23.0721 57.3887 23.8823 57.0388 24.6005C56.8547 24.9688 56.6798 25.2358 56.514 25.4015C56.2378 25.6777 55.9708 25.8342 55.713 25.8711C55.4184 25.9079 55.179 25.8342 54.9949 25.6501C54.6634 25.3186 54.6266 24.7662 54.8844 23.9928C53.8532 22.9616 52.9785 21.7555 52.2603 20.3744C51.5238 18.9749 51.0358 17.5478 50.7964 16.0931C50.5386 14.62 50.5754 13.1837 50.9069 11.7842C51.2199 10.4031 51.9013 9.18777 52.9509 8.13816C53.7427 7.34635 54.6818 6.75709 55.7682 6.37039C56.8547 5.98369 57.9687 5.77193 59.1104 5.7351C60.2521 5.69827 61.3846 5.83638 62.5079 6.14942C63.5943 6.46246 64.5518 6.92282 65.3805 7.53049C65.6199 7.8067 65.6935 8.10133 65.6015 8.41437C65.491 8.74583 65.3344 9.01284 65.1319 9.21539C64.9846 9.36271 64.8096 9.46399 64.6071 9.51923C64.3677 9.57447 64.1467 9.53764 63.9442 9.40874C63.2444 8.9668 62.4618 8.64455 61.5964 8.442C60.6941 8.23944 59.801 8.17499 58.9171 8.24865C58.0148 8.30389 57.1677 8.48803 56.3759 8.80107C55.5473 9.11412 54.8475 9.55606 54.2767 10.1269C53.6138 10.7898 53.1995 11.6277 53.0337 12.6404C52.8496 13.6716 52.868 14.7397 53.089 15.8445C53.2731 16.9494 53.6414 18.0358 54.1938 19.1038C54.7094 20.1719 55.3447 21.1018 56.0997 21.8936C56.8363 20.9729 57.6097 20.0706 58.4199 19.1867C59.2117 18.2844 60.0496 17.3913 60.9334 16.5074C62.0935 15.3473 63.2444 14.2701 64.3861 13.2757C65.5094 12.2998 66.6511 11.4159 67.8112 10.6241C68.1242 10.4215 68.428 10.3387 68.7227 10.3755C68.9805 10.4123 69.2106 10.5136 69.4132 10.6793C69.5973 10.8635 69.717 11.1121 69.7723 11.4251C69.8091 11.7197 69.6802 12.0144 69.3856 12.309C69.3488 12.3458 69.3211 12.3734 69.3027 12.3918C69.2659 12.3918 69.2291 12.4103 69.1922 12.4471Z" fill="#434343"/>
</g>
<defs>
<filter id="filter0_d_540_2189" x="0" y="1" width="168" height="168" filterUnits="userSpaceOnUse" color-interpolation-filters="sRGB">
<feFlood flood-opacity="0" result="BackgroundImageFix"/>
<feColorMatrix in="SourceAlpha" type="matrix" values="0 0 0 0 0 0 0 0 0 0 0 0 0 0 0 0 0 0 127 0" result="hardAlpha"/>
<feOffset dy="4"/>
<feGaussianBlur stdDeviation="2"/>
<feComposite in2="hardAlpha" operator="out"/>
<feColorMatrix type="matrix" values="0 0 0 0 0 0 0 0 0 0 0 0 0 0 0 0 0 0 0.25 0"/>
<feBlend mode="normal" in2="BackgroundImageFix" result="effect1_dropShadow_540_2189"/>
<feBlend mode="normal" in="SourceGraphic" in2="effect1_dropShadow_540_2189" result="shape"/>
</filter>
</defs>
</svg>
